<svg width="17" height="16" viewBox="0 0 17 16" fill="none" xmlns="http://www.w3.org/2000/svg">
<path d="M15.2947 11.748L9.79662 2.24805C9.66472 2.02053 9.47535 1.83168 9.24749 1.70039C9.01962 1.5691 8.76126 1.5 8.49828 1.5C8.2353 1.5 7.97693 1.5691 7.74907 1.70039C7.5212 1.83168 7.33184 2.02053 7.19994 2.24805V2.24853L1.70189 11.748C1.56989 11.976 1.50026 12.2347 1.5 12.4982C1.49975 12.7616 1.56888 13.0205 1.70044 13.2487C1.832 13.4769 2.02135 13.6665 2.24944 13.7983C2.47753 13.9301 2.73631 13.9995 2.99974 13.9995H13.9968C14.2602 13.9995 14.519 13.9301 14.7471 13.7983C14.9752 13.6665 15.1646 13.4769 15.2961 13.2487C15.4277 13.0205 15.4968 12.7616 15.4966 12.4982C15.4963 12.2347 15.4267 11.976 15.2947 11.748ZM7.99779 6.5C7.99779 6.36739 8.05047 6.24021 8.14424 6.14644C8.238 6.05268 8.36518 6 8.49779 6C8.6304 6 8.75758 6.05268 8.85134 6.14644C8.94511 6.24021 8.99779 6.36739 8.99779 6.5V9C8.99779 9.13261 8.94511 9.25978 8.85134 9.35355C8.75758 9.44732 8.6304 9.5 8.49779 9.5C8.36518 9.5 8.238 9.44732 8.14424 9.35355C8.05047 9.25978 7.99779 9.13261 7.99779 9V6.5ZM8.49816 12.0002C8.34982 12.0002 8.20481 11.9562 8.08148 11.8738C7.95814 11.7914 7.86201 11.6742 7.80525 11.5372C7.74848 11.4001 7.73363 11.2493 7.76257 11.1039C7.79151 10.9584 7.86294 10.8247 7.96783 10.7198C8.07271 10.615 8.20635 10.5435 8.35184 10.5146C8.49732 10.4857 8.64812 10.5005 8.78517 10.5573C8.92221 10.614 9.03935 10.7102 9.12176 10.8335C9.20417 10.9568 9.24816 11.1018 9.24816 11.2502C9.24815 11.4491 9.16913 11.6398 9.02847 11.7805C8.88782 11.9211 8.69706 12.0002 8.49816 12.0002Z" fill="#FF0000"/>
</svg>
