<svg width="787" height="608" viewBox="0 0 787 608" fill="none" xmlns="http://www.w3.org/2000/svg">
<path d="M278.542 0.348389C275.614 0.893799 270.755 3.07568 267.827 5.1969C263.84 7.9848 261.722 11.5605 261.722 15.3788C261.722 17.9849 261.971 18.5303 264.151 20.5303C265.896 22.1667 267.64 23.0152 270.194 23.6819C273.745 24.4698 273.808 24.5304 274.493 27.1971C274.929 28.7122 275.988 31.3183 276.86 33.0759C279.103 37.379 279.041 38.9548 276.362 41.5609L274.182 43.6821L271.752 41.8032C267.266 38.3487 264.089 37.379 258.171 37.6214C253 37.8032 252.875 37.8638 250.819 40.0457C246.209 44.8942 246.396 53.1973 251.255 60.6519C255.056 66.4702 260.164 69.5004 267.204 69.9853C270.693 70.2883 271.69 70.1065 273.434 69.0762C276.113 67.4398 277.67 64.7731 278.792 60.0458C279.913 55.2579 281.471 53.5609 285.956 52.2276C287.887 51.6215 289.632 50.8942 289.881 50.5912C290.753 49.3185 296.983 51.0154 309.692 55.9852C333.054 65.1368 342.773 70.2277 361.151 82.9551C371.119 89.8643 383.018 101.44 387.192 108.228C390.868 114.349 394.606 123.743 396.226 131.077C398.904 143.198 401.895 170.532 401.895 182.895C401.895 190.653 400.462 200.289 398.842 203.926C395.914 210.35 387.815 220.896 378.719 230.108C373.985 234.896 369.312 237.623 361.836 239.865C355.42 241.744 351.059 242.35 337.727 243.017C308.197 244.472 292.871 244.411 293.868 242.835C294.18 242.411 293.743 242.29 292.684 242.593C291.75 242.775 290.878 242.653 290.691 242.29C290.442 241.926 289.881 241.805 289.445 241.987C289.009 242.108 286.454 241.866 283.713 241.441C281.034 240.956 275.428 239.987 271.191 239.32C267.017 238.653 262.968 237.865 262.158 237.562C261.41 237.32 260.413 237.199 259.915 237.381C259.479 237.502 258.918 237.381 258.669 237.078C258.482 236.714 256.052 235.987 253.311 235.381C232.815 231.017 214.25 220.653 209.951 211.199C209.266 209.683 207.771 204.471 206.587 199.562C203.098 184.956 202.974 184.714 197.18 178.653C193.566 174.895 191.324 171.865 189.517 168.35C186.838 163.138 177.182 135.38 176.559 131.137C176.372 129.622 176.683 126.895 177.306 124.289L178.428 119.986L176.933 117.077C175.811 114.955 174.69 113.743 172.634 112.652C170.08 111.258 169.208 111.137 162.978 111.198C155.315 111.258 150.892 112.47 145.97 115.864C142.917 117.986 139.802 122.228 139.242 125.077C138.743 127.683 140.238 130.895 142.855 132.834C145.472 134.774 155.003 136.956 158.679 136.471L161.296 136.168L162.666 139.683C166.591 149.683 167.152 151.804 167.214 156.289C167.401 164.956 163.725 168.471 153.944 168.895C149.334 169.138 147.964 168.956 144.039 167.562C135.94 164.713 129.025 158.713 125.287 151.259C122.172 145.077 120.427 143.986 113.45 144.289C107.22 144.531 104.603 145.562 100.741 149.38C93.2026 156.895 91.4582 168.41 97.1274 173.441C98.6226 174.774 104.105 176.289 107.594 176.289C109.027 176.289 111.394 175.683 113.014 174.895L115.879 173.441L122.919 176.41C132.326 180.35 144.163 184.229 148.088 184.592C149.895 184.774 154.879 184.471 159.24 183.865C169.831 182.41 172.447 182.956 177.618 187.562C182.166 191.683 189.143 200.714 190.389 204.108C192.881 211.017 194.189 230.229 192.507 236.593C191.511 240.653 189.704 244.047 187.337 246.472C185.031 248.956 183.163 249.926 178.054 251.441C175.375 252.229 173.568 253.26 172.136 254.775C168.958 258.047 160.423 262.835 154.692 264.593C150.393 265.866 148.711 266.108 144.039 265.866C138.868 265.623 138.369 265.502 135.379 263.381C131.579 260.654 128.402 256.169 128.402 253.623C128.402 252.593 128.838 250.411 129.336 248.775C131.703 241.138 129.523 235.562 123.355 233.865C120.49 233.017 111.456 234.108 108.217 235.684C101.8 238.653 96.1929 246.108 95.6322 252.29C94.9469 259.078 99.4325 262.472 109.338 262.775C114.447 262.896 115.07 263.078 116.752 264.593C119.306 266.957 120.926 270.351 120.926 273.26C120.926 275.381 120.676 275.866 118.932 276.896C115.817 278.714 112.889 278.411 107.594 275.745C103.357 273.502 102.547 273.32 97.9996 273.32C91.8943 273.32 89.4646 274.411 87.471 278.108C83.8577 284.714 87.5956 296.533 95.0715 302.108C96.3175 303.018 98.7472 304.169 100.554 304.654C110.148 307.321 113.886 305.745 116.876 297.805C118.06 294.654 119.991 292.048 121.175 292.048C121.549 292.048 122.67 291.624 123.667 291.139C124.601 290.654 125.66 290.351 125.972 290.533C126.719 291.017 139.802 287.745 148.026 285.078C157.682 281.926 174.503 275.381 180.421 272.472C183.163 271.138 189.953 267.26 195.56 263.805C207.148 256.593 212.132 254.047 218.735 251.866C225.401 249.623 227.893 249.441 238.733 250.229C251.38 251.138 262.968 253.138 279.228 257.138C310.004 264.835 309.692 264.714 314.364 269.745C321.529 277.442 323.772 287.987 322.214 306.957C320.594 326.533 318.165 337.563 313.43 346.897C306.328 360.836 296.609 367.503 271.067 375.927C241.225 385.685 221.414 388.776 187.897 388.655C171.45 388.655 166.03 388.412 156.81 387.321C150.642 386.594 145.347 385.746 144.973 385.442C144.599 385.2 142.917 384.655 141.173 384.23C136.002 383.018 127.093 378.412 121.175 373.927C118.122 371.624 112.142 366.957 107.967 363.624C93.701 352.473 80.4312 343.927 65.6664 336.472C60.5578 333.927 55.8231 331.321 55.0132 330.654C54.2656 329.927 53.0819 327.563 52.3966 325.321C50.2785 318.412 47.5996 316.351 40.5598 316.351C32.897 316.351 26.6671 320.351 22.9914 327.684C21.1848 331.26 20.9356 332.29 20.9356 336.897C20.9356 341.382 21.1225 342.291 22.4308 344.109C24.1751 346.472 26.7294 347.624 31.4018 348.169C35.8251 348.654 38.6285 348.169 41.432 346.291L43.7371 344.775L53.8295 350.169C77.1294 362.594 84.7922 367.745 91.0221 375.2C97.6881 383.2 99.4948 389.624 96.629 395.321C93.7633 401.14 88.2809 404.109 77.9393 405.382C73.7029 405.928 29.9689 407.321 29.5952 406.958C29.5952 406.897 28.2246 405.321 26.5425 403.382C22.8045 399.018 20.7487 397.927 15.9516 397.746C8.97414 397.503 5.17389 399.746 2.49503 405.624C0.439157 410.109 0.439157 418.897 2.49503 423.382C4.11481 426.958 7.91505 430.655 10.4693 431.14C11.4661 431.382 13.3974 431.807 14.768 432.17C18.319 433.019 21.7455 431.443 26.231 426.958L29.5952 423.564H38.2547C49.6555 423.564 63.0498 422.594 74.2013 421.019C79.1853 420.352 83.7954 419.806 84.4807 419.806C86.2251 419.928 95.3207 417.806 101.301 415.928C108.341 413.685 113.699 410.776 119.244 406.352C121.922 404.17 125.349 401.988 127.031 401.443C128.651 400.897 130.52 400.109 131.205 399.746C131.89 399.382 135.94 398.958 140.238 398.837C148.711 398.594 156.436 399.746 163.538 402.352C168.647 404.231 169.519 405.261 169.519 409.321C169.519 416.049 165.407 421.079 145.721 438.231C139.927 443.261 133.822 449.14 132.015 451.382C130.208 453.564 127.654 456.534 126.346 457.928C123.978 460.413 123.978 460.413 121.86 459.564C120.552 459.079 117.562 458.716 114.26 458.716C108.03 458.716 105.662 459.686 103.42 463.079C100.741 467.201 102.984 474.837 108.528 480.777C112.079 484.595 116.066 486.777 121.922 488.171C127.716 489.504 130.395 489.019 133.448 486.11C135.254 484.352 135.877 483.08 136.438 480.231C136.874 478.231 137.373 476.11 137.56 475.504C138.432 472.352 168.46 440.534 180.733 429.746C199.298 413.382 214.873 404.776 232.753 401.079C234.808 400.655 236.802 400.109 237.238 399.746C237.674 399.443 238.297 399.382 238.671 399.624C238.983 399.806 239.294 399.685 239.294 399.321C239.294 399.018 240.042 398.715 241.038 398.715C241.973 398.715 247.331 397.927 253 396.958C258.669 395.927 264.837 395.018 266.706 394.837C273.932 394.17 282.405 392.049 302.216 385.685C309.941 383.261 317.853 380.897 319.847 380.412C321.778 379.988 323.398 379.442 323.398 379.2C323.398 378.533 324.768 378.473 342.773 378.533C368.191 378.594 383.267 380.594 388.625 384.533C391.428 386.594 393.547 391.079 394.481 396.837C395.416 402.958 394.543 409.079 390.307 426.352C388.438 433.988 386.507 443.625 386.008 447.807C382.707 474.11 379.654 485.625 371.804 500.837C365.637 512.898 355.793 524.838 338.599 541.141C327.011 552.171 321.529 556.595 317.916 557.808C314.925 558.777 303.774 559.141 304.334 558.232C304.646 557.686 293.183 555.262 288.074 554.838C284.212 554.474 282.592 553.262 279.415 548.353C276.424 543.807 273.932 542.474 268.325 542.413C263.341 542.413 260.912 543.262 258.046 546.05C254.495 549.504 252.252 554.959 251.941 561.02C251.692 565.929 251.754 566.535 253.436 569.626C255.554 573.626 258.981 575.626 264.712 576.111C269.447 576.535 271.939 575.262 277.172 569.989L281.097 565.989H285.645C288.137 565.989 291.625 566.414 293.37 566.899C298.104 568.293 299.039 570.899 296.422 575.323C295.052 577.626 294.989 577.687 291.314 577.808C284.959 577.929 281.969 581.02 282.156 587.262C282.218 591.99 284.586 596.778 288.697 600.778C292.747 604.717 294.553 605.687 301.032 607.263C308.321 609.02 312.433 607.687 314.738 602.717C316.233 599.505 316.233 596.717 314.676 591.929C312.558 585.384 312.745 584.717 318.289 579.384C320.906 576.838 329.005 569.686 336.169 563.565C352.118 549.868 370.683 532.05 377.349 523.807C380.152 520.474 384.451 514.534 386.943 510.656C389.435 506.777 392.363 502.777 393.422 501.807L395.353 499.989L398.593 501.383C400.836 502.413 404.636 505.504 411.364 511.868C416.597 516.777 424.011 523.201 427.749 526.05C437.966 533.868 438.527 535.201 439.274 553.565C439.586 560.595 439.96 566.899 440.209 567.565C440.583 568.656 440.271 569.02 438.464 569.565C435.349 570.596 431.362 573.505 430.241 575.626C427.936 579.99 429.992 585.141 435.1 588.05C436.533 588.899 439.96 590.111 442.701 590.838C452.046 593.262 460.83 591.687 465.938 586.535C470.673 581.808 469.925 577.141 463.322 570.899C460.082 567.929 458.961 566.292 457.715 563.08C454.6 555.08 454.164 549.626 456.406 547.807C456.905 547.383 457.154 546.777 456.967 546.474C456.157 545.262 461.951 547.565 477.588 554.777C486.497 558.838 487.245 559.626 487.182 564.353C487.182 565.747 486.559 568.535 485.749 570.535L484.317 574.171L481.264 574.535C475.719 575.202 470.984 578.474 469.988 582.232C469.053 585.929 472.978 591.808 478.273 594.596C479.956 595.444 483.631 596.778 486.497 597.505C498.209 600.596 507.928 597.202 509.361 589.565C509.859 586.838 508.364 583.202 505.124 579.444C502.632 576.535 502.321 574.777 503.816 571.99C505.124 569.444 508.987 565.383 510.046 565.383C510.544 565.383 510.918 565.08 510.918 564.717C510.918 564.353 511.479 564.171 512.164 564.353C512.85 564.535 513.41 564.414 513.41 564.111C513.41 563.868 513.784 563.747 514.282 563.929C514.781 564.111 516.276 563.929 517.709 563.565C520.014 562.959 520.45 563.08 522.693 564.474C525.434 566.292 532.1 567.626 534.779 566.959C537.458 566.353 541.756 562.111 543.314 558.656C544.061 556.959 544.809 553.747 544.996 551.444C545.619 543.989 542.068 536.05 536.959 533.686C534.592 532.595 527.303 532.413 524.749 533.323C521.198 534.656 517.584 539.686 516.774 544.595C516.401 546.717 515.964 547.141 511.666 549.565L506.993 552.292L488.864 543.383C460.144 529.383 454.226 525.868 439.274 513.868C435.661 511.019 429.992 506.656 426.69 504.171C422.703 501.262 419.712 498.474 418.03 496.11C416.597 494.171 413.171 490.171 410.305 487.201C403.141 479.686 402.206 477.686 402.331 469.322C402.455 457.079 404.138 447.928 411.925 417.2C415.476 403.14 416.66 399.321 419.027 394.776C422.453 388.109 428.434 380.715 438.34 371.079C451.921 357.806 463.945 350.472 477.526 347.2C483.694 345.685 499.891 340.412 500.39 339.745C501.075 338.836 505.436 340.048 520.886 345.382C557.767 358.17 568.233 360.776 591.596 363.2C616.141 365.806 632.775 365.988 646.855 363.806C648.786 363.503 649.285 363.685 650.094 364.897C652.15 367.927 661.059 410.897 663.863 431.322L664.797 438.231L662.99 440.413C660.125 443.928 652.649 450.716 645.484 456.292C641.871 459.079 636.451 463.564 633.461 466.292C622.496 475.989 609.039 484.534 602.747 485.746C601.003 486.049 600.754 485.868 599.881 484.049C599.321 482.958 598.449 480.655 597.888 478.958C596.766 475.686 594.524 473.14 591.783 472.11C590.848 471.807 587.982 471.564 585.428 471.686C581.752 471.867 580.195 472.231 577.952 473.504C571.037 477.443 566.365 487.201 567.673 495.201C568.545 500.474 571.099 502.656 577.89 504.11C582.002 505.019 586.362 503.807 590.599 500.534C593.901 497.989 594.897 497.928 596.766 500.11C597.389 500.837 597.078 501.322 595.271 502.656C587.235 508.595 590.163 517.383 601.19 520.292C603.121 520.777 605.738 521.504 606.984 521.868C613.463 523.747 624.365 520.474 628.041 515.565C632.464 509.625 630.844 504.959 622.683 499.746C619.568 497.746 618.945 496.656 619.568 494.171C620.253 491.565 623.119 489.019 636.7 479.019C644.114 473.564 654.767 465.443 660.436 460.898C670.279 453.079 676.509 449.019 678.814 449.019C682.802 449.019 687.536 454.17 689.654 460.837C692.084 468.473 691.96 475.504 688.969 489.08L687.599 495.565L684.359 496.837C675.824 500.292 671.899 507.383 675.575 512.716C679.749 518.716 694.265 521.201 702.924 517.383C709.341 514.474 713.39 509.747 713.39 505.08C713.39 502.05 712.082 499.928 708.406 496.898C703.796 493.14 703.796 493.14 705.042 484.292C705.728 479.08 705.977 474.534 705.728 469.928C705.105 457.625 702.239 452.049 690.34 440.231C680.995 430.897 678.565 426.352 675.139 411.443C672.211 398.412 670.84 386.715 671.214 376.594C671.712 361.26 672.709 360.412 687.848 362.654C696.445 363.927 703.485 365.806 722.299 371.745L738.933 377.079V379.564V382.049L735.569 382.17C730.959 382.291 728.529 383.685 727.034 386.958C725.663 389.988 725.85 392.533 727.844 396.655C729.277 399.746 733.825 404.291 737.313 406.291C740.366 407.988 748.589 410.231 751.829 410.231C755.193 410.17 759.243 408.231 760.675 405.928C763.354 401.685 762.856 397.382 759.056 391.321C757.872 389.382 756.875 387.018 756.875 385.988C756.813 383.564 760.364 376.715 762.669 374.836C764.413 373.382 764.663 373.321 766.282 374.109C768.525 375.261 774.132 376.473 777.683 376.533C780.86 376.594 782.979 375.442 785.284 372.473C787.215 369.927 787.402 363.624 785.657 359.2C783.975 354.836 779.116 349.503 774.817 347.321C772.076 345.927 770.893 345.745 765.659 345.745C758.993 345.685 757.249 346.351 755.131 349.806C753.636 352.109 753.511 356.897 754.757 360.351L755.629 362.776L751.331 364.351C748.963 365.26 746.471 365.988 745.786 365.988C745.038 365.988 741.923 364.897 738.746 363.624C732.267 360.957 725.227 358.836 716.505 356.897C694.14 351.927 690.9 350.897 689.592 348.109C689.218 347.321 689.094 345.988 689.343 345.078C689.717 343.624 749.524 284.351 753.324 281.745C754.882 280.654 755.006 280.654 758.308 281.684C767.279 284.654 768.401 284.775 772.325 283.017C782.418 278.532 778.057 261.987 765.099 255.805C762.108 254.35 760.925 254.169 755.754 254.169C746.222 254.169 743.543 256.35 743.668 264.108L743.73 268.532L738.372 274.108C735.382 277.139 727.408 285.623 720.555 292.957C704.295 310.472 678.939 335.139 672.335 339.866C666.355 344.169 658.692 347.927 653.272 349.26C644.363 351.442 628.477 352.109 614.646 350.836C602.996 349.745 569.542 344.957 568.545 344.169C568.233 343.927 565.243 343.139 562.004 342.351C544.186 338.23 524.001 328.533 515.03 319.745C503.505 308.533 499.829 296.048 502.508 277.502C503.069 273.987 503.692 266.957 504.065 261.805C504.813 249.684 505.81 247.381 514.158 239.562C521.135 233.078 525.745 229.926 540.51 221.744C554.839 213.865 558.328 211.441 570.102 201.623C579.447 193.805 587.048 186.774 597.14 176.41C601.065 172.35 602.311 171.501 603.37 171.804C605.115 172.289 615.269 178.835 622.994 184.41C626.359 186.835 630.657 189.683 632.464 190.714C636.949 193.198 652.898 198.411 660.685 199.986C669.033 201.683 680.621 202.168 687.972 201.138C691.15 200.714 694.451 200.411 695.324 200.411C696.258 200.471 699.186 199.865 701.99 199.077L707.036 197.683L710.275 201.259C713.951 205.32 715.446 206.168 720.804 207.38C726.909 208.774 730.71 207.199 733.513 202.168C735.631 198.289 735.444 190.592 733.139 185.804C729.277 177.683 724.604 174.471 716.505 174.471C712.518 174.471 711.335 174.713 709.59 175.865C707.597 177.198 705.852 180.35 704.98 184.289C704.793 185.441 704.232 185.986 703.485 185.986C702.862 185.986 699.622 186.835 696.258 187.804C692.894 188.774 689.841 189.623 689.405 189.623C687.225 189.623 686.29 181.259 687.91 176.471C688.471 174.774 689.343 174.047 693.33 172.107C698.501 169.562 700.432 167.926 701.491 165.198C703.796 159.259 699.747 153.38 691.212 150.228C688.658 149.319 686.29 149.016 681.805 149.016C673.955 149.016 669.407 150.228 665.732 153.38C662.617 156.047 661.744 158.592 662.928 161.986C663.738 164.41 667.912 168.35 670.902 169.562C672.398 170.168 672.834 170.653 672.584 171.441C672.398 171.986 671.837 174.653 671.339 177.38C670.03 184.592 668.722 186.714 664.735 187.804C663.115 188.289 661.869 188.107 658.879 187.138C653.583 185.32 651.465 184.168 641.56 177.986C636.7 174.956 629.162 170.471 624.739 167.986C614.21 162.168 613.4 161.562 611.407 158.228C609.725 155.441 609.662 155.198 609.662 145.683C609.725 135.44 610.535 129.077 612.653 123.561C613.899 120.228 617.138 115.077 617.948 115.077C618.197 115.077 619.194 116.592 620.191 118.41C622.247 122.228 624.178 123.804 628.477 125.077C632.526 126.289 635.143 126.228 638.008 124.774C644.674 121.44 647.976 110.592 645.173 101.319C644.052 97.6219 640.002 92.9552 637.199 92.1067C633.398 90.9552 627.791 91.3188 624.676 92.9552L621.811 94.4097V92.8946C621.811 89.5006 618.447 85.6824 613.4 83.4399C610.659 82.2278 609.289 82.046 602.498 82.046C595.396 82.046 594.399 82.1672 591.284 83.6218C582.687 87.5612 580.569 94.4703 586.425 99.7431C588.231 101.38 594.274 104.167 596.143 104.167C597.888 104.167 597.888 105.077 596.268 110.228C594.96 114.41 593.776 122.168 592.219 136.289C591.097 146.228 589.54 152.895 586.985 158.289C582.811 167.319 564.932 186.714 551.662 196.774C544.435 202.229 524.25 214.593 509.984 222.411C495.032 230.532 477.09 238.35 465.564 241.684L461.017 243.017L457.466 241.744C450.114 239.138 445.13 234.108 442.015 226.29C440.146 221.502 437.53 217.32 433.667 212.956C429.369 208.108 426.939 204.108 425.942 200.229C424.696 195.32 420.398 165.925 418.404 148.713C416.535 132.713 416.037 129.925 411.863 114.167C406.505 93.9855 406.256 90.3491 409.62 83.3187C412.673 76.8945 419.712 69.3187 425.568 66.2277C426.752 65.6216 427.936 64.8337 428.123 64.5913C428.746 63.7429 432.359 65.8641 435.785 69.0156C437.53 70.5914 441.143 73.2581 443.76 74.955C446.376 76.7126 449.242 79.0157 450.114 80.1066C451.796 82.2278 453.416 87.9855 452.482 88.2885C450.363 88.9551 445.006 93.3795 443.822 95.3795C439.337 103.137 445.504 109.016 459.771 110.652C467.309 111.501 477.464 106.713 480.329 100.955C482.946 95.6825 481.762 91.8036 476.218 87.743C473.913 86.1066 472.916 84.8945 472.916 83.9854C472.916 82.2278 475.408 79.8642 479.706 77.5612L483.133 75.8035L486.248 76.8945C491.979 78.8339 495.281 79.5005 498.521 79.1975C503.754 78.7126 507.18 75.3793 507.679 70.2883C508.302 63.8035 501.449 54.8943 493.599 52.0458C490.609 50.9548 489.051 50.773 483.756 50.9548C477.028 51.1973 475.096 51.864 473.165 54.7731C472.044 56.4094 471.732 60.4701 472.417 63.0762C472.853 64.5307 472.604 64.8337 469.365 66.8337C462.387 71.0762 459.521 70.4095 450.8 62.3489C447.747 59.5004 442.888 55.3185 440.084 53.076C431.611 46.2881 427.437 39.7426 429.182 35.985C430.241 33.7426 432.234 32.8335 440.271 30.6517L447.685 28.7122L450.675 30.6517C452.357 31.7426 454.911 32.9547 456.282 33.3184C457.715 33.6213 459.833 34.2274 460.954 34.5911C465.378 35.8638 470.112 33.6819 472.293 29.3183C476.031 21.8031 470.86 9.9848 461.577 5.07568C458.587 3.49988 457.715 3.31805 452.606 3.31805C448.245 3.31805 446.563 3.56049 445.255 4.34839C443.074 5.74237 441.33 8.59088 440.832 11.4999C440.52 13.3182 440.084 13.9243 438.589 14.4091C437.53 14.7727 434.353 16.4091 431.549 18.1061C428.683 19.7424 426.191 21.1364 426.067 21.1364C425.88 21.1364 425.693 19.197 425.631 16.7728C425.506 12.106 424.759 10.1666 422.142 7.80298C420.647 6.409 419.899 6.28778 414.292 6.10596C408.561 5.86359 407.875 5.98474 404.2 7.62115C392.363 13.0757 386.756 27.3789 394.419 32.7729C396.288 34.1062 401.646 35.2578 406.193 35.3184L409.62 35.379L411.8 40.5305C414.417 46.8336 415.04 52.0458 413.42 55.3185C411.863 58.4094 399.029 71.3187 393.048 75.6823C388.937 78.7126 387.691 79.3187 385.635 79.3187C384.326 79.3187 382.707 79.0763 382.084 78.7733C381.523 78.4702 379.218 77.3793 376.975 76.4096C374.732 75.4399 368.565 71.8641 363.269 68.4095C356.603 64.1671 349.252 60.1671 339.596 55.5609C315.174 43.9851 312.807 42.8336 306.39 38.7123C299.911 34.5911 294.616 29.6819 293.494 26.894C292.373 24.1061 292.809 22.6516 295.737 18.9546C299.101 14.8333 300.347 12.2272 300.347 9.62115C300.347 5.80298 296.796 1.74231 292.373 0.530151C290.13 -0.0758667 281.533 -0.197083 278.542 0.348389Z" fill="#EAE6DD"/>
</svg>
