<svg width="122" height="58" viewBox="0 0 122 58" fill="none" xmlns="http://www.w3.org/2000/svg">
<g clip-path="url(#clip0_1981_3576)">
<path d="M9.8271 35.7264H0V35.9297C3.0683 35.9297 3.294 35.5478 3.294 39.564L3.1842 54.1625C3.1842 58.2649 3.1842 57.7968 0.2074 57.7968V58.0062H8.2289V57.7968C5.368 57.7968 4.9776 58.1294 4.9349 54.914L4.9898 48.2677C5.7523 48.3477 7.4298 48.514 9.1195 48.5572C9.333 48.5572 9.5465 48.5695 9.7661 48.5695H9.9735C15.1463 48.5695 18.5989 45.89 18.5989 41.9293C18.5989 37.9686 15.2927 35.7572 9.8332 35.7388L9.8271 35.7264ZM9.394 48.2122H9.15C7.686 48.1691 6.1244 47.7626 4.9959 47.0172L5.0569 39.564C5.0569 38.0363 5.0569 37.1432 5.2094 36.6196C5.3863 36.1145 5.6913 36.0529 6.2342 36.0529H9.4245C14.152 36.0529 16.5493 37.9932 16.5493 41.8985C16.5493 45.8038 13.9995 48.2184 9.394 48.2184V48.2122Z" fill="#222426"/>
<path d="M36.5631 54.9201L36.679 39.5701C36.679 35.4677 36.679 35.9358 39.6558 35.9358V35.7264H31.6221V35.9358C34.6965 35.9358 34.9222 35.5539 34.9222 39.5701L34.8551 47.9042C31.3964 49.5242 26.9678 49.5242 23.5091 47.9042L23.5762 39.5146C23.5762 35.4123 23.5762 35.8866 26.553 35.8866V35.6771H18.5254V35.8866C21.5937 35.8866 21.8194 35.4985 21.8194 39.5146L21.7096 54.1132C21.7096 58.2156 21.7096 57.7413 18.7328 57.7413V57.9507H26.7604V57.7413C23.8995 57.7413 23.5091 58.0739 23.4664 54.8585L23.5152 48.6495C27.1996 49.6967 31.1768 49.6967 34.8612 48.6495L34.8185 54.1625C34.8185 58.2648 34.8185 57.7967 31.8417 57.7967V58H39.8754V57.7967C37.0084 57.7967 36.618 58.1232 36.5814 54.914L36.5631 54.9201Z" fill="#222426"/>
<path d="M45.3414 54.914L45.4573 39.564C45.4573 35.4616 45.4573 35.9297 48.4341 35.9297V35.7264H40.4004V35.9297C43.4748 35.9297 43.7005 35.5478 43.7005 39.564L43.5846 54.1625C43.5846 58.2649 43.5846 57.7968 40.6078 57.7968V58.0062H48.6415V57.7968C45.7745 57.7968 45.3902 58.1232 45.3475 54.914H45.3414Z" fill="#222426"/>
<path d="M65.4345 35.9235C68.2954 35.9235 68.6858 37.5435 68.7224 40.7527L68.6126 54.1501C68.6126 54.4766 68.6126 54.7661 68.6126 55.031L54.8571 37.408C54.4118 36.8721 53.9604 36.2869 53.7042 35.868C53.6676 35.8126 53.6371 35.7695 53.6188 35.7202H49.1963V35.9235H49.9405C50.0625 35.9235 50.1784 35.9235 50.2943 35.9235H50.3309C51.8498 35.9112 52.3073 36.0344 52.4415 37.6174C52.4537 37.7899 52.4659 37.987 52.472 38.1964C52.472 38.295 52.472 38.4059 52.472 38.5106C52.472 38.8247 52.4842 39.1758 52.4842 39.5577L52.3683 52.2098C52.3683 56.3183 52.3683 57.7844 49.3915 57.7844V57.9938H56.0222V57.7844C53.1552 57.7844 52.7709 56.1705 52.7282 52.9613L52.8441 39.5577C52.8441 38.9233 52.8441 38.3997 52.8563 37.9624V37.8207L68.0087 57.384C68.0697 57.4579 68.1063 57.5257 68.1612 57.5811C68.3076 57.7782 68.4296 57.9137 68.5455 57.9938H68.9664V57.2115L69.0823 41.5042C69.0823 37.4018 69.0823 35.9296 72.0591 35.9296V35.7264H65.4284V35.9296L65.4345 35.9235Z" fill="#222426"/>
<path d="M77.5064 54.914L77.6223 39.564C77.6223 35.4616 77.6223 35.9297 80.5992 35.9297V35.7264H72.5654V35.9297C75.6398 35.9297 75.8655 35.5478 75.8655 39.564L75.7496 54.1625C75.7496 58.2649 75.7496 57.7968 72.7728 57.7968V58.0062H80.8065V57.7968C77.9395 57.7968 77.5491 58.1232 77.5125 54.914H77.5064Z" fill="#222426"/>
<path d="M112.704 35.7325L112.692 35.9913C112.85 35.9913 114.034 35.9913 114.516 35.9913C117.102 35.9913 116.303 38.6892 115.376 40.2661L111.38 47.2451L107.769 40.9437C105.469 36.9275 105.213 36.0344 107.324 36.0344H109.471V35.7325L99.5951 35.7449V35.7325H82.0576L81.5391 43.5739H81.7709L82.0271 41.7383C82.6615 37.3156 83.7473 35.9913 87.328 35.9913C87.7367 35.9913 88.2003 35.9789 88.67 35.9728C89.8717 36.0898 89.9876 36.7058 89.9876 39.5885L89.8778 54.1871C89.8778 58.2895 89.8778 57.8213 86.901 57.8213V58.0246H94.9286V57.8213C92.0677 57.8213 91.6773 58.1478 91.6346 54.9386L91.7505 39.5885C91.7505 36.6565 91.7505 36.0652 92.8363 35.9605L94.3186 35.9913C97.8993 35.9913 98.9851 37.3156 99.6256 41.7383L99.8818 43.5739H100.107L99.6195 36.0344H101.163C102.95 36.0344 103.658 36.9953 105.829 40.7835L109.855 47.7871V51.9388C109.855 57.5934 109.697 57.7166 108.129 57.7166H106.018V58.0061H115.455V57.7166H113.344C111.777 57.7166 111.618 57.5934 111.618 51.9388V47.627L115.736 40.3647C116.852 38.4367 118.517 36.0282 120.335 36.0282L122 36.0159V35.7387H112.704V35.7325Z" fill="#222426"/>
<path d="M59.9568 6.11045C58.9076 7.23768 57.9255 8.42651 57.0288 9.68309C58.2732 8.77761 59.4505 7.7859 60.5668 6.72642C60.6156 8.27251 60.7559 9.81861 60.9999 11.3462C61.2439 9.81861 61.3842 8.27251 61.433 6.72642C62.5493 7.7859 63.7266 8.77761 64.971 9.68309C64.0743 8.42651 63.0922 7.23768 62.043 6.11045C63.5741 6.06733 65.1052 5.92566 66.618 5.67311C65.1052 5.42056 63.5741 5.27889 62.043 5.23577C63.0922 4.10854 64.0743 2.91971 64.971 1.66313C63.7266 2.56861 62.5493 3.56032 61.433 4.6198C61.3903 3.0737 61.25 1.52761 60.9999 0C60.7498 1.52761 60.6095 3.0737 60.5668 4.6198C59.4505 3.56032 58.2732 2.56861 57.0288 1.66313C57.9255 2.91971 58.9076 4.10854 59.9568 5.23577C58.4257 5.28505 56.8946 5.42672 55.3818 5.67311C56.8946 5.9195 58.4257 6.06117 59.9568 6.11045Z" fill="#0033CC"/>
<path d="M43.6026 18.4792C43.7124 18.8365 44.7006 18.3622 45.6949 17.777C46.3232 18.9288 47.0247 20.013 47.7079 20.9431C50.3797 24.8607 54.18 27.8543 60.9998 27.2938C67.8135 27.8543 71.6199 24.8607 74.2917 20.9431C74.9688 20.013 75.6764 18.9288 76.3047 17.777C77.299 18.3622 78.2872 18.8365 78.397 18.4792C78.5129 18.0973 78.0371 16.4465 77.5491 14.9312C78.6959 11.0321 77.1709 7.41632 72.1567 7.04673C72.1567 7.04673 71.7663 6.7449 70.8635 6.02422C70.0339 5.37129 68.6675 5.61151 69.9119 7.12681C69.9119 7.12681 72.2848 10.7056 70.3267 13.0648C66.0079 14.7649 61.8782 20.1485 61.4207 22.1257C61.1157 23.4501 62.293 23.3577 62.293 23.3577C63.9583 21.171 65.8737 19.9144 67.2218 19.2307C67.9538 18.8611 68.7834 19.5202 68.5455 20.284C66.9778 25.3042 63.2507 26.3575 61.0669 26.2959C61.0425 26.2959 61.0242 26.302 60.9998 26.3082C60.9754 26.3082 60.9571 26.2959 60.9327 26.2959C58.7489 26.3575 55.0218 25.3042 53.4541 20.284C53.2162 19.5202 54.0458 18.8611 54.7778 19.2307C56.132 19.9144 58.0413 21.171 59.7066 23.3577C59.7066 23.3577 60.8839 23.4501 60.5789 22.1257C60.1214 20.1485 55.9917 14.771 51.6729 13.0648C49.7148 10.7056 52.0877 7.12681 52.0877 7.12681C53.3382 5.61151 51.9657 5.37129 51.1361 6.02422C50.2272 6.7449 49.8429 7.04673 49.8429 7.04673C44.8287 7.41016 43.3037 11.0321 44.4505 14.9312C43.9625 16.4465 43.4867 18.0973 43.6026 18.4792Z" fill="#0033CC"/>
</g>
<defs>
<clipPath id="clip0_1981_3576">
<rect width="122" height="58" fill="white"/>
</clipPath>
</defs>
</svg>
