<svg width="32" height="32" viewBox="0 0 32 32" fill="none" xmlns="http://www.w3.org/2000/svg">
<path d="M29.0391 14.2937L11.043 3.29565C10.7398 3.11029 10.3928 3.00903 10.0376 3.00231C9.68232 2.99559 9.3317 3.08364 9.02178 3.25739C8.71186 3.43115 8.45383 3.68435 8.27425 3.99092C8.09466 4.2975 8 4.64639 8 5.0017V26.9997C8.00029 27.3549 8.09513 27.7036 8.27479 28.0101C8.45445 28.3165 8.71244 28.5695 9.02226 28.7432C9.33208 28.9169 9.68255 29.005 10.0377 28.9984C10.3928 28.9919 10.7398 28.8909 11.043 28.7058L29.0391 17.7078C29.3314 17.529 29.5729 17.2781 29.7405 16.9792C29.9081 16.6803 29.9961 16.3434 29.9961 16.0007C29.9961 15.6581 29.9081 15.3211 29.7405 15.0222C29.5729 14.7233 29.3314 14.4725 29.0391 14.2937Z" fill="#222426"/>
</svg>
