<svg width="24" height="24" viewBox="0 0 24 24" fill="none" xmlns="http://www.w3.org/2000/svg">
<path fill-rule="evenodd" clip-rule="evenodd" d="M3.09961 12.0001C3.09961 11.6411 3.39062 11.3501 3.74961 11.3501H20.2496C20.6086 11.3501 20.8996 11.6411 20.8996 12.0001C20.8996 12.3591 20.6086 12.6501 20.2496 12.6501H3.74961C3.39062 12.6501 3.09961 12.3591 3.09961 12.0001Z" fill="#222426"/>
<path fill-rule="evenodd" clip-rule="evenodd" d="M13.04 4.79048C13.2938 4.53664 13.7054 4.53664 13.9592 4.79048L20.7092 11.5405C20.9631 11.7943 20.9631 12.2059 20.7092 12.4597L13.9592 19.2097C13.7054 19.4636 13.2938 19.4636 13.04 19.2097C12.7861 18.9559 12.7861 18.5443 13.04 18.2905L19.3304 12.0001L13.04 5.70972C12.7861 5.45588 12.7861 5.04432 13.04 4.79048Z" fill="#222426"/>
</svg>
