<svg width="172" height="172" viewBox="0 0 172 172" fill="none" xmlns="http://www.w3.org/2000/svg">
<path fill-rule="evenodd" clip-rule="evenodd" d="M110.772 107.791C112.136 107.64 113.196 107.64 114.561 106.73C115.317 105.972 116.075 105.52 117.137 104.609C119.713 102.64 123.5 101.882 125.319 107.034C126.38 109.762 126.834 116.276 126.985 118.548C126.985 118.852 127.137 118.852 127.137 118.548C127.289 115.216 126.834 110.973 126.985 109.912C127.137 106.73 131.379 55.2132 131.531 52.3346C131.683 50.3644 134.41 50.3644 134.713 52.3346C135.016 55.9717 140.168 99.7605 140.623 103.247C140.623 104.307 141.379 104.307 142.137 103.548C143.5 102.034 144.258 100.972 146.531 98.8512C148.955 96.7302 153.351 97.1853 155.168 100.216C157.138 103.548 157.593 104.609 158.5 106.275C159.259 107.488 160.016 107.791 161.682 107.791H164.41V110.519H161.077C158.652 110.519 157.593 110.064 156.683 108.396C156.076 107.336 154.258 104.003 153.197 102.033C152.592 101.123 150.623 100.519 148.955 102.185C147.138 104.154 146.683 104.913 144.258 107.336C141.985 109.609 138.803 109.002 138.197 104.912C137.592 99.7605 134.561 71.2741 133.954 67.3345C133.348 63.0915 133.348 57.486 133.348 53.6981C133.196 53.3947 132.894 53.3947 132.894 53.8489C132.894 58.091 133.044 64.1525 132.743 67.4862C132.439 70.819 129.106 115.367 128.499 119.609C128.347 121.73 126.226 121.579 125.468 119.609C123.954 115.82 121.53 108.246 121.53 108.246C121.075 106.579 120.167 105.67 118.348 107.034C117.439 107.792 116.985 108.095 115.62 109.307C114.106 110.368 112.288 110.519 110.923 110.519H7.58594V107.791H110.772Z" fill="#494B4C"/>
<path fill-rule="evenodd" clip-rule="evenodd" d="M7.58984 98.5469C11.0752 98.3952 11.3777 98.2435 11.3777 95.6691V70.9715C11.3777 68.3954 11.0752 68.2437 7.58984 67.9412V66.2743H21.8322C25.3176 66.2743 28.1962 66.7294 30.1664 68.0929C31.9841 69.4563 33.0451 71.4266 33.0451 74.3052C33.0451 78.2448 30.7723 80.9726 26.3785 81.8819V82.0327C30.6206 82.6395 34.4094 85.3664 34.4094 90.8203C34.4094 93.8506 33.5001 96.1233 31.6816 97.7911C29.7113 99.3053 26.681 100.215 22.2872 100.215H7.58984V98.5469ZM17.5901 94.7598C17.5901 97.4877 18.4993 98.2435 21.2272 98.2435C24.56 98.2435 27.5903 96.5775 27.5903 91.1228C27.5903 86.5773 25.1668 83.2436 20.1662 83.2436H17.5901V94.7598ZM20.0145 81.1234C24.56 81.1234 26.681 78.699 26.681 74.7594C26.681 70.5164 24.4083 68.3954 20.6204 68.3954C18.196 68.3954 17.5901 68.5471 17.5901 70.3656V81.1234H20.0145ZM63.1974 88.5466C63.1974 91.7286 62.5915 94.1531 61.6823 95.819C59.5612 99.6078 56.2275 100.97 50.6211 101.122C45.3171 101.122 41.8326 99.6078 39.8624 95.819C38.9531 94.1531 38.3472 91.4253 38.3472 88.5466V70.9715C38.3472 68.2437 38.3472 68.2437 35.0135 67.9412V66.2743H48.0441V67.9412C44.7104 68.2437 44.5587 68.2437 44.5587 70.9715V88.6992C44.5587 93.5481 45.1654 99.0028 50.771 99.0028C56.5291 98.8511 56.9833 93.6998 56.9833 88.6992V70.9715C56.9833 68.2437 56.6808 68.2437 53.4979 67.9412V66.2743H66.5294V67.9412C63.3473 68.2437 63.1956 68.2437 63.1956 70.9715V88.5466H63.1974ZM67.4404 98.5469C70.9258 98.3952 71.2283 98.2435 71.2283 95.6691V70.9715C71.2283 68.3954 70.9258 68.2437 67.4404 67.9412V66.2743H80.7743C84.2598 66.2743 87.291 66.7294 89.5637 68.2446C91.6847 69.608 93.3507 72.3359 93.3507 76.2754C93.3507 80.6692 91.078 83.3962 88.5018 84.9122C86.3808 85.9723 83.5013 86.5791 80.0168 86.5791H77.4415V95.6709C77.4415 98.2453 77.744 98.3969 81.987 98.5486V100.216H67.4404V98.5469ZM77.4406 82.4869C77.4406 84.3045 78.0465 84.6079 80.1676 84.6079C84.5622 84.6079 86.6833 80.9717 86.6833 76.4263C86.6833 70.8198 83.9555 68.3954 80.471 68.3954C77.8948 68.3954 77.4406 68.8496 77.4406 70.2139V82.4869ZM87.1384 98.5469C89.7145 98.3952 90.1678 98.0918 90.9254 95.6691C91.9864 92.1837 100.169 66.2734 100.169 66.2734H105.47L114.714 95.9707C115.47 98.2435 115.925 98.5469 118.349 98.5469V100.366H105.318V98.5469L107.742 98.3952C108.803 98.2435 108.955 97.6385 108.652 96.4258L106.228 88.5466H96.2293C95.3192 91.8803 94.5634 93.5472 93.8049 96.2741C93.5015 97.4868 94.1083 98.2435 95.1693 98.3952L97.442 98.5469V100.215H87.1384V98.5469ZM105.471 86.4256L101.381 72.7892H101.077C101.077 72.7892 97.442 84.6079 96.9869 86.4256H105.471Z" fill="#494B4C"/>
</svg>
