<svg viewBox="0 0 192 192" fill="none" xmlns="http://www.w3.org/2000/svg">
<path
    d="M96.0062 106.598C93.5701 106.598 91.3633 105.506 89.9302 103.576L76.5172 85.5278L78.3801 84.2127L91.7932 102.261C92.7963 103.604 94.3152 104.359 96.0062 104.359C97.6972 104.359 99.2161 103.604 100.219 102.261L144.127 43.108C147.767 38.1833 149.257 32.1673 148.283 26.1792C147.308 20.1912 143.983 14.9028 138.939 11.3491L137.334 10.2019C127.819 3.48635 114.492 5.55697 107.585 14.8468L100.621 24.2206C99.5314 25.6756 97.8691 26.515 96.0062 26.515C94.1433 26.515 92.481 25.6756 91.3919 24.2206L84.4275 14.8468C81.1029 10.3418 76.1447 7.37576 70.5272 6.50834C64.9098 5.64092 59.2638 6.95604 54.6781 10.2019L53.0731 11.3491C42.6695 18.7082 40.348 32.9507 47.8856 43.108L56.4551 54.6643L54.5921 55.9794L46.0227 44.4231C37.7399 33.2585 40.3193 17.6169 51.7261 9.53032L53.3311 8.38309C58.4326 4.7735 64.6806 3.31846 70.8998 4.29781C77.1191 5.27716 82.5932 8.55098 86.2904 13.5317L93.2548 22.9054C93.914 23.7729 94.9171 24.2765 96.0062 24.2765C97.1239 24.2765 98.1271 23.7729 98.7576 22.9054L105.722 13.5317C113.346 3.23452 128.134 0.940046 138.681 8.38309L140.286 9.53032C145.818 13.4477 149.458 19.2399 150.547 25.8155C151.636 32.4191 150.002 39.0227 145.99 44.4231L102.082 103.576C100.649 105.479 98.4423 106.598 96.0062 106.598Z"
    fill="#222426"
  />
<path
    d="M40.3188 187.66L38.1979 186.793C43.844 173.67 45.1624 163.54 42.2964 154.894C39.7456 147.115 33.9562 141.099 27.8516 134.748C18.2504 124.786 7.38816 113.454 4.78007 91.9361C1.97137 68.6556 7.6461 38.7155 7.70342 38.4077C7.7894 37.988 7.90405 37.6522 8.01869 37.3164L10.1395 38.1838C10.0536 38.3517 9.99624 38.5476 9.96758 38.7994C9.91026 39.0792 4.32151 68.7115 7.07289 91.6562C9.56634 112.474 20.1706 123.471 29.5425 133.209C42.2104 146.388 53.1872 157.776 40.3188 187.66Z"
    fill="#222426"
  />
<path
    d="M15.8418 38.9705C15.5839 37.4315 14.6954 36.4522 13.377 36.3123C12.288 36.1724 10.7976 36.732 10.1384 38.215L8.01758 37.3476C8.96337 35.1371 11.2848 33.8219 13.635 34.1018C15.9565 34.3816 17.6761 36.1164 18.0773 38.6347L15.8418 38.9705Z"
    fill="#222426"
  />
<path
    d="M67.9751 187.881L66.1409 186.538C66.3415 186.258 87.1775 158.64 84.7987 136.311C82.076 110.624 64.0487 88.9386 58.6032 82.9226C57.3709 81.5515 56.1385 80.1525 55.0494 78.8933C52.4126 75.8713 50.693 75.1438 50.0052 75.4516C49.2887 75.7594 48.8014 77.5222 49.174 79.8727C49.3746 81.1318 50.9796 84.9373 52.8425 89.3583C59.0331 104.077 63.9341 116.584 61.1253 120.586C60.6668 121.229 59.807 121.957 58.2593 121.929C52.298 121.761 41.6937 104.133 38.5697 98.7321C29.771 83.4823 22.4054 65.9939 18.3643 50.772L20.5711 50.2124C24.5549 65.2664 31.8632 82.5589 40.5473 97.6409C48.8301 112.023 55.7659 119.606 58.288 119.69C58.8612 119.69 59.0618 119.522 59.2051 119.326C59.7497 118.571 60.2369 116.053 57.5428 107.798C55.6799 102.118 52.8999 95.5143 50.6644 90.2258C48.6008 85.3011 47.0818 81.7474 46.8525 80.2364C46.4513 77.7181 46.7379 74.4443 48.9734 73.437C51.0083 72.5136 53.6164 73.8847 56.7403 77.4663C57.8294 78.6975 59.0331 80.1245 60.2655 81.4676C63.3322 84.8534 69.3222 91.9886 74.8823 101.502C81.7607 113.254 85.8305 124.895 87.0342 136.115C88.066 145.881 85.1713 157.577 78.3788 170.868C73.4206 180.718 68.0325 187.825 67.9751 187.881Z"
    fill="#222426"
  />
<path
    d="M151.694 187.77C138.826 157.886 149.802 146.497 162.47 133.318C171.814 123.609 182.418 112.584 184.94 91.7939C186.602 77.9711 185.284 61.8818 183.879 50.8291L186.144 50.5493C187.577 61.7419 188.895 77.9991 187.204 92.0457C184.625 113.563 173.734 124.868 164.133 134.857C158.028 141.209 152.239 147.225 149.688 155.004C146.85 163.65 148.14 173.779 153.786 186.903L151.694 187.77Z"
    fill="#222426"
  />
<path
    d="M124.036 188.001C123.979 187.917 118.591 180.81 113.575 170.96C110.623 165.168 108.388 159.572 106.897 154.311C105.034 147.68 104.375 141.608 104.948 136.207C106.123 124.987 110.222 113.318 117.1 101.594C122.66 92.0806 128.65 84.9733 131.717 81.5596C132.921 80.2165 134.153 78.8174 135.242 77.5582C138.366 73.9766 140.974 72.6055 143.009 73.5289C145.245 74.5363 145.56 77.8101 145.13 80.3284C144.872 81.8394 143.382 85.393 141.318 90.3178C139.083 95.6062 136.303 102.21 134.44 107.89C131.746 116.145 132.233 118.635 132.777 119.418C132.921 119.614 133.121 119.81 133.695 119.782C134.87 119.754 137.592 117.795 141.777 112.423C145.589 107.526 149.974 100.587 154.129 92.892C164.103 74.3963 171.326 54.6695 173.905 38.7201C174.306 36.2018 176.026 34.4669 178.347 34.1871C180.697 33.9073 183.019 35.2504 183.965 37.4329L181.844 38.3004C181.185 36.7894 179.694 36.2577 178.605 36.3976C177.287 36.5655 176.398 37.5169 176.14 39.0559C173.504 55.2291 166.224 75.2078 156.107 93.8994C149.171 106.743 139.14 121.825 133.695 121.993C132.118 122.021 131.258 121.293 130.829 120.65C128.02 116.676 132.921 104.169 139.111 89.4223C140.974 85.0013 142.579 81.1958 142.78 79.9367C143.181 77.5862 142.665 75.8514 141.949 75.5156C141.261 75.2078 139.541 75.9353 136.905 78.9573C135.815 80.2165 134.583 81.6435 133.351 82.9866C127.877 89.0306 109.878 110.688 107.155 136.375C106.467 142.783 107.384 153.836 115.581 169.897C120.511 179.578 125.784 186.518 125.842 186.602L124.036 188.001Z"
    fill="#222426"
  />
</svg>
