<svg width="20" height="20" viewBox="0 0 20 20" fill="none" xmlns="http://www.w3.org/2000/svg">
<path d="M14.6336 17.4998C14.5004 17.5004 14.3689 17.4689 14.2503 17.4082L10.0003 15.1832L5.75031 17.4082C5.46876 17.5562 5.12747 17.5311 4.87067 17.3433C4.61386 17.1556 4.48634 16.838 4.54198 16.5248L5.37531 11.8332L1.94198 8.49984C1.72369 8.28201 1.64355 7.96144 1.73365 7.66651C1.83218 7.36436 2.094 7.14457 2.40865 7.09984L7.15865 6.40818L9.25031 2.13318C9.38955 1.84569 9.68088 1.66309 10.0003 1.66309C10.3197 1.66309 10.6111 1.84569 10.7503 2.13318L12.867 6.39984L17.617 7.09151C17.9316 7.13623 18.1934 7.35603 18.292 7.65818C18.3821 7.95311 18.3019 8.27368 18.0836 8.49151L14.6503 11.8248L15.4836 16.5165C15.5444 16.8355 15.4143 17.1607 15.1503 17.3498C14.9994 17.4556 14.8177 17.5083 14.6336 17.4998Z" fill="#C2BBAC"/>
</svg>
