<svg width="35" height="35" viewBox="0 0 35 35" fill="none" xmlns="http://www.w3.org/2000/svg">
<g clip-path="url(#clip0_1494_47789)">
<path d="M17.5 0C7.8505 0 0 7.8505 0 17.5C0 27.1495 7.8505 35 17.5 35C27.1495 35 35 27.1495 35 17.5C35 7.8505 27.1495 0 17.5 0ZM17.5 34.7935C7.966 34.7935 0.2065 27.034 0.2065 17.5C0.2065 7.966 7.966 0.2065 17.5 0.2065C27.034 0.2065 34.7935 7.9625 34.7935 17.5C34.7935 27.0375 27.0375 34.7935 17.5 34.7935Z" fill="#222426"/>
<path d="M23.4329 23.961C22.7224 23.961 22.3759 23.7125 22.0084 23.4465C21.6304 23.1735 21.2384 22.8935 20.4614 22.8935C19.6844 22.8935 19.2924 23.177 18.9144 23.4465C18.5469 23.7125 18.2004 23.961 17.4899 23.961C16.7794 23.961 16.4364 23.7125 16.0689 23.4465C15.6909 23.1735 15.2989 22.8935 14.5219 22.8935C13.7449 22.8935 13.3529 23.177 12.9749 23.4465C12.6074 23.7125 12.2609 23.961 11.5539 23.961C10.8469 23.961 10.5004 23.7125 10.1329 23.4465C9.75494 23.1735 9.36294 22.8935 8.58594 22.8935V23.107C9.29294 23.107 9.63944 23.3555 10.0069 23.6215C10.3849 23.8945 10.7769 24.1745 11.5539 24.1745C12.3309 24.1745 12.7229 23.891 13.1009 23.6215C13.4684 23.3555 13.8149 23.107 14.5219 23.107C15.2289 23.107 15.5754 23.3555 15.9429 23.6215C16.3209 23.8945 16.7129 24.1745 17.4899 24.1745C18.2669 24.1745 18.6589 23.891 19.0369 23.6215C19.4044 23.3555 19.7509 23.107 20.4614 23.107C21.1719 23.107 21.5184 23.3555 21.8859 23.6215C22.2639 23.8945 22.6559 24.1745 23.4329 24.1745C24.2099 24.1745 24.6019 23.891 24.9799 23.6215C25.3474 23.3555 25.6939 23.107 26.4044 23.107V22.8935C25.6274 22.8935 25.2354 23.177 24.8574 23.4465C24.4899 23.7125 24.1434 23.961 23.4329 23.961Z" fill="#222426"/>
<path d="M23.4329 26.054C22.7224 26.054 22.3759 25.8055 22.0084 25.5395C21.6304 25.2665 21.2384 24.9865 20.4614 24.9865C19.6844 24.9865 19.2924 25.27 18.9144 25.5395C18.5469 25.8055 18.2004 26.054 17.4899 26.054C16.7794 26.054 16.4364 25.8055 16.0689 25.5395C15.6909 25.2665 15.2989 24.9865 14.5219 24.9865C13.7449 24.9865 13.3529 25.27 12.9749 25.5395C12.6074 25.8055 12.2609 26.054 11.5539 26.054C10.8469 26.054 10.5004 25.8055 10.1329 25.5395C9.75494 25.2665 9.36294 24.9865 8.58594 24.9865V25.2C9.29294 25.2 9.63944 25.4485 10.0069 25.7145C10.3849 25.9875 10.7769 26.2675 11.5539 26.2675C12.3309 26.2675 12.7229 25.984 13.1009 25.7145C13.4684 25.4485 13.8149 25.2 14.5219 25.2C15.2289 25.2 15.5754 25.4485 15.9429 25.7145C16.3209 25.9875 16.7129 26.2675 17.4899 26.2675C18.2669 26.2675 18.6589 25.984 19.0369 25.7145C19.4044 25.4485 19.7509 25.2 20.4614 25.2C21.1719 25.2 21.5184 25.4485 21.8859 25.7145C22.2639 25.9875 22.6559 26.2675 23.4329 26.2675C24.2099 26.2675 24.6019 25.984 24.9799 25.7145C25.3474 25.4485 25.6939 25.2 26.4044 25.2V24.9865C25.6274 24.9865 25.2354 25.27 24.8574 25.5395C24.4899 25.8055 24.1434 26.054 23.4329 26.054Z" fill="#222426"/>
<path d="M23.4329 28.147C22.7224 28.147 22.3759 27.8985 22.0084 27.6325C21.6304 27.3595 21.2384 27.0795 20.4614 27.0795C19.6844 27.0795 19.2924 27.363 18.9144 27.6325C18.5469 27.8985 18.2004 28.147 17.4899 28.147C16.7794 28.147 16.4364 27.8985 16.0689 27.6325C15.6909 27.3595 15.2989 27.0795 14.5219 27.0795C13.7449 27.0795 13.3529 27.363 12.9749 27.6325C12.6074 27.8985 12.2609 28.147 11.5539 28.147C10.8469 28.147 10.5004 27.8985 10.1329 27.6325C9.75494 27.3595 9.36294 27.0795 8.58594 27.0795V27.293C9.29294 27.293 9.63944 27.5415 10.0069 27.8075C10.3849 28.0805 10.7769 28.3605 11.5539 28.3605C12.3309 28.3605 12.7229 28.077 13.1009 27.8075C13.4684 27.5415 13.8149 27.293 14.5219 27.293C15.2289 27.293 15.5754 27.5415 15.9429 27.8075C16.3209 28.0805 16.7129 28.3605 17.4899 28.3605C18.2669 28.3605 18.6589 28.077 19.0369 27.8075C19.4044 27.5415 19.7509 27.293 20.4614 27.293C21.1719 27.293 21.5184 27.5415 21.8859 27.8075C22.2639 28.0805 22.6559 28.3605 23.4329 28.3605C24.2099 28.3605 24.6019 28.077 24.9799 27.8075C25.3474 27.5415 25.6939 27.293 26.4044 27.293V27.0795C25.6274 27.0795 25.2354 27.363 24.8574 27.6325C24.4899 27.8985 24.1434 28.147 23.4329 28.147Z" fill="#222426"/>
<path d="M16.9622 9.7405C16.4232 10.311 15.9192 10.9165 15.4607 11.5535C16.0977 11.095 16.7032 10.591 17.2737 10.052C17.2982 10.836 17.3682 11.62 17.4942 12.397C17.6202 11.62 17.6937 10.8395 17.7147 10.052C18.2852 10.591 18.8907 11.095 19.5277 11.5535C19.0692 10.9165 18.5652 10.311 18.0262 9.7405C18.8102 9.716 19.5942 9.64601 20.3712 9.52001C19.5942 9.39401 18.8137 9.3205 18.0262 9.2995C18.5652 8.72901 19.0692 8.12351 19.5277 7.48651C18.8907 7.94501 18.2852 8.44901 17.7147 8.98801C17.6902 8.20401 17.6202 7.42001 17.4942 6.64301C17.3682 7.42001 17.2947 8.20401 17.2737 8.98801C16.7032 8.44901 16.0977 7.94501 15.4607 7.48651C15.9192 8.12351 16.4232 8.72901 16.9622 9.2995C16.1782 9.324 15.3942 9.39401 14.6172 9.52001C15.3942 9.64601 16.1782 9.7195 16.9622 9.7405Z" fill="#222426"/>
<path d="M23.2172 10.2165C23.2172 10.2165 23.0177 10.0625 22.5522 9.69853C22.1287 9.36603 21.4252 9.48853 22.0657 10.255C22.0657 10.255 23.2802 12.0715 22.2792 13.2685C20.0637 14.133 17.9462 16.8665 17.7152 17.8675C17.5577 18.5395 18.1632 18.494 18.1632 18.494C19.0172 17.3845 19.9972 16.744 20.6902 16.401C21.0647 16.2155 21.4917 16.548 21.3692 16.9365C20.5677 19.4845 18.6532 20.02 17.5367 19.9885C17.5227 19.9885 17.5122 19.992 17.5017 19.992C17.4912 19.992 17.4772 19.985 17.4667 19.9885C16.3502 20.02 14.4357 19.4845 13.6342 16.9365C13.5117 16.548 13.9387 16.2155 14.3132 16.401C15.0062 16.7475 15.9862 17.3845 16.8402 18.494C16.8402 18.494 17.4457 18.5395 17.2882 17.8675C17.0537 16.8665 14.9397 14.133 12.7242 13.2685C11.7197 12.0715 12.9377 10.255 12.9377 10.255C13.5782 9.48853 12.8747 9.36603 12.4512 9.69853C11.9857 10.066 11.7862 10.2165 11.7862 10.2165C9.21375 10.402 8.43325 12.2395 9.02125 14.217C8.76925 14.987 8.52775 15.8235 8.58725 16.016C8.64325 16.198 9.15075 15.9565 9.66175 15.659C9.98375 16.2435 10.3442 16.7965 10.6942 17.2655C12.0627 19.2535 14.0122 20.7725 17.5087 20.489C21.0017 20.7725 22.9512 19.2535 24.3232 17.2655C24.6732 16.7965 25.0338 16.2435 25.3558 15.659C25.8668 15.9565 26.3743 16.198 26.4303 16.016C26.4897 15.8235 26.2482 14.9835 25.9962 14.217C26.5842 12.2395 25.8037 10.402 23.2312 10.2165H23.2172Z" fill="#222426"/>
</g>
<defs>
<clipPath id="clip0_1494_47789">
<rect width="35" height="35" fill="white"/>

</clipPath>
</defs>
</svg>
