<svg
  width="48"
  height="48"
  viewBox="0 0 36 28"
  fill="none"
  xmlns="http://www.w3.org/2000/svg"
>
  <circle cx="18" cy="13" r="7" stroke="#fff" stroke-width="23" />
<path
    d="M16.9568 6.11045C15.9076 7.23768 14.9255 8.42651 14.0288 9.68309C15.2732 8.77761 16.4505 7.7859 17.5668 6.72642C17.6156 8.27251 17.7559 9.81861 17.9999 11.3462C18.2439 9.81861 18.3842 8.27251 18.433 6.72642C19.5493 7.7859 20.7266 8.77761 21.971 9.68309C21.0743 8.42651 20.0922 7.23768 19.043 6.11045C20.5741 6.06733 22.1052 5.92566 23.618 5.67311C22.1052 5.42056 20.5741 5.27889 19.043 5.23577C20.0922 4.10854 21.0743 2.91971 21.971 1.66313C20.7266 2.56861 19.5493 3.56032 18.433 4.6198C18.3903 3.0737 18.25 1.52761 17.9999 0C17.7498 1.52761 17.6095 3.0737 17.5668 4.6198C16.4505 3.56032 15.2732 2.56861 14.0288 1.66313C14.9255 2.91971 15.9076 4.10854 16.9568 5.23577C15.4257 5.28505 13.8946 5.42672 12.3818 5.67311C13.8946 5.9195 15.4257 6.06117 16.9568 6.11045Z"
    fill="#0033CC"
  />
<path
    d="M0.602575 18.4792C0.712375 18.8365 1.70058 18.3622 2.69488 17.777C3.32318 18.9288 4.02467 20.013 4.70787 20.9431C7.37967 24.8607 11.18 27.8543 17.9998 27.2938C24.8135 27.8543 28.6199 24.8607 31.2917 20.9431C31.9688 20.013 32.6764 18.9288 33.3047 17.777C34.299 18.3622 35.2872 18.8365 35.397 18.4792C35.5129 18.0973 35.0371 16.4465 34.5491 14.9312C35.6959 11.0321 34.1709 7.41632 29.1567 7.04673C29.1567 7.04673 28.7663 6.7449 27.8635 6.02422C27.0339 5.37129 25.6675 5.61151 26.9119 7.12681C26.9119 7.12681 29.2848 10.7056 27.3267 13.0648C23.0079 14.7649 18.8782 20.1485 18.4207 22.1257C18.1157 23.4501 19.293 23.3577 19.293 23.3577C20.9583 21.171 22.8737 19.9144 24.2218 19.2307C24.9538 18.8611 25.7834 19.5202 25.5455 20.284C23.9778 25.3042 20.2507 26.3575 18.0669 26.2959C18.0425 26.2959 18.0242 26.302 17.9998 26.3082C17.9754 26.3082 17.9571 26.2959 17.9327 26.2959C15.7489 26.3575 12.0218 25.3042 10.4541 20.284C10.2162 19.5202 11.0458 18.8611 11.7778 19.2307C13.132 19.9144 15.0413 21.171 16.7066 23.3577C16.7066 23.3577 17.8839 23.4501 17.5789 22.1257C17.1214 20.1485 12.9917 14.771 8.67287 13.0648C6.71477 10.7056 9.08767 7.12681 9.08767 7.12681C10.3382 5.61151 8.96568 5.37129 8.13608 6.02422C7.22718 6.7449 6.84287 7.04673 6.84287 7.04673C1.82867 7.41016 0.303675 11.0321 1.45047 14.9312C0.962475 16.4465 0.486675 18.0973 0.602575 18.4792Z"
    fill="#0033CC"
  />


</svg>
