<svg width="16" height="4" viewBox="0 0 16 4" fill="none" xmlns="http://www.w3.org/2000/svg">
<path d="M8.0026 3.66683C8.92308 3.66683 9.66927 2.92064 9.66927 2.00016C9.66927 1.07969 8.92308 0.333496 8.0026 0.333496C7.08213 0.333496 6.33594 1.07969 6.33594 2.00016C6.33594 2.92064 7.08213 3.66683 8.0026 3.66683Z" fill="#222426"/>
<path d="M13.8307 3.66683C14.7512 3.66683 15.4974 2.92064 15.4974 2.00016C15.4974 1.07969 14.7512 0.333496 13.8307 0.333496C12.9103 0.333496 12.1641 1.07969 12.1641 2.00016C12.1641 2.92064 12.9103 3.66683 13.8307 3.66683Z" fill="#222426"/>
<path d="M2.16667 3.66683C3.08714 3.66683 3.83333 2.92064 3.83333 2.00016C3.83333 1.07969 3.08714 0.333496 2.16667 0.333496C1.24619 0.333496 0.5 1.07969 0.5 2.00016C0.5 2.92064 1.24619 3.66683 2.16667 3.66683Z" fill="#222426"/>
</svg>
