<svg width="90" height="90" viewBox="0 0 90 90" fill="none" xmlns="http://www.w3.org/2000/svg">
<path fill-rule="evenodd" clip-rule="evenodd" d="M88.6778 59.4991V50.9042C88.6778 49.2513 88.1572 47.6395 87.2635 46.6917C86.3698 45.7429 84.8659 45.2144 83.3158 45.2144H67.2736C65.3695 45.2144 63.4925 45.6617 62.3976 46.61C61.3013 47.5583 60.7004 49.2051 60.7004 50.9046V73.4887L50.6628 45.2139H40.2754L30.3829 75.6332H29.93L26.5575 70.1671C27.9148 69.7674 29.2726 69.3672 30.0981 68.5086C30.9236 67.6499 31.5105 66.365 31.5105 65.0156V50.5596C31.5105 48.6831 30.5025 46.9448 29.3408 46.0539C28.1791 45.163 26.3591 45.2139 24.5391 45.2139H1.48951L1.48437 53.1341H4.70326L4.70419 75.6337H1.32422V83.5889H16.6571V75.6337H13.1945L13.1856 70.0994H16.7248L25.3954 83.5889H41.7177V75.6337H38.75L40.591 70.0695H51.0587L53.0113 75.6337H49.5487V83.5889H83.1005C84.4947 83.5889 85.8455 83.093 86.7746 82.3054C87.7038 81.5182 88.6768 80.278 88.6768 78.8652V68.4479H79.9297V75.6355L69.7454 75.6337V53.1285L79.9297 53.1313V59.4995H88.6778V59.4991ZM13.195 62.3612V53.1285H23.376L23.3928 62.3813L13.195 62.3612ZM43.1884 62.0778L45.537 55.3585L48.0896 62.0778H43.1884Z" fill="#494B4C"/>
<path fill-rule="evenodd" clip-rule="evenodd" d="M63.1018 23.2745C63.4193 23.5789 63.8288 23.662 64.2327 23.5182C64.3592 23.4706 64.4778 23.3987 64.5782 23.3071C64.9074 22.9966 64.9984 22.5895 64.8794 22.1908C64.8381 22.0611 64.7729 21.9404 64.687 21.835C64.3835 21.4797 63.981 21.3811 63.5874 21.4764C63.4561 21.5112 63.3324 21.5703 63.2228 21.6505L62.866 21.6487C62.8562 21.4166 62.7801 21.1692 62.7428 20.9394L62.9277 20.8334C63.1206 20.9055 63.33 20.9215 63.5317 20.8794C63.7333 20.8374 63.9189 20.739 64.0669 20.5958C64.3826 20.2783 64.4689 19.8679 64.3387 19.4645C64.2947 19.335 64.2266 19.2151 64.1379 19.111C63.8297 18.7627 63.4249 18.6651 63.0271 18.7655C62.895 18.801 62.7699 18.8617 62.6671 18.949C62.5644 19.0363 62.4827 19.1512 62.3898 19.2282C62.2959 19.3052 62.1899 19.3449 62.0816 19.3571C62.026 19.2795 61.9713 19.2014 61.9173 19.1227C61.7861 18.9308 61.6848 18.7636 61.5536 18.6123C61.6418 18.5577 61.7384 18.5157 61.8547 18.4914C61.971 18.4671 62.1054 18.4601 62.2315 18.4232C62.358 18.3868 62.4757 18.3205 62.578 18.2356C62.9263 17.9339 63.0267 17.5431 62.9501 17.1589C62.9216 17.0286 62.87 16.9045 62.7979 16.7923C62.7249 16.6807 62.6325 16.583 62.5252 16.5038C62.1969 16.2703 61.794 16.2148 61.3906 16.4048C61.2709 16.464 61.1627 16.5442 61.0712 16.6415C60.9794 16.7379 60.9098 16.8533 60.8677 16.9796C60.8266 17.1061 60.8186 17.2448 60.7701 17.3536C60.7225 17.4578 60.6375 17.5403 60.5319 17.5847C60.3606 17.4539 60.1874 17.3316 60.0113 17.2172C60.0267 17.1117 60.0734 17.0113 60.1617 16.9305C60.2495 16.8502 60.3769 16.7895 60.482 16.7022C60.8121 16.4006 60.8924 15.979 60.7645 15.577C60.7205 15.4469 60.6524 15.3264 60.5637 15.2216C60.2546 14.8715 59.8489 14.7739 59.451 14.8738C59.3185 14.9094 59.1939 14.9696 59.0836 15.0512C58.9743 15.1329 58.88 15.2356 58.8081 15.3519C58.7362 15.4682 58.6858 15.598 58.6713 15.7329C58.6568 15.8678 58.6769 16.0075 58.6578 16.1326C58.6396 16.2577 58.5831 16.3674 58.5037 16.4576C58.2459 16.3315 57.9641 16.2619 57.6772 16.2535C57.639 16.0322 57.8229 15.8445 57.9425 15.6265C58.0573 15.3949 58.0667 15.0993 57.9644 14.8322C57.9154 14.7044 57.8423 14.5871 57.7492 14.4867C57.4363 14.1627 57.0259 14.074 56.623 14.2056C56.4932 14.2502 56.3733 14.3195 56.27 14.4097C55.9371 14.715 55.8259 15.1166 55.9599 15.5228C56.0673 15.7637 56.2219 15.9836 56.1579 16.2096C56.0133 16.208 55.8688 16.2169 55.7256 16.2362C55.5122 16.2657 55.3553 16.3053 55.1993 16.3749C55.1265 16.1587 55.233 15.9183 55.2703 15.6643C55.2843 15.526 55.2677 15.3864 55.2218 15.2553C55.1777 15.1231 55.1089 15.0004 55.0191 14.8939C54.7054 14.5381 54.2912 14.4396 53.8855 14.5446C53.6833 14.6012 53.5015 14.7144 53.3615 14.8708C53.2215 15.0272 53.129 15.2204 53.095 15.4275C53.0721 15.5648 53.0768 15.7063 53.1067 15.8422C53.1365 15.978 53.1926 16.1078 53.2761 16.2171C53.3597 16.3264 53.4713 16.4146 53.546 16.5042C53.6207 16.5939 53.6581 16.6854 53.6744 16.7807C53.3462 16.8759 53.0226 16.9926 52.7014 17.1322C52.6353 17.0308 52.601 16.912 52.6029 16.7909C52.6239 16.5551 52.714 16.2773 52.5931 16.0177C52.5435 15.894 52.4711 15.7808 52.3797 15.6839C52.0734 15.3706 51.6737 15.2842 51.2824 15.4079C51.1558 15.4499 51.0382 15.5155 50.936 15.6012C50.5951 15.9005 50.4999 16.2946 50.5965 16.6807C50.6311 16.8087 50.6904 16.9305 50.7754 17.0309C50.8613 17.1313 50.9724 17.2097 51.0518 17.3055C51.1302 17.4012 51.1769 17.5142 51.1951 17.6314L50.0778 17.9573C50.0203 17.8789 49.9946 17.7816 50.0059 17.6851C50.0432 17.475 50.1446 17.1985 50.0488 16.9473C50.0103 16.824 49.9494 16.7087 49.8691 16.6074C49.5819 16.261 49.2042 16.1629 48.833 16.2367C48.5783 16.2914 48.3534 16.4396 48.2025 16.6519C48.0516 16.8642 47.9857 17.1254 48.0178 17.3839C48.0332 17.5118 48.0733 17.637 48.1401 17.7453C48.2989 17.9666 48.4627 18.1417 48.4637 18.3457C48.0514 18.4513 47.6368 18.54 47.2217 18.6128C47.2301 17.9283 47.231 17.2429 47.2282 16.8661C47.2254 16.4888 47.2184 16.4202 47.1984 16.3553C47.1791 16.2892 47.1436 16.2291 47.0952 16.1802C47.0452 16.1316 46.9784 16.0957 46.9439 16.0196C46.9093 15.9435 46.9075 15.8277 46.9994 15.6629C47.0905 15.4981 47.2768 15.2847 47.4117 15.0451C47.6788 14.5666 47.76 13.9876 47.6741 13.4446C47.6318 13.1978 47.5608 12.9568 47.4626 12.7265C47.4063 12.5883 47.3321 12.4582 47.2418 12.3394C46.9626 11.9463 46.568 11.7628 46.2342 11.4345C46.0785 11.2814 45.9483 11.1044 45.8485 10.9102C45.7234 10.6595 45.6608 10.4451 45.6524 10.2504C45.6543 10.0978 45.6239 9.95908 45.7757 9.791C45.9242 9.63691 46.1413 9.6626 46.3164 9.70135C46.3602 9.71069 46.4032 9.72143 46.4961 9.76018C46.5881 9.79893 46.7296 9.8657 46.858 9.95255C47.1148 10.1315 47.3149 10.3804 47.4346 10.6697C47.314 9.64089 47.3115 8.60164 47.4271 7.57223C47.2716 7.80348 47.0826 8.01039 46.8664 8.18622C46.7699 8.26257 46.6697 8.3341 46.5662 8.40053C46.4195 8.49485 46.3845 8.50279 46.2991 8.53641C46.1249 8.5887 45.9764 8.64333 45.7491 8.48691C45.6407 8.37392 45.6487 8.24926 45.6496 8.10778C45.6524 8.06623 45.6571 8.02467 45.7024 7.89067C45.7682 7.69407 45.8538 7.50463 45.9578 7.32524C46.0828 7.11936 46.2409 6.93544 46.4256 6.78082C46.6103 6.62573 46.8179 6.5002 47.041 6.40869C45.6807 6.5034 44.3154 6.50355 42.9551 6.40916C43.1787 6.49974 43.3879 6.62581 43.5723 6.78082C43.7567 6.93583 43.9169 7.1198 44.0402 7.32524C44.1634 7.53068 44.2503 7.75666 44.2956 7.89067C44.3413 8.02467 44.346 8.06623 44.3483 8.10778C44.3483 8.2105 44.3651 8.37019 44.2493 8.48691C44.0859 8.63025 43.81 8.60224 43.5835 8.48831C43.506 8.45283 43.3202 8.3347 43.1325 8.18669C42.9157 8.01128 42.7265 7.80431 42.5713 7.5727C42.6869 8.6021 42.6844 9.64136 42.5638 10.6702C42.6254 10.5287 42.7053 10.3933 42.8024 10.2719C42.8995 10.1505 43.0144 10.0427 43.1423 9.95535C43.2702 9.86804 43.4117 9.80173 43.5041 9.76298C43.6792 9.69108 43.7161 9.69901 43.8146 9.6808C43.9342 9.66726 44.0677 9.64999 44.2241 9.7938C44.3992 9.9871 44.3549 10.2051 44.3254 10.4344C44.2402 10.8159 44.0455 11.1643 43.7652 11.4369C43.5065 11.6862 43.2712 11.8277 43.0018 12.0635C42.9134 12.1499 42.8318 12.2429 42.7576 12.3417C42.6675 12.4605 42.5934 12.5907 42.5372 12.7288C42.3663 13.1103 42.2262 13.7392 42.3247 14.2691C42.3654 14.542 42.4544 14.8054 42.5876 15.047C42.723 15.287 42.9084 15.5004 43.0004 15.6647C43.0919 15.8296 43.0895 15.9458 43.0554 16.0215C43.0209 16.0976 42.9546 16.1335 42.9042 16.1821C42.8556 16.2309 42.8199 16.2911 42.8005 16.3572C42.7804 16.4221 42.7734 16.4907 42.7706 16.868C42.7678 17.2448 42.7688 17.9297 42.7776 18.6147C42.3603 18.5412 41.9459 18.4521 41.5352 18.3476C41.5389 18.1179 41.7243 17.9465 41.8588 17.7472C41.99 17.5324 42.0208 17.2555 41.9573 17.0024C41.8929 16.75 41.7367 16.5306 41.5193 16.387C41.2004 16.1844 40.8129 16.1391 40.4197 16.3581C40.3086 16.4235 40.2096 16.5089 40.1293 16.6098C39.9668 16.8157 39.8809 17.0804 39.9145 17.3297C39.9323 17.4563 39.9822 17.58 39.993 17.6874C40.0037 17.7839 39.9783 17.8809 39.9215 17.9596L38.8038 17.6337C38.8285 17.3802 39.0451 17.2177 39.223 17.0333C39.4682 16.7228 39.5172 16.3128 39.3122 15.9108C39.2493 15.7934 39.1645 15.6891 39.0624 15.6036C38.7435 15.344 38.341 15.2767 37.9404 15.4551C37.82 15.5111 37.7102 15.59 37.6192 15.6867C37.4296 15.8884 37.3241 16.1555 37.34 16.4081C37.3493 16.5397 37.3923 16.67 37.3955 16.7937C37.3988 16.9175 37.361 17.0347 37.297 17.135C36.9807 16.9972 36.6558 16.8798 36.3244 16.7835C36.345 16.5598 36.5649 16.4137 36.7223 16.2199C36.9571 15.8907 37.0019 15.4649 36.7615 15.0409C36.6893 14.9215 36.5954 14.8167 36.4846 14.7318C36.147 14.4839 35.7259 14.4223 35.3028 14.6366C35.18 14.702 35.0699 14.7907 34.9802 14.8971C34.7967 15.1143 34.7001 15.4005 34.729 15.6675C34.7645 15.9178 34.8742 16.1569 34.8004 16.3782C34.7336 16.3483 34.6648 16.323 34.5945 16.3025C34.3486 16.2401 34.0956 16.21 33.8419 16.2129C33.7774 15.9776 33.9381 15.76 34.0399 15.5261C34.1281 15.2903 34.1118 14.998 33.9796 14.7337C33.9176 14.6116 33.8326 14.5025 33.7294 14.4125C33.4049 14.1389 32.9907 14.0674 32.5794 14.2505C32.4553 14.3085 32.3436 14.3898 32.2502 14.49C32.0623 14.6927 31.9601 14.9602 31.9649 15.2366C31.9677 15.3729 31.9966 15.5088 32.0573 15.6297C32.1904 15.8618 32.3613 16.0532 32.323 16.2568C32.0361 16.2649 31.7543 16.3345 31.4966 16.4608C31.4142 16.37 31.3603 16.257 31.3416 16.1359C31.3234 16.0107 31.3434 15.8711 31.3285 15.7362C31.312 15.6006 31.2655 15.4704 31.1922 15.3552C31.1199 15.2385 31.0262 15.1365 30.9162 15.0545C30.5828 14.815 30.1692 14.7561 29.7531 14.9681C29.6327 15.0325 29.5243 15.1203 29.4361 15.2244C29.1667 15.5527 29.0971 15.9673 29.2769 16.3796C29.3338 16.5042 29.4142 16.6177 29.5187 16.7045C29.6229 16.7919 29.7513 16.8526 29.839 16.9329C29.9268 17.0136 29.974 17.114 29.9889 17.2196C29.8134 17.3339 29.6401 17.4563 29.4688 17.587C29.3627 17.5432 29.2774 17.4605 29.2302 17.3559C29.1821 17.2471 29.1737 17.1084 29.1331 16.9819C29.0906 16.8557 29.0209 16.7403 28.929 16.6439C28.6195 16.3226 28.2226 16.232 27.8332 16.3329C27.5736 16.4038 27.3492 16.568 27.2033 16.7942C26.9956 17.1257 26.9498 17.5268 27.1683 17.9325C27.2337 18.0483 27.3205 18.152 27.4228 18.237C27.6109 18.4102 27.893 18.4573 28.146 18.4928C28.2618 18.5171 28.358 18.5591 28.4472 18.6137C28.3696 18.7055 28.2979 18.8021 28.2324 18.9028C28.1465 19.0312 28.0298 19.2053 27.9196 19.3585C27.6763 19.3482 27.5208 19.126 27.3341 18.9504C27.0142 18.6987 26.5931 18.6488 26.1803 18.8575C26.0597 18.9219 25.9521 19.0084 25.8633 19.1124C25.5939 19.4397 25.5234 19.8534 25.7008 20.2643C25.7568 20.3885 25.8367 20.5019 25.9347 20.5972C26.1411 20.7961 26.4133 20.9067 26.672 20.8946C26.8074 20.8876 26.9433 20.8456 27.045 20.8442C27.1468 20.8428 27.2145 20.8815 27.2584 20.9408C27.2183 21.1841 27.1473 21.4082 27.1356 21.6501C26.8872 21.7266 26.6514 21.5819 26.41 21.4857C26.1743 21.4082 25.8857 21.4344 25.6252 21.5768C25.5066 21.6426 25.4001 21.7308 25.3142 21.8359C25.0555 22.1623 24.9892 22.5736 25.1802 22.9845C25.27 23.1688 25.4108 23.3234 25.5858 23.4301C25.7608 23.5368 25.9628 23.591 26.1677 23.5864C26.3034 23.585 26.4369 23.5531 26.5585 23.493C26.6785 23.4318 26.784 23.338 26.8882 23.2903C26.9822 23.2456 27.0896 23.2383 27.1889 23.2698C27.2379 23.465 27.2673 23.733 27.3345 23.9319C27.349 23.9772 27.3649 24.022 27.3831 24.0659C27.1099 24.1975 26.8074 24.1821 26.5249 24.2078C26.3882 24.2312 26.2584 24.2846 26.1448 24.3642C26.0297 24.4434 25.9312 24.5442 25.8549 24.6612C25.7022 24.8932 25.6457 25.1869 25.7022 25.4601C25.7302 25.5964 25.7849 25.7267 25.8624 25.8425C25.9399 25.9578 26.0403 26.0577 26.1556 26.1352C26.3901 26.2912 26.6764 26.349 26.9531 26.2963C27.0894 26.2702 27.2211 26.2169 27.3331 26.1376C27.4452 26.0586 27.5386 25.9536 27.6203 25.8686C27.702 25.7841 27.7725 25.7192 27.8439 25.6562C27.9686 25.9036 28.1241 26.1502 28.3272 26.3962L27.0203 27.4655L29.2881 33.567L28.2091 36.213L30.5464 37.1702L30.9671 37.9929C31.3938 37.8291 31.8264 37.6815 32.2642 37.5503C32.7548 37.4045 33.251 37.2787 33.7518 37.173C34.3588 37.0418 35.1296 36.8943 35.9038 36.7668C36.7349 36.6303 37.57 36.5185 38.4078 36.4315C39.4743 36.3197 40.5434 36.2334 41.6141 36.1729C43.8674 36.0463 46.1305 36.0459 48.3885 36.1729C49.5156 36.2364 50.6418 36.3307 51.5939 36.4315C52.545 36.5324 53.3228 36.6393 54.097 36.7668C54.8711 36.8938 55.6429 37.0418 56.249 37.173C56.8555 37.3042 57.2986 37.4191 57.7365 37.5503C58.1745 37.6814 58.6073 37.8291 59.0341 37.9929L59.4543 37.1702L61.7917 36.213L60.7126 33.567L62.9804 27.4655L61.6735 26.3962C61.8743 26.153 62.0303 25.906 62.1568 25.6562C62.2936 25.7631 62.4313 25.9545 62.6676 26.1371C62.8917 26.2954 63.1901 26.3495 63.4618 26.2944C63.5986 26.2664 63.7289 26.2123 63.8447 26.1352C64.0783 25.9782 64.2407 25.7356 64.2971 25.4599C64.3534 25.1841 64.2991 24.8973 64.1458 24.6612C64.0694 24.5443 63.9709 24.4435 63.8559 24.3642C63.6126 24.1831 63.3297 24.1999 63.0542 24.1845C62.9035 24.1668 62.7562 24.127 62.6172 24.0663C62.733 23.7815 62.7404 23.5607 62.8105 23.2703L63.1018 23.2745ZM42.6796 14.9452C42.4869 14.5907 42.3961 14.1898 42.4172 13.7868C43.0832 13.4781 43.7848 13.2529 44.5061 13.1163L44.1886 11.3547C44.7562 11.1583 45.3731 11.1578 45.941 11.3533L45.5007 13.1131C46.1992 13.1826 46.8949 13.3955 47.5616 13.7938C47.5459 14.1888 47.4578 14.5775 47.3015 14.9406C46.8108 14.7538 46.2977 14.6263 45.7757 14.5628C44.7279 14.4363 43.6651 14.5676 42.6796 14.9452ZM44.4263 17.5114C44.4865 17.4357 44.5598 17.3704 44.6415 17.319C45.0394 17.0949 45.3989 17.1561 45.708 17.4371C45.7747 17.503 45.8284 17.5767 45.8695 17.658C46.0371 18.0259 45.9881 18.3602 45.708 18.6614C45.6395 18.7286 45.5607 18.7844 45.4745 18.8267C45.0842 18.9929 44.7284 18.9298 44.4263 18.5876C44.1415 18.1865 44.1966 17.8279 44.4263 17.5114ZM44.2409 16.6163C44.2456 16.5537 44.2582 16.4571 44.2886 16.366C44.3427 16.2031 44.4538 16.0406 44.6415 15.9206C44.8069 15.8168 45.0027 15.7721 45.1967 15.7941C45.3755 15.8118 45.5656 15.9024 45.7024 16.0341C45.9596 16.2811 45.9704 16.6004 45.9587 16.7358C45.9494 16.8049 45.9461 16.8344 45.926 16.9016C45.3764 16.8631 44.8247 16.863 44.275 16.9011C44.2668 16.8743 44.2601 16.847 44.2549 16.8194C44.2451 16.7554 44.2325 16.7326 44.2409 16.6163ZM45.708 20.4137C45.6396 20.4809 45.5608 20.5366 45.4745 20.5785C45.0842 20.7452 44.7284 20.6817 44.4263 20.3395C44.3659 20.2635 44.3185 20.1779 44.2862 20.0864C44.1746 19.7119 44.2395 19.3552 44.6415 19.0713C44.8063 18.9671 45.0017 18.922 45.1955 18.9434C45.3893 18.9649 45.57 19.0517 45.708 19.1895C45.7747 19.2553 45.8284 19.3291 45.8695 19.4098C46.0371 19.7782 45.9876 20.1125 45.708 20.4137ZM45.708 22.1824C45.6396 22.2496 45.5608 22.3053 45.4745 22.3472C45.0842 22.5139 44.7284 22.4504 44.4263 22.1081C44.3657 22.0323 44.3183 21.9467 44.2862 21.855C44.1746 21.4806 44.2395 21.1243 44.6415 20.84C44.9362 20.6635 45.2266 20.6756 45.4726 20.7952C45.5576 20.839 45.6342 20.8997 45.6725 20.9301C45.7098 20.9604 45.7098 20.9604 45.7393 20.9959C45.7677 21.0314 45.8252 21.1019 45.8677 21.1808C46.0404 21.5544 45.9848 21.8812 45.708 22.1824ZM45.708 23.9505C45.6395 24.0178 45.5607 24.0736 45.4745 24.1158C45.0842 24.2821 44.7284 24.219 44.4263 23.8763C44.3658 23.8006 44.3184 23.7152 44.2862 23.6237C44.1746 23.2488 44.2395 22.8925 44.6415 22.6086C44.8062 22.5041 45.0016 22.4589 45.1955 22.4804C45.3894 22.5018 45.5701 22.5888 45.708 22.7268C45.7747 22.7926 45.8284 22.8664 45.8695 22.9472C46.0371 23.3151 45.9876 23.6494 45.708 23.9505ZM30.9671 36.8051L28.8548 35.8951L29.7643 33.7828L31.8766 34.6923L30.9671 36.8051ZM38.8532 35.0878C38.7832 35.1466 38.695 35.211 38.6034 35.2703C38.4108 35.3957 38.2025 35.4951 37.9839 35.5659C37.8484 35.6107 37.679 35.6579 37.5067 35.6901C37.1658 35.7583 36.7713 35.7494 36.4977 35.7162C36.2949 35.6973 36.0965 35.6456 35.9103 35.5631C35.7642 35.4968 35.632 35.4212 35.5503 35.3478C35.4186 35.2311 35.3365 35.1144 35.2893 34.9715C35.2501 34.8481 35.2487 34.7157 35.2851 34.5914C35.35 34.3944 35.4336 34.231 35.6586 34.0377C35.742 33.9688 35.8296 33.9054 35.921 33.8477C36.1124 33.7273 36.3177 33.6304 36.5322 33.5591C36.8312 33.4606 37.1419 33.4025 37.4562 33.3864C37.8102 33.3677 38.1809 33.4209 38.4386 33.5031C38.6282 33.5656 38.822 33.6618 38.9583 33.779C39.1595 33.9462 39.2538 34.1792 39.2501 34.3431C39.2436 34.6027 39.1325 34.8412 38.8532 35.0878ZM42.1753 32.4035C41.9143 32.5721 41.7962 32.622 41.6762 32.6645C41.4343 32.7529 41.181 32.806 40.924 32.8223C40.3105 32.8531 39.7805 32.7285 39.1586 32.4138C38.8329 32.244 38.5373 32.0219 38.2836 31.7564C38.152 31.6159 38.0363 31.4613 37.9386 31.2955C37.6225 30.7474 37.5874 30.1922 37.6225 29.7706C37.65 29.5073 37.7406 29.2131 37.8601 29.003C37.9275 28.8789 38.027 28.7753 38.1483 28.703C38.2696 28.6307 38.4081 28.5924 38.5493 28.5921C38.702 28.5944 38.8476 28.6304 38.9186 28.6836C38.9966 28.7429 39.0269 28.7723 39.0802 28.8844C39.2108 29.1736 39.293 29.4823 39.3234 29.7981C39.497 29.711 39.6582 29.6009 39.8025 29.4708C39.9463 29.3406 40.0728 29.1907 40.1751 29.0268C40.3763 28.699 40.4804 28.3731 40.4818 28.1159C40.487 27.7386 40.3581 27.3534 39.9743 26.9999C39.8527 26.8928 39.7142 26.8067 39.5643 26.745C39.2497 26.6124 38.9074 26.6115 38.6212 26.681C38.2453 26.7758 37.8713 26.9649 37.5216 27.3688C37.5507 26.6257 37.3989 25.8866 37.0792 25.2151C36.7595 24.5436 36.2814 23.9598 35.6862 23.514C35.3721 24.1813 35.1945 24.9047 35.1639 25.6417C35.1332 26.3786 35.2502 27.1142 35.5078 27.8054C35.0881 27.4169 34.6422 27.3039 34.3522 27.2843C34.2065 27.2857 34.116 27.2773 33.9026 27.3585C33.791 27.402 33.635 27.4753 33.4959 27.5738C33.3566 27.6735 33.2349 27.7958 33.1359 27.9356C33.0346 28.0773 32.9581 28.2352 32.9099 28.4025C32.803 28.7677 32.8399 29.1683 32.9991 29.482C33.0817 29.6478 33.1975 29.7967 33.3245 29.9256C33.4515 30.0549 33.5897 30.1647 33.7359 30.2623C34.0281 30.458 34.3524 30.6011 34.694 30.6848C34.3882 30.202 34.4274 29.7444 34.8182 29.37C34.8892 29.3098 34.9695 29.2612 35.0339 29.2294C35.18 29.1599 35.3108 29.1342 35.5139 29.221C35.6722 29.2873 35.851 29.4181 35.9481 29.5642C36.0041 29.6436 36.048 29.7318 36.091 29.8602C36.1339 29.9886 36.176 30.1572 36.2021 30.3286C36.2815 30.8342 36.2147 31.3408 36.0611 31.7862C35.9556 32.0739 35.9075 32.2905 35.6745 32.664C35.525 32.8998 35.3442 33.1142 35.1371 33.3014C34.9065 33.5024 34.6396 33.6575 34.3508 33.7585C34.0623 33.8607 33.7555 33.9093 33.4501 33.9014C33.1448 33.8934 32.8413 33.829 32.5023 33.6908C31.8099 33.4106 31.0502 32.8587 30.5427 32.1906C30.2818 31.8533 30.0663 31.4834 29.9016 31.0901C30.4624 31.0369 31.0143 31.0719 31.5998 31.3086C32.0181 31.4734 32.3973 31.8045 32.8576 32.2611C32.9996 32.4035 33.1378 32.5492 33.2713 32.6991C33.3456 32.7691 33.4282 32.6743 33.4137 32.636C32.7063 30.6068 31.9868 28.5744 31.2734 26.5433C31.2174 26.413 31.0876 26.4896 31.0824 26.5344C31.0143 27.3371 30.9951 28.1728 30.6449 28.8788C30.5311 29.0944 30.3815 29.2891 30.2023 29.4545C30.0229 29.6203 29.8175 29.7557 29.5944 29.8551C29.4842 29.4445 29.4036 29.0264 29.3535 28.6042C29.338 28.4842 29.3289 28.3634 29.3264 28.2424C29.318 27.9254 29.3637 27.6013 29.4412 27.2278C29.4935 26.9799 29.5482 26.7511 29.6149 26.5732C29.6938 26.3607 29.8045 26.1362 29.9222 25.99C30.0417 25.8555 30.1645 25.8373 30.2336 25.7855C30.4222 25.6216 30.3447 25.4185 30.249 25.3041C29.9903 25.0753 29.7531 25.1753 29.5584 25.3391C29.4019 25.122 29.2601 24.8945 29.134 24.6584C28.8711 24.1812 28.6858 23.6046 28.5924 23.2292C28.5558 23.0883 28.5251 22.9459 28.5004 22.8024C28.4369 22.4452 28.4014 22.0922 28.4458 21.7369C28.4747 21.4806 28.5532 21.1902 28.6498 20.8848C28.7586 20.5351 28.9267 20.1443 29.1653 19.7581C29.2918 19.5546 29.4352 19.3622 29.5935 19.1829C29.7517 19.0032 29.925 18.8369 30.1089 18.6796C30.6607 18.2005 31.3078 17.8438 32.0074 17.6328C32.6097 17.4581 33.2484 17.3484 33.7901 17.3718C34.1365 17.382 34.4045 17.4044 34.849 17.481C35.0778 17.5198 35.3696 17.5753 35.6586 17.6435C36.2469 17.7836 36.7185 17.9456 37.4348 18.2398C37.7971 18.3868 38.2463 18.5736 38.7001 18.7464C40.1176 19.2978 41.5711 19.6382 42.9826 19.8394L42.9817 23.4986C42.9809 23.7139 42.9248 23.9254 42.8187 24.1127C42.7125 24.3001 42.5599 24.457 42.3756 24.5683C42.2533 24.642 42.1184 24.6943 41.9783 24.7228C42.4233 24.8617 42.8377 25.0842 43.1993 25.3784C43.5784 25.6926 43.8357 26.0064 43.9869 26.2893C44.1511 26.592 44.25 26.9257 44.2774 27.2689C44.1256 27.3151 43.9692 27.3455 43.8114 27.359C43.5046 27.3838 43.196 27.3486 42.9028 27.2553C42.7032 27.195 42.5208 27.088 42.371 26.943C42.3 26.8743 42.2365 26.7978 42.1342 26.647C42.0315 26.4961 41.89 26.2711 41.771 26.04C41.6534 25.8119 41.5551 25.5743 41.4773 25.3298C41.4679 25.3104 41.4529 25.2943 41.4344 25.2834C41.4158 25.2724 41.3944 25.2673 41.3729 25.2685C41.3514 25.2697 41.3308 25.2772 41.3135 25.2901C41.2963 25.303 41.2832 25.3207 41.276 25.341C41.263 27.3735 41.2723 29.3999 41.2704 31.4291C41.2639 31.4814 41.333 31.5056 41.3573 31.4856C41.3783 31.4659 41.3676 31.4977 41.4058 31.3954C41.4301 31.3301 41.474 31.2054 41.5244 31.0831C41.5744 30.9607 41.6309 30.8408 41.6902 30.7231C41.8704 30.3351 42.2832 29.8332 42.7253 29.5264C43.0368 29.3102 43.3356 29.1557 43.5602 29.0698C43.7803 28.9861 44.0107 28.9326 44.2451 28.9105C44.2316 29.4022 44.1321 29.892 43.9505 30.3496C43.7689 30.8071 43.5055 31.2316 43.1722 31.5883C42.8397 31.9464 42.4359 32.235 42.1753 32.4035ZM45.1001 35.2255L43.4743 33.5993L45.1001 31.973L46.7263 33.5993L45.1001 35.2255ZM54.7843 35.2517C54.7142 35.3282 54.6647 35.3763 54.5573 35.4426C54.4834 35.4876 54.4067 35.5278 54.3276 35.5631C54.1416 35.646 53.9431 35.6977 53.7403 35.7162C53.5792 35.7349 53.4172 35.7437 53.2551 35.7424C52.9143 35.7419 52.5347 35.6602 52.2536 35.5659C51.9371 35.4611 51.6426 35.2991 51.3847 35.0878C50.9304 34.6834 50.8748 34.2081 51.182 33.8752C51.3025 33.7389 51.4318 33.6628 51.5878 33.5871C51.7353 33.519 51.8558 33.4774 52.0449 33.4414C52.1453 33.4223 52.2718 33.4032 52.3988 33.3929C52.7625 33.3611 53.1347 33.4116 53.4312 33.4811C53.6161 33.525 53.814 33.5899 54.0148 33.6828C54.21 33.7725 54.4224 33.9074 54.5793 34.0382C55.0313 34.436 55.0934 34.9192 54.7843 35.2517ZM61.0675 35.9366L58.9454 36.8242L58.0583 34.7026L60.1794 33.815L61.0675 35.9366ZM61.7469 22.4457C61.7142 22.6997 61.6922 22.8701 61.6016 23.2301C61.5531 23.4187 61.4802 23.6765 61.3883 23.9272C61.2027 24.4301 60.9493 24.9053 60.6351 25.3396C60.3769 25.1239 60.1374 25.1197 59.9446 25.3046C59.8134 25.4848 59.8222 25.5922 59.8997 25.7248C59.9889 25.8378 60.0758 25.8317 60.1631 25.8957C60.2672 25.9676 60.3064 26.0278 60.3648 26.1245C60.4989 26.349 60.5993 26.5921 60.6627 26.8459C60.6916 26.9551 60.7239 27.0915 60.7519 27.2283C60.8046 27.486 60.8457 27.7288 60.8593 27.9408C60.87 28.1551 60.8747 28.297 60.8392 28.6042C60.7907 29.0268 60.7103 29.4451 60.5987 29.8556C60.3756 29.7557 60.1702 29.6205 59.9903 29.455C59.8112 29.2897 59.6616 29.095 59.5482 28.8793C59.4352 28.6645 59.3614 28.4306 59.3054 28.178C59.2504 27.9158 59.2096 27.6508 59.183 27.3842C59.1527 27.1135 59.1308 26.842 59.1172 26.5699C59.1219 26.4784 58.9804 26.4368 58.9346 26.512C58.2077 28.5501 57.5022 30.5769 56.785 32.6089C56.7467 32.6874 56.8597 32.75 56.898 32.7163C57.0595 32.5954 57.1851 32.41 57.335 32.2611C57.6184 31.981 57.8869 31.726 58.1596 31.5411C58.4308 31.3624 58.7319 31.2338 59.0486 31.1615C59.4557 31.0687 59.8755 31.0445 60.2906 31.0901C59.9599 31.8799 59.4264 32.5683 58.7441 33.0857C58.4199 33.3309 58.066 33.5342 57.6908 33.6908C57.3513 33.8285 57.0479 33.8934 56.7425 33.9014C56.1561 33.9172 55.5323 33.7193 55.0565 33.3014C54.8492 33.1144 54.6686 32.9 54.5195 32.664C54.4251 32.5181 54.3462 32.3627 54.2842 32.2004C54.1119 31.7676 53.9676 31.3249 53.9588 30.8468C53.951 30.5123 53.9998 30.1789 54.103 29.8607C54.146 29.7323 54.1899 29.6441 54.2455 29.5647C54.3019 29.4848 54.3696 29.4139 54.4481 29.3555C54.5256 29.2967 54.6124 29.2509 54.6806 29.2215C54.7945 29.1729 54.8664 29.158 54.9972 29.1753C55.1839 29.207 55.4393 29.3793 55.557 29.582C55.783 29.9835 55.7223 30.3542 55.5005 30.6857C55.9712 30.5667 56.4343 30.3514 56.8704 29.9265C57.0013 29.7965 57.1111 29.6469 57.1959 29.483C57.279 29.3172 57.328 29.1342 57.3415 28.9484C57.3608 28.6835 57.3119 28.4181 57.1994 28.1776C57.087 27.937 56.9147 27.7293 56.6991 27.5742C56.4399 27.3959 56.1785 27.3039 56.0463 27.2941C55.9791 27.2856 55.9114 27.2825 55.8437 27.2848C55.6849 27.2885 55.4916 27.3399 55.2955 27.4164C55.0704 27.5074 54.8641 27.6394 54.6871 27.8058C54.9455 27.1149 55.0629 26.3792 55.0324 25.6421C55.0018 24.9051 54.8239 24.1816 54.5093 23.5145C54.1135 23.8109 53.7681 24.1691 53.4863 24.5753C53.2042 24.981 52.9904 25.4321 52.8527 25.906C52.7149 26.3799 52.6547 26.8762 52.6738 27.3693C52.5797 27.2581 52.4746 27.1567 52.3601 27.0667C51.6261 26.513 50.8235 26.4882 50.2207 27.0004C50.104 27.1048 50.0029 27.2254 49.9204 27.3585C49.7783 27.5852 49.7063 27.8489 49.7136 28.1163C49.7201 28.5604 50.0064 29.1319 50.393 29.4708C50.5372 29.6006 50.6983 29.7113 50.8715 29.7981C50.8823 29.6889 50.8991 29.5806 50.9215 29.4736C50.9626 29.271 51.0476 29.0287 51.1148 28.8844C51.1336 28.8384 51.1598 28.7958 51.1923 28.7583C51.2466 28.693 51.3204 28.6469 51.4029 28.6267C51.465 28.6089 51.5542 28.5921 51.6457 28.5921C51.7358 28.5921 51.8273 28.6084 51.9118 28.6402C52.0659 28.7018 52.2055 28.7821 52.3348 29.003C52.3913 29.1024 52.446 29.2313 52.4871 29.3634C52.6804 30.0302 52.5944 30.6899 52.2564 31.2951C52.1583 31.4608 52.0425 31.6153 51.9109 31.7559C51.2834 32.3956 50.6507 32.6216 50.1217 32.7537C49.5572 32.8709 49.0595 32.8578 48.5183 32.6645C48.3979 32.622 48.2802 32.5721 48.0197 32.4035C47.7586 32.2345 47.3548 31.9464 47.0219 31.5897C46.688 31.233 46.4247 30.8085 46.2431 30.351C46.0614 29.8934 45.962 29.4041 45.9484 28.9119C46.3146 28.9466 46.6695 29.0571 46.9906 29.2364C47.1311 29.3111 47.3053 29.4115 47.4682 29.5273C47.6316 29.6431 47.7839 29.7743 47.9235 29.9177C48.2036 30.2058 48.3904 30.4915 48.5034 30.724C48.6229 30.9523 48.7387 31.2563 48.7877 31.3964C48.8115 31.4617 48.8153 31.4678 48.8195 31.4734C48.855 31.5066 48.8862 31.4982 48.9105 31.4701C48.915 31.4645 48.9182 31.458 48.9199 31.451C48.9474 29.4139 48.9801 27.3772 48.9918 25.3424C48.9507 25.2472 48.8377 25.2467 48.791 25.3312C48.6774 25.5708 48.5557 25.8066 48.4263 26.0381C48.2961 26.2697 48.1583 26.4961 48.057 26.6479C47.9566 26.7996 47.8927 26.8762 47.8217 26.9448C47.7507 27.013 47.6723 27.0737 47.5873 27.1251C47.5023 27.1764 47.4122 27.218 47.2899 27.2572C47.1482 27.3018 47.0029 27.3337 46.8556 27.3525C46.5399 27.3911 46.2195 27.3631 45.9153 27.2703C45.9429 26.9272 46.0416 26.5936 46.2052 26.2907C46.3621 25.9965 46.6292 25.6804 46.9934 25.3798C47.3544 25.0847 47.769 24.8621 48.2144 24.7242C48.0031 24.6817 47.8065 24.5852 47.6435 24.4443C47.4806 24.3033 47.3568 24.1226 47.2843 23.9197C47.2356 23.7851 47.2107 23.6431 47.2105 23.5L47.2096 19.8408C48.6504 19.6349 50.0885 19.2931 51.4921 18.7478C51.9464 18.5745 52.3951 18.3882 52.7579 18.2412C53.061 18.1149 53.3679 17.9978 53.6782 17.89C54.4177 17.6388 55.1667 17.4913 55.9035 17.4035C56.6697 17.3199 57.4092 17.4105 58.1852 17.6342C58.8848 17.8453 59.5318 18.2021 60.0837 18.681C60.2681 18.8379 60.4414 19.0046 60.5992 19.1843C60.7579 19.3641 60.9008 19.5564 61.0278 19.7595C61.2748 20.1597 61.4382 20.551 61.5433 20.8862C61.6418 21.1981 61.7193 21.4895 61.7478 21.7383C61.7772 21.9736 61.7735 22.2099 61.7469 22.4457Z" fill="#222426"/>
</svg>
