<svg width="60" height="60" viewBox="0 0 60 60" fill="none" xmlns="http://www.w3.org/2000/svg">
<path d="M30 0C13.458 0 0 13.458 0 30C0 46.542 13.458 60 30 60C46.542 60 60 46.542 60 30C60 13.458 46.542 0 30 0ZM30 59.646C13.656 59.646 0.354 46.344 0.354 30C0.354 13.656 13.656 0.354 30 0.354C46.344 0.354 59.646 13.65 59.646 30C59.646 46.35 46.35 59.646 30 59.646Z" fill="#222426"/>
<path d="M40.1756 41.076C38.9576 41.076 38.3636 40.65 37.7336 40.194C37.0856 39.726 36.4136 39.246 35.0816 39.246C33.7496 39.246 33.0776 39.732 32.4296 40.194C31.7996 40.65 31.2056 41.076 29.9876 41.076C28.7696 41.076 28.1816 40.65 27.5516 40.194C26.9036 39.726 26.2316 39.246 24.8996 39.246C23.5676 39.246 22.8956 39.732 22.2476 40.194C21.6176 40.65 21.0236 41.076 19.8116 41.076C18.5996 41.076 18.0056 40.65 17.3756 40.194C16.7276 39.726 16.0556 39.246 14.7236 39.246V39.612C15.9356 39.612 16.5296 40.038 17.1596 40.494C17.8076 40.962 18.4796 41.442 19.8116 41.442C21.1436 41.442 21.8156 40.956 22.4636 40.494C23.0936 40.038 23.6876 39.612 24.8996 39.612C26.1116 39.612 26.7056 40.038 27.3356 40.494C27.9836 40.962 28.6556 41.442 29.9876 41.442C31.3196 41.442 31.9916 40.956 32.6396 40.494C33.2696 40.038 33.8636 39.612 35.0816 39.612C36.2996 39.612 36.8936 40.038 37.5236 40.494C38.1716 40.962 38.8436 41.442 40.1756 41.442C41.5076 41.442 42.1796 40.956 42.8276 40.494C43.4576 40.038 44.0516 39.612 45.2696 39.612V39.246C43.9376 39.246 43.2656 39.732 42.6176 40.194C41.9876 40.65 41.3936 41.076 40.1756 41.076V41.076Z" fill="#222426"/>
<path d="M40.1756 44.664C38.9576 44.664 38.3636 44.238 37.7336 43.782C37.0856 43.314 36.4136 42.834 35.0816 42.834C33.7496 42.834 33.0776 43.32 32.4296 43.782C31.7996 44.238 31.2056 44.664 29.9876 44.664C28.7696 44.664 28.1816 44.238 27.5516 43.782C26.9036 43.314 26.2316 42.834 24.8996 42.834C23.5676 42.834 22.8956 43.32 22.2476 43.782C21.6176 44.238 21.0236 44.664 19.8116 44.664C18.5996 44.664 18.0056 44.238 17.3756 43.782C16.7276 43.314 16.0556 42.834 14.7236 42.834V43.2C15.9356 43.2 16.5296 43.626 17.1596 44.082C17.8076 44.55 18.4796 45.03 19.8116 45.03C21.1436 45.03 21.8156 44.544 22.4636 44.082C23.0936 43.626 23.6876 43.2 24.8996 43.2C26.1116 43.2 26.7056 43.626 27.3356 44.082C27.9836 44.55 28.6556 45.03 29.9876 45.03C31.3196 45.03 31.9916 44.544 32.6396 44.082C33.2696 43.626 33.8636 43.2 35.0816 43.2C36.2996 43.2 36.8936 43.626 37.5236 44.082C38.1716 44.55 38.8436 45.03 40.1756 45.03C41.5076 45.03 42.1796 44.544 42.8276 44.082C43.4576 43.626 44.0516 43.2 45.2696 43.2V42.834C43.9376 42.834 43.2656 43.32 42.6176 43.782C41.9876 44.238 41.3936 44.664 40.1756 44.664V44.664Z" fill="#222426"/>
<path d="M40.1756 48.252C38.9576 48.252 38.3636 47.826 37.7336 47.37C37.0856 46.902 36.4136 46.422 35.0816 46.422C33.7496 46.422 33.0776 46.908 32.4296 47.37C31.7996 47.826 31.2056 48.252 29.9876 48.252C28.7696 48.252 28.1816 47.826 27.5516 47.37C26.9036 46.902 26.2316 46.422 24.8996 46.422C23.5676 46.422 22.8956 46.908 22.2476 47.37C21.6176 47.826 21.0236 48.252 19.8116 48.252C18.5996 48.252 18.0056 47.826 17.3756 47.37C16.7276 46.902 16.0556 46.422 14.7236 46.422V46.788C15.9356 46.788 16.5296 47.214 17.1596 47.67C17.8076 48.138 18.4796 48.618 19.8116 48.618C21.1436 48.618 21.8156 48.132 22.4636 47.67C23.0936 47.214 23.6876 46.788 24.8996 46.788C26.1116 46.788 26.7056 47.214 27.3356 47.67C27.9836 48.138 28.6556 48.618 29.9876 48.618C31.3196 48.618 31.9916 48.132 32.6396 47.67C33.2696 47.214 33.8636 46.788 35.0816 46.788C36.2996 46.788 36.8936 47.214 37.5236 47.67C38.1716 48.138 38.8436 48.618 40.1756 48.618C41.5076 48.618 42.1796 48.132 42.8276 47.67C43.4576 47.214 44.0516 46.788 45.2696 46.788V46.422C43.9376 46.422 43.2656 46.908 42.6176 47.37C41.9876 47.826 41.3936 48.252 40.1756 48.252V48.252Z" fill="#222426"/>
<path d="M29.0815 16.6979C28.1575 17.6759 27.2935 18.7139 26.5075 19.8059C27.5995 19.0199 28.6375 18.1559 29.6155 17.2319C29.6575 18.5759 29.7775 19.9199 29.9935 21.2519C30.2095 19.9199 30.3355 18.5819 30.3715 17.2319C31.3495 18.1559 32.3875 19.0199 33.4795 19.8059C32.6935 18.7139 31.8295 17.6759 30.9055 16.6979C32.2495 16.6559 33.5935 16.5359 34.9255 16.3199C33.5935 16.1039 32.2555 15.9779 30.9055 15.9419C31.8295 14.9639 32.6935 13.9259 33.4795 12.8339C32.3875 13.6199 31.3495 14.4839 30.3715 15.4079C30.3295 14.0639 30.2095 12.7199 29.9935 11.3879C29.7775 12.7199 29.6515 14.0639 29.6155 15.4079C28.6375 14.4839 27.5995 13.6199 26.5075 12.8339C27.2935 13.9259 28.1575 14.9639 29.0815 15.9419C27.7375 15.9839 26.3935 16.1039 25.0615 16.3199C26.3935 16.5359 27.7375 16.6619 29.0815 16.6979V16.6979Z" fill="#222426"/>
<path d="M39.7978 17.514C39.7978 17.514 39.4558 17.25 38.6578 16.626C37.9318 16.056 36.7258 16.266 37.8238 17.58C37.8238 17.58 39.9058 20.694 38.1898 22.746C34.3918 24.228 30.7618 28.914 30.3658 30.63C30.0958 31.782 31.1338 31.704 31.1338 31.704C32.5978 29.802 34.2778 28.704 35.4658 28.116C36.1078 27.798 36.8398 28.368 36.6298 29.034C35.2558 33.402 31.9738 34.32 30.0598 34.266C30.0358 34.266 30.0178 34.272 29.9998 34.272C29.9818 34.272 29.9578 34.26 29.9398 34.266C28.0258 34.32 24.7438 33.402 23.3698 29.034C23.1598 28.368 23.8918 27.798 24.5338 28.116C25.7218 28.71 27.4018 29.802 28.8658 31.704C28.8658 31.704 29.9038 31.782 29.6338 30.63C29.2318 28.914 25.6078 24.228 21.8098 22.746C20.0878 20.694 22.1758 17.58 22.1758 17.58C23.2738 16.266 22.0678 16.056 21.3418 16.626C20.5438 17.256 20.2018 17.514 20.2018 17.514C15.7918 17.832 14.4538 20.982 15.4618 24.372C15.0298 25.692 14.6158 27.126 14.7178 27.456C14.8138 27.768 15.6838 27.354 16.5598 26.844C17.1118 27.846 17.7298 28.794 18.3298 29.598C20.6758 33.006 24.0178 35.61 30.0118 35.124C35.9998 35.61 39.3418 33.006 41.6938 29.598C42.2938 28.794 42.9118 27.846 43.4638 26.844C44.3398 27.354 45.2098 27.768 45.3058 27.456C45.4078 27.126 44.9938 25.686 44.5618 24.372C45.5698 20.982 44.2318 17.832 39.8218 17.514H39.7978Z" fill="#222426"/>
</svg>
