<svg width="16" height="16" viewBox="0 0 16 16" fill="none" xmlns="http://www.w3.org/2000/svg">
<path d="M11 5.75V11.75C10.9997 12.0151 10.8942 12.2693 10.7068 12.4568C10.5193 12.6442 10.2651 12.7497 10 12.75H3C2.33719 12.7492 1.70175 12.4856 1.23307 12.0169C0.764394 11.5483 0.500758 10.9128 0.5 10.25V4.25C0.500303 3.98488 0.605757 3.7307 0.793228 3.54323C0.980699 3.35576 1.23488 3.2503 1.5 3.25H8.5C9.16281 3.25076 9.79825 3.51439 10.2669 3.98307C10.7356 4.45175 10.9992 5.08719 11 5.75ZM15.251 4.56757C15.1752 4.52362 15.0893 4.50034 15.0017 4.50004C14.9141 4.49974 14.828 4.52243 14.752 4.56586L12.252 5.99445C12.1754 6.03818 12.1118 6.10137 12.0675 6.17761C12.0233 6.25385 12 6.34044 12 6.42859V9.57141C12 9.65956 12.0233 9.74615 12.0675 9.82239C12.1118 9.89863 12.1754 9.96182 12.252 10.0056L14.752 11.4341C14.828 11.4776 14.9141 11.5003 15.0017 11.5C15.0893 11.4997 15.1752 11.4764 15.251 11.4324C15.3267 11.3885 15.3896 11.3254 15.4333 11.2495C15.477 11.1736 15.5 11.0876 15.5 11V5C15.5 4.91242 15.477 4.82638 15.4333 4.75049C15.3896 4.67459 15.3267 4.61151 15.251 4.56757Z" fill="#0033CC"/>
</svg>
