<svg width="52" height="64" viewBox="0 0 52 64" fill="none" xmlns="http://www.w3.org/2000/svg">
<path d="M29.3089 12.6926C28.1502 13.924 26.9711 15.1927 25.803 16.4623L25.7682 16.5004C25.4898 16.8021 25.1435 17.1784 25.2046 17.7801C25.2264 18.0133 25.31 18.2364 25.4468 18.4266C25.5836 18.6168 25.7687 18.7672 25.983 18.8624C26.3658 19.0319 26.8047 18.9903 27.219 18.7615L27.3166 18.8581C27.5538 19.1045 27.8058 19.3363 28.0712 19.5522C28.2138 19.6632 28.4252 19.8065 28.6781 19.8065C28.7088 19.8066 28.7394 19.8046 28.7698 19.8005C28.8755 19.7831 28.9763 19.744 29.066 19.6856C29.1557 19.6273 29.2324 19.551 29.291 19.4615C29.427 19.2922 29.5788 19.1361 29.7443 18.9954L29.8496 18.8996C30.055 18.7098 30.1611 18.503 30.1662 18.2827C30.1644 18.167 30.1386 18.053 30.0904 17.9478C30.0422 17.8426 29.9726 17.7486 29.8861 17.6716C29.651 17.4352 29.415 17.2047 29.1654 16.9606L29.0669 16.8648L29.2791 16.6411L29.3454 16.7063C29.5845 16.9509 29.8367 17.1823 30.1008 17.3996C30.2783 17.5403 30.5193 17.6962 30.8088 17.6538C30.9146 17.6341 31.0151 17.5923 31.1036 17.5311C31.1921 17.4699 31.2667 17.3907 31.3224 17.2987C31.4228 17.1647 31.5365 17.0412 31.6619 16.9301C31.6993 16.8945 31.7375 16.858 31.774 16.8216C32.2986 16.3021 32.3079 15.9317 31.8122 15.4071C31.5999 15.1825 31.3809 14.9774 31.1492 14.7605L31.0881 14.7037L34.1567 11.4264C35.8409 12.0934 37.7219 11.5603 38.7151 10.106C39.7703 8.55342 39.5793 6.56096 38.2491 5.25921C36.8697 3.90999 34.8918 3.77863 33.3257 4.93292C31.8334 6.03467 31.4234 7.81441 32.2289 9.62805L31.4471 10.445C30.7451 11.1807 30.0219 11.9383 29.3089 12.6926ZM32.8809 9.92552L33.0447 9.75602L32.9386 9.5433C32.1449 7.95001 32.4403 6.43045 33.7297 5.47956C35.0192 4.52867 36.6396 4.63714 37.772 5.74482C38.8637 6.81267 39.0199 8.45003 38.1515 9.72805C37.3026 10.9713 35.6499 11.3874 34.2136 10.7171L33.9903 10.6128L30.1314 14.7351L30.3725 14.9664C30.4769 15.0664 30.5805 15.163 30.6832 15.2588C30.9064 15.4681 31.1186 15.6665 31.3164 15.8758C31.3883 15.9411 31.448 16.0186 31.493 16.1046C31.4412 16.1952 31.374 16.2761 31.2943 16.3436L31.1891 16.4462C31.0312 16.5889 30.8889 16.748 30.7647 16.9207C30.7497 16.9455 30.7308 16.9675 30.7086 16.986C30.6418 16.9605 30.5805 16.9225 30.5278 16.8741C30.2829 16.6713 30.0489 16.4558 29.8267 16.2283C29.7223 16.1258 29.6161 16.0216 29.5066 15.9173L29.2579 15.6775L28.1188 16.8826L28.3556 17.1157L28.6951 17.4453C28.9438 17.6877 29.1781 17.9174 29.4107 18.1505C29.4778 18.2174 29.4956 18.2589 29.4956 18.2691C29.4956 18.2793 29.4769 18.3276 29.3971 18.4013C29.364 18.4327 29.3301 18.4632 29.2953 18.4945C29.0945 18.6651 28.9114 18.8554 28.7486 19.0624C28.7316 19.0889 28.7093 19.1116 28.6832 19.1293C28.6773 19.1293 28.6298 19.1293 28.4948 19.0225C28.2507 18.8227 28.0186 18.6088 27.7996 18.3818C27.7003 18.2827 27.6009 18.1844 27.4999 18.0877L27.2903 17.8869L27.0594 18.0632C26.7741 18.2801 26.4889 18.3445 26.2572 18.2437C26.1541 18.1959 26.0654 18.1219 26 18.029C25.9346 17.9362 25.8948 17.8279 25.8845 17.7149C25.8557 17.4301 26.0051 17.2521 26.2716 16.9631L26.3081 16.9241C27.4736 15.6529 28.6518 14.3901 29.808 13.1604C30.5159 12.4078 31.2417 11.6485 31.9429 10.9154C32.2553 10.5837 32.5679 10.2538 32.8809 9.92552Z" fill="black"/>
<path d="M35.4589 9.75972C35.5318 9.76843 35.6052 9.77295 35.6787 9.77328C36.0437 9.77696 36.3985 9.65348 36.6821 9.42411C37.5165 8.73933 37.6761 7.77064 37.0997 6.89687C36.9698 6.70283 36.8012 6.53758 36.6045 6.41146C36.4077 6.28533 36.1871 6.20102 35.9563 6.16379C35.7087 6.11919 35.4545 6.12519 35.2093 6.18142C34.964 6.23765 34.7327 6.34294 34.5294 6.49092C33.6983 7.10705 33.5515 8.16812 34.1796 9.01477C34.3314 9.21872 34.5231 9.38986 34.7429 9.51789C34.9628 9.64592 35.2063 9.72818 35.4589 9.75972ZM34.9343 7.03586C35.0632 6.94234 35.2098 6.876 35.3652 6.84089C35.5207 6.80577 35.6816 6.80262 35.8383 6.83161C35.978 6.85321 36.1117 6.90326 36.2311 6.97863C36.3506 7.05401 36.4532 7.15311 36.5327 7.26977C36.913 7.84692 36.8103 8.44101 36.2509 8.90035C36.1517 8.97799 36.0376 9.03458 35.9157 9.06664C35.7938 9.0987 35.6667 9.10556 35.5421 9.0868C35.3809 9.06663 35.2254 9.01411 35.0851 8.9324C34.9447 8.85069 34.8224 8.74149 34.7254 8.61136C34.3248 8.0715 34.4105 7.42317 34.9343 7.03586Z" fill="black"/>
<path d="M26.876 38.0524C30.302 32.6674 32.7069 26.9502 34.026 21.0584C34.251 20.0516 34.419 19.1261 34.5396 18.2269L33.8664 18.1371C33.7484 19.0168 33.5837 19.9236 33.363 20.9101C32.0397 26.8248 29.6077 32.5581 26.1333 37.9549H25.8625C22.3881 32.5581 19.9561 26.8248 18.6327 20.9101C18.0079 18.121 17.7974 15.7539 17.9884 13.6742C18.2261 11.0893 19.1115 8.91209 20.6199 7.20269C21.9441 5.70177 23.7666 4.79326 25.6129 4.68478C25.7037 4.67884 25.7946 4.67545 25.8854 4.67376H25.9244C26.0093 4.67376 26.0942 4.67376 26.1791 4.67376C26.2207 4.67376 26.264 4.67376 26.3039 4.67884C27.692 4.75953 29.026 5.24483 30.1408 6.07467L30.5423 5.52719C29.3437 4.63734 27.9145 4.10965 26.4244 4.00678C26.3735 4.00678 26.3226 4.00169 26.2716 4H26.2105C26.1112 4 26.011 4 25.9109 4H25.8829C23.7531 4.03305 21.6309 5.03988 20.1148 6.75775C18.5088 8.57733 17.5682 10.8842 17.3136 13.6157C17.1158 15.7666 17.3306 18.2023 17.9706 21.0618C19.2897 26.9561 21.6946 32.6725 25.1206 38.0558C19.4435 38.2821 14.0744 40.6926 10.1374 44.7824C6.20051 48.8722 4.00118 54.3242 4 59.9966H4.67909C4.66503 54.4953 6.79968 49.2053 10.6296 45.2502C13.3282 46.1595 15.7101 46.6155 17.7601 46.6155C19.9501 46.6155 21.7625 46.0968 23.1801 45.0586C24.843 43.8416 25.6324 42.1526 26.0068 40.7746C26.3803 42.1526 27.1697 43.8416 28.8327 45.0586C30.2503 46.0968 32.0583 46.6155 34.2527 46.6155C36.3001 46.6155 38.6786 46.1604 41.3738 45.2536C45.2023 49.2093 47.3357 54.4992 47.3209 60H48C48.0005 54.3259 45.8015 48.8717 41.8637 44.7803C37.9259 40.689 32.5548 38.2779 26.876 38.0524ZM22.7777 44.5095C21.4773 45.4612 19.7991 45.9375 17.7584 45.9375C15.8682 45.9375 13.6703 45.529 11.1644 44.712C15.0463 40.9353 20.2314 38.7892 25.6511 38.716C25.5951 39.716 25.2216 42.7204 22.7777 44.5095ZM29.2384 44.5095C26.7962 42.7297 26.4185 39.7143 26.3608 38.7126C31.7773 38.789 36.9584 40.9359 40.8373 44.7112C35.6439 46.4096 31.7434 46.3426 29.2384 44.5129V44.5095Z" fill="black"/>
</svg>
