<svg width="29" height="64" viewBox="0 0 29 64" fill="none" xmlns="http://www.w3.org/2000/svg">
<path d="M14.8848 27.4336C14.8604 27.4166 14.8313 27.4069 14.8013 27.4058H14.7696C14.7339 27.4116 14.7006 27.4268 14.6732 27.4496C14.6458 27.4724 14.6254 27.502 14.6141 27.5353L10.9391 35.9919C10.926 36.0211 10.9193 36.0526 10.9196 36.0845C10.9184 36.106 10.9224 36.1276 10.9313 36.1474C10.9402 36.1672 10.9537 36.1847 10.9708 36.1986C11.0072 36.227 11.0529 36.2416 11.0996 36.2397H11.1183C11.1738 36.2397 11.2191 36.1986 11.253 36.1158L12.2932 33.7221H17.2748L18.3121 36.1186C18.346 36.1972 18.3928 36.2362 18.4561 36.2362H18.4756C18.5211 36.2353 18.5646 36.2176 18.5972 36.1868C18.6152 36.1725 18.6296 36.1545 18.6396 36.1342C18.6495 36.1138 18.6547 36.0916 18.6548 36.0691C18.6515 36.0419 18.6424 36.0156 18.6282 35.9919L14.9568 27.5387C14.9441 27.4976 14.919 27.461 14.8848 27.4336ZM12.4372 33.3816L14.7869 27.9697L17.1236 33.3816H12.4372Z" fill="black"/>
<path d="M11.4775 18.6029C11.502 18.6029 11.5264 18.5982 11.5491 18.5891C11.5718 18.58 11.5924 18.5667 11.6098 18.5498C11.6272 18.533 11.641 18.5131 11.6504 18.4911C11.6598 18.4692 11.6646 18.4456 11.6646 18.4218V13.8642H15.6046C16.0318 13.8682 16.4519 13.7579 16.8183 13.5453C17.2324 13.2996 17.5537 12.9314 17.7347 12.4954C17.7002 12.5532 17.6627 12.6103 17.6224 12.6653C17.7319 12.4887 17.8138 12.2975 17.8657 12.0979C17.8657 12.0979 17.8657 12.0937 17.8657 12.0916C17.8887 11.9965 17.9065 11.9003 17.919 11.8033C17.919 11.7825 17.924 11.7616 17.9255 11.7421C17.9269 11.7226 17.9255 11.7226 17.9255 11.7142C17.9312 11.6446 17.9341 11.5791 17.9341 11.5102C17.9405 11.085 17.8248 10.6664 17.6001 10.3008C17.4001 9.98154 17.1269 9.71095 16.8016 9.50996C16.4764 9.30896 16.1077 9.18293 15.7241 9.14159L11.6646 9.12558H11.4796C11.4543 9.12215 11.4286 9.12441 11.4044 9.1322C11.3801 9.13999 11.3581 9.1531 11.34 9.17049C11.3218 9.18788 11.3081 9.20909 11.2999 9.23247C11.2916 9.25584 11.2891 9.28073 11.2925 9.30521V18.417C11.2925 18.5409 11.3572 18.6029 11.4775 18.6029ZM11.6646 9.49181H15.4203C15.7983 9.48843 16.1707 9.5811 16.5001 9.76056C16.8239 9.93457 17.0949 10.1876 17.2862 10.4944C17.4803 10.8023 17.5815 11.1566 17.5785 11.5172C17.5787 11.5897 17.5749 11.6623 17.567 11.7344C17.5385 12.0191 17.4424 12.2936 17.2862 12.5365C17.0938 12.8381 16.8227 13.0854 16.5001 13.2536C16.2549 13.3839 15.986 13.4673 15.7082 13.4994C15.6126 13.5101 15.5165 13.5154 15.4203 13.5154H11.6646V9.49181Z" fill="black"/>
<path d="M13.1149 46.3048C13.822 45.9154 14.6229 45.7136 15.4366 45.72C16.4444 45.72 17.3961 46.053 18.2916 46.7191C18.3343 46.752 18.3868 46.7706 18.4414 46.772C18.4692 46.7724 18.4968 46.7674 18.5225 46.7572C18.5482 46.7471 18.5716 46.732 18.5911 46.7128L18.5976 46.7059L18.6113 46.6794C18.613 46.6703 18.6164 46.6616 18.6213 46.6537C18.6277 46.6413 18.6312 46.6278 18.6314 46.614C18.6262 46.5789 18.614 46.5452 18.5953 46.5147C18.5767 46.4843 18.552 46.4577 18.5227 46.4364C18.0922 46.0911 17.6057 45.8168 17.0829 45.6246C16.5564 45.4324 15.9979 45.3354 15.4351 45.3384C14.5606 45.3354 13.7004 45.5534 12.9397 45.9708C12.1791 46.3882 11.5444 46.9906 11.0985 47.7182C10.6564 48.4498 10.4233 49.2819 10.4233 50.1293C10.4233 50.9767 10.6564 51.8089 11.0985 52.5404C11.5429 53.2689 12.1766 53.8723 12.9368 54.2905C13.6969 54.7087 14.557 54.9273 15.4315 54.9244C15.9961 54.9273 16.5562 54.8278 17.0829 54.6313C17.604 54.4366 18.0869 54.1576 18.5112 53.8062C18.5389 53.7866 18.5614 53.7609 18.5768 53.7313C18.5922 53.7016 18.6001 53.6688 18.5997 53.6356C18.6006 53.6162 18.5974 53.5969 18.5903 53.5787C18.5833 53.5605 18.5725 53.5439 18.5587 53.5298L18.545 53.5173C18.5299 53.5024 18.5119 53.4907 18.492 53.4828C18.472 53.4749 18.4507 53.471 18.4291 53.4713C18.3737 53.4735 18.3208 53.4942 18.2794 53.5298C17.3915 54.2052 16.4422 54.5429 15.4315 54.5429C14.626 54.546 13.8337 54.3458 13.1328 53.9618C12.4319 53.5779 11.8468 53.0236 11.4354 52.3538C11.0287 51.6772 10.8145 50.9085 10.8145 50.1259C10.8145 49.3432 11.0287 48.5745 11.4354 47.8979C11.8396 47.2324 12.4192 46.6827 13.1149 46.3048Z" fill="black"/>
<path d="M7.16556 21.0082C9.05658 22.7643 11.578 23.7429 14.1996 23.7382C14.2823 23.7382 14.3644 23.7382 14.4472 23.7382C16.164 23.6986 17.8427 23.241 19.3282 22.4076C20.8136 21.5742 22.0577 20.3919 22.9454 18.9702C23.8331 17.5484 24.3358 15.9331 24.4069 14.2736C24.478 12.6142 24.1152 10.9642 23.3522 9.47628C23.0793 8.94715 22.7584 8.44248 22.3933 7.96821C22.0501 7.52421 21.6687 7.10915 21.253 6.7275C20.0909 5.65853 18.6854 4.86849 17.1498 4.42104C15.6142 3.97358 13.9914 3.88122 12.4121 4.15139L12.5129 4.69934C14.512 4.3524 16.5733 4.62585 18.402 5.48056C20.2307 6.33527 21.7331 7.72746 22.6942 9.45796C23.6552 11.1885 24.0258 13.1686 23.7529 15.1151C23.4799 17.0617 22.5774 18.8748 21.1745 20.2952C19.7352 21.7553 17.8444 22.7237 15.7869 23.0549C13.7294 23.386 11.6163 23.062 9.76557 22.1314C7.91488 21.2009 6.42671 19.7143 5.52496 17.8952C4.62322 16.0761 4.35668 14.023 4.76546 12.0447L4.20035 11.9361C3.86045 13.5674 3.95419 15.2555 4.4728 16.8422C4.99141 18.4288 5.91792 19.8623 7.16556 21.0082Z" fill="black"/>
<path d="M14.7076 41.0087C14.935 41.0087 15.1647 41.001 15.3943 40.9864C17.8007 40.8342 20.0733 39.8619 21.8085 38.2422C23.5437 36.6225 24.629 34.4604 24.8716 32.1399C24.929 31.5883 24.9379 31.033 24.8982 30.48C24.7882 28.9327 24.3041 27.4319 23.4849 26.0985C22.6656 24.7652 21.5342 23.6364 20.1816 22.8032L19.8727 23.2739C21.3807 24.2026 22.5928 25.5177 23.3742 27.0728C24.1557 28.6279 24.4759 30.3622 24.2993 32.0828C24.2401 32.6379 24.1302 33.1868 23.971 33.7231C23.4172 35.5594 22.2943 37.1871 20.7537 38.3866C19.2132 39.5861 17.3292 40.2996 15.3562 40.4308C10.0578 40.7726 5.45991 36.8841 5.10645 31.7625C4.99451 30.196 5.29556 28.6276 5.98138 27.2043C6.66721 25.781 7.71536 24.5494 9.02766 23.6248L8.68715 23.1757C7.29659 24.1556 6.18593 25.4608 5.45919 26.9691C4.73246 28.4774 4.41342 30.1394 4.53198 31.7994C4.8912 37.0052 9.38688 41.0094 14.7076 41.0087Z" fill="black"/>
<path d="M19.3942 41.3184L19.1351 41.8155C20.7648 42.6106 22.1273 43.8373 23.0637 45.3527C24.0001 46.8681 24.4719 48.6097 24.4241 50.3744C24.2859 55.4257 19.9961 59.443 14.8006 59.443C14.715 59.443 14.6293 59.443 14.5429 59.4396C13.5112 59.4146 12.4903 59.2294 11.5194 58.8909C10.9781 58.703 10.4557 58.4677 9.9587 58.1877C8.22709 57.2112 6.85243 55.738 6.02524 53.9721C5.19805 52.2063 4.9593 50.2353 5.34207 48.3323C5.45398 47.7858 5.61587 47.2499 5.82584 46.731C6.72265 44.5205 8.4596 42.7255 10.6807 41.7138L10.4345 41.2104C8.08066 42.2825 6.24007 44.185 5.29024 46.5277C5.06773 47.0782 4.89597 47.6467 4.77696 48.2265C4.3716 50.2434 4.62506 52.3322 5.50218 54.2035C6.37931 56.0748 7.83665 57.6359 9.67218 58.6702C10.1993 58.9675 10.7536 59.2173 11.3279 59.4166C12.3546 59.7743 13.434 59.9701 14.5249 59.9966C14.6164 59.9966 14.7071 60 14.7978 60C20.3013 60 24.851 55.7418 24.9964 50.3918C25.0481 48.5214 24.5488 46.6752 23.5569 45.0687C22.565 43.4622 21.1214 42.1615 19.3942 41.3184Z" fill="black"/>
</svg>
