<svg width="76" height="64" viewBox="0 0 76 64" fill="none" xmlns="http://www.w3.org/2000/svg">
<path d="M71.2676 55.1995C71.2672 56.2626 70.8489 57.2834 70.102 58.0441C69.3551 58.8047 68.3387 59.245 67.2698 59.2709H52.7386C51.6527 59.2697 50.6116 58.8403 49.8437 58.0768C49.0759 57.3134 48.644 56.2782 48.6428 55.1985V42.2733C48.6429 41.212 49.0596 40.1926 49.8042 39.4322C50.5488 38.6717 51.5626 38.2303 52.6296 38.2018H67.1737V37.4737H60.3223V33.1364H67.6973V32.4082H38.3676V26.5254H45.3434C46.602 26.4929 47.798 25.973 48.6767 25.0764C49.5553 24.1799 50.047 22.9776 50.0471 21.7258V8.80055H49.3147V21.7258C49.3148 22.7892 48.8965 23.8104 48.1493 24.5712C47.4021 25.332 46.3852 25.7721 45.316 25.7972C45.2922 25.7972 45.2683 25.7972 45.2445 25.7972H30.7802C29.6943 25.796 28.6532 25.3666 27.8853 24.6031C27.1175 23.8397 26.6856 22.8046 26.6844 21.7249V8.79964C26.6847 7.73792 27.1019 6.71828 27.8471 5.95783C28.5922 5.19737 29.6065 4.75617 30.674 4.72818H45.2189V4H30.663C29.4031 4.03111 28.2054 4.55049 27.3252 5.44734C26.4451 6.34419 25.9523 7.5475 25.952 8.80055V21.7258C25.9534 22.9985 26.4626 24.2187 27.3677 25.1187C28.2729 26.0187 29.5001 26.5249 30.7802 26.5263H37.6324V32.4082H8.3091V33.1364H15.6795V37.4746H8.70367C7.44509 37.5071 6.24905 38.027 5.37042 38.9236C4.49179 39.8201 4.00005 41.0224 4 42.2742V55.1995C4.00146 56.473 4.51123 57.6939 5.41737 58.594C6.3235 59.4941 7.55189 59.9998 8.83275 60H23.2971C23.3328 60 23.3695 60 23.396 60C24.6545 59.9677 25.8505 59.448 26.7292 58.5516C27.6079 57.6552 28.0996 56.453 28.0997 55.2013V42.276H27.3673V55.2013C27.3669 56.2644 26.9486 57.2852 26.2017 58.0459C25.4547 58.8066 24.4384 59.2468 23.3695 59.2727H8.83275C7.74685 59.2715 6.70577 58.8421 5.93792 58.0786C5.17007 57.3152 4.73816 56.2801 4.73695 55.2004V42.2751C4.73704 41.2139 5.15363 40.1947 5.89807 39.4343C6.6425 38.6739 7.65601 38.2324 8.7229 38.2037H23.2633V37.4755H16.4119V33.1364H59.5899V37.4746H52.6141C51.3555 37.5071 50.1594 38.027 49.2808 38.9236C48.4022 39.8201 47.9104 41.0224 47.9104 42.2742V55.1995C47.9118 56.4722 48.421 57.6924 49.3261 58.5924C50.2313 59.4923 51.4585 59.9986 52.7386 60H67.2029C67.2377 60 67.2744 60 67.3009 60C68.5589 59.9665 69.7541 59.446 70.6318 58.5494C71.5095 57.6527 72.0005 56.4507 72 55.1995V42.2742H71.2676V55.1995Z" fill="black"/>
</svg>
