<svg width="57" height="64" viewBox="0 0 57 64" fill="none" xmlns="http://www.w3.org/2000/svg">
<path d="M4.56462 21.146H4V43.4456H4.56462V21.146Z" fill="black"/>
<path d="M24.788 5.66887L7.00024 15.9971L7.28256 16.4888L25.0703 6.16063L24.788 5.66887Z" fill="black"/>
<path d="M6.64584 47.0683L6.36353 47.5601L25.4465 58.6403L25.7288 58.1485L6.64584 47.0683Z" fill="black"/>
<path d="M18.3505 45.7401H5.04585C5.01804 45.7403 4.99068 45.733 4.96655 45.7191C4.94242 45.7052 4.92236 45.6852 4.9084 45.661C4.89444 45.6368 4.88707 45.6093 4.88704 45.5813C4.88701 45.5534 4.89432 45.5259 4.90822 45.5017L15.8421 26.4558L15.3537 26.1719L4.41982 45.2177C4.35639 45.3282 4.32299 45.4536 4.323 45.5812C4.323 45.7088 4.35641 45.8341 4.41986 45.9446C4.4833 46.0551 4.57456 46.1469 4.68444 46.2107C4.79433 46.2744 4.91897 46.308 5.04585 46.308H18.3505V45.7401Z" fill="black"/>
<path d="M11.0718 30.3668L11.5609 30.0829L4.90822 18.4948C4.89432 18.4706 4.88701 18.4431 4.88704 18.4151C4.88707 18.3872 4.89444 18.3597 4.9084 18.3355C4.92236 18.3113 4.94242 18.2912 4.96655 18.2773C4.99068 18.2634 5.01804 18.2562 5.04585 18.2563H18.3505V17.6885H5.04585C4.91897 17.6885 4.79433 17.722 4.68444 17.7858C4.57456 17.8496 4.4833 17.9413 4.41986 18.0518C4.35641 18.1623 4.323 18.2877 4.323 18.4153C4.32299 18.5429 4.35639 18.6682 4.41982 18.7787L11.0718 30.3668Z" fill="black"/>
<path d="M20.0275 36.5763L17.4912 38.0454L17.773 38.5375L20.3093 37.0684L20.0275 36.5763Z" fill="black"/>
<path d="M14.955 39.5148L6.36523 44.4902L6.64703 44.9823L15.2368 40.0068L14.955 39.5148Z" fill="black"/>
<path d="M6.64581 19.0138L6.36401 19.5059L20.7266 27.8251L21.0084 27.3331L6.64581 19.0138Z" fill="black"/>
<path d="M28.5595 24.937C27.1708 24.9376 25.8135 25.3522 24.6591 26.1286C23.5047 26.9049 22.6052 28.008 22.0742 29.2985C21.5431 30.5889 21.4045 32.0088 21.6758 33.3784C21.9472 34.7481 22.6162 36.0061 23.5984 36.9934C24.5806 37.9807 25.8318 38.6529 27.1939 38.9251C28.556 39.1973 29.9677 39.0572 31.2506 38.5225C32.5335 37.9878 33.6299 37.0826 34.4013 35.9212C35.1726 34.7599 35.5843 33.3946 35.5841 31.998C35.5819 30.1254 34.841 28.3302 33.524 27.0064C32.207 25.6826 30.4215 24.9383 28.5595 24.937ZM28.5595 38.4941C27.2826 38.4935 26.0345 38.1122 24.9731 37.3984C23.9116 36.6846 23.0844 35.6703 22.5961 34.4838C22.1077 33.2973 21.9801 31.9918 22.2294 30.7323C22.4787 29.4729 23.0937 28.316 23.9967 27.408C24.8996 26.5 26.05 25.8817 27.3023 25.6311C28.5547 25.3805 29.8528 25.509 31.0326 26.0002C32.2123 26.4915 33.2208 27.3235 33.9304 28.3911C34.6401 29.4587 35.0191 30.7139 35.0195 31.998C35.0176 33.7202 34.3363 35.3713 33.1252 36.5889C31.914 37.8064 30.272 38.4908 28.5595 38.4919V38.4941Z" fill="black"/>
<path d="M52.9999 21.146H52.4353V43.4456H52.9999V21.146Z" fill="black"/>
<path d="M32.2125 5.66791L31.9302 6.15967L49.7179 16.4879L50.0003 15.9961L32.2125 5.66791Z" fill="black"/>
<path d="M50.3537 47.0711L31.2708 58.1514L31.5531 58.6431L50.636 47.5629L50.3537 47.0711Z" fill="black"/>
<path d="M33.8432 45.7402H23.1577V46.3081H33.8432V45.7402Z" fill="black"/>
<path d="M17.63 23.3419L28.3642 4.64734C28.3778 4.62297 28.3977 4.60274 28.4218 4.58875C28.4459 4.57477 28.4733 4.56755 28.5011 4.56784C28.5289 4.56755 28.5563 4.57477 28.5804 4.58875C28.6045 4.60274 28.6244 4.62297 28.638 4.64734L39.3701 23.3419L39.8592 23.0579L29.1271 4.36342C29.0642 4.25247 28.973 4.16035 28.863 4.09649C28.753 4.03263 28.6281 3.99933 28.5011 4.00001C28.3741 3.99933 28.2492 4.03263 28.1392 4.09649C28.0292 4.16035 27.938 4.25247 27.8751 4.36342L17.1416 23.0579L17.63 23.3419Z" fill="black"/>
<path d="M41.6469 26.1719L41.1578 26.4558L52.0917 45.5017C52.1056 45.5258 52.1129 45.5532 52.1129 45.5812C52.1129 45.6091 52.1056 45.6365 52.0917 45.6607C52.0778 45.6848 52.0578 45.7049 52.0338 45.7188C52.0098 45.7328 51.9825 45.7401 51.9548 45.7401H38.6501V46.308H51.9583C52.0852 46.308 52.2098 46.2744 52.3197 46.2107C52.4296 46.1469 52.5208 46.0551 52.5843 45.9446C52.6477 45.8341 52.6811 45.7088 52.6811 45.5812C52.6811 45.4536 52.6478 45.3282 52.5843 45.2177L41.6469 26.1719Z" fill="black"/>
<path d="M38.6501 18.2553H51.9583C51.986 18.2553 52.0133 18.2627 52.0373 18.2766C52.0614 18.2906 52.0813 18.3107 52.0952 18.3348C52.1091 18.359 52.1164 18.3864 52.1164 18.4143C52.1164 18.4422 52.1091 18.4697 52.0952 18.4938L45.4397 30.0826L45.9281 30.3665L52.5808 18.7785C52.6443 18.6682 52.6778 18.5431 52.678 18.4157C52.6783 18.2883 52.6452 18.1631 52.5821 18.0526C52.5191 17.9421 52.4283 17.8502 52.3188 17.7861C52.2093 17.722 52.085 17.688 51.9583 17.6875H38.6501V18.2553Z" fill="black"/>
<path d="M43.5017 33.458L28.638 59.3527C28.6242 59.3768 28.6042 59.3969 28.5802 59.4109C28.5561 59.4248 28.5289 59.4322 28.5011 59.4322C28.4734 59.4322 28.4461 59.4248 28.4221 59.4109C28.398 59.3969 28.3781 59.3768 28.3642 59.3527L13.4991 33.458L13.01 33.7419L27.8751 59.6366C27.9385 59.7471 28.0298 59.8389 28.1397 59.9028C28.2495 59.9666 28.3742 60.0002 28.5011 60.0002C28.628 60.0002 28.7527 59.9666 28.8626 59.9028C28.9725 59.8389 29.0637 59.7471 29.1271 59.6366L43.9908 33.7455L43.5017 33.458Z" fill="black"/>
<path d="M33.8432 17.6885H23.1577V18.2563H33.8432V17.6885Z" fill="black"/>
<path d="M36.9727 36.5748L36.6909 37.0669L39.2272 38.536L39.509 38.0439L36.9727 36.5748Z" fill="black"/>
<path d="M42.046 39.5128L41.7642 40.0049L50.354 44.9804L50.6358 44.4883L42.046 39.5128Z" fill="black"/>
<path d="M50.3545 19.0113L35.9919 27.3306L36.2737 27.8226L50.6363 19.5034L50.3545 19.0113Z" fill="black"/>
</svg>
