<svg width="60" height="64" viewBox="0 0 60 64" fill="none" xmlns="http://www.w3.org/2000/svg">
<path d="M51.9226 20.3711C52.5459 19.6483 53.0587 18.6357 53.4821 17.3208C54.3554 14.5751 54.2342 10.6583 53.1208 5.67933C53.017 5.21552 52.8936 4.73394 52.7633 4.25158L52.7588 4.23612L52.7542 4.22066C52.7374 4.16312 52.7045 4.11184 52.6595 4.07307C52.6146 4.0343 52.5595 4.00972 52.5011 4.00234C52.4427 3.99496 52.3835 4.0051 52.3307 4.03152C52.2778 4.05793 52.2337 4.09948 52.2036 4.15109C50.0174 6.13035 48.1385 8.43702 46.6312 10.9922C45.7223 12.5382 45.161 13.9559 44.9315 15.2661C43.9403 14.7398 42.9178 14.2771 41.87 13.8809C33.6974 10.8113 22.6799 11.8495 14.4512 16.4628C11.8086 17.9454 9.60369 19.7148 7.90554 21.7192C6.0809 23.8736 4.88341 26.249 4.34564 28.7791C3.57458 32.4168 4.10326 36.5447 5.83474 40.4035C7.62378 44.3915 10.5308 47.6381 14.0217 49.5466C16.7864 51.0594 20.1773 51.8966 23.4593 51.8966C23.7706 51.8966 24.0819 51.8896 24.3901 51.8742C28.1576 51.6886 31.1009 50.4054 32.6779 48.2727C34.1397 46.2907 34.0579 44.0026 33.986 41.9836C33.9102 39.8369 33.8428 37.9825 35.3569 36.6166C35.8449 36.1649 36.4494 35.8653 37.099 35.7531L36.9914 35.144C36.2328 35.2758 35.5268 35.6258 34.9562 36.1528C33.2278 37.7127 33.302 39.7983 33.3808 42.0067C33.4527 44.0166 33.527 46.0944 32.1947 47.9001C30.7495 49.8589 27.894 51.0818 24.3621 51.2565C20.9052 51.4266 17.2423 50.6057 14.3111 49.004C10.936 47.1596 8.12216 44.0119 6.38766 40.1469C4.73496 36.4651 4.20476 32.3697 4.94022 28.9136C5.45527 26.4848 6.60655 24.1982 8.3653 22.1266C10.0188 20.1747 12.1653 18.4517 14.7443 17.0046C18.6443 14.8178 23.2525 13.4078 28.0705 12.9278C32.9869 12.4377 37.683 12.968 41.6594 14.4607C42.7499 14.8745 43.8126 15.361 44.8406 15.917C44.7317 16.9676 44.8862 18.0292 45.2898 19.0021C45.4293 19.3349 45.6054 19.6505 45.8147 19.9428C44.1483 20.9245 42.5979 23.2397 41.7382 26.055C41.5856 26.5541 41.458 27.0608 41.3557 27.5732L34.704 54.01C34.3026 55.328 34.1837 56.6537 34.3692 57.7444C34.5677 58.9093 35.0918 59.6831 35.8462 59.9227C36.0045 59.9737 36.1695 59.9998 36.3355 60C37.7345 60 39.3008 58.2561 40.0772 55.7206L49.3178 30.1024C49.5188 29.6224 49.6958 29.1322 49.848 28.6337C50.641 26.0349 50.7099 23.3843 50.0464 21.6056C50.5821 21.4568 51.077 21.1844 51.4931 20.8094C54.4645 23.7723 55.84 26.6595 55.2704 28.7713C54.853 30.3173 53.3268 31.7134 50.7364 32.9154L50.9864 33.4782C53.7487 32.1973 55.387 30.6691 55.8551 28.9352C56.483 26.6007 55.0515 23.4956 51.9226 20.3711ZM47.1508 11.3091C48.5557 8.92702 50.2921 6.7658 52.3058 4.89318C52.3869 5.20238 52.4618 5.51545 52.533 5.82079C53.6222 10.6907 53.7449 14.4955 52.9118 17.133C52.1657 19.4736 51.122 20.756 49.7207 21.0536C48.1748 21.3829 46.5509 20.4198 45.8579 18.7632C44.9785 16.68 45.3913 14.313 47.1508 11.3091ZM49.2716 28.4482C49.1237 28.9294 48.9518 29.4026 48.7565 29.8659C48.7565 29.8705 48.7527 29.8752 48.7512 29.8806L39.5106 55.5135C39.5085 55.5182 39.5068 55.5231 39.5053 55.5282C38.8305 57.7382 37.4497 59.3816 36.3453 59.3816C36.2388 59.382 36.1328 59.3659 36.031 59.3337C35.5122 59.169 35.1259 58.5514 34.9706 57.64C34.801 56.6421 34.9146 55.4161 35.2895 54.1878C35.2898 54.1826 35.2898 54.1775 35.2895 54.1723L41.8034 28.2874C42.4396 28.9174 43.8908 29.9509 46.638 30.0653H46.6501C46.7305 30.067 46.8082 30.036 46.8661 29.9792C46.9241 29.9223 46.9575 29.8443 46.9591 29.7623C46.9608 29.6803 46.9304 29.601 46.8747 29.5419C46.819 29.4827 46.7426 29.4486 46.6622 29.4469C43.5803 29.3217 42.2775 27.9458 41.9791 27.5701C42.0715 27.1256 42.1851 26.6788 42.3192 26.239C42.7411 24.8576 43.3447 23.5752 44.0612 22.5285C44.7323 21.5545 45.4746 20.8279 46.2108 20.4229C46.991 21.2477 48.0332 21.73 49.1011 21.73C49.2117 21.73 49.3231 21.7238 49.4344 21.7138C50.1047 23.3634 50.0404 25.9189 49.2716 28.4482Z" fill="black"/>
<path d="M12.0184 28.4346C10.977 29.1087 10.4028 30.0193 10.4028 30.9987C10.4028 31.9781 10.977 32.8887 12.0184 33.5627C13.0167 34.209 14.3392 34.5676 15.7404 34.5676C17.1416 34.5676 18.4671 34.212 19.4624 33.5627C20.5046 32.8887 21.078 31.9781 21.078 30.9987C21.078 30.0193 20.5046 29.1087 19.4624 28.4346C18.4641 27.7884 17.1416 27.4297 15.7404 27.4297C14.3392 27.4297 13.0167 27.7884 12.0184 28.4346ZM20.472 30.9987C20.472 32.622 18.3513 33.9461 15.7404 33.9461C13.1296 33.9461 11.0088 32.6235 11.0088 30.9987C11.0088 29.3738 13.1296 28.0512 15.7404 28.0512C18.3513 28.0512 20.472 29.373 20.472 30.9987Z" fill="black"/>
<path d="M17.3286 43.3937C18.4905 44.0468 20.0296 44.4071 21.6611 44.4071C23.2926 44.4071 24.8317 44.0468 25.9936 43.3937C27.213 42.708 27.8871 41.7765 27.8871 40.7654C27.8871 39.7544 27.2153 38.8267 25.9936 38.1411C24.8317 37.4902 23.2918 37.1323 21.6611 37.1323C20.0304 37.1323 18.4905 37.4918 17.3286 38.1457C16.1092 38.8314 15.4351 39.7629 15.4351 40.7701C15.4351 41.7773 16.1092 42.7072 17.3286 43.3937ZM21.6611 37.7507C24.7059 37.7507 27.2789 39.1336 27.2789 40.7701C27.2789 42.4065 24.7037 43.7894 21.6611 43.7894C18.6185 43.7894 16.0433 42.405 16.0433 40.7654C16.0433 39.1259 18.6162 37.7507 21.6611 37.7507Z" fill="black"/>
<path d="M27.0335 23.4724C27.0335 22.1219 25.0642 21.0645 22.5473 21.0645C20.0303 21.0645 18.061 22.1219 18.061 23.4724C18.061 24.8228 20.0303 25.8803 22.5473 25.8803C25.0642 25.8803 27.0335 24.8228 27.0335 23.4724ZM18.667 23.4724C18.667 22.6081 20.2265 21.6829 22.5473 21.6829C24.868 21.6829 26.4276 22.6105 26.4276 23.4724C26.4276 24.3343 24.8688 25.2619 22.5473 25.2619C20.2258 25.2619 18.667 24.3366 18.667 23.4724Z" fill="black"/>
<path d="M29.4072 19.7093C29.4072 20.8163 30.9418 21.6828 32.9005 21.6828C34.8592 21.6828 36.3952 20.8163 36.3952 19.7093C36.3952 18.6024 34.8607 17.7358 32.902 17.7358C30.9433 17.7358 29.4072 18.6024 29.4072 19.7093ZM35.7878 19.7093C35.7878 20.4313 34.4388 21.0644 32.9005 21.0644C31.3621 21.0644 30.0132 20.4313 30.0132 19.7093C30.0132 18.9873 31.3621 18.3542 32.9005 18.3542C34.4388 18.3542 35.7893 18.9873 35.7893 19.7093H35.7878Z" fill="black"/>
</svg>
