<svg width="103" height="64" viewBox="0 0 103 64" fill="none" xmlns="http://www.w3.org/2000/svg">
<path d="M63.2709 31.8126C62.7761 29.6977 61.6298 27.7911 59.9937 26.3613L59.4188 27.0129C60.9176 28.3214 61.9684 30.0664 62.4234 32.0027C62.8656 33.9736 62.5907 35.8968 61.6258 37.5637C59.9143 40.5239 56.3361 41.9638 50.6889 41.9638H50.5325C40.1998 41.9182 29.8866 38.9906 20.6645 33.4936C25.7695 30.2216 31.2872 27.6424 37.0725 25.8238L36.8139 24.9941C30.8646 26.8402 25.0783 29.5843 19.6018 33.1386L19.0237 33.5143L19.6115 33.8737C29.1217 39.6888 39.8108 42.7881 50.5249 42.8348H50.6846C56.6675 42.8348 60.4935 41.2526 62.3745 38.0002C63.4546 36.139 63.7632 33.9964 63.2709 31.8126Z" fill="black"/>
<path d="M40.2051 32.1872C40.7 34.3021 41.8462 36.2087 43.4824 37.6385L44.0572 36.9869C42.5584 35.6784 41.5077 33.9333 41.0527 31.9971C40.6104 30.0262 40.8854 28.103 41.8492 26.4361C43.5617 23.4759 47.1399 22.0359 52.7871 22.0359H52.9436C63.2752 22.0816 73.5894 25.0092 82.8115 30.5061C77.7064 33.778 72.1888 36.3572 66.4036 38.176L66.6622 39.0057C72.6114 37.1596 78.3977 34.4155 83.8743 30.8612L84.4523 30.4855L83.8645 30.1261C74.3544 24.311 63.6653 21.2117 52.9512 21.165H52.7915C46.8085 21.165 42.9825 22.7472 41.1016 25.9985C40.0237 27.8608 39.7129 29.999 40.2051 32.1872Z" fill="black"/>
<path d="M51.7004 37.8614C54.5516 37.8614 56.8629 35.5515 56.8629 32.7022C56.8629 29.8528 54.5516 27.543 51.7004 27.543C48.8492 27.543 46.5378 29.8528 46.5378 32.7022C46.5378 35.5515 48.8492 37.8614 51.7004 37.8614Z" fill="black"/>
<path d="M19.1518 47.9233V38.5952H18.2825V47.9233C18.2839 49.0694 18.7401 50.1681 19.5511 50.9786C20.362 51.789 21.4615 52.2449 22.6083 52.2463H41.4514V51.3776H22.6083C21.6919 51.3765 20.8134 51.0122 20.1654 50.3646C19.5175 49.717 19.1529 48.8391 19.1518 47.9233Z" fill="black"/>
<path d="M52.1346 4H51.2659V18.2332H52.1346V4Z" fill="black"/>
<path d="M52.1346 45.7681H51.2659V60.0002H52.1346V45.7681Z" fill="black"/>
<path d="M84.3241 47.9233C84.3229 48.8391 83.9584 49.717 83.3104 50.3646C82.6624 51.0122 81.7839 51.3765 80.8675 51.3776H62.0244V52.2463H80.8675C82.0144 52.2449 83.1138 51.789 83.9248 50.9786C84.7357 50.1681 85.1919 49.0694 85.1934 47.9233V38.5952H84.3241V47.9233Z" fill="black"/>
<path d="M84.3241 16.0788V25.4069H85.1934V16.0788C85.1919 14.9328 84.7357 13.8342 83.9247 13.0239C83.1137 12.2137 82.0143 11.758 80.8675 11.7568H62.0244V12.6256H80.8675C81.7838 12.6264 82.6623 12.9905 83.3103 13.6379C83.9583 14.2853 84.3229 15.1631 84.3241 16.0788Z" fill="black"/>
<path d="M19.1518 16.0788C19.1529 15.1631 19.5175 14.2853 20.1655 13.6379C20.8135 12.9905 21.692 12.6264 22.6083 12.6256H41.4514V11.7568H22.6083C21.4616 11.758 20.3621 12.2137 19.5511 13.0239C18.7402 13.8342 18.2839 14.9328 18.2825 16.0788V25.4069H19.1518V16.0788Z" fill="black"/>
<path d="M98.9999 31.4717H85.165V32.3404H98.9999V31.4717Z" fill="black"/>
<path d="M18.2413 31.4878H4V32.3565H18.2413V31.4878Z" fill="black"/>
</svg>
