<svg width="92" height="64" viewBox="0 0 92 64" fill="none" xmlns="http://www.w3.org/2000/svg">
<path d="M85.6141 5.27082L85.2596 5.01352C84.113 4.18427 82.6848 3.84399 81.288 4.06726C79.8912 4.29053 78.6398 5.05914 77.8081 6.20459L76.2836 8.3118C76.2295 8.38638 76.1585 8.44709 76.0765 8.48894C75.9944 8.5308 75.9037 8.55262 75.8116 8.55262C75.7195 8.55262 75.6287 8.5308 75.5467 8.48894C75.4646 8.44709 75.3936 8.38638 75.3395 8.3118L73.814 6.20459C72.9827 5.05898 71.7314 4.29021 70.3347 4.06693C68.938 3.84364 67.5098 4.18406 66.3635 5.01352L66.0101 5.27082C64.7723 6.17172 63.9418 7.52712 63.7005 9.03998C63.4592 10.5528 63.8269 12.0997 64.7229 13.3417L74.3498 26.6438C74.5163 26.876 74.7359 27.0651 74.9903 27.195C75.2447 27.325 75.5265 27.3921 75.8121 27.3908C76.0975 27.392 76.3791 27.3249 76.6333 27.1949C76.8875 27.0649 77.107 26.876 77.2734 26.6438L86.9002 13.3438C87.3455 12.7292 87.6654 12.0329 87.8417 11.2945C88.0181 10.5561 88.0474 9.79023 87.9279 9.04053C87.8085 8.29083 87.5427 7.57204 87.1456 6.92521C86.7486 6.27839 86.2282 5.71622 85.6141 5.27082ZM86.2297 12.8541L76.6028 26.1541C76.5132 26.2799 76.3947 26.3823 76.2572 26.4527C76.1198 26.5232 75.9675 26.5595 75.8131 26.5587C75.6586 26.5594 75.5062 26.523 75.3686 26.4526C75.231 26.3822 75.1123 26.2798 75.0224 26.1541L65.3945 12.8541C64.6267 11.7907 64.3116 10.4659 64.5183 9.17033C64.7251 7.87471 65.4367 6.7141 66.4972 5.94314L66.8506 5.68583C67.8185 4.98459 69.0249 4.6966 70.2048 4.8851C71.3847 5.07359 72.4416 5.72318 73.1434 6.69119L74.669 8.7984C74.7998 8.97926 74.9717 9.1265 75.1704 9.22803C75.3691 9.32956 75.589 9.3825 75.8121 9.3825C76.0352 9.3825 76.2551 9.32956 76.4538 9.22803C76.6525 9.1265 76.8243 8.97926 76.9552 8.7984L78.4776 6.69119C79.1799 5.72304 80.2371 5.07341 81.4174 4.88492C82.5976 4.69643 83.8043 4.98448 84.7726 5.68583L85.128 5.94314C86.1895 6.71339 86.9018 7.87419 87.1084 9.17021C87.315 10.4662 86.9989 11.7913 86.2297 12.8541Z" fill="black"/>
<path d="M80.8779 26.0356L80.0633 26.1913L80.9017 30.609L59.8084 34.6211L58.6684 28.6284L69.7441 26.5212L70.7805 26.323L70.6261 25.5075L58.5161 27.8129L58.4601 27.5172L57.3782 21.8191L66.2215 20.1373L66.0661 19.3218L65.2121 19.4847L57.232 21.0036L56.6454 17.917L56.0941 15.012L61.8729 13.9122L61.7185 13.0967L55.9314 14.1934L55.7687 13.3374C55.5552 12.2251 54.91 11.2429 53.9744 10.606C53.0388 9.9691 51.8892 9.72943 50.7775 9.93952L7.47168 18.1774C6.35971 18.3902 5.37748 19.0359 4.74056 19.9729C4.10365 20.9099 3.86409 22.0616 4.07445 23.1752L10.1808 55.3207C10.3213 56.0631 10.6066 56.7705 11.0204 57.4025C11.4343 58.0344 11.9684 58.5785 12.5924 59.0036C13.2164 59.4287 13.918 59.7266 14.657 59.8801C15.3961 60.0336 16.1581 60.0398 16.8996 59.8983L53.6597 52.9054L53.8213 53.7613C53.9257 54.313 54.1376 54.8386 54.4451 55.3082C54.7525 55.7778 55.1495 56.1821 55.6131 56.4979C56.0768 56.8138 56.5981 57.0351 57.1473 57.1491C57.6964 57.2631 58.2626 57.2676 58.8135 57.1623L81.621 52.8234C82.1718 52.7188 82.6967 52.5066 83.1656 52.1988C83.6346 51.891 84.0383 51.4938 84.3538 51.0298C84.6693 50.5657 84.8903 50.044 85.0043 49.4944C85.1183 48.9448 85.123 48.3781 85.0182 47.8267L80.8779 26.0356ZM55.6039 16.92L56.5636 21.9748L56.7418 22.9085L6.67678 32.4361L5.53677 26.4434L55.6039 16.92ZM57.8539 28.783L58.0321 29.7168L7.96707 39.2412L6.82706 33.2474L56.8962 23.7282L57.8539 28.783ZM8.12356 40.0608L58.1886 30.5364L59.1483 35.5912L59.3265 36.525L9.26149 46.0536L8.12356 40.0608ZM10.5538 52.8628L9.41384 46.8691L59.481 37.3456L60.4448 42.4005L60.623 43.3342L10.5538 52.8628ZM62.1465 46.9396L62.1247 46.8244L61.2552 42.2459L82.3485 38.2327L83.4885 44.2255L62.19 48.2718C62.2448 47.8282 62.2301 47.3787 62.1465 46.9396ZM81.0561 31.4235L82.1962 37.4172L61.1008 41.4293L60.8593 40.1594L59.9629 35.4366L81.0561 31.4235ZM7.6261 18.9919L50.9319 10.754C51.144 10.7132 51.3595 10.6927 51.5755 10.6928C52.376 10.6943 53.1509 10.9748 53.7674 11.4859C54.3839 11.997 54.8034 12.707 54.9541 13.4941L55.1168 14.349L55.4495 16.1034L5.38443 25.6279L4.88904 23.0185C4.71965 22.1213 4.91269 21.1935 5.42582 20.4386C5.93895 19.6837 6.73025 19.1634 7.6261 18.9919ZM16.7389 59.0828C15.458 59.325 14.1333 59.0487 13.0556 58.3144C11.9779 57.5802 11.2351 56.4479 10.9902 55.1661L10.7083 53.6783L60.7733 44.1539L61.3102 46.979C61.4849 47.9074 61.2846 48.8672 60.7532 49.6478C60.2218 50.4284 59.4027 50.966 58.4757 51.1426L53.5011 52.0899L16.7389 59.0828ZM83.6595 50.5626C83.406 50.9373 83.0809 51.2579 82.7029 51.506C82.3249 51.754 81.9015 51.9246 81.4572 52.0079L58.6539 56.3468C57.7574 56.5164 56.8304 56.323 56.0761 55.8091C55.3219 55.2952 54.8021 54.5028 54.6307 53.6057L54.4691 52.7508L58.6332 51.9591L58.7462 51.9373C59.2981 51.8344 59.824 51.6227 60.2935 51.3146C60.763 51.0065 61.1667 50.608 61.4812 50.1424C61.6879 49.8383 61.8547 49.5087 61.9776 49.162L83.6377 45.0409L84.1964 47.9813C84.2814 48.4257 84.2778 48.8826 84.1857 49.3257C84.0935 49.7687 83.9147 50.1891 83.6595 50.5626Z" fill="black"/>
</svg>
