<svg width="67" height="64" viewBox="0 0 67 64" fill="none" xmlns="http://www.w3.org/2000/svg">
<path d="M46.3931 26.2735C47.2481 26.2735 47.9412 25.5816 47.9412 24.7281C47.9412 23.8745 47.2481 23.1826 46.3931 23.1826C45.5381 23.1826 44.845 23.8745 44.845 24.7281C44.845 25.5816 45.5381 26.2735 46.3931 26.2735Z" fill="black"/>
<path d="M38.9478 26.2735C39.8028 26.2735 40.4959 25.5816 40.4959 24.7281C40.4959 23.8745 39.8028 23.1826 38.9478 23.1826C38.0928 23.1826 37.3997 23.8745 37.3997 24.7281C37.3997 25.5816 38.0928 26.2735 38.9478 26.2735Z" fill="black"/>
<path d="M31.502 26.2735C32.357 26.2735 33.0501 25.5816 33.0501 24.7281C33.0501 23.8745 32.357 23.1826 31.502 23.1826C30.647 23.1826 29.9539 23.8745 29.9539 24.7281C29.9539 25.5816 30.647 26.2735 31.502 26.2735Z" fill="black"/>
<path d="M38.5908 44.6376C38.5889 46.2621 37.9416 47.8195 36.7909 48.9682C35.6402 50.1169 34.0801 50.7631 32.4527 50.765H23.0881C22.0787 50.7664 21.0981 51.1011 20.299 51.7168L10.63 59.1918C10.5562 59.2487 10.4669 59.2819 10.3738 59.2872C10.2808 59.2924 10.1883 59.2694 10.1086 59.2212C10.0288 59.173 9.96561 59.1018 9.9272 59.017C9.8888 58.9322 9.87701 58.8378 9.89339 58.7462L10.5014 55.2364C10.6829 54.219 10.5372 53.1703 10.0851 52.2406C9.63297 51.3109 8.89769 50.5479 7.98458 50.0609C6.99655 49.5409 6.16966 48.7613 5.59327 47.8062C5.01689 46.8512 4.71293 45.757 4.71424 44.642V36.3052C4.7159 34.6808 5.36299 33.1234 6.51354 31.9747C7.66409 30.8259 9.22413 30.1797 10.8514 30.1778H17.8492V29.4648H10.8514C9.03477 29.467 7.2932 30.1884 6.00875 31.4707C4.72431 32.7531 4.00189 34.4918 4 36.3052V44.6376C3.9994 45.8821 4.33938 47.1032 4.98324 48.169C5.6271 49.2347 6.55037 50.1046 7.65335 50.6848C8.43414 51.1024 9.06218 51.7564 9.44719 52.5528C9.8322 53.3492 9.95435 54.2469 9.79608 55.117L9.18897 58.6276C9.14854 58.8604 9.17951 59.0999 9.27784 59.3148C9.37616 59.5297 9.53723 59.7099 9.73995 59.8318C9.94266 59.9537 10.1775 60.0116 10.4138 59.9979C10.65 59.9842 10.8766 59.8996 11.0639 59.7551L20.7329 52.281C21.4067 51.762 22.2335 51.48 23.0846 51.4789H32.4527C34.2694 51.4767 36.0111 50.7554 37.2957 49.473C38.5803 48.1907 39.3029 46.452 39.305 44.6385V39.0414H38.5908V44.6376Z" fill="black"/>
<path d="M50.5347 8.30387L49.1633 8.45717L54.6282 10.7281L52.264 13.0881L52.2747 13.0997L49.4669 15.9259L49.4919 14.9045C49.5276 13.483 49.816 11.7165 50.3257 9.79672L49.6356 9.61401C49.2782 10.9242 49.0206 12.2596 48.8651 13.6086L47.4527 10.9161L45.3993 12.966L45.9037 13.4705L47.2706 12.106L49.3401 16.0507L48.0848 17.3162L48.5919 17.8189L55.5076 10.8546L55.8843 10.4794L51.8917 8.81991C54.3559 8.37428 57.8592 7.32438 61.6277 5.49196C60.1314 9.39922 59.3957 12.9785 59.16 15.466L57.253 11.8261L54.1684 14.9045L54.6728 15.4081L54.9889 15.0934C55.5802 15.6146 56.0736 16.237 56.4459 16.9312C56.9601 17.8931 57.229 18.9666 57.2289 20.0568V29.0362C57.233 30.1743 56.9417 31.294 56.3834 32.2863C55.8252 33.2786 55.019 34.1096 54.0434 34.6984C51.8542 36.0353 50.6802 38.6493 51.123 41.2045L51.648 44.2348C51.6659 44.3388 51.652 44.4459 51.6079 44.5418C51.5639 44.6378 51.4919 44.7183 51.4013 44.7727C51.3107 44.8271 51.2057 44.853 51.1001 44.8469C50.9946 44.8407 50.8933 44.8029 50.8096 44.7384L40.3897 36.6859C39.5332 36.0263 38.4824 35.6676 37.4006 35.6654H27.3119C25.5513 35.6635 23.8633 34.9645 22.6184 33.7217C21.3734 32.4789 20.6732 30.7938 20.6713 29.0362V20.0568C20.6741 18.3003 21.3744 16.6164 22.6186 15.3743C23.8629 14.1323 25.5496 13.4332 27.3093 13.4304H42.0727L40.2406 15.269L40.7477 15.7717L46.1331 10.3529L46.509 9.97765L43.544 8.74415C44.7119 8.5072 45.8621 8.19065 46.9867 7.79675C48.2512 7.36067 49.4906 6.85485 50.6989 6.28161C50.5588 6.65594 50.4231 7.04096 50.2918 7.43222L50.9695 7.65771C51.198 6.97501 51.4426 6.31281 51.6971 5.68893L52.0596 4.79767L51.2016 5.23082C48.9107 6.4055 45.1778 7.89567 42.1968 8.2299L40.8254 8.38408L45.2502 10.2227L43.4949 11.9758L43.5029 11.9839L42.7807 12.7174H27.3093C25.3593 12.7195 23.4898 13.4937 22.1109 14.8702C20.732 16.2466 19.9565 18.1129 19.9543 20.0595V29.0362C19.9565 30.9828 20.732 32.8491 22.1109 34.2256C23.4898 35.602 25.3593 36.3763 27.3093 36.3784H37.3979C38.3214 36.38 39.2184 36.6861 39.9496 37.2492L50.3677 45.3034C50.5652 45.4559 50.8042 45.5452 51.0534 45.5597C51.3026 45.5743 51.5504 45.5134 51.7643 45.385C51.9782 45.2566 52.1483 45.0667 52.2523 44.8401C52.3563 44.6136 52.3893 44.361 52.347 44.1154L51.823 41.0851C51.4292 38.8115 52.4694 36.4889 54.4121 35.3053C55.4925 34.6531 56.3852 33.7328 57.0034 32.6338C57.6216 31.5349 57.9441 30.2948 57.9396 29.0345V20.0568C57.9404 19.0249 57.7229 18.0044 57.3013 17.0622C56.8798 16.1199 56.2637 15.2771 55.4933 14.589L57.0709 13.0133L59.7645 18.1487L59.7984 16.7735C59.8582 14.3582 60.6376 9.79761 62.6366 4.89125L63 4L62.1429 4.43939C59.1913 5.95185 54.38 7.87161 50.5347 8.30387Z" fill="black"/>
</svg>
