<svg width="52" height="64" viewBox="0 0 52 64" fill="none" xmlns="http://www.w3.org/2000/svg">
<path d="M26.3628 14.2492C26.3831 14.4346 26.4416 14.6137 26.5346 14.7752C26.6276 14.9368 26.7531 15.0773 26.9032 15.1878C27.0532 15.2983 27.2246 15.3765 27.4064 15.4174C27.5882 15.4583 27.7765 15.4609 27.9594 15.4253L27.9764 16.3226C27.9825 16.5482 28.0757 16.7627 28.2364 16.9212C28.397 17.0796 28.6128 17.1696 28.8383 17.1724L29.7258 17.1775C29.6946 17.3585 29.7006 17.544 29.7436 17.7226C29.7865 17.9011 29.8655 18.0691 29.9756 18.216C30.0857 18.363 30.2247 18.4859 30.384 18.5772C30.5433 18.6685 30.7196 18.7263 30.902 18.747C30.9519 18.7528 31.0021 18.7556 31.0523 18.7555C31.2488 18.7562 31.4432 18.7139 31.6216 18.6315C31.8 18.549 31.9583 18.4285 32.0852 18.2784C32.2121 18.1282 32.3046 17.9521 32.3562 17.7623C32.4078 17.5726 32.4173 17.3738 32.3839 17.18H33.2561C33.4518 17.1804 33.6418 17.1138 33.7945 16.9914C33.9371 17.0866 34.1046 17.1375 34.276 17.1375H38.6785C38.9085 17.1371 39.1289 17.0454 39.2914 16.8826C39.4539 16.7198 39.5453 16.4992 39.5456 16.2691V11.8979C39.5456 11.704 39.4804 11.5158 39.3604 11.3635C39.4443 11.256 39.5024 11.1307 39.5303 10.9972C39.5306 10.9918 39.5306 10.9864 39.5303 10.9811V10.993L39.5396 10.953V10.9403C39.5447 10.9031 39.5472 10.8656 39.5473 10.8281V9.94011C39.6659 9.96065 39.7866 9.96551 39.9065 9.95456C40.2517 9.92201 40.5712 9.75764 40.7985 9.49557C41.0258 9.23351 41.1435 8.8939 41.1271 8.5473C41.1107 8.20069 40.9615 7.87372 40.7105 7.63431C40.4594 7.3949 40.1259 7.26145 39.7791 7.26169C39.7031 7.26168 39.6272 7.26822 39.5524 7.28123V6.40854C39.5521 6.1785 39.4607 5.95796 39.2981 5.7953C39.1356 5.63264 38.9152 5.54116 38.6853 5.54094H37.9473C37.9295 5.54078 37.912 5.53709 37.8956 5.53009C37.8793 5.52308 37.8645 5.51291 37.8522 5.50015C37.8419 5.49028 37.8337 5.47841 37.8281 5.46525C37.8226 5.4521 37.8198 5.43795 37.8199 5.42367C37.8199 5.39874 37.8199 5.3741 37.8199 5.34974C37.8196 5.16682 37.7823 4.98585 37.7102 4.81775C37.6381 4.64965 37.5327 4.49791 37.4004 4.37167C37.2681 4.24492 37.1112 4.14671 36.9394 4.08312C36.7676 4.01954 36.5846 3.99194 36.4017 4.00203C36.0837 4.01951 35.7819 4.14821 35.5491 4.36564C35.3162 4.58308 35.1671 4.87545 35.1278 5.19169C35.1183 5.27034 35.116 5.3497 35.121 5.42877C35.1215 5.44358 35.1191 5.45834 35.1138 5.47219C35.1086 5.48605 35.1006 5.49873 35.0904 5.50949C35.0778 5.52305 35.0626 5.53389 35.0457 5.54134C35.0287 5.54879 35.0104 5.5527 34.9919 5.55283L34.2488 5.56728C34.0641 5.5713 33.8856 5.63444 33.7393 5.74743C33.5879 5.62922 33.4014 5.56492 33.2094 5.56473H32.4714C32.4536 5.56476 32.436 5.56116 32.4196 5.55415C32.4033 5.54714 32.3885 5.53686 32.3763 5.52394C32.3652 5.51287 32.3567 5.49955 32.3513 5.48488C32.3459 5.47022 32.3437 5.45456 32.3449 5.43897C32.3449 5.41602 32.3449 5.39393 32.3449 5.37099C32.3443 5.02704 32.2125 4.69628 31.9764 4.4463C31.7403 4.19633 31.4177 4.046 31.0745 4.02603C30.7314 4.00607 30.3935 4.11798 30.1301 4.3389C29.8666 4.55982 29.6974 4.87306 29.657 5.21463C29.6475 5.29243 29.6453 5.37094 29.6502 5.44916C29.6509 5.46399 29.6485 5.47881 29.6433 5.49269C29.638 5.50657 29.63 5.51923 29.6196 5.52989C29.6071 5.54334 29.592 5.55418 29.5752 5.56176C29.5585 5.56934 29.5404 5.57353 29.522 5.57408L28.778 5.58767C28.5516 5.59363 28.3364 5.6875 28.1779 5.84942C28.0194 6.01135 27.9301 6.22862 27.9288 6.45527V10.874C27.9281 11.0608 27.9876 11.2429 28.0987 11.3932C27.9937 11.5399 27.937 11.7158 27.9364 11.8962V12.7732C27.855 12.7578 27.7722 12.7501 27.6893 12.7502C27.5008 12.7522 27.3147 12.7936 27.1432 12.872C26.9716 12.9503 26.8184 13.0638 26.6934 13.205C26.5684 13.3463 26.4744 13.5122 26.4175 13.692C26.3605 13.8719 26.3419 14.0617 26.3628 14.2492ZM38.8662 16.2708C38.8662 16.3207 38.8464 16.3685 38.8112 16.4039C38.7761 16.4392 38.7283 16.4592 38.6785 16.4594H34.276C34.245 16.4592 34.2145 16.4514 34.1873 16.4365C34.16 16.4217 34.1368 16.4004 34.1198 16.3745C34.1198 16.3541 34.1198 16.3337 34.1198 16.3124V15.4329C34.183 15.4422 34.2469 15.4467 34.3108 15.4465C34.4936 15.4459 34.6744 15.4084 34.8423 15.3363C35.0103 15.2642 35.162 15.1589 35.2883 15.0267C35.4284 14.8795 35.5329 14.7022 35.594 14.5084C35.6722 14.2882 35.6916 14.0514 35.6503 13.8214C35.6091 13.5915 35.5086 13.3762 35.3588 13.197C35.2089 13.0177 35.015 12.8807 34.7961 12.7994C34.5772 12.718 34.3408 12.6952 34.1104 12.7333L34.0943 11.8792V11.8478C34.1052 11.8082 34.1289 11.7733 34.1615 11.7485C34.1942 11.7236 34.2341 11.7101 34.2752 11.7101H38.6776C38.7274 11.7101 38.7751 11.7299 38.8103 11.7652C38.8455 11.8004 38.8653 11.8481 38.8653 11.8979L38.8662 16.2708ZM34.2726 6.24623L35.0149 6.23179C35.1247 6.22981 35.2329 6.20569 35.3332 6.16086C35.4334 6.11604 35.5236 6.05143 35.5983 5.97091C35.6712 5.89335 35.7274 5.80171 35.7636 5.70162C35.7998 5.60153 35.8153 5.49509 35.8089 5.38883C35.8055 5.34953 35.8055 5.31001 35.8089 5.27071C35.8283 5.11429 35.9019 4.96962 36.0169 4.86188C36.1318 4.75413 36.2809 4.69012 36.4382 4.68098C36.529 4.67614 36.6198 4.68984 36.705 4.72126C36.7903 4.75268 36.8683 4.80116 36.9343 4.86374C37.0003 4.92631 37.0528 5.00168 37.0887 5.08524C37.1246 5.1688 37.1431 5.25879 37.1431 5.34974C37.1431 5.35909 37.1431 5.36844 37.1431 5.38373C37.1377 5.49092 37.1543 5.59806 37.1919 5.6986C37.2294 5.79913 37.287 5.89093 37.3613 5.96836C37.437 6.04835 37.5281 6.11218 37.6291 6.15599C37.7301 6.19981 37.8389 6.2227 37.949 6.22329H38.687C38.7368 6.22329 38.7845 6.24307 38.8197 6.27829C38.8549 6.31351 38.8747 6.36128 38.8747 6.41108V7.29313C38.8749 7.39236 38.8968 7.49033 38.9389 7.58018C38.981 7.67002 39.0423 7.74955 39.1184 7.81318C39.1926 7.87523 39.2795 7.92013 39.373 7.94466C39.4665 7.96919 39.5643 7.97275 39.6594 7.95509C39.6994 7.94793 39.7401 7.94423 39.7808 7.94404C39.8738 7.94409 39.9657 7.96354 40.0508 8.00113C40.1359 8.03873 40.2122 8.09365 40.2748 8.16239C40.3375 8.23113 40.3851 8.31219 40.4148 8.40039C40.4444 8.48859 40.4553 8.582 40.4468 8.67465C40.4384 8.76731 40.4107 8.85718 40.3656 8.93854C40.3204 9.0199 40.2589 9.09096 40.1848 9.14718C40.1107 9.2034 40.0257 9.24356 39.9352 9.26509C39.8448 9.28661 39.7508 9.28904 39.6594 9.27221C39.5632 9.25512 39.4645 9.25926 39.3701 9.28434C39.2758 9.30942 39.188 9.35483 39.113 9.4174C39.038 9.47997 38.9776 9.55819 38.936 9.64657C38.8944 9.73495 38.8726 9.83137 38.8721 9.92907L38.867 10.829C38.8679 10.8377 38.8679 10.8465 38.867 10.8553V10.8672C38.8588 10.9036 38.84 10.9368 38.8129 10.9625C38.7859 10.9882 38.7518 11.0053 38.715 11.0117H38.7057C38.6994 11.0123 38.6932 11.0123 38.687 11.0117L37.9286 11.0252C37.9125 11.0252 37.8895 11.0252 37.8624 11.0303H34.2752C34.2273 11.0302 34.1812 11.0117 34.1465 10.9787C34.1117 10.9457 34.0909 10.9006 34.0883 10.8527V9.96815C34.2061 9.98857 34.326 9.99371 34.445 9.98345C34.6245 9.96442 34.7984 9.90961 34.9563 9.82224C35.1143 9.73487 35.2532 9.61672 35.3647 9.47476C35.4763 9.3328 35.5583 9.1699 35.6059 8.9957C35.6536 8.8215 35.6658 8.63952 35.642 8.4605C35.6182 8.28148 35.5587 8.10906 35.4672 7.9534C35.3757 7.79775 35.2539 7.66202 35.1091 7.55424C34.9642 7.44645 34.7993 7.36879 34.624 7.32584C34.4487 7.28289 34.2665 7.27552 34.0883 7.30417V6.43148C34.0894 6.38283 34.1091 6.33646 34.1435 6.30197C34.1778 6.26749 34.224 6.24753 34.2726 6.24623ZM28.6167 6.45697C28.6171 6.40773 28.6367 6.3606 28.6712 6.32555C28.7058 6.2905 28.7526 6.27028 28.8018 6.26917L29.5449 6.25558C29.6547 6.25306 29.7628 6.22861 29.863 6.18367C29.9632 6.13872 30.0534 6.07419 30.1283 5.99386C30.2014 5.91635 30.2579 5.82476 30.2944 5.72468C30.3309 5.62461 30.3466 5.51814 30.3406 5.41177C30.3377 5.37274 30.3377 5.33354 30.3406 5.29451C30.3591 5.13709 30.4324 4.99121 30.5476 4.88245C30.6628 4.77368 30.8127 4.70898 30.9708 4.69968H31.0056C31.1831 4.69968 31.3533 4.77023 31.4788 4.8958C31.6043 5.02138 31.6748 5.19169 31.6748 5.36929C31.6748 5.38118 31.6748 5.39223 31.6748 5.40328C31.6692 5.51042 31.6855 5.61759 31.7229 5.71815C31.7603 5.81871 31.8179 5.91052 31.8922 5.98791C31.9679 6.0679 32.059 6.13172 32.16 6.17554C32.261 6.21935 32.3698 6.24224 32.4799 6.24283H33.2179C33.2676 6.24283 33.3154 6.26262 33.3506 6.29784C33.3858 6.33306 33.4056 6.38082 33.4056 6.43063V7.46818C33.4058 7.55576 33.4267 7.64206 33.4663 7.72013C33.506 7.7982 33.5634 7.86586 33.634 7.9177C33.7031 7.96912 33.7834 8.00328 33.8684 8.01732C33.9533 8.03136 34.0404 8.02488 34.1223 7.99842C34.2757 7.95017 34.4413 7.95923 34.5885 8.02392C34.6731 8.0625 34.7488 8.11803 34.811 8.18707C34.8743 8.25735 34.9217 8.34033 34.9503 8.43046C34.9789 8.52059 34.9878 8.61578 34.9766 8.70967C34.9658 8.80059 34.9365 8.88834 34.8906 8.96752C34.8446 9.0467 34.7829 9.11562 34.7093 9.17006C34.6358 9.22451 34.5518 9.26331 34.4627 9.28409C34.3736 9.30487 34.2812 9.30719 34.1911 9.2909H34.1682L34.1283 9.2807C34.0442 9.25505 33.9552 9.24938 33.8685 9.26413C33.7819 9.27888 33.6998 9.31365 33.6289 9.36568C33.5594 9.41675 33.5029 9.48356 33.464 9.56065C33.4252 9.63774 33.4052 9.72293 33.4056 9.80925V9.90697C33.4056 9.92142 33.4056 9.93586 33.4056 9.95116L33.4005 10.8502C33.4004 10.8942 33.3848 10.9367 33.3566 10.9704C33.3283 11.0041 33.2892 11.0268 33.2459 11.0346H33.2349H33.2026L32.5232 11.0473H32.4697C32.3572 11.0494 32.2463 11.0747 32.144 11.1216C32.0417 11.1685 31.9502 11.2361 31.8752 11.3201C31.802 11.4009 31.7463 11.496 31.7116 11.5994C31.677 11.7028 31.6642 11.8123 31.674 11.9209C31.6748 11.9359 31.6748 11.9509 31.674 11.9659C31.674 11.9923 31.674 12.0186 31.674 12.045C31.6588 12.1989 31.5917 12.3431 31.4836 12.4537C31.3755 12.5644 31.233 12.6348 31.0795 12.6534C30.9859 12.6639 30.8911 12.6545 30.8013 12.6259C30.7115 12.5973 30.6288 12.55 30.5585 12.4872C30.4882 12.4244 30.432 12.3475 30.3934 12.2615C30.3548 12.1755 30.3348 12.0823 30.3347 11.988C30.3347 11.9693 30.3347 11.9506 30.3347 11.9328C30.3439 11.8217 30.3299 11.7099 30.2937 11.6045C30.2574 11.4991 30.1997 11.4024 30.1242 11.3204C30.0487 11.2385 29.957 11.1731 29.855 11.1285C29.7529 11.0838 29.6427 11.0608 29.5313 11.0609H28.8001C28.7849 11.0612 28.7697 11.0592 28.7551 11.055C28.7142 11.0451 28.6778 11.0217 28.6517 10.9885C28.6257 10.9554 28.6116 10.9144 28.6116 10.8723L28.6167 6.45697ZM27.2053 13.6544C27.2681 13.5847 27.3448 13.5289 27.4306 13.4907C27.5163 13.4525 27.6091 13.4327 27.7029 13.4326C27.7763 13.4325 27.8492 13.4446 27.9186 13.4683C27.9992 13.4965 28.0853 13.5051 28.1698 13.4931C28.2544 13.4812 28.3348 13.4492 28.4044 13.3998C28.474 13.3503 28.5308 13.2849 28.5699 13.209C28.6091 13.1331 28.6295 13.0489 28.6294 12.9635V11.8945C28.6293 11.8631 28.637 11.8321 28.6518 11.8043C28.6666 11.7766 28.6881 11.753 28.7144 11.7356C28.7442 11.7391 28.7743 11.7408 28.8044 11.7407H29.4838C29.5089 11.7407 29.5338 11.7458 29.5569 11.7557C29.5799 11.7656 29.6007 11.7802 29.6179 11.7985C29.633 11.8136 29.6448 11.8317 29.6524 11.8516C29.66 11.8715 29.6633 11.8928 29.6621 11.9141C29.6621 11.9387 29.6621 11.9634 29.6621 11.988C29.6623 12.1773 29.7023 12.3645 29.7794 12.5374C29.8565 12.7102 29.969 12.865 30.1097 12.9916C30.1428 13.0213 30.1784 13.0494 30.2141 13.0766L30.2498 13.1003C30.2744 13.1182 30.2999 13.1343 30.3262 13.1505L30.3695 13.1734C30.3942 13.187 30.4196 13.2006 30.446 13.2125L30.491 13.2321C30.5173 13.2431 30.5445 13.2533 30.5759 13.2627L30.6209 13.2771C30.6498 13.2864 30.6795 13.2941 30.7058 13.3009L30.7474 13.3102C30.7806 13.317 30.8145 13.3221 30.8485 13.3264L30.8799 13.3306C30.9241 13.3349 30.9648 13.3374 31.0141 13.3374C31.062 13.3374 31.1099 13.3349 31.1576 13.3298C31.3138 13.3133 31.4659 13.2693 31.6069 13.1998C31.8156 13.0965 31.994 12.941 32.1248 12.7483C32.2556 12.5556 32.3344 12.3324 32.3533 12.1002C32.3533 12.0636 32.3533 12.0271 32.3533 11.9906C32.3533 11.9804 32.3533 11.9702 32.3533 11.9608V11.9268C32.3516 11.9004 32.3553 11.8738 32.3642 11.8488C32.3731 11.8238 32.3871 11.8009 32.4051 11.7815C32.4207 11.7648 32.4395 11.7513 32.4603 11.7419C32.4812 11.7326 32.5037 11.7276 32.5266 11.7271L33.2281 11.7144C33.2433 11.7144 33.2578 11.7144 33.2722 11.7144C33.3047 11.7224 33.3345 11.739 33.3584 11.7625C33.3823 11.786 33.3995 11.8154 33.4081 11.8478C33.4081 11.8657 33.4081 11.8826 33.4081 11.9005V12.8981C33.4081 13.021 33.4488 13.1405 33.5236 13.238C33.5585 13.2924 33.6032 13.3399 33.6552 13.3782C33.7221 13.4282 33.7996 13.4619 33.8817 13.4766C33.9638 13.4914 34.0482 13.4868 34.1283 13.4632C34.2246 13.4345 34.3262 13.4279 34.4255 13.4439C34.5247 13.46 34.6191 13.4982 34.7015 13.5558C34.7839 13.6134 34.8523 13.6888 34.9016 13.7765C34.9508 13.8642 34.9797 13.9619 34.986 14.0623C34.9881 14.1662 34.9655 14.2692 34.9202 14.3627C34.8748 14.4562 34.808 14.5377 34.7252 14.6005C34.6424 14.6632 34.5459 14.7054 34.4436 14.7237C34.3413 14.742 34.2362 14.7357 34.1367 14.7055C34.0526 14.6801 33.9637 14.6745 33.8771 14.6893C33.7904 14.704 33.7084 14.7387 33.6374 14.7905C33.5678 14.8416 33.5113 14.9084 33.4725 14.9855C33.4337 15.0626 33.4137 15.1478 33.414 15.2341V16.2674C33.4146 16.3121 33.4185 16.3567 33.4259 16.4008C33.4098 16.4302 33.3861 16.4548 33.3573 16.4719C33.3284 16.4891 33.2956 16.4983 33.262 16.4985H32.1996C32.1156 16.4981 32.0327 16.5178 31.9578 16.5559C31.8829 16.594 31.8182 16.6495 31.7691 16.7177C31.7192 16.7866 31.6862 16.8663 31.6728 16.9503C31.6593 17.0343 31.6659 17.1203 31.6918 17.2013C31.7132 17.2671 31.7241 17.3359 31.7241 17.4052C31.7241 17.499 31.7046 17.5917 31.6667 17.6775C31.6288 17.7632 31.5735 17.8401 31.5041 17.9032C31.4337 17.9666 31.3505 18.0143 31.2601 18.0429C31.1697 18.0714 31.0742 18.0803 30.9801 18.0689C30.8286 18.0502 30.688 17.9806 30.5812 17.8714C30.4744 17.7623 30.4079 17.62 30.3924 17.4681C30.3831 17.3767 30.393 17.2844 30.4213 17.197C30.4472 17.1174 30.4539 17.0328 30.4409 16.9501C30.4279 16.8674 30.3956 16.789 30.3466 16.7211C30.297 16.652 30.2317 16.5956 30.1561 16.5564C30.0806 16.5173 29.9969 16.4966 29.9118 16.496L28.8451 16.49C28.7964 16.4892 28.7498 16.4695 28.7152 16.4352C28.6805 16.4008 28.6605 16.3544 28.6592 16.3056L28.6388 15.2196C28.6369 15.136 28.6154 15.0539 28.576 14.9801C28.5366 14.9063 28.4805 14.8428 28.412 14.7948C28.3218 14.7327 28.2149 14.6995 28.1054 14.6996C28.0441 14.6992 27.9832 14.7095 27.9254 14.7302C27.8372 14.7611 27.7433 14.7727 27.6503 14.7642C27.5261 14.7539 27.4074 14.7092 27.3073 14.635C27.2073 14.5608 27.1299 14.4601 27.084 14.3442C27.0381 14.2284 27.0254 14.1021 27.0475 13.9794C27.0695 13.8568 27.1253 13.7427 27.2086 13.6501L27.2053 13.6544Z" fill="black"/>
<path d="M26.6815 37.9947C30.2407 31.9555 32.4139 25.7115 33.1408 19.4233L32.4665 19.3452C31.7387 25.6333 29.5443 31.8748 25.9401 37.914C22.5916 32.6132 20.2392 26.993 18.9458 21.1993C18.3216 18.4028 18.111 16.0294 18.3021 13.9441C18.5398 11.3524 19.4256 9.16936 20.9347 7.45541C22.4438 5.74145 24.5941 4.79993 26.6943 4.93164L26.7367 4.25184C24.4285 4.10653 22.0659 5.13643 20.4243 7.00504C18.8175 8.82946 17.8766 11.1425 17.6218 13.8812C17.4248 16.0379 17.6397 18.4793 18.2791 21.3472C19.5674 27.1162 21.8909 32.7135 25.1886 38.0024C19.4979 38.2114 14.11 40.6206 10.1583 44.7232C6.20659 48.8258 3.99903 54.302 4 59.9999H4.67939C4.66352 54.4843 6.798 49.1799 10.6292 45.2142C13.3286 46.1252 15.7065 46.5812 17.7628 46.5823C19.9521 46.5823 21.7644 46.0623 23.1826 45.0222C24.8455 43.8019 25.6344 42.1092 26.0089 40.7284C26.3826 42.1092 27.1715 43.8019 28.8352 45.0222C30.2526 46.0623 32.0623 46.5823 34.255 46.5823C36.3017 46.5823 38.6813 46.126 41.3759 45.2168C45.2041 49.1819 47.3367 54.4842 47.3206 59.9974H48C48.0012 54.2768 45.7763 48.7806 41.7968 44.6734C37.8173 40.5662 32.3959 38.1707 26.6815 37.9947ZM22.775 44.4775C20.2689 46.3121 16.3649 46.3775 11.1667 44.6763C15.0391 40.9011 20.2082 38.7513 25.614 38.6677C25.6251 38.6864 25.6369 38.7051 25.6488 38.723C25.5826 39.7784 25.175 42.7219 22.7767 44.4775H22.775ZM29.2411 44.4775C26.7987 42.693 26.4208 39.6721 26.3631 38.6677C31.7818 38.7429 36.9654 40.8947 40.846 44.6797C35.6478 46.3775 31.7472 46.3104 29.2428 44.4775H29.2411Z" fill="black"/>
</svg>
