<svg width="94" height="64" viewBox="0 0 94 64" fill="none" xmlns="http://www.w3.org/2000/svg">
<path d="M60.9892 4C53.5531 3.99974 46.4214 6.95341 41.163 12.2113C35.9046 17.4691 32.9502 24.6005 32.9497 32.0366C32.9483 34.3449 33.2311 36.6447 33.7916 38.884L34.5487 38.6947C34.0037 36.5173 33.7288 34.2811 33.7302 32.0366C33.7325 27.0183 35.1202 22.0981 37.7405 17.8183C40.3608 13.5385 44.1118 10.0652 48.5802 7.78125C53.0486 5.49731 58.0608 4.49141 63.0644 4.87442C68.068 5.25742 72.8687 7.01446 76.9375 9.95188C81.0062 12.8893 84.1849 16.893 86.1232 21.5218C88.0616 26.1506 88.6843 31.2247 87.9228 36.1848C87.1614 41.1449 85.0452 45.7985 81.8076 49.6326C78.5699 53.4668 74.3366 56.3326 69.5741 57.9142L69.8199 58.6556C76.1412 56.5563 81.5088 52.2756 84.9618 46.5798C88.4148 40.8839 89.7276 34.145 88.6652 27.5696C87.6028 20.9941 84.2345 15.0115 79.1635 10.6929C74.0925 6.37434 67.6499 4.00176 60.9892 4Z" fill="black"/>
<path d="M72.3173 54.3494C72.9029 54.3487 73.4642 54.1157 73.8782 53.7017C74.2923 53.2876 74.5252 52.7263 74.526 52.1408V50.8891H76.799C77.3846 50.8884 77.9459 50.6554 78.3599 50.2414C78.774 49.8273 79.0069 49.266 79.0077 48.6805V40.8389C79.0069 40.2535 78.7739 39.6923 78.3599 39.2784C77.9458 38.8645 77.3845 38.6318 76.799 38.6312H74.526V37.3796C74.5252 36.7941 74.2923 36.2327 73.8782 35.8187C73.4642 35.4047 72.9029 35.1717 72.3173 35.1709H67.3303V31.7331C67.3295 31.1475 67.0966 30.5862 66.6825 30.1722C66.2685 29.7581 65.7071 29.5252 65.1216 29.5244H57.1669C56.5814 29.5252 56.0201 29.7581 55.606 30.1722C55.192 30.5862 54.959 31.1475 54.9583 31.7331V39.2254C54.9583 39.8981 54.691 40.5432 54.2153 41.0189C53.7397 41.4946 53.0945 41.7618 52.4218 41.7618H30.5693C29.8966 41.7618 29.2514 41.4946 28.7758 41.0189C28.3001 40.5432 28.0329 39.8981 28.0329 39.2254V31.7331C28.0321 31.1475 27.7991 30.5862 27.3851 30.1722C26.9711 29.7581 26.4097 29.5252 25.8242 29.5244H17.8744C17.2888 29.5252 16.7275 29.7581 16.3135 30.1722C15.8994 30.5862 15.6665 31.1475 15.6657 31.7331V35.1719H10.6904C10.1048 35.1727 9.54351 35.4056 9.12947 35.8197C8.71543 36.2337 8.48249 36.795 8.48171 37.3806V38.6322H6.20866C5.62313 38.633 5.06179 38.8659 4.64776 39.28C4.23372 39.694 4.00077 40.2553 4 40.8409V48.6824C4.00077 49.268 4.23372 49.8293 4.64776 50.2433C5.06179 50.6574 5.62313 50.8903 6.20866 50.8911H8.48171V52.1427C8.48249 52.7283 8.71543 53.2896 9.12947 53.7036C9.54351 54.1177 10.1048 54.3506 10.6904 54.3514H15.6657V57.7912C15.6665 58.3767 15.8994 58.9381 16.3135 59.3521C16.7275 59.7661 17.2888 59.9991 17.8744 59.9999H25.831C26.4166 59.9991 26.9779 59.7661 27.3919 59.3521C27.806 58.9381 28.0389 58.3767 28.0397 57.7912V50.2989C28.0397 49.6262 28.3069 48.9811 28.7826 48.5054C29.2583 48.0297 29.9034 47.7625 30.5761 47.7625H52.4286C53.1013 47.7625 53.7465 48.0297 54.2222 48.5054C54.6978 48.9811 54.9651 49.6262 54.9651 50.2989V51.5428V57.7912C54.9659 58.3767 55.1988 58.9381 55.6128 59.3521C56.0269 59.7661 56.5882 59.9991 57.1737 59.9999H65.1304C65.7144 59.9968 66.2735 59.7628 66.6856 59.349C67.0978 58.9352 67.3295 58.3752 67.3303 57.7912V54.3494H72.3173ZM67.342 35.9514H72.3173C72.696 35.9519 73.0589 36.1025 73.3267 36.3703C73.5944 36.638 73.745 37.001 73.7455 37.3796V39.4117H76.799C77.1776 39.4119 77.5406 39.5624 77.8083 39.8299C78.0761 40.0975 78.2267 40.4604 78.2273 40.8389V48.6805C78.2267 49.0591 78.0761 49.4221 77.8084 49.6898C77.5406 49.9575 77.1777 50.1082 76.799 50.1087H74.526V43.3012H73.7455V52.1408C73.745 52.5194 73.5944 52.8824 73.3267 53.1501C73.0589 53.4178 72.696 53.5685 72.3173 53.569H67.342V35.9514ZM10.6923 53.5709C10.3137 53.5704 9.95073 53.4198 9.68299 53.1521C9.41526 52.8843 9.26462 52.5213 9.26411 52.1427V50.4999V43.3012H8.48366V50.1106H6.21061C5.83199 50.1101 5.46901 49.9595 5.20128 49.6917C4.93355 49.424 4.78291 49.061 4.7824 48.6824V40.8409C4.78291 40.4623 4.93355 40.0993 5.20128 39.8316C5.46901 39.5638 5.83199 39.4132 6.21061 39.4127H9.26411V37.3806C9.26462 37.002 9.41526 36.639 9.68299 36.3712C9.95073 36.1035 10.3137 35.9529 10.6923 35.9524H15.6677V53.5709H10.6923ZM66.5498 57.7912C66.5493 58.1698 66.3987 58.5328 66.1309 58.8005C65.8632 59.0683 65.5002 59.2189 65.1216 59.2194H57.1659C56.7873 59.2189 56.4243 59.0683 56.1566 58.8005C55.8889 58.5328 55.7382 58.1698 55.7377 57.7912V51.5408V50.297C55.7377 49.4173 55.3883 48.5736 54.7662 47.9516C54.1442 47.3295 53.3005 46.9801 52.4208 46.9801H30.5683C29.6886 46.9801 28.845 47.3295 28.2229 47.9516C27.6009 48.5736 27.2514 49.4173 27.2514 50.297V57.7912C27.2509 58.1698 27.1003 58.5328 26.8326 58.8005C26.5648 59.0683 26.2019 59.2189 25.8232 59.2194H17.8744C17.4958 59.2189 17.1328 59.0683 16.865 58.8005C16.5973 58.5328 16.4467 58.1698 16.4462 57.7912V54.3514V35.1719V31.7331C16.4467 31.3544 16.5973 30.9915 16.865 30.7237C17.1328 30.456 17.4958 30.3054 17.8744 30.3049H25.831C26.2097 30.3054 26.5726 30.456 26.8404 30.7237C27.1081 30.9915 27.2587 31.3544 27.2592 31.7331V39.2254C27.2592 40.1051 27.6087 40.9487 28.2307 41.5708C28.8528 42.1928 29.6964 42.5423 30.5761 42.5423H52.4286C53.3083 42.5423 54.152 42.1928 54.774 41.5708C55.3961 40.9487 55.7455 40.1051 55.7455 39.2254V31.7331C55.746 31.3544 55.8967 30.9915 56.1644 30.7237C56.4321 30.456 56.7951 30.3054 57.1737 30.3049H65.1294C65.5067 30.3074 65.8677 30.459 66.1337 30.7265C66.3998 30.994 66.5493 31.3558 66.5498 31.7331V57.7912Z" fill="black"/>
</svg>
