<svg width="54" height="64" viewBox="0 0 54 64" fill="none" xmlns="http://www.w3.org/2000/svg">
<path d="M13.5916 47.0856C10.5786 49.2989 7.36815 51.2358 4 52.8724L4.26045 53.3967C7.66051 51.7444 10.9014 49.789 13.9428 47.5545C16.8455 45.4247 19.5467 43.0383 22.0131 40.4248V45.6828H22.6033V38.9146L22.0869 39.4791C19.6203 42.1862 16.762 44.7451 13.5916 47.0856Z" fill="black"/>
<path d="M31.9169 39.4791L31.4004 38.9146V45.6828H31.9906V40.4248C34.456 43.0374 37.1559 45.423 40.0572 47.5523C43.0987 49.7868 46.3395 51.7423 49.7396 53.3945L50 52.8702C46.6319 51.2336 43.4214 49.2967 40.4084 47.0834C37.2417 44.7451 34.3834 42.1862 31.9169 39.4791Z" fill="black"/>
<path d="M30.4161 54.5806L27.6515 39.2287H29.2969C29.4669 39.2285 29.6298 39.1616 29.75 39.0426C29.8702 38.9236 29.9378 38.7623 29.938 38.5941V34.0664C29.9378 33.8982 29.8702 33.737 29.75 33.6181C29.6298 33.4992 29.4668 33.4325 29.2969 33.4325H27.473C30.5187 28.3885 32.4761 22.7361 33.1409 17.0502L32.5543 16.983C31.9006 22.5747 29.9779 28.135 26.986 33.0995C24.0229 28.4987 21.9452 23.6154 20.8083 18.5772C20.266 16.1731 20.083 14.1334 20.249 12.3421C20.4548 10.1147 21.2251 8.2379 22.5362 6.76493C23.8473 5.29195 25.7162 4.48281 27.5401 4.596L27.577 4.01178C25.5724 3.88617 23.519 4.77127 22.0928 6.37715C20.6969 7.94505 19.8793 9.9336 19.658 12.2873C19.4861 14.14 19.6735 16.2388 20.2291 18.7028C21.383 23.8147 23.491 28.7667 26.5005 33.431H24.7209C24.551 33.431 24.388 33.4978 24.2678 33.6166C24.1476 33.7355 24.0799 33.8967 24.0798 34.0649V38.5926C24.0799 38.7609 24.1476 38.9222 24.2678 39.0411C24.388 39.1601 24.5509 39.227 24.7209 39.2272H26.3662L23.6016 54.5799C23.5745 54.7291 23.6023 54.8829 23.6799 55.0137L26.4563 59.6874C26.5125 59.783 26.5932 59.8622 26.6902 59.9171C26.7872 59.9719 26.8972 60.0005 27.0089 60C27.1206 60.0005 27.2305 59.9719 27.3275 59.9171C27.4246 59.8622 27.5053 59.783 27.5615 59.6874L30.3372 55.0137C30.4146 54.8832 30.4426 54.7297 30.4161 54.5806ZM24.6693 38.5941V34.0664C24.6693 34.0598 24.6706 34.0533 24.6732 34.0472C24.6757 34.0411 24.6795 34.0356 24.6842 34.031C24.689 34.0264 24.6946 34.0227 24.7007 34.0203C24.7069 34.0178 24.7135 34.0166 24.7202 34.0167H29.2947C29.3013 34.0166 29.3079 34.0178 29.3141 34.0203C29.3203 34.0227 29.3259 34.0264 29.3306 34.031C29.3353 34.0356 29.3391 34.0411 29.3417 34.0472C29.3442 34.0533 29.3456 34.0598 29.3456 34.0664V38.5941C29.3456 38.6075 29.3402 38.6203 29.3307 38.6297C29.3211 38.6392 29.3082 38.6445 29.2947 38.6445H24.7202C24.7067 38.6445 24.6937 38.6392 24.6842 38.6297C24.6746 38.6203 24.6693 38.6075 24.6693 38.5941ZM29.8281 54.7172L27.0524 59.3909C27.0481 59.3987 27.0416 59.4052 27.0338 59.4095C27.026 59.4139 27.0171 59.4161 27.0082 59.4158C26.9993 59.4162 26.9904 59.4141 26.9827 59.4097C26.975 59.4053 26.9687 59.3988 26.9646 59.3909L24.1882 54.7172C24.1817 54.707 24.1793 54.6947 24.1816 54.6828L26.958 39.274C26.9602 39.2624 26.9664 39.2519 26.9756 39.2443C26.9847 39.2367 26.9962 39.2325 27.0082 39.2323C27.0201 39.2323 27.0317 39.2365 27.0409 39.2441C27.0501 39.2517 27.0562 39.2623 27.0583 39.274L29.834 54.6828C29.8364 54.6945 29.8345 54.7067 29.8288 54.7172H29.8281Z" fill="black"/>
<path d="M24.8323 10.5286C24.8324 11.5947 25.152 12.6368 25.7505 13.5232C26.3491 14.4095 27.1997 15.1003 28.1949 15.5081C29.1901 15.9159 30.2851 16.0225 31.3415 15.8143C32.3979 15.6061 33.3682 15.0925 34.1297 14.3385C34.8911 13.5845 35.4096 12.624 35.6195 11.5783C35.8294 10.5326 35.7213 9.44882 35.3089 8.46396C34.8964 7.4791 34.1982 6.63742 33.3025 6.04534C32.4067 5.45327 31.3537 5.13741 30.2766 5.1377C28.8329 5.13963 27.4489 5.70829 26.4283 6.71893C25.4076 7.72956 24.8336 9.09964 24.8323 10.5286ZM30.2766 5.72192C31.2371 5.72177 32.1761 6.00356 32.9748 6.53164C33.7735 7.05971 34.3961 7.81037 34.7638 8.68866C35.1315 9.56696 35.2277 10.5334 35.0404 11.4659C34.8531 12.3984 34.3907 13.2549 33.7115 13.9272C33.0324 14.5995 32.1671 15.0574 31.225 15.2429C30.283 15.4284 29.3065 15.3333 28.4191 14.9695C27.5317 14.6057 26.7732 13.9896 26.2395 13.1991C25.7059 12.4087 25.4211 11.4793 25.4211 10.5286C25.4224 9.25433 25.9344 8.03263 26.8447 7.13152C27.755 6.2304 28.9892 5.72346 30.2766 5.72192Z" fill="black"/>
<path d="M33.7325 11.2823L33.154 11.1567C33.0986 11.4085 33.009 11.6517 32.8877 11.8797L33.4108 12.1514C33.5566 11.8771 33.6648 11.5849 33.7325 11.2823Z" fill="black"/>
<path d="M33.7997 10.2033C33.7725 9.9098 33.7075 9.62096 33.6064 9.34375L33.0515 9.54165C33.135 9.77261 33.1888 10.0131 33.2116 10.2573L33.7997 10.2033Z" fill="black"/>
<path d="M30.2766 14.0283C30.759 14.0275 31.2362 13.9295 31.6791 13.7402C32.1219 13.5508 32.5211 13.2741 32.8524 12.927L32.4237 12.5283C32.1489 12.8191 31.8163 13.0506 31.4468 13.2082C31.0774 13.3658 30.679 13.4461 30.2766 13.4441C29.791 13.4441 29.3129 13.3254 28.8848 13.0984C28.4567 12.8714 28.092 12.5432 27.8231 12.143C27.5541 11.7428 27.3893 11.2829 27.3433 10.8044C27.2972 10.3259 27.3714 9.84357 27.5592 9.40031C27.7471 8.95704 28.0427 8.5666 28.4198 8.26373C28.7969 7.96086 29.2438 7.75496 29.7207 7.66434C30.1976 7.57373 30.6898 7.6012 31.1534 7.74434C31.617 7.88747 32.0376 8.14181 32.3779 8.48474L32.7985 8.07505C32.39 7.66348 31.885 7.35824 31.3285 7.1865C30.772 7.01476 30.1813 6.98183 29.6088 7.09066C29.0364 7.19949 28.5 7.44669 28.0474 7.81027C27.5948 8.17386 27.24 8.64254 27.0146 9.17462C26.7892 9.7067 26.7002 10.2857 26.7554 10.86C26.8107 11.4344 27.0086 11.9863 27.3315 12.4667C27.6543 12.9471 28.0921 13.341 28.606 13.6135C29.1198 13.8859 29.6937 14.0284 30.2766 14.0283Z" fill="black"/>
<path d="M28.154 9.73255C27.9825 10.1808 27.9603 10.6716 28.0906 11.1333C28.2208 11.5949 28.4968 12.0033 28.8782 12.2987C29.2595 12.5941 29.7263 12.7611 30.2104 12.7754C30.6945 12.7896 31.1704 12.6503 31.5689 12.3778C31.9673 12.1053 32.2672 11.7139 32.425 11.2607C32.5827 10.8075 32.59 10.3163 32.4457 9.85875C32.3014 9.4012 32.0131 9.00129 31.6229 8.7174C31.2327 8.43351 30.761 8.28052 30.2767 8.28076V8.86498C30.6347 8.86531 30.9831 8.97885 31.2713 9.18903C31.5595 9.3992 31.7723 9.69503 31.8786 10.0333C31.9849 10.3716 31.9793 10.7347 31.8624 11.0696C31.7456 11.4045 31.5237 11.6937 31.2291 11.895C30.9345 12.0962 30.5827 12.1991 30.2249 12.1885C29.8671 12.1779 29.5221 12.0544 29.2402 11.836C28.9583 11.6176 28.7543 11.3158 28.6579 10.9746C28.5615 10.6334 28.5778 10.2706 28.7044 9.93922L28.154 9.73255Z" fill="black"/>
</svg>
