<svg width="70" height="64" viewBox="0 0 70 64" fill="none" xmlns="http://www.w3.org/2000/svg">
<path d="M33.198 31.7469L32.6798 31.3528C31.922 32.3442 31.1594 33.3071 30.5336 34.0636C30.1482 34.5292 29.8312 34.9071 29.6186 35.1606C29.5151 35.0412 29.3741 34.8787 29.2071 34.6812C29.1452 34.6056 22.9509 27.1541 21.9935 24.8862C21.6971 24.2087 21.5265 23.4832 21.49 22.745L20.8381 22.7677C20.8777 23.5848 21.0657 24.388 21.393 25.1381C22.3871 27.4946 28.4485 34.7868 28.7084 35.0989C28.9219 35.3491 29.0881 35.5425 29.1973 35.6677C28.6947 36.2725 28.1416 36.8339 27.544 37.3457L27.7567 37.5895L27.544 37.3457C25.0315 39.4953 21.8304 40.6771 18.52 40.6773C10.8746 40.6773 4.65511 34.474 4.65511 26.8502C4.65511 19.2265 10.8713 13.0166 18.5167 13.0166C21.8272 13.0168 25.0282 14.1986 27.5408 16.3483L27.9653 15.855C25.3334 13.6043 21.9805 12.3674 18.5135 12.3682C10.512 12.3665 4 18.8673 4 26.8462C4 34.7202 10.336 41.1478 18.1908 41.3193V53.2181H12.2981V53.8682H18.1916V60H18.8435V53.8682H24.737V53.2181H18.8426V41.3193C22.1968 41.2451 25.4216 40.0144 27.9686 37.8365C28.6433 37.2591 29.2637 36.6216 29.8223 35.9318C29.8312 35.9212 30.3177 35.35 31.0363 34.4813C31.6678 33.7142 32.4354 32.7448 33.198 31.7469ZM29.5721 35.7181L29.5053 35.6644L29.5721 35.7181Z" fill="black"/>
<path d="M62.5255 6.93915L51.805 17.6305C51.5899 17.3867 51.3667 17.1429 51.1328 16.9129C49.7849 15.5686 48.1847 14.5022 46.4236 13.7747C44.6625 13.0471 42.7749 12.6727 40.8686 12.6727C38.9623 12.6727 37.0747 13.0471 35.3136 13.7747C33.5525 14.5022 31.9523 15.5686 30.6044 16.9129C30.2348 17.281 29.8853 17.6687 29.5574 18.0741C29.0522 18.699 28.6003 19.365 28.2064 20.065C27.8827 19.7325 27.5206 19.4395 27.1276 19.1923C25.4116 18.1123 23.2409 18.2984 21.9666 19.6286L22.4383 20.0772C23.4976 18.9672 25.3252 18.8266 26.7797 19.7416C27.2496 20.0371 27.6696 20.4052 28.0239 20.8321C28.5274 21.4375 28.9291 22.194 29.2184 23.0805L29.5288 24.0305L29.8385 23.0797C29.8817 22.9473 29.9273 22.8173 29.9754 22.6913C30.23 21.9889 30.607 21.3369 31.0892 20.7655C31.1647 20.6766 31.2438 20.5907 31.3263 20.5079C31.6118 20.2154 31.931 19.9576 32.2772 19.74C33.7325 18.825 35.5585 18.9664 36.6185 20.0756C37.7291 21.2376 37.9002 23.0773 37.0659 24.8764C36.7147 25.6321 35.9349 26.8729 34.8105 28.4648L35.3434 28.8394C36.5061 27.1931 37.2851 25.9514 37.6574 25.1494C38.6067 23.1025 38.3908 20.9865 37.0871 19.6238C35.8143 18.2935 33.6461 18.1099 31.9268 19.1923C31.5376 19.4368 31.1787 19.7265 30.8578 20.0552C30.2953 20.6398 29.8442 21.3216 29.5264 22.0672C29.4938 21.9933 29.4604 21.9218 29.4262 21.8503C29.4148 21.8251 29.4025 21.8015 29.3903 21.7763C29.3675 21.73 29.3447 21.6837 29.3211 21.6382C29.3072 21.6106 29.2917 21.5829 29.2771 21.5569C29.2559 21.5163 29.2339 21.4757 29.2111 21.435C29.1882 21.3944 29.1793 21.3781 29.163 21.3497C29.1467 21.3213 29.1182 21.2725 29.0954 21.2343C29.0725 21.1961 29.062 21.1791 29.0448 21.1531C29.0277 21.1271 28.9976 21.0767 28.9731 21.0393C28.9487 21.0019 28.9397 20.9873 28.9226 20.9621C28.8965 20.9223 28.8688 20.8808 28.8411 20.8435C28.8257 20.8223 28.811 20.7996 28.7955 20.7785C28.7605 20.7289 28.7238 20.6809 28.688 20.633L28.6643 20.6013L28.6594 20.5948C29.0617 19.8511 29.5319 19.146 30.0642 18.4886C30.3774 18.1014 30.7112 17.7311 31.0639 17.3794C32.9731 15.4753 35.3982 14.1685 38.0416 13.6196C40.6849 13.0706 43.4315 13.3033 45.9441 14.2891C48.4568 15.2749 50.6261 16.9709 52.1858 19.1689C53.7455 21.3669 54.6278 23.9712 54.7243 26.6622C54.8207 29.3532 54.1272 32.0137 52.7289 34.3172C51.3306 36.6207 49.2882 38.4668 46.8526 39.6291C44.417 40.7913 41.6941 41.219 39.0182 40.8597C36.3423 40.5004 33.8298 39.3697 31.7891 37.6065L31.3614 38.094C33.9965 40.3786 37.372 41.6346 40.8637 41.6296C41.0267 41.6296 41.1896 41.6269 41.3526 41.6215C44.0421 41.5323 46.6539 40.6993 48.8962 39.2156C51.1385 37.7318 52.9231 35.6557 54.0508 33.219C55.1785 30.7824 55.6048 28.0811 55.2822 25.4167C54.9596 22.7524 53.9007 20.23 52.2238 18.131L62.946 7.4389L64.1112 10.0733C64.2847 8.19705 65.1354 5.77064 65.9999 4C64.1878 4.78009 61.7164 5.51711 59.8293 5.60162L62.5255 6.93915Z" fill="black"/>
</svg>
