<svg width="62" height="64" viewBox="0 0 62 64" fill="none" xmlns="http://www.w3.org/2000/svg">
<path d="M34.0692 32.8956L34.063 33.5171L50.6113 33.6833L50.6175 33.0617L34.0692 32.8956Z" fill="black"/>
<path d="M34.2022 26.4478L34.1963 27.0693L50.7439 27.2288L50.7498 26.6073L34.2022 26.4478Z" fill="black"/>
<path d="M39.5314 40.1549L39.52 40.7764L50.7428 40.9829L50.7541 40.3615L39.5314 40.1549Z" fill="black"/>
<path d="M46.3807 48.5297L45.8794 48.8933L47.6171 51.3095L50.2476 47.989L49.7633 47.6021L47.6411 50.2809L46.3807 48.5297Z" fill="black"/>
<path d="M55.5042 13.271H48.2517C47.5916 13.2718 46.9588 13.5355 46.4921 14.0042C46.0254 14.4729 45.7628 15.1083 45.762 15.7711V18.5851C45.7602 19.0495 45.888 19.5051 46.1308 19.9003C46.3737 20.2954 46.7219 20.6144 47.136 20.8211C47.3466 20.9225 47.5186 21.0899 47.6263 21.2979C47.734 21.5059 47.7716 21.7435 47.7333 21.9748L47.509 23.2769C47.4887 23.3936 47.504 23.5136 47.553 23.6214C47.602 23.7291 47.6823 23.8194 47.7833 23.8804C47.8844 23.9415 48.0014 23.9703 48.1191 23.9633C48.2369 23.9563 48.3497 23.9136 48.4428 23.8409L51.6923 21.3167C51.8851 21.1665 52.1221 21.0845 52.3661 21.0837H55.5104C56.1705 21.0828 56.8033 20.8192 57.27 20.3505C57.7367 19.8818 57.9993 19.2464 58.0001 18.5836V15.7711C57.9997 15.4424 57.9348 15.117 57.8092 14.8134C57.6835 14.5099 57.4996 14.2341 57.2678 14.002C57.036 13.7698 56.761 13.5858 56.4584 13.4604C56.1558 13.3349 55.8316 13.2706 55.5042 13.271ZM57.375 18.5851C57.3744 19.0831 57.1771 19.5606 56.8264 19.9128C56.4757 20.265 56.0002 20.4631 55.5042 20.4637H52.36C51.9789 20.4643 51.6087 20.5913 51.307 20.825L48.1349 23.2948L48.3438 22.0812C48.4055 21.7185 48.3483 21.3454 48.1809 21.018C48.0135 20.6906 47.7449 20.4266 47.4153 20.2656C47.1043 20.11 46.8427 19.8702 46.6602 19.5733C46.4777 19.2763 46.3815 18.9341 46.3825 18.5851V15.7711C46.3829 15.273 46.5801 14.7954 46.9309 14.4432C47.2816 14.091 47.7572 13.8929 48.2532 13.8925H55.5058C56.0018 13.8929 56.4774 14.091 56.8281 14.4432C57.1789 14.7954 57.3761 15.273 57.3765 15.7711L57.375 18.5851Z" fill="black"/>
<path d="M55.2838 22.4989C55.39 22.9406 55.4394 23.3941 55.4308 23.8484L54.7623 54.208C54.7328 55.6056 54.1529 56.9346 53.1495 57.9037C52.1461 58.8729 50.8011 59.4031 49.4092 59.3783L45.3976 59.3006L45.3853 59.9222L49.3968 59.9999H49.5129C51.049 59.9972 52.523 59.3909 53.6198 58.3108C54.7165 57.2307 55.3487 55.7626 55.3812 54.2204L56.0497 23.86C56.0593 23.3524 56.0042 22.8456 55.8857 22.3521L55.2838 22.4989Z" fill="black"/>
<path d="M36.8417 17.5876L36.8296 18.209L44.3182 18.356L44.3303 17.7346L36.8417 17.5876Z" fill="black"/>
<path d="M52.0148 55.9951C48.4829 54.2541 45.1163 52.1935 41.9569 49.8388C36.8878 46.042 32.5536 41.5312 29.0759 36.4315C28.8737 36.1348 28.6751 35.8369 28.4801 35.5381C31.752 30.1152 33.8534 24.018 34.5605 17.8835L33.9416 17.812C33.2553 23.7632 31.2383 29.6809 28.1026 34.9585C24.9955 30.0639 22.8191 24.8773 21.6245 19.508C21.0559 16.9504 20.864 14.7805 21.0381 12.8747C21.2539 10.5043 22.0609 8.50841 23.4365 6.94137C24.8121 5.37434 26.7718 4.51351 28.6844 4.63393L28.7231 4.0124C26.621 3.87955 24.4678 4.82039 22.9723 6.52883C21.5085 8.19687 20.6512 10.3124 20.4191 12.8164C20.2388 14.7874 20.4346 17.0203 21.018 19.6416C22.2489 25.1748 24.5096 30.5184 27.7413 35.5443C24.3371 40.7768 19.7352 45.5852 14.0579 49.8396C10.8984 52.1941 7.53186 54.2547 4 55.9958L4.27388 56.5529C7.83929 54.7952 11.2377 52.7149 14.4269 50.3376C20.0787 46.1057 24.6782 41.3253 28.1095 36.1138C28.2576 36.3375 28.4071 36.5608 28.5583 36.7835C32.0747 41.9399 36.456 46.4996 41.5801 50.3376C44.7693 52.715 48.1677 54.7953 51.7332 56.5529L52.0148 55.9951Z" fill="black"/>
<path d="M37.8363 8.75836C38.1937 8.76379 38.3779 8.95802 38.3779 9.24859C38.3779 9.50497 38.2355 9.72717 37.9802 10.0294C37.6963 10.3712 37.5934 10.7076 37.6282 11.0161L37.6398 11.1637H38.0823L38.0769 11.0161C38.0599 10.7247 38.1543 10.4722 38.4003 10.1778C38.6734 9.85303 38.8885 9.57334 38.8885 9.18566C38.8885 8.75214 38.5937 8.34814 37.9407 8.34814C37.6398 8.34814 37.3164 8.43904 37.1292 8.57578L37.2653 8.93472C37.4336 8.81948 37.6326 8.75801 37.8363 8.75836Z" fill="black"/>
<path d="M37.5127 11.9624C37.5166 12.0284 37.5397 12.0919 37.579 12.1449C37.6184 12.198 37.6723 12.2384 37.7342 12.2611C37.7961 12.2838 37.8633 12.2878 37.9274 12.2727C37.9915 12.2576 38.0499 12.224 38.0953 12.176C38.1407 12.1281 38.1711 12.0678 38.1829 12.0027C38.1946 11.9376 38.1872 11.8705 38.1615 11.8096C38.1357 11.7487 38.0929 11.6966 38.0381 11.6599C37.9833 11.6231 37.919 11.6032 37.8531 11.6027C37.8066 11.6014 37.7603 11.61 37.7172 11.6279C37.6742 11.6458 37.6353 11.6726 37.6032 11.7065C37.5712 11.7404 37.5465 11.7807 37.5309 11.8248C37.5153 11.8688 37.5091 11.9157 37.5127 11.9624Z" fill="black"/>
<path d="M28.4499 10.2625L28.8476 9.05367H30.2046L30.6131 10.2625H31.1416L29.8356 6.41992H29.2422L27.9424 10.2625H28.4499ZM29.3242 7.5581C29.4015 7.32503 29.4611 7.09195 29.5176 6.86276H29.5292C29.5857 7.08496 29.6422 7.31337 29.7273 7.56199L30.1025 8.66754H28.9497L29.3242 7.5581Z" fill="black"/>
<path d="M35.7234 8.86516H34.0662V7.47992H35.5532V7.06971H34.0662V5.85539H35.6383V5.43896H33.5718V9.28159H35.7234V8.86516Z" fill="black"/>
<path d="M26.5986 14.3541C26.5734 14.4822 26.5798 14.6146 26.6172 14.7397C26.6545 14.8648 26.7217 14.9789 26.8129 15.072C27.0202 15.2996 27.322 15.4309 27.8109 15.5039C28.1099 15.5514 28.4128 15.5699 28.7154 15.5591L29.2716 11.8214C29.0251 11.7514 28.7741 11.6982 28.5204 11.6621C27.9015 11.5696 27.4589 11.6186 27.1587 11.8214C27.0412 11.9036 26.9421 12.0095 26.8675 12.1323C26.7929 12.255 26.7445 12.392 26.7255 12.5346C26.6419 13.0978 27.0187 13.4599 27.3645 13.6044V13.6153C26.9421 13.7023 26.6527 13.9874 26.5986 14.3541ZM27.2415 12.6177C27.3235 12.0653 27.8171 11.9488 28.3247 12.0249C28.4623 12.042 28.5984 12.07 28.7316 12.1088L28.5158 13.5578L28.1119 13.4972C27.5757 13.4172 27.1641 13.1359 27.2415 12.6177ZM28.0152 13.8608L28.4593 13.9276L28.2767 15.1512C28.1303 15.1557 27.9839 15.1453 27.8396 15.1202C27.3452 15.0425 27.0342 14.8203 27.1007 14.3751C27.1533 14.0107 27.4984 13.7854 28.0144 13.8631L28.0152 13.8608Z" fill="black"/>
<path d="M32.7833 16.1245L32.4669 14.5132C32.3446 13.887 32.2448 13.4364 32.1234 12.9663L32.1388 12.957C32.4326 13.349 32.7494 13.7231 33.0874 14.0773L34.6579 15.7547L35.1477 15.6576L34.4088 11.8872L33.9523 11.9781L34.2618 13.5552C34.3771 14.1426 34.4785 14.5986 34.6216 15.0935L34.6115 15.1013C34.3307 14.7193 34.0255 14.356 33.6978 14.0136L32.1203 12.344L31.5911 12.4489L32.3299 16.2185L32.7833 16.1245Z" fill="black"/>
</svg>
