<svg width="87" height="64" viewBox="0 0 87 64" fill="none" xmlns="http://www.w3.org/2000/svg">
<path d="M74.0459 31.456C76.8725 27.0872 78.8501 22.4393 79.9271 17.6408C80.4362 15.3645 80.6071 13.4253 80.449 11.7101C80.2487 9.5248 79.4952 7.67739 78.2096 6.22021C76.969 4.81353 75.224 4 73.4807 4H73.4706C71.7247 4 69.9787 4.81353 68.7427 6.22021C67.4562 7.67739 66.7027 9.52572 66.5023 11.7101C66.3443 13.4253 66.5152 15.3645 67.0243 17.6408C68.0976 22.4429 70.077 27.0936 72.9055 31.4661C71.8016 32.4348 70.3819 32.9676 68.9127 32.9646H63.3283C61.5162 32.23 59.5083 31.1704 58.1823 30.0456L59.285 32.9646H56.6036C55.8364 32.9655 55.1009 33.2705 54.5585 33.8125C54.016 34.3546 53.7108 35.0894 53.7098 35.856V46.7183C53.7093 47.2899 53.4819 47.838 53.0773 48.2422C52.6728 48.6464 52.1243 48.8737 51.5522 48.8742H50.9879C50.4158 48.8737 49.8671 48.6464 49.4625 48.2423C49.0578 47.8381 48.8301 47.29 48.8294 46.7183V15.7079C48.8286 14.9413 48.5235 14.2063 47.981 13.6642C47.4385 13.1221 46.7029 12.8173 45.9356 12.8165H45.2143C44.4472 12.8175 43.7118 13.1225 43.1695 13.6645C42.6272 14.2066 42.3222 14.9415 42.3215 15.7079V41.3973C42.3215 41.9696 42.0939 42.5184 41.689 42.9231C41.284 43.3277 40.7347 43.5551 40.162 43.5551C39.5892 43.5551 39.0399 43.3277 38.635 42.9231C38.23 42.5184 38.0025 41.9696 38.0025 41.3973V12.6136C38.0017 11.8472 37.6967 11.1123 37.1544 10.5702C36.6121 10.0282 35.8767 9.72319 35.1096 9.72221H34.2605C33.4935 9.72319 32.7581 10.0282 32.2158 10.5702C31.6734 11.1123 31.3685 11.8472 31.3677 12.6136V35.7522C31.367 36.324 31.1393 36.8722 30.7347 37.2765C30.33 37.6809 29.7814 37.9083 29.2092 37.9091H19.4243V38.6436H29.211C29.9782 38.6427 30.7136 38.3377 31.2561 37.7957C31.7986 37.2537 32.1037 36.5188 32.1047 35.7522V12.6136C32.1052 12.0419 32.3327 11.4937 32.7372 11.0894C33.1417 10.685 33.6902 10.4575 34.2624 10.4568H35.1115C35.6843 10.4565 36.2338 10.6836 36.6391 11.0881C37.0444 11.4925 37.2723 12.0413 37.2728 12.6136V41.3973C37.2728 42.1644 37.5778 42.9001 38.1206 43.4425C38.6635 43.9849 39.3998 44.2896 40.1675 44.2896C40.9352 44.2896 41.6714 43.9849 42.2143 43.4425C42.7571 42.9001 43.0621 42.1644 43.0621 41.3973V15.7079C43.0626 15.1362 43.2901 14.588 43.6946 14.1837C44.0991 13.7793 44.6476 13.5518 45.2198 13.5511H45.9411C46.5134 13.5518 47.062 13.7793 47.4667 14.1836C47.8713 14.588 48.099 15.1361 48.0997 15.7079V46.7137C48.1007 47.4801 48.4059 48.2149 48.9484 48.7568C49.4909 49.2987 50.2264 49.6034 50.9935 49.6042H51.5577C52.3247 49.6034 53.0601 49.2987 53.6024 48.7568C54.1448 48.2148 54.4498 47.4801 54.4505 46.7137V35.8514C54.4524 35.2813 54.6799 34.7352 55.0832 34.332C55.4865 33.9288 56.033 33.7013 56.6036 33.6991H59.3374L58.2742 36.7696C59.5763 35.6035 61.5677 34.4833 63.366 33.6991H68.9127C70.6015 33.7018 72.2303 33.0733 73.4789 31.9371C76.0174 35.7537 79.0571 39.2125 82.5166 42.2209L83 41.67C79.5681 38.6842 76.5561 35.2484 74.0459 31.456ZM69.2895 6.7041C70.3205 5.53523 71.7384 4.82638 73.1747 4.74191C73.3721 4.72997 73.5701 4.72997 73.7675 4.74191C75.2038 4.82638 76.6217 5.53523 77.6527 6.70501C79.8085 9.14834 80.302 12.5723 79.2057 17.4801C78.1655 22.1399 76.2523 26.6565 73.523 30.9096H73.4192C70.6899 26.6565 68.7785 22.1399 67.7374 17.481C66.6402 12.5732 67.1382 9.14926 69.2895 6.7041Z" fill="black"/>
<path d="M14.9647 37.6757H16.6528C16.8478 37.6757 17.0348 37.5983 17.1727 37.4605C17.3105 37.3228 17.388 37.1359 17.388 36.9411V32.0747C17.388 31.8798 17.3105 31.693 17.1727 31.5553C17.0348 31.4175 16.8478 31.3401 16.6528 31.3401H15.1338C17.8272 27.0879 19.7212 22.5713 20.7614 17.916C21.2696 15.6398 21.4405 13.7006 21.2834 11.9854C21.083 9.80009 20.3286 7.95267 19.043 6.49549C18.9695 6.41194 18.8941 6.33113 18.8169 6.25217L18.7995 6.23289C18.725 6.15759 18.6497 6.08506 18.5734 6.01344L18.544 5.98681C18.4696 5.91703 18.3924 5.85092 18.3152 5.78572L18.2803 5.75543C18.2031 5.69207 18.1241 5.62963 18.0441 5.57179L18.0073 5.54332C17.9265 5.48364 17.8456 5.42579 17.7629 5.36978L17.728 5.34591C17.6434 5.2899 17.558 5.23481 17.4716 5.18339L17.444 5.16686C17.3521 5.11269 17.2603 5.06127 17.1684 5.0126L17.1546 5.00526C16.9618 4.90344 16.764 4.8115 16.5619 4.7298H16.5554C16.4571 4.6894 16.3569 4.65267 16.2568 4.61778L16.2393 4.61135C16.141 4.57737 16.0427 4.54616 15.9434 4.51953L15.9204 4.51218C15.8212 4.48464 15.722 4.45893 15.6227 4.43597L15.5988 4.43046C15.4987 4.40751 15.3985 4.38731 15.2974 4.36986H15.2763C15.1743 4.35242 15.0713 4.33773 14.9693 4.32579H14.9537C14.849 4.31385 14.7442 4.30467 14.6385 4.29824H14.6339C14.5237 4.29181 14.4134 4.28906 14.3022 4.28906C14.2103 4.28906 14.1184 4.28906 14.0265 4.29733C12.3724 4.37905 10.7505 5.17788 9.57702 6.50927C8.29051 7.96645 7.53699 9.81478 7.33666 11.9992C7.17952 13.7144 7.35044 15.6536 7.85861 17.9298C8.89977 22.5851 10.7919 27.0989 13.4862 31.3548H11.7834C11.5884 31.3548 11.4014 31.4322 11.2636 31.5699C11.1257 31.7077 11.0482 31.8945 11.0482 32.0894V36.7088L4 41.6542L4.42271 42.2556L11.2541 37.4627C11.3226 37.5342 11.4049 37.5912 11.496 37.6302C11.5871 37.6692 11.6852 37.6893 11.7843 37.6894H13.4724L10.541 54.1179C10.5108 54.2906 10.5434 54.4684 10.6329 54.6192L13.5873 59.6371C13.6521 59.7476 13.7448 59.8392 13.856 59.9028C13.9672 59.9665 14.0932 60 14.2213 60C14.3495 60 14.4754 59.9665 14.5867 59.9028C14.6979 59.8392 14.7905 59.7476 14.8554 59.6371L17.8098 54.6192C17.8988 54.4682 17.9314 54.2906 17.9017 54.1179L14.9647 37.6757ZM8.05067 14.3452C8.0231 13.9522 8.00963 13.5705 8.01024 13.2002V13.1956C8.01024 11.4427 8.33462 9.94976 8.98063 8.66979C9.28896 8.05961 9.67439 7.4915 10.1275 6.97938C11.1585 5.81052 12.5774 5.10167 14.0127 5.01719C14.1138 5.01077 14.2149 5.00801 14.316 5.00801C14.4171 5.00801 14.4943 5.00801 14.5834 5.01627H14.6229H14.6486C14.7369 5.0224 14.8251 5.03066 14.9133 5.04107L14.9877 5.05209C15.0603 5.06127 15.132 5.07228 15.2037 5.08514L15.2956 5.10258C15.3617 5.11544 15.4279 5.13013 15.4941 5.14574L15.5859 5.16961C15.6503 5.18614 15.7146 5.20359 15.778 5.22287L15.8699 5.25133C15.9351 5.27245 15.9995 5.29449 16.0647 5.31836L16.1511 5.34958C16.2237 5.37621 16.2963 5.40651 16.368 5.43681L16.4277 5.4616C16.5196 5.502 16.6115 5.54516 16.7034 5.59107L16.7355 5.60759C16.8136 5.64799 16.8899 5.68932 16.9662 5.73247L17.0581 5.78572C17.1151 5.81878 17.172 5.85367 17.2281 5.88948L17.3273 5.95559C17.3779 5.98957 17.4293 6.02446 17.479 6.06118L17.58 6.13464L17.7252 6.24666C17.7574 6.27329 17.7905 6.299 17.8226 6.32655C17.8704 6.36603 17.9145 6.40826 17.9651 6.44958C17.9954 6.47621 18.0257 6.50284 18.057 6.53038C18.1084 6.57721 18.1581 6.6222 18.2068 6.67454L18.2803 6.74616C18.3529 6.82053 18.4236 6.89674 18.4935 6.97571C20.6493 9.41904 21.1428 12.843 20.0455 17.7508C19.0035 22.4097 17.0921 26.9263 14.3638 31.1794H14.259C11.5307 26.9263 9.6193 22.4097 8.57722 17.7508C8.31799 16.6301 8.14199 15.4918 8.05067 14.3452ZM11.7825 32.0756H16.6528V36.942H11.7825V32.0756ZM17.1711 54.2336L14.2167 59.2506L11.2669 54.2326L14.2222 37.6766L17.1757 54.2326L17.1711 54.2336Z" fill="black"/>
</svg>
