<svg width="68" height="64" viewBox="0 0 68 64" fill="none" xmlns="http://www.w3.org/2000/svg">
<path d="M58.3109 29.2321H25.2782C22.9265 29.2321 20.9038 30.728 20.0382 32.8556C19.7467 32.448 19.4666 32.0331 19.2013 31.6133C20.7928 28.9989 21.8576 26.4726 22.3638 24.1021C22.5223 23.3902 22.6219 22.6666 22.6619 21.9385L22.0086 21.9084C21.97 22.6008 21.875 23.2889 21.7245 23.9659C21.2484 26.1922 20.262 28.5669 18.7897 31.0329C17.377 28.6566 16.4119 26.2819 15.917 23.9659C15.3454 21.2855 15.5977 19.4212 16.7124 18.0965C17.235 17.4769 17.9511 17.1019 18.6721 17.0571C18.7203 17.0571 18.7677 17.053 18.8158 17.053C18.864 17.053 18.9171 17.053 18.9669 17.0571C19.0692 17.0637 19.1709 17.0768 19.2715 17.0962L19.3948 16.4555C19.2065 16.4191 19.015 16.4008 18.8232 16.4009C17.8596 16.4009 16.8969 16.868 16.2159 17.6767C14.978 19.144 14.6717 21.2472 15.2809 24.1012C15.8109 26.5819 16.8634 29.122 18.4084 31.6565C16.8642 34.0923 14.7926 36.3341 12.2457 38.3207C10.8094 39.4374 9.27194 40.4179 7.65332 41.2497L7.95382 41.8293C9.608 40.9783 11.1796 39.9759 12.6483 38.8351C15.1601 36.8786 17.2211 34.6703 18.7881 32.2744L18.793 32.2809L18.824 32.2312C19.1294 32.7008 19.4536 33.1646 19.79 33.617C19.6586 34.1229 19.5919 34.6433 19.5916 35.1659V54.0646C19.5916 57.3377 22.1434 60.0001 25.2806 60.0001H58.3109C61.4474 60.0001 64 57.3377 64 54.0646V35.1667C63.9991 31.8945 61.4474 29.2321 58.3109 29.2321ZM48.6525 59.3479H25.2782C22.5018 59.3479 20.2424 56.9782 20.2424 54.0646V53.0758H48.6525V59.3479ZM63.3508 54.0646C63.3508 56.9782 61.0913 59.3479 58.315 59.3479H49.3058V53.0758H63.3459L63.3508 54.0646ZM63.3508 52.4236H20.2424V35.1667C20.2424 32.254 22.5018 29.8842 25.2782 29.8842H58.3109C61.0873 29.8842 63.3467 32.254 63.3467 35.1667L63.3508 52.4236Z" fill="black"/>
<path d="M4.65326 52.8915V11.1085C4.65326 7.54856 6.91189 4.65216 9.68823 4.65216H27.754C30.5304 4.65216 32.789 7.54856 32.789 11.1085V26.9666H33.4423V11.1085C33.4423 7.18905 30.8905 4 27.754 4H9.68823C6.55178 4 4 7.18905 4 11.1085V52.8915C4 56.8109 6.55178 60 9.68823 60H19.5777V59.3478H9.68823C6.91189 59.3478 4.65326 56.4514 4.65326 52.8915Z" fill="black"/>
<path d="M20.8434 21.3406C20.8262 21.4384 20.8396 21.5391 20.8816 21.629C20.9237 21.719 20.9924 21.7939 21.0786 21.8436C21.1617 21.8926 21.258 21.9149 21.3543 21.9073C21.4506 21.8997 21.5423 21.8626 21.6167 21.8012L23.4303 20.3338C23.5086 20.2702 23.6062 20.2352 23.7071 20.2344H25.4636C26.3152 20.2344 27.0077 19.517 27.0077 18.6341V16.9948C27.0077 16.1127 26.3152 15.3945 25.4636 15.3945H21.4117C20.56 15.3945 19.8668 16.1127 19.8668 16.9948V18.6325C19.8639 18.925 19.9413 19.2128 20.0906 19.4646C20.2398 19.7163 20.4553 19.9225 20.7136 20.0607C20.8059 20.1098 20.8803 20.1868 20.9262 20.2806C20.9721 20.3745 20.9871 20.4804 20.9691 20.5833L20.8434 21.3406ZM20.5168 18.6325V16.9948C20.5168 16.4722 20.9169 16.0467 21.4085 16.0467H25.4603C25.9502 16.0467 26.3512 16.4722 26.3512 16.9948V18.6325C26.3512 19.155 25.9519 19.5806 25.4603 19.5806H23.7071C23.4564 19.5811 23.2134 19.6674 23.0187 19.8251L21.5612 21.0064L21.6134 20.6884C21.6539 20.4505 21.6181 20.2059 21.5112 19.9894C21.4044 19.7729 21.2318 19.5956 21.0181 19.4827C20.8654 19.3998 20.7382 19.2768 20.6504 19.1269C20.5626 18.9771 20.5175 18.8061 20.52 18.6325H20.5168Z" fill="black"/>
<path d="M58.2946 55.8857H53.9929V56.5379H58.2946V55.8857Z" fill="black"/>
<path d="M20.871 7.27295H16.5693V7.92511H20.871V7.27295Z" fill="black"/>
<path d="M47.0203 39.694L40.3881 35.6889C40.1439 35.5413 39.8648 35.4612 39.5794 35.4567C39.294 35.4523 39.0125 35.5237 38.7639 35.6637C38.5152 35.8037 38.3083 36.0071 38.1644 36.2532C38.0205 36.4993 37.9447 36.7792 37.9449 37.0642V45.0743C37.9428 45.3594 38.0174 45.6398 38.1611 45.8861C38.3047 46.1325 38.5121 46.3358 38.7614 46.4748C39.0094 46.6167 39.2912 46.6893 39.577 46.6849C39.8628 46.6804 40.1422 46.5991 40.3856 46.4495L47.0178 42.4445C47.255 42.3013 47.4511 42.0995 47.5873 41.8585C47.7234 41.6175 47.7949 41.3455 47.7949 41.0688C47.7949 40.7921 47.7234 40.5201 47.5873 40.2792C47.4511 40.0382 47.255 39.8363 47.0178 39.6932L47.0203 39.694ZM46.6822 41.8869L40.05 45.8895C39.905 45.9769 39.7394 46.0244 39.57 46.027C39.4007 46.0296 39.2336 45.9873 39.086 45.9044C38.9384 45.8215 38.8154 45.701 38.7297 45.5552C38.644 45.4093 38.5986 45.2434 38.5981 45.0743V37.0625C38.5972 36.8926 38.6422 36.7256 38.7285 36.5791C38.8147 36.4326 38.9389 36.3121 39.0881 36.2302C39.2355 36.1461 39.4029 36.103 39.5727 36.1056C39.7425 36.1082 39.9085 36.1563 40.0533 36.2449L46.6855 40.2508C46.8255 40.336 46.9413 40.4557 47.0216 40.5985C47.102 40.7412 47.1442 40.9022 47.1442 41.066C47.1442 41.2297 47.102 41.3907 47.0216 41.5335C46.9413 41.6762 46.8255 41.796 46.6855 41.8812L46.6822 41.8869Z" fill="black"/>
</svg>
