<svg width="58" height="64" viewBox="0 0 58 64" fill="none" xmlns="http://www.w3.org/2000/svg">
<path d="M43.53 53.0762C37.9546 48.9413 33.0641 43.7855 29.3872 38.1649C30.2905 36.761 31.1326 35.3113 31.8909 33.8529L31.9497 33.7944V33.7375C33.8919 30.0012 35.3472 26.0338 36.2801 21.9313C36.7177 19.9833 36.9441 18.2243 36.9659 16.6281H36.9699C37.0126 13.2152 36.1262 10.5227 34.2479 8.40713C33.569 7.64169 32.7483 7.01347 31.8304 6.55683C31.2435 6.26758 30.615 6.07051 29.9674 5.97266L29.8707 6.60652C30.4526 6.69402 31.0172 6.8711 31.5444 7.13139C32.3876 7.55078 33.1416 8.12786 33.7652 8.83104C34.7824 9.98139 35.5123 11.3541 35.8958 12.8377C36.5452 15.2546 36.4663 18.1851 35.654 21.7951C34.7314 25.8536 33.2907 29.778 31.3671 33.4731L31.3083 33.5316V33.5876C30.608 34.9339 29.8344 36.2721 29.0069 37.5743C28.1696 36.2585 27.3864 34.9002 26.6748 33.5275L26.6643 33.5083C24.7307 29.8012 23.2829 25.8628 22.3565 21.7895C22.1268 20.787 21.9499 19.7733 21.8262 18.7524L21.1816 18.827C21.3082 19.8698 21.4889 20.9055 21.7231 21.9297C22.6617 26.0569 24.1287 30.0472 26.0882 33.8032L26.0979 33.8224C26.8626 35.2969 27.7095 36.7562 28.6168 38.1641C24.9383 43.7855 20.0478 48.9413 14.474 53.0746C14.2693 53.2269 14.0622 53.3784 13.8551 53.5282C10.744 55.7679 7.44708 57.7407 4 59.4253L4.28445 59.9998C7.76492 58.2996 11.0937 56.308 14.2347 54.0467C14.4436 53.8949 14.6521 53.7422 14.86 53.5883C20.4153 49.4686 25.2985 44.3424 28.9996 38.7507C32.6999 44.3416 37.5839 49.4678 43.14 53.5883C43.3479 53.7422 43.5564 53.8949 43.7653 54.0467C46.9064 56.308 50.2351 58.2996 53.7155 59.9998L54 59.4253C50.5528 57.7409 47.2559 55.7681 44.1449 53.5282C43.9407 53.3797 43.7358 53.229 43.53 53.0762Z" fill="black"/>
<path d="M19.1799 15.9993H27.4129V4H27.0906C26.1124 4.00087 25.1475 4.22513 24.2702 4.6555L24.2517 4.66511L24.2396 4.67072C23.3309 5.12373 22.519 5.74744 21.8488 6.50739C19.798 8.81606 18.9196 11.8243 19.1614 15.6996L19.1799 15.9993ZM22.3315 6.9281C22.948 6.23391 23.6919 5.66281 24.5233 5.24528L24.541 5.23647L24.5515 5.23166C25.2435 4.89157 25.9975 4.69396 26.7683 4.65069V15.3582H19.7883C19.6199 11.8075 20.4531 9.04844 22.3315 6.9281Z" fill="black"/>
<path d="M21.396 17.9026H29.3268V6.2207H28.6822V17.2616H21.396V17.9026Z" fill="black"/>
</svg>
