<svg width="60" height="64" viewBox="0 0 60 64" fill="none" xmlns="http://www.w3.org/2000/svg">
<path d="M31.1564 38.5578C30.9369 38.2415 30.7218 37.9239 30.5112 37.6049C34.0541 31.8265 36.3301 25.3295 37.096 18.7936L36.4307 18.7174C35.6874 25.0588 33.5028 31.3637 30.1056 36.9873C26.7411 31.7718 24.383 26.2451 23.0892 20.5238C22.4733 17.7993 22.2654 15.4871 22.454 13.4564C22.6886 10.9306 23.5626 8.80386 25.0517 7.13408C26.5408 5.4643 28.6634 4.54786 30.7349 4.67535L30.7768 4.01307C28.5 3.87234 26.1679 4.87487 24.5489 6.69532C22.9626 8.47272 22.035 10.727 21.7836 13.3943C21.5892 15.4954 21.8012 17.8747 22.4322 20.6678C23.7663 26.5638 26.214 32.2578 29.7142 37.6132C26.0271 43.1888 21.0428 48.3124 14.8937 52.8457C11.4715 55.3546 7.82523 57.5506 4 59.4064L4.29664 60C8.15807 58.1266 11.8389 55.9099 15.2935 53.3772C21.4182 48.8645 26.4 43.7683 30.1182 38.2216C30.2785 38.4612 30.4405 38.6993 30.6042 38.9361C34.412 44.4256 39.1566 49.2851 44.7074 53.3714C48.1614 55.9048 51.8423 58.1216 55.7042 59.9942L56 59.4006C52.1742 57.5458 48.5279 55.3497 45.1063 52.8399C39.6167 48.7975 34.9231 43.991 31.1564 38.5578Z" fill="black"/>
<path d="M31.7646 11.4622H32.9311C32.9458 11.4618 32.9603 11.4657 32.9728 11.4733C32.9853 11.481 32.9953 11.492 33.0015 11.5052C33.0233 11.5516 33.0459 11.5979 33.0694 11.6443C33.0767 11.6592 33.0793 11.6759 33.0769 11.6923C33.0745 11.7087 33.0672 11.724 33.056 11.7362L32.2238 12.5583C32.0841 12.6977 32.0058 12.8861 32.0058 13.0823C32.0058 13.2785 32.0841 13.4668 32.2238 13.6063L33.1724 14.5451C33.3136 14.6831 33.5042 14.7605 33.7029 14.7605C33.9015 14.7605 34.0921 14.6831 34.2333 14.5451L35.1777 13.6129C35.1881 13.6018 35.2018 13.5942 35.2167 13.5909C35.2317 13.5877 35.2473 13.589 35.2615 13.5947L35.2917 13.6055C35.3068 13.6111 35.3199 13.6212 35.329 13.6344C35.3381 13.6475 35.343 13.6632 35.3428 13.6792V14.9988C35.3439 15.1957 35.4238 15.3841 35.5652 15.5229C35.7065 15.6618 35.8977 15.7397 36.097 15.7397H37.4377C37.637 15.7397 37.8282 15.6618 37.9695 15.5229C38.1109 15.3841 38.1908 15.1957 38.1919 14.9988V13.6444C38.1918 13.6294 38.1961 13.6147 38.2043 13.6021C38.2125 13.5894 38.2242 13.5794 38.238 13.5732H38.2481C38.2622 13.5683 38.2775 13.5672 38.2922 13.5701C38.307 13.573 38.3207 13.5798 38.3319 13.5898L39.2922 14.5451C39.4334 14.6834 39.6242 14.7609 39.823 14.7609C40.0219 14.7609 40.2127 14.6834 40.3539 14.5451L41.3016 13.608C41.4413 13.4685 41.5197 13.2802 41.5197 13.0839C41.5197 12.8877 41.4413 12.6994 41.3016 12.5599L40.4134 11.6816C40.4019 11.6692 40.3945 11.6538 40.3921 11.6372C40.3897 11.6207 40.3925 11.6038 40.4 11.5888L40.4377 11.5102C40.4439 11.4965 40.454 11.4849 40.4668 11.4768C40.4796 11.4687 40.4945 11.4645 40.5097 11.4647H41.7608C41.9601 11.4647 42.1513 11.3867 42.2927 11.2479C42.434 11.1091 42.5139 10.9206 42.515 10.7237V9.39916C42.5139 9.20227 42.434 9.01382 42.2927 8.87499C42.1513 8.73616 41.9601 8.65823 41.7608 8.65823H40.7008C40.6835 8.65765 40.6667 8.65176 40.6529 8.64138C40.6391 8.631 40.6289 8.61664 40.6237 8.60028C40.6002 8.52495 40.5734 8.44878 40.5449 8.37511C40.5394 8.36105 40.5381 8.34568 40.5414 8.33094C40.5447 8.3162 40.5524 8.30276 40.5634 8.29232L41.3016 7.56215C41.4413 7.42266 41.5197 7.23435 41.5197 7.03812C41.5197 6.84189 41.4413 6.65358 41.3016 6.51409L40.3539 5.57696C40.2127 5.43869 40.0219 5.36112 39.823 5.36112C39.6242 5.36112 39.4334 5.43869 39.2922 5.57696L38.6654 6.19288C38.653 6.20433 38.6374 6.2118 38.6206 6.21431C38.6039 6.21683 38.5868 6.21426 38.5715 6.20696C38.4617 6.15149 38.3478 6.10016 38.2363 6.05546C38.2216 6.04963 38.209 6.03957 38.2002 6.02657C38.1914 6.01357 38.1867 5.99825 38.1869 5.98261V5.12081C38.1858 4.92393 38.1058 4.73548 37.9645 4.59664C37.8232 4.45781 37.632 4.37988 37.4327 4.37988H36.0919C35.8926 4.37988 35.7014 4.45781 35.5601 4.59664C35.4188 4.73548 35.3389 4.92393 35.3378 5.12081V5.94867C35.3378 5.96441 35.3331 5.9798 35.3241 5.9928C35.3151 6.00581 35.3023 6.01582 35.2875 6.02152C35.162 6.06749 35.0389 6.11972 34.9188 6.17798C34.9038 6.18464 34.8871 6.18677 34.8708 6.18412C34.8546 6.18147 34.8395 6.17415 34.8274 6.16308L34.2291 5.57199C34.0879 5.43398 33.8973 5.35656 33.6987 5.35656C33.5001 5.35656 33.3094 5.43398 33.1682 5.57199L32.2238 6.51492C32.0841 6.65441 32.0058 6.84272 32.0058 7.03895C32.0058 7.23518 32.0841 7.42349 32.2238 7.56298L32.9009 8.23106C32.9121 8.24141 32.9199 8.25481 32.9233 8.26955C32.9268 8.28429 32.9257 8.29972 32.9202 8.31384C32.8817 8.40905 32.8465 8.50673 32.8155 8.60525C32.8098 8.62073 32.7996 8.6342 32.7862 8.64393C32.7727 8.65366 32.7567 8.65922 32.74 8.65989H31.7646C31.5661 8.66097 31.3759 8.73938 31.2355 8.8781C31.0951 9.01682 31.0157 9.20464 31.0146 9.40082V10.7254C31.0168 10.9208 31.0967 11.1076 31.237 11.2454C31.3773 11.3833 31.5668 11.4611 31.7646 11.4622ZM31.685 9.39254C31.686 9.372 31.6948 9.35258 31.7095 9.33804C31.7242 9.3235 31.7439 9.31489 31.7646 9.31389H32.74C32.8999 9.31446 33.0557 9.26422 33.1844 9.1706C33.3131 9.07698 33.4079 8.94495 33.4548 8.794C33.4808 8.71121 33.5101 8.62843 33.5386 8.55144C33.5926 8.41731 33.6054 8.27049 33.5756 8.12921C33.5458 7.98792 33.4747 7.85839 33.371 7.7567L32.6981 7.09442C32.684 7.07915 32.6762 7.05922 32.6762 7.03853C32.6762 7.01785 32.684 6.99792 32.6981 6.98265L33.6467 6.04635C33.6541 6.03887 33.6629 6.03291 33.6726 6.02885C33.6823 6.02479 33.6927 6.02269 33.7033 6.02269C33.7138 6.02269 33.7243 6.02479 33.734 6.02885C33.7437 6.03291 33.7525 6.03887 33.7599 6.04635L34.3582 6.63744C34.469 6.74605 34.6113 6.81799 34.7653 6.84335C34.9193 6.86871 35.0774 6.84622 35.2179 6.779C35.3181 6.73014 35.4207 6.68648 35.5255 6.6482C35.6681 6.59478 35.791 6.49988 35.8779 6.37602C35.9649 6.25216 36.0117 6.10517 36.0123 5.95446V5.12661C36.0134 5.10538 36.0227 5.08537 36.0383 5.07073C36.0539 5.05608 36.0746 5.04793 36.0961 5.04796H37.4369C37.4477 5.04728 37.4586 5.04881 37.4688 5.05246C37.479 5.05612 37.4883 5.06182 37.4962 5.0692C37.504 5.07659 37.5103 5.0855 37.5145 5.09537C37.5187 5.10525 37.5208 5.11589 37.5207 5.12661V5.9884C37.52 6.13668 37.5647 6.28169 37.6489 6.40445C37.7331 6.52721 37.8528 6.62198 37.9925 6.67635C38.0888 6.71443 38.1844 6.75913 38.2757 6.80301C38.4169 6.87459 38.5775 6.90001 38.7343 6.87561C38.8911 6.85121 39.0359 6.77824 39.148 6.66724L39.774 6.04884C39.7895 6.03487 39.8096 6.02713 39.8306 6.02713C39.8515 6.02713 39.8717 6.03487 39.8871 6.04884L40.8357 6.98514C40.8499 7.0004 40.8577 7.02033 40.8577 7.04102C40.8577 7.0617 40.8499 7.08164 40.8357 7.0969L40.0899 7.82127C39.9888 7.92282 39.9193 8.05088 39.8896 8.19026C39.8599 8.32965 39.8712 8.47453 39.9223 8.60773C39.9466 8.66899 39.9684 8.73274 39.9885 8.79648C40.036 8.94751 40.1311 9.07955 40.2601 9.17326C40.389 9.26697 40.5449 9.31741 40.705 9.3172H41.765C41.7866 9.31718 41.8073 9.32533 41.8229 9.33997C41.8385 9.35461 41.8478 9.37462 41.8488 9.39585V10.7204C41.8478 10.7416 41.8385 10.7617 41.8229 10.7763C41.8073 10.7909 41.7866 10.7991 41.765 10.7991H40.5089C40.3658 10.7994 40.2257 10.84 40.1051 10.9161C39.9845 10.9922 39.8882 11.1006 39.8276 11.2287C39.8176 11.2511 39.8075 11.2726 39.7966 11.2949C39.7285 11.4337 39.7056 11.5899 39.7311 11.742C39.7566 11.8942 39.8293 12.0347 39.9391 12.1443L40.8282 13.0227C40.8421 13.0379 40.8498 13.0577 40.8498 13.0781C40.8498 13.0986 40.8421 13.1184 40.8282 13.1336L39.8796 14.0707C39.8723 14.0781 39.8635 14.084 39.8539 14.088C39.8443 14.0919 39.8339 14.094 39.8234 14.0939C39.8022 14.0936 39.7818 14.0853 39.7665 14.0707L38.7994 13.1187C38.694 13.015 38.5598 12.9444 38.4138 12.9158C38.2678 12.8873 38.1165 12.902 37.979 12.9582C37.8415 13.0144 37.7239 13.1096 37.641 13.2317C37.5581 13.3538 37.5136 13.4974 37.5131 13.6444V14.9963C37.5121 15.0175 37.5028 15.0375 37.4872 15.0522C37.4716 15.0668 37.4509 15.075 37.4293 15.0749H36.0886C36.0671 15.075 36.0464 15.0668 36.0308 15.0522C36.0152 15.0375 36.0059 15.0175 36.0048 14.9963V13.6767C36.0042 13.526 35.9573 13.379 35.8704 13.2551C35.7835 13.1313 35.6606 13.0364 35.5179 12.9829L35.4911 12.973C35.3565 12.9221 35.2098 12.9106 35.0688 12.94C34.9277 12.9694 34.7983 13.0383 34.6959 13.1386L33.7523 14.0707C33.737 14.0853 33.7166 14.0936 33.6953 14.0939C33.6849 14.094 33.6745 14.0919 33.6649 14.088C33.6552 14.084 33.6465 14.0781 33.6392 14.0707L32.6981 13.1377C32.6842 13.1225 32.6765 13.1028 32.6765 13.0823C32.6765 13.0618 32.6842 13.042 32.6981 13.0268L33.5294 12.2048C33.6416 12.0944 33.7154 11.9518 33.7403 11.7974C33.7651 11.6429 33.7397 11.4847 33.6677 11.3454C33.6476 11.3065 33.6291 11.2676 33.6107 11.2287C33.55 11.1012 33.4539 10.9933 33.3336 10.9175C33.2133 10.8418 33.0738 10.8013 32.9311 10.8007H31.7646C31.7439 10.7997 31.7242 10.7911 31.7095 10.7766C31.6948 10.762 31.686 10.7426 31.685 10.7221V9.39254Z" fill="black"/>
<path d="M36.7633 11.875C37.1272 11.8752 37.4829 11.7687 37.7855 11.5692C38.088 11.3696 38.3239 11.0859 38.4633 10.7538C38.6026 10.4218 38.6392 10.0564 38.5683 9.70387C38.4974 9.35132 38.3223 9.02746 38.0651 8.77324C37.8079 8.51903 37.4801 8.34588 37.1233 8.2757C36.7665 8.20552 36.3966 8.24146 36.0605 8.37897C35.7243 8.51648 35.437 8.74938 35.2349 9.04823C35.0327 9.34707 34.9248 9.69843 34.9248 10.0579C34.9259 10.5393 35.1199 11.0008 35.4645 11.3413C35.809 11.6818 36.276 11.8737 36.7633 11.875ZM36.7633 8.90383C36.9946 8.90367 37.2207 8.97128 37.4131 9.09812C37.6055 9.22495 37.7554 9.40531 37.844 9.61637C37.9326 9.82742 37.9558 10.0597 37.9107 10.2838C37.8656 10.5079 37.7543 10.7137 37.5908 10.8753C37.4272 11.0369 37.2189 11.1469 36.992 11.1914C36.7652 11.2359 36.5301 11.213 36.3164 11.1255C36.1028 11.038 35.9202 10.8898 35.7918 10.6998C35.6635 10.5097 35.595 10.2863 35.5952 10.0579C35.5965 9.7522 35.72 9.45943 35.9388 9.24329C36.1576 9.02715 36.4539 8.90514 36.7633 8.90383Z" fill="black"/>
</svg>
