<svg width="70" height="64" viewBox="0 0 70 64" fill="none" xmlns="http://www.w3.org/2000/svg">
<path d="M55.944 46.2359L55.9378 46.2228L55.5843 46.7617C52.6948 51.1944 48.5706 54.7071 43.7084 56.8768C38.8461 59.0465 33.4531 59.7807 28.1785 58.9911L27.5351 58.895L27.5502 58.9264C21.148 57.8121 15.3479 54.5032 11.1689 49.5812C6.98998 44.6591 4.69949 38.4388 4.6999 32.0131V31.9799C4.6999 31.7816 4.6999 31.572 4.70874 31.3187V31.2986C4.82373 26.5144 6.21146 21.8445 8.7323 17.7589L8.73849 17.772L9.09197 17.2322C11.9824 12.8003 16.1066 9.28835 20.9686 7.11876C25.8306 4.94918 31.2233 4.2144 36.4978 5.00281L37.1402 5.0989L37.1261 5.06745C42.2632 5.95992 47.04 8.27089 50.9045 11.7333C54.7691 15.1958 57.5637 19.6684 58.9654 24.6344L59.6467 24.4466C58.1776 19.245 55.219 14.5738 51.127 10.9953C47.035 7.41678 41.9839 5.08343 36.5817 4.27604L35.9393 4.18082L35.9605 4.22712C34.7588 4.07596 33.5486 4.0001 32.3372 4C27.7015 3.99748 23.136 5.12003 19.0417 7.26908C14.9474 9.41813 11.4495 12.5279 8.85514 16.3255L8.841 16.2949L8.48751 16.8356C5.6811 21.1529 4.13157 26.1508 4.00884 31.2811V31.3029C4.00265 31.565 4 31.7773 4 31.9808V32.0166C4.00003 38.7198 6.43078 45.201 10.8513 50.2843C15.2718 55.3677 21.3891 58.7164 28.0936 59.7231L28.7361 59.8183L28.714 59.772C29.9157 59.9234 31.1258 59.9995 32.3372 60C36.9747 60.0025 41.5418 58.8794 45.6374 56.7293C49.733 54.5791 53.2318 51.4677 55.8264 47.6684L55.8397 47.699L56.1932 47.1592C58.0996 44.2361 59.4333 40.9849 60.1248 37.5748L59.432 37.4377C58.8008 40.5501 57.6201 43.5283 55.944 46.2359Z" fill="black"/>
<path d="M22.5712 25.0441L22.5588 25.017L22.2053 25.5568C21.0122 27.3903 20.353 29.5131 20.3 31.6925V31.703C20.3 31.7991 20.3 31.8951 20.3 31.9965V32.0061C20.3 34.8539 21.3326 37.6074 23.2107 39.7671C25.0887 41.9267 27.6877 43.3493 30.5361 43.7768L31.1804 43.8729L31.1645 43.838C31.5551 43.8755 31.9483 43.8947 32.3398 43.8947C34.248 43.8983 36.1295 43.4521 37.8283 42.593C39.527 41.7338 40.994 40.4867 42.1075 38.955L42.1208 38.982L42.4743 38.4405C43.6674 36.607 44.3266 34.4842 44.3796 32.3048V32.2943C44.3796 32.1983 44.3796 32.1022 44.3796 32.0061V31.9912C44.3797 29.1434 43.347 26.3899 41.4689 24.2303C39.5909 22.0706 36.9919 20.648 34.1435 20.2205L33.5019 20.1253L33.5178 20.1593C33.1263 20.1218 32.7322 20.1026 32.3389 20.1026C30.4306 20.0992 28.549 20.5458 26.8502 21.4052C25.1515 22.2646 23.6846 23.5121 22.5712 25.0441ZM34.0463 20.928L34.6251 21.0154C37.1807 21.5357 39.4765 22.9114 41.1252 24.9104C42.7739 26.9095 43.6746 29.4095 43.6752 31.9886V32.0078C43.6752 32.0952 43.6752 32.1878 43.6752 32.2751V32.2856C43.6291 34.1934 43.0901 36.0578 42.1093 37.7015L41.8778 38.0561C40.8527 39.6358 39.4416 40.9348 37.7745 41.8332C36.1075 42.7315 34.2384 43.2002 32.3398 43.1959C31.7689 43.1958 31.1988 43.1534 30.6342 43.0693L30.0589 42.9819C27.5027 42.4623 25.206 41.0869 23.5566 39.0878C21.9072 37.0887 21.0061 34.5883 21.0053 32.0087V31.9912C21.0053 31.9039 21.0053 31.8104 21.0053 31.7222V31.7117C21.0514 29.8038 21.5908 27.9394 22.5721 26.2958L22.8018 25.9421C23.8264 24.3625 25.2369 23.0635 26.9033 22.1647C28.5696 21.266 30.438 20.7965 32.3363 20.7996C32.9087 20.8001 33.4803 20.8431 34.0463 20.928Z" fill="black"/>
<path d="M46.8912 45.0478L46.9036 45.074L47.2571 44.5359C49.1855 41.5717 50.2505 38.1395 50.335 34.6162V34.6048C50.335 34.4502 50.3412 34.2956 50.3412 34.1401V34.1156C50.341 29.5142 48.672 25.0652 45.6371 21.5761C42.6021 18.087 38.4023 15.789 33.7998 15.099L33.1591 15.0038L33.1759 15.0413C32.415 14.9538 31.6496 14.9103 30.8836 14.9112C27.7346 14.9058 24.6317 15.6585 21.8431 17.1044C19.0545 18.5503 16.6641 20.6458 14.8786 23.2097L14.8662 23.1835L14.5127 23.7233C13.247 25.6654 12.3487 27.8187 11.8616 30.0782L12.5526 30.225C12.9757 28.2611 13.722 26.3793 14.7619 24.6545L15.1154 24.1155C16.8098 21.5031 19.1425 19.3545 21.8982 17.868C24.654 16.3815 27.7442 15.6049 30.8836 15.61C31.8269 15.6103 32.7689 15.6804 33.7017 15.8196L34.3433 15.9148L34.3371 15.9C38.6341 16.699 42.5136 18.9569 45.3051 22.2833C48.0966 25.6096 49.6248 29.7955 49.6254 34.1174V34.1427C49.6254 34.293 49.6254 34.4423 49.6192 34.59V34.6048C49.5424 37.7788 48.64 40.8798 46.999 43.6091L46.6455 44.1472C44.9512 46.7579 42.6193 48.905 39.8647 50.3906C37.1101 51.8761 34.0215 52.6523 30.8836 52.6475C29.939 52.6476 28.9958 52.5778 28.0619 52.4387L27.4194 52.3426L27.4256 52.3575C24.7613 51.8626 22.2371 50.803 20.0268 49.2516C17.8164 47.7003 15.9723 45.6939 14.6214 43.3707L14.0081 43.7201C15.4594 46.2039 17.4488 48.3395 19.8336 49.9736C22.2656 51.6324 25.0477 52.7221 27.9691 53.1603L28.6115 53.259L28.5939 53.2214C29.354 53.3071 30.1185 53.3488 30.8836 53.3463C34.033 53.3522 37.1364 52.5996 39.9255 51.1537C42.7146 49.7078 45.1054 47.6121 46.8912 45.0478Z" fill="black"/>
<path d="M32.3399 6.92534C27.2008 6.91566 22.1811 8.45713 17.9521 11.3436L18.3534 11.9193C22.4642 9.11303 27.344 7.6145 32.3399 7.62416V6.92534Z" fill="black"/>
<path d="M36.1435 7.17285L36.0383 7.86468C38.6747 8.25541 41.2287 9.0695 43.5994 10.2747L43.9228 9.65366C41.4836 8.41369 38.8559 7.57573 36.1435 7.17285Z" fill="black"/>
<path d="M42.0759 31.7879C42.0376 29.8392 41.3865 27.9506 40.213 26.3843L39.6448 26.7992C40.7309 28.2501 41.3334 29.9991 41.3689 31.8036L42.0759 31.7879Z" fill="black"/>
<path d="M41.8832 33.9025L41.1904 33.7627C40.9358 35.0062 40.4076 36.1791 39.6431 37.1983L40.2113 37.6132C41.0373 36.5126 41.6082 35.2457 41.8832 33.9025Z" fill="black"/>
<path d="M30.8835 49.8969C33.0775 49.9013 35.2484 49.4551 37.2587 48.5866L36.9759 47.9463C35.0546 48.7756 32.98 49.2015 30.8835 49.1972V49.8969Z" fill="black"/>
<path d="M17.7947 41.8926L17.1912 42.2525C18.3973 44.2493 20.0365 45.9568 21.9906 47.2519C23.9448 48.547 26.1653 49.3975 28.4921 49.7421L28.5973 49.0511C26.3732 48.7218 24.2507 47.9089 22.3827 46.671C20.5147 45.4332 18.9478 43.8012 17.7947 41.8926Z" fill="black"/>
<path d="M60.3317 25.416C58.8307 25.416 57.3913 26.0054 56.3299 27.0545C55.2686 28.1036 54.6724 29.5264 54.6724 31.0101C54.6724 32.4937 55.2686 33.9166 56.3299 34.9657C57.3913 36.0148 58.8307 36.6041 60.3317 36.6041V35.9053C59.146 35.9046 57.9999 35.483 57.1022 34.7174C56.2044 33.9518 55.6145 32.893 55.44 31.7338C55.2654 30.5745 55.5177 29.3918 56.151 28.4009C56.7843 27.4101 57.7564 26.6769 58.8905 26.3348C60.0246 25.9927 61.2453 26.0645 62.3303 26.5371C63.4154 27.0097 64.2927 27.8517 64.8026 28.9098C65.3126 29.9679 65.4212 31.1718 65.1088 32.3025C64.7964 33.4331 64.0837 34.4153 63.1004 35.0702L63.4963 35.6485C64.5038 34.9801 65.2672 34.009 65.6735 32.8788C66.0799 31.7486 66.1078 30.5192 65.753 29.3722C65.3983 28.2251 64.6797 27.2213 63.7035 26.5089C62.7273 25.7965 61.5451 25.4133 60.3317 25.416Z" fill="black"/>
<path d="M59.0732 28.7227L59.2138 29.2696L60.1461 28.7717H60.1629V33.4048H60.8645V28.1025H60.2451L59.0732 28.7227Z" fill="black"/>
<path d="M7.19019 36.8609C7.1905 37.8206 7.44049 38.7641 7.91616 39.6007C8.39182 40.4373 9.07715 41.1389 9.90632 41.6381C10.7355 42.1374 11.6806 42.4174 12.6509 42.4514C13.6211 42.4854 14.5839 42.2721 15.4468 41.8321L15.1224 41.2111C14.4194 41.5721 13.6382 41.7592 12.846 41.7561C11.5727 41.7745 10.3413 41.3071 9.40781 40.451C8.47431 39.5949 7.91059 38.416 7.83388 37.1596C7.75717 35.9032 8.17337 34.6659 8.99593 33.705C9.8185 32.7442 10.9841 32.1337 12.2504 32.0006L12.1664 31.3062C10.7933 31.4704 9.52866 32.1264 8.6117 33.1499C7.69475 34.1735 7.18903 35.4937 7.19019 36.8609Z" fill="black"/>
<path d="M16.0114 32.2227L15.6155 32.8009C16.6405 33.4847 17.3699 34.5225 17.6605 35.7105C17.951 36.8986 17.7817 38.1512 17.1858 39.2222L17.8044 39.5603C18.4857 38.3366 18.6796 36.9054 18.3478 35.5477C18.016 34.19 17.1826 33.004 16.0114 32.2227Z" fill="black"/>
<path d="M12.5456 38.252C13.6758 37.1749 14.3943 36.3835 14.3943 35.4051C14.3943 34.646 13.9074 33.8633 12.7515 33.8633C12.197 33.8602 11.6594 34.0508 11.2332 34.4014L11.4648 34.9072C11.7122 34.7037 12.1161 34.4591 12.603 34.4591C13.4036 34.4591 13.6679 34.9561 13.6679 35.4942C13.6599 36.2944 13.0404 36.9792 11.6707 38.2677L11.1016 38.8145V39.2513H14.5251V38.6564H12.1161V38.6398L12.5456 38.252Z" fill="black"/>
<path d="M26.4049 31.9991C26.4074 33.4811 27.0041 34.9016 28.0642 35.9495C29.1243 36.9973 30.5614 37.5872 32.0606 37.5897V36.8909C30.86 36.8908 29.7004 36.4593 28.7978 35.6767C27.8952 34.8941 27.3111 33.8139 27.1545 32.6372C26.9979 31.4606 27.2794 30.2678 27.9465 29.2811C28.6136 28.2944 29.6209 27.581 30.7806 27.274C31.9403 26.9669 33.1735 27.0871 34.2502 27.6121C35.327 28.137 36.1739 29.0311 36.6333 30.1276C37.0927 31.224 37.1331 32.4482 36.7471 33.572C36.361 34.6957 35.5749 35.6424 34.535 36.2357L34.8885 36.8402C35.7472 36.3488 36.4599 35.6427 36.9552 34.7928C37.4505 33.943 37.7109 32.9793 37.7102 31.9985C37.7096 31.0177 37.4479 30.0544 36.9515 29.2052C36.4551 28.356 35.7414 27.6508 34.8821 27.1605C34.0228 26.6701 33.0481 26.4119 32.0559 26.4116C31.0637 26.4114 30.0889 26.6691 29.2293 27.159C28.3698 27.649 27.6557 28.3538 27.1589 29.2027C26.662 30.0517 26.3998 31.0149 26.3987 31.9956L26.4049 31.9991Z" fill="black"/>
<path d="M32.4487 31.5303V31.5137C33.1088 31.277 33.4385 30.8149 33.4385 30.2655C33.4385 29.6208 32.9604 29.0015 31.9034 29.0015C31.3264 29.0015 30.7811 29.205 30.501 29.4094L30.6901 29.9335C31.0058 29.7165 31.3786 29.5951 31.7629 29.5841C32.4319 29.5841 32.7041 29.9589 32.7041 30.3834C32.7041 31.0115 32.036 31.2805 31.5075 31.2805H31.1028V31.8186H31.5075C32.2092 31.8186 32.8861 32.1374 32.8941 32.8791C32.902 33.3202 32.6131 33.9072 31.6807 33.9072C31.2619 33.8991 30.8524 33.7838 30.4921 33.5727L30.2942 34.1273C30.5593 34.302 31.0895 34.4864 31.6887 34.4864C32.9763 34.4864 33.6452 33.7439 33.6452 32.8957C33.6452 32.1497 33.1088 31.6605 32.4487 31.5303Z" fill="black"/>
</svg>
