<svg width="40" height="64" viewBox="0 0 40 64" fill="none" xmlns="http://www.w3.org/2000/svg">
<path d="M34.501 9.87589C34.5782 8.08056 35.2659 5.72788 36 4C34.3219 4.82945 32.0194 5.64881 30.2379 5.81935L32.7998 6.94182L26.3484 13.7813C24.775 12.4965 22.9374 11.5784 20.9679 11.0932C18.9985 10.608 16.9464 10.5679 14.9596 10.9756C12.9729 11.3833 11.101 12.2288 9.47896 13.4511C7.85696 14.6733 6.52529 16.2418 5.57999 18.0435C4.6347 19.8452 4.09935 21.8351 4.01256 23.8698C3.92577 25.9044 4.2897 27.933 5.0781 29.8093C5.86651 31.6855 7.05973 33.3627 8.57171 34.7198C10.0837 36.0769 11.8767 37.08 13.8215 37.6569C15.9565 38.2887 17.3907 40.1848 17.3907 42.3747V48.642H9.86249V49.2622H17.3907V60H18.0082V49.2622H25.1342V48.642H18.0082V42.3739C18.0082 39.9065 16.3957 37.7709 13.9944 37.0608C11.3737 36.2839 9.06104 34.7025 7.38085 32.5384C5.70065 30.3744 4.73728 27.7364 4.62592 24.9945C4.51455 22.2527 5.26078 19.5446 6.75989 17.2503C8.259 14.9561 10.4358 13.1907 12.9847 12.2021C15.5336 11.2134 18.3269 11.051 20.9724 11.7377C23.6179 12.4243 25.983 13.9256 27.7357 16.0308C29.4884 18.1361 30.5408 20.7395 30.7452 23.476C30.9496 26.2124 30.2958 28.9445 28.8755 31.2888L29.4027 31.612C31.0133 28.9533 31.6793 25.8249 31.2921 22.7372C30.9049 19.6495 29.4874 16.7847 27.2708 14.6099C27.1226 14.4642 26.9705 14.3231 26.8169 14.1851L33.2467 7.36894L34.501 9.87589Z" fill="black"/>
</svg>
