<svg width="56" height="64" viewBox="0 0 56 64" fill="none" xmlns="http://www.w3.org/2000/svg">
<path d="M46.8132 58.621L46.789 58.6085C46.4277 58.4139 46.0741 58.2187 45.737 58.0276C45.6679 57.9908 45.6043 57.9526 45.5387 57.9151L45.4759 57.8789C45.3888 57.8296 45.3025 57.7796 45.2161 57.7296C45.0524 57.6344 44.8894 57.5378 44.7278 57.4419L44.6787 57.4127L44.4404 57.2696C44.1061 57.0681 43.7628 56.8527 43.4188 56.6359L43.2378 56.5206L43.1197 56.4449L42.9124 56.3115L42.8482 56.2691L42.6686 56.1489C42.5822 56.0926 42.4966 56.0349 42.4116 55.9779C42.0704 55.7494 41.7367 55.5208 41.4204 55.2977L41.4093 55.2901L41.1738 55.1233C41.0107 55.0066 40.8482 54.8892 40.6861 54.7711C40.524 54.6529 40.3628 54.5332 40.2026 54.4118C38.0267 52.7864 35.9827 50.9895 34.09 49.0382C32.2175 47.1089 30.5333 45.0035 29.0605 42.7508C29.0488 42.7335 29.0384 42.7168 29.028 42.7008C29.0177 42.6848 29.0142 42.6786 29.008 42.6675C29.6988 41.5717 30.3529 40.4357 30.9421 39.2872L30.9732 39.2275C32.1137 36.9995 33.0428 34.6682 33.748 32.2648L33.2141 32.1084C32.5132 34.4972 31.588 36.8134 30.451 39.026L30.4165 39.0857V39.0934C29.8715 40.1509 29.2746 41.1972 28.6391 42.2103C28.0036 41.1979 27.4068 40.1509 26.8611 39.092V39.0829L26.8266 39.0239C25.3178 36.0955 24.1882 32.9847 23.4653 29.7676C23.0025 27.6832 22.8436 25.9163 22.988 24.3634C23.1634 22.4353 23.8169 20.8108 24.9353 19.5365L24.9656 19.5025C25.5599 18.834 26.3241 18.3411 27.1761 18.0767L27.0131 17.5459C26.0651 17.8397 25.2147 18.3879 24.5533 19.1315L24.5201 19.169C23.3244 20.5336 22.6233 22.2644 22.4367 24.3106C22.2896 25.9218 22.4499 27.7457 22.9251 29.8871C23.6547 33.1313 24.7921 36.2689 26.3099 39.224L26.341 39.2851C26.9392 40.451 27.5995 41.6023 28.3048 42.7105C27.0577 44.6304 25.6665 46.4517 24.1436 48.1585L24.5581 48.5296C26.0442 46.8633 27.4064 45.0893 28.6336 43.2219L28.6426 43.2351L28.6792 43.1781C30.153 45.4142 31.8327 47.5058 33.6962 49.4252C35.6094 51.398 37.6755 53.2147 39.8751 54.8579C40.0377 54.9797 40.2007 55.1006 40.3642 55.2206C40.5286 55.3401 40.6923 55.4589 40.8581 55.5763L41.095 55.7445L41.1061 55.7528C41.4273 55.9786 41.7644 56.21 42.1091 56.4407C42.1961 56.4991 42.2831 56.5574 42.3695 56.6137C42.4296 56.654 42.4911 56.6936 42.5512 56.7332L42.6147 56.7749L42.8219 56.9139L42.9401 56.9896L43.1252 57.1077C43.4706 57.3287 43.8159 57.5434 44.1565 57.7469L44.3976 57.8922L44.4473 57.9213C44.611 58.0186 44.7754 58.1159 44.9405 58.2118L45.2044 58.3639L45.2666 58.3994C45.3356 58.4376 45.4006 58.4765 45.4676 58.514C45.8081 58.7065 46.1652 58.9038 46.5307 59.1004L46.5548 59.1129L46.798 59.2429C47.2276 59.4708 47.6815 59.7035 48.1477 59.9377L48.3923 59.4395C47.9308 59.2102 47.4811 58.9795 47.0549 58.7537L46.8132 58.621Z" fill="black"/>
<path d="M34.7137 27.9278C35.2462 24.1431 34.6066 21.2784 32.7581 19.169L32.7263 19.1328C32.065 18.3885 31.2143 17.8398 30.2658 17.5459L30.1035 18.0767C30.9555 18.3413 31.7198 18.8344 32.314 19.5032L32.3437 19.5365C34.0789 21.5167 34.675 24.2362 34.1666 27.8499L34.7137 27.9278Z" fill="black"/>
<path d="M17.2648 54.4811C17.1046 54.601 16.9434 54.7205 16.7813 54.8396C16.6197 54.9584 16.4566 55.0751 16.2922 55.1925C16.2112 55.2509 16.1294 55.3088 16.047 55.3662C15.7175 55.599 15.3839 55.8276 15.0558 56.0465C13.3898 57.1599 11.6627 58.1778 9.88262 59.0953C9.64569 59.2176 9.39011 59.3468 9.07788 59.5018L9.32241 59.9999C9.63809 59.8436 9.89575 59.713 10.1348 59.5893C11.9332 58.6624 13.6783 57.6343 15.3618 56.5099C15.6933 56.2883 16.0304 56.0569 16.3634 55.822C16.447 55.7637 16.5305 55.7039 16.6127 55.6456C16.7776 55.5274 16.9422 55.4086 17.1066 55.2891C17.2697 55.1689 17.4334 55.048 17.5957 54.9264C19.0156 53.8587 20.3755 52.7126 21.6691 51.4934L21.2913 51.0869C20.0126 52.2924 18.6684 53.4255 17.2648 54.4811Z" fill="black"/>
<path d="M50.7089 43.8073C51.1152 43.4318 51.4396 42.9758 51.6618 42.4679C51.884 41.96 51.9992 41.4113 52 40.8564C51.9998 39.7949 51.5804 38.777 50.8342 38.0264C50.0879 37.2759 49.0758 36.8543 48.0205 36.8543H48.0129C47.1954 36.8555 46.3986 37.1129 45.7334 37.5908V29.8735H32.0051V30.4294H45.1808V38.8366L45.6491 38.3815C46.2817 37.7601 47.1301 37.4112 48.0143 37.4088H48.0205C48.7114 37.4079 49.3864 37.6173 49.9569 38.0093C50.5274 38.4013 50.9667 38.9577 51.2172 39.6054C51.4676 40.2531 51.5174 40.9619 51.3602 41.6386C51.2029 42.3153 50.8459 42.9284 50.3359 43.3973C49.918 43.7852 49.6525 44.3111 49.5878 44.8794H49.2825V45.4352H50.0942C50.1214 45.4342 50.1486 45.4386 50.1742 45.4482C50.1998 45.4578 50.2232 45.4723 50.2432 45.4911C50.2632 45.5098 50.2792 45.5323 50.2905 45.5573C50.3018 45.5823 50.3081 45.6093 50.309 45.6367C50.309 45.692 50.2872 45.745 50.2483 45.7841C50.2094 45.8232 50.1567 45.8451 50.1018 45.8451H50.0907C49.9529 45.8451 49.8208 45.9002 49.7234 45.9982C49.626 46.0962 49.5712 46.2291 49.5712 46.3676V47.4522C49.5713 47.4849 49.5584 47.5163 49.5355 47.5394C49.5126 47.5626 49.4815 47.5757 49.449 47.5759C49.2641 47.576 49.0861 47.6467 48.9511 47.7738C48.8161 47.9009 48.734 48.0747 48.7216 48.2603H47.3166C47.3042 48.0749 47.2222 47.9011 47.0874 47.774C46.9525 47.647 46.7747 47.5762 46.5899 47.5759C46.5574 47.5757 46.5263 47.5626 46.5034 47.5394C46.4805 47.5163 46.4676 47.4849 46.4676 47.4522V46.3676C46.4675 46.229 46.4126 46.0961 46.3151 45.9981C46.2175 45.9002 46.0853 45.8451 45.9475 45.8451C45.9203 45.8461 45.8932 45.8416 45.8677 45.832C45.8422 45.8223 45.8188 45.8077 45.7989 45.789C45.779 45.7703 45.763 45.7478 45.7518 45.7229C45.7405 45.698 45.7343 45.671 45.7334 45.6436C45.7334 45.5884 45.7552 45.5353 45.7941 45.4963C45.8329 45.4572 45.8856 45.4352 45.9406 45.4352H48.227V44.8794H46.4538C46.3843 44.3062 46.1151 43.7765 45.694 43.3841C45.3541 43.0697 45.0816 42.6888 44.893 42.2648C44.7044 41.8409 44.6037 41.3827 44.5971 40.9182L44.0444 40.928C44.0519 41.4674 44.1687 41.9996 44.3877 42.4921C44.6067 42.9846 44.9233 43.4269 45.3182 43.792C45.6276 44.0794 45.8317 44.4631 45.8978 44.8814C45.7027 44.892 45.5193 44.9782 45.386 45.1218C45.2527 45.2655 45.1799 45.4555 45.1828 45.652C45.1881 45.8468 45.2665 46.0323 45.4024 46.1712C45.5383 46.31 45.7215 46.3919 45.915 46.4003V47.4522C45.9152 47.6323 45.9864 47.8049 46.1129 47.9323C46.2394 48.0597 46.4109 48.1314 46.5899 48.1318C46.6366 48.1318 46.6814 48.1504 46.7145 48.1837C46.7475 48.2169 46.7661 48.2619 46.7661 48.3089C46.7662 48.4434 46.8194 48.5723 46.914 48.6674C47.0085 48.7625 47.1366 48.816 47.2703 48.8161H48.7707C48.9044 48.816 49.0326 48.7625 49.1273 48.6674C49.2219 48.5724 49.2752 48.4435 49.2756 48.3089C49.2756 48.2619 49.2942 48.2169 49.3272 48.1837C49.3602 48.1504 49.405 48.1318 49.4517 48.1318C49.6307 48.1314 49.8023 48.0597 49.9288 47.9323C50.0553 47.8049 50.1264 47.6323 50.1266 47.4522V46.4003C50.3249 46.3936 50.5127 46.3092 50.6499 46.1651C50.7871 46.0209 50.8628 45.8286 50.8609 45.6291C50.8556 45.4371 50.7792 45.2541 50.6467 45.1159C50.5142 44.9777 50.3351 44.8944 50.1446 44.8821C50.2049 44.4694 50.4041 44.09 50.7089 43.8073Z" fill="black"/>
<path d="M47.0416 42.7679C47.483 42.7679 47.751 42.2676 47.8015 42.1683C47.8424 42.0775 47.8969 41.9936 47.9631 41.9195C47.9676 41.9145 47.973 41.9105 47.979 41.9078C47.9851 41.905 47.9917 41.9036 47.9983 41.9035C48.0051 41.9033 48.0119 41.9047 48.0181 41.9074C48.0243 41.9102 48.0298 41.9143 48.0343 41.9195C48.1004 41.9934 48.1549 42.077 48.1959 42.1676C48.2449 42.2676 48.513 42.7672 48.9557 42.7679C49.2396 42.7679 49.4835 42.5657 49.6797 42.1683L49.1851 41.9202C49.0656 42.162 48.9737 42.212 48.9557 42.212C48.8984 42.212 48.7623 42.0619 48.6912 41.9202C48.6252 41.7787 48.538 41.6482 48.4328 41.5332C48.3768 41.4743 48.3094 41.4275 48.2349 41.3956C48.1603 41.3637 48.0801 41.3474 47.999 41.3477C47.9181 41.3475 47.838 41.3638 47.7635 41.3957C47.6891 41.4276 47.6219 41.4744 47.5659 41.5332C47.4607 41.6482 47.3736 41.7787 47.3076 41.9202C47.2385 42.0592 47.1003 42.212 47.043 42.212C47.0251 42.212 46.9332 42.162 46.8137 41.9202L46.3191 42.1683C46.5146 42.5657 46.7577 42.7679 47.0416 42.7679Z" fill="black"/>
<path d="M39.1676 14.6504C39.4653 14.6502 39.7562 14.5617 40.0041 14.396C40.2519 14.2302 40.4456 13.9946 40.5609 13.7186C40.6544 13.7395 40.7498 13.75 40.8455 13.7499C41.197 13.7495 41.5341 13.609 41.7827 13.359C42.0313 13.1091 42.1712 12.7701 42.1718 12.4165V11.935C42.4588 11.8254 42.7061 11.6309 42.8811 11.3772C43.056 11.1234 43.1505 10.8223 43.152 10.5135C43.153 10.1883 43.0495 9.87147 42.857 9.61021C43.0672 9.46076 43.2388 9.263 43.3576 9.03338C43.4764 8.80377 43.539 8.54893 43.5402 8.29007C43.5419 7.93084 43.4239 7.58139 43.205 7.29752C42.9862 7.01365 42.6791 6.81172 42.3327 6.72397C42.3513 6.62875 42.3605 6.53195 42.3604 6.43493C42.3606 6.21106 42.3116 5.98992 42.2169 5.7873C42.1223 5.58469 41.9843 5.40562 41.8128 5.26289C41.6414 5.12017 41.4407 5.01731 41.2251 4.96168C41.0095 4.90605 40.7844 4.89901 40.5658 4.94109C40.4325 4.61575 40.1911 4.34699 39.8829 4.18064C39.5746 4.01428 39.2186 3.96063 38.8754 4.02883C38.5322 4.09704 38.2232 4.28287 38.001 4.55464C37.7788 4.82642 37.6572 5.1673 37.6569 5.51917V5.79709H38.2095V5.51917C38.2096 5.27943 38.2984 5.0483 38.4588 4.87093C38.6191 4.69355 38.8395 4.58267 39.0767 4.55992C39.314 4.53717 39.5512 4.6042 39.742 4.74792C39.9327 4.89163 40.0634 5.10171 40.1085 5.33713L40.172 5.66994L40.4842 5.5421C40.6298 5.48237 40.7877 5.45957 40.944 5.47571C41.1004 5.49186 41.2504 5.54644 41.3808 5.63466C41.5113 5.72288 41.6181 5.84202 41.692 5.98158C41.7658 6.12114 41.8044 6.27683 41.8043 6.43493C41.8043 6.57367 41.7741 6.71074 41.7159 6.83653L41.5418 7.21798L41.9563 7.23049C42.2311 7.23685 42.4924 7.35143 42.6841 7.54957C42.8758 7.74771 42.9825 8.0136 42.9814 8.29007C42.9804 8.50486 42.915 8.71436 42.7938 8.89115C42.6725 9.06794 42.501 9.20377 42.3017 9.28087L41.8513 9.45735L42.2319 9.76098C42.3744 9.87441 42.482 10.0263 42.5419 10.1989C42.6019 10.3714 42.6118 10.5576 42.5705 10.7357C42.5292 10.9137 42.4385 11.0763 42.3088 11.2044C42.1791 11.3325 42.0159 11.4208 41.8381 11.4591L41.6192 11.5057V12.4193C41.6188 12.6255 41.5372 12.8232 41.3921 12.9689C41.2471 13.1147 41.0505 13.1966 40.8455 13.1968C40.7256 13.1975 40.6073 13.1697 40.5001 13.1155L40.1734 12.9529L40.1043 13.3129C40.0601 13.5489 39.9298 13.7598 39.739 13.9043C39.5483 14.0487 39.3107 14.1163 39.073 14.0938C38.8352 14.0713 38.6144 13.9603 38.4538 13.7825C38.2932 13.6048 38.2044 13.3731 38.2047 13.1329V10.0778H37.6521V13.1301C37.6523 13.3301 37.6916 13.528 37.7679 13.7126C37.8442 13.8973 37.9559 14.065 38.0966 14.2062C38.2374 14.3474 38.4044 14.4593 38.5882 14.5355C38.772 14.6117 38.9689 14.6507 39.1676 14.6504Z" fill="black"/>
<path d="M19.1541 22.0166H13.8035L15.5076 19.6507C15.7308 19.341 15.8912 18.9901 15.9796 18.618C16.068 18.246 16.0827 17.86 16.0228 17.4823C15.9628 17.1045 15.8295 16.7423 15.6304 16.4163C15.4313 16.0904 15.1704 15.8071 14.8624 15.5826L14.6925 15.4569C14.4073 15.2483 14.0839 15.0984 13.741 15.0157C13.3981 14.933 13.0423 14.9192 12.6941 14.975C12.3459 15.0308 12.012 15.1552 11.7117 15.341C11.4113 15.5269 11.1503 15.7705 10.9437 16.0579L10.1984 17.0931C10.1787 17.1208 10.1528 17.1434 10.1228 17.159C10.0928 17.1745 10.0595 17.1826 10.0257 17.1826C9.99188 17.1826 9.95857 17.1745 9.92853 17.159C9.8985 17.1434 9.87259 17.1208 9.85298 17.0931L9.1104 16.0579C8.69317 15.479 8.06445 15.0905 7.36249 14.9778C6.66053 14.8651 5.94281 15.0374 5.36715 15.4569L5.19445 15.5826C4.57381 16.0368 4.15738 16.7198 4.03632 17.4822C3.91527 18.2445 4.09947 19.024 4.54859 19.65L9.25477 26.1813C9.3431 26.3049 9.45954 26.4054 9.59436 26.4746C9.72918 26.5437 9.87848 26.5794 10.0298 26.5787C10.1811 26.5795 10.3303 26.5438 10.465 26.4746C10.5997 26.4055 10.716 26.3049 10.8042 26.1813L13.4049 22.5682H18.6036V50.1168H30.4875V49.561H19.1541V22.0166ZM10.3545 25.8547C10.3174 25.907 10.2684 25.9496 10.2115 25.9789C10.1546 26.0081 10.0916 26.0232 10.0277 26.0229C9.96376 26.0233 9.90063 26.0082 9.84365 25.9789C9.78666 25.9497 9.73751 25.9071 9.70032 25.8547L4.99413 19.3235C4.63092 18.8169 4.48196 18.1862 4.57982 17.5694C4.67768 16.9526 5.01441 16.3999 5.51635 16.0322L5.68973 15.9057C6.05097 15.6411 6.48623 15.4983 6.93311 15.4979C7.04716 15.4979 7.16102 15.507 7.27366 15.5249C7.54995 15.5687 7.81486 15.6671 8.05307 15.8145C8.29129 15.9619 8.49805 16.1554 8.66141 16.3837L9.40743 17.4183C9.47774 17.5173 9.57051 17.5979 9.67803 17.6536C9.78556 17.7092 9.90474 17.7383 10.0257 17.7383C10.1466 17.7383 10.2658 17.7092 10.3733 17.6536C10.4808 17.5979 10.5736 17.5173 10.6439 17.4183L11.3899 16.3837C11.5539 16.1558 11.7609 15.9626 11.9991 15.8152C12.2374 15.6679 12.5022 15.5692 12.7784 15.5248C13.0546 15.4805 13.3368 15.4914 13.6088 15.5569C13.8808 15.6223 14.1373 15.7411 14.3637 15.9064L14.5371 16.0322C14.7863 16.2137 14.9976 16.4428 15.1588 16.7065C15.32 16.9701 15.428 17.2631 15.4766 17.5687C15.5252 17.8744 15.5135 18.1866 15.4421 18.4877C15.3708 18.7888 15.2411 19.0728 15.0607 19.3235L10.3545 25.8547Z" fill="black"/>
<path d="M28.9161 10.6386H31.0637C31.1155 10.9458 31.2551 11.2312 31.4655 11.4599C31.6759 11.6887 31.9479 11.8509 32.2484 11.9267C32.2298 12.022 32.2206 12.1188 32.2207 12.2158C32.2206 12.4393 32.2695 12.6601 32.364 12.8624C32.4585 13.0647 32.5961 13.2436 32.7672 13.3862C32.9382 13.5289 33.1385 13.6319 33.3536 13.6877C33.5688 13.7436 33.7935 13.7511 34.0119 13.7096C34.1452 14.035 34.3865 14.3037 34.6947 14.4701C35.003 14.6364 35.3591 14.6901 35.7023 14.6219C36.0454 14.5537 36.3545 14.3678 36.5767 14.0961C36.7989 13.8243 36.9205 13.4834 36.9207 13.1315V12.8536H36.3681V13.1315C36.369 13.3719 36.2805 13.604 36.1201 13.7821C35.9596 13.9603 35.7388 14.0717 35.5009 14.0945C35.263 14.1173 35.0252 14.0498 34.8342 13.9053C34.6432 13.7609 34.5127 13.5498 34.4685 13.3136L34.4056 12.9808L34.0927 13.1086C33.9146 13.1824 33.7185 13.2004 33.5301 13.1603C33.3417 13.1203 33.1696 13.024 33.0365 12.884C32.9033 12.7441 32.8152 12.567 32.7837 12.3759C32.7521 12.1848 32.7786 11.9885 32.8597 11.8128L33.0345 11.4313L32.62 11.4188C32.3449 11.4134 32.083 11.2994 31.8907 11.1014C31.6984 10.9034 31.5912 10.6374 31.5921 10.3606C31.5933 10.1459 31.6587 9.93648 31.78 9.75972C31.9012 9.58297 32.0726 9.4471 32.2718 9.36984L32.7257 9.19544L32.3451 8.8925C32.2023 8.77912 32.0946 8.62722 32.0345 8.45454C31.9744 8.28185 31.9644 8.09554 32.0057 7.91736C32.047 7.73919 32.1379 7.57652 32.2677 7.44837C32.3975 7.32022 32.5609 7.23188 32.7388 7.19369L32.9578 7.14714V6.23207C32.958 6.02593 33.0395 5.82827 33.1844 5.68251C33.3293 5.53674 33.5258 5.45476 33.7307 5.45458C33.8506 5.45405 33.9689 5.4819 34.0761 5.53587L34.4029 5.69915L34.4719 5.33855C34.5162 5.10251 34.6464 4.89159 34.8372 4.74712C35.028 4.60266 35.2655 4.53506 35.5033 4.55759C35.741 4.58011 35.9619 4.69112 36.1225 4.86888C36.2831 5.04663 36.3719 5.27831 36.3715 5.5185V8.57081H36.9242V5.5185C36.9229 5.16857 36.8016 4.8298 36.5808 4.55941C36.36 4.28901 36.0531 4.10356 35.7121 4.03438C35.3711 3.96521 35.0168 4.01654 34.709 4.17972C34.4013 4.34289 34.1589 4.60791 34.0229 4.93C33.9293 4.90912 33.8336 4.89863 33.7377 4.89873C33.3862 4.8991 33.0492 5.03969 32.8007 5.28966C32.5522 5.53964 32.4124 5.87856 32.4121 6.23207V6.71358C32.1239 6.82266 31.8755 7.01719 31.6998 7.27142C31.524 7.52565 31.4291 7.82758 31.4277 8.13724C31.427 8.4625 31.5307 8.7793 31.7234 9.0405C31.3764 9.28768 31.1395 9.66186 31.0637 10.0827H28.3628V24.4312H28.9154L28.9161 10.6386Z" fill="black"/>
</svg>
