<svg width="66" height="64" viewBox="0 0 66 64" fill="none" xmlns="http://www.w3.org/2000/svg">
<path d="M16.3307 42.3254V50.8786C16.3314 51.4577 16.5631 52.0129 16.975 52.4224C17.3869 52.8319 17.9454 53.0622 18.5279 53.0629H19.7936V52.4002H18.5279C18.1221 52.3998 17.733 52.2393 17.4461 51.954C17.1591 51.6688 16.9977 51.282 16.9973 50.8786V42.3254C16.9966 41.7463 16.7649 41.1911 16.353 40.7816C15.9411 40.3721 15.3826 40.1418 14.8001 40.1411H6.19718C5.79152 40.1407 5.40258 39.9803 5.11566 39.6952C4.82873 39.4102 4.66723 39.0236 4.66657 38.6203V29.6256C4.66701 29.2222 4.82841 28.8354 5.11536 28.5502C5.40231 28.2649 5.79138 28.1045 6.19718 28.104H14.8001C15.3826 28.1034 15.9411 27.873 16.353 27.4635C16.7649 27.054 16.9966 26.4988 16.9973 25.9197V17.3665C16.998 16.9633 17.1595 16.5767 17.4464 16.2916C17.7333 16.0065 18.1222 15.8462 18.5279 15.8458H26.4593V15.1831H18.5271C17.9446 15.1835 17.3861 15.4137 16.9742 15.8231C16.5623 16.2324 16.3306 16.7875 16.3299 17.3665V25.9197C16.3294 26.3232 16.168 26.7099 15.8811 26.9952C15.5941 27.2805 15.2051 27.4409 14.7993 27.4414H6.19718C5.61466 27.442 5.05618 27.6724 4.64427 28.0818C4.23236 28.4913 4.00066 29.0465 4 29.6256V38.6203C4.00066 39.1994 4.23239 39.7545 4.64432 40.1638C5.05625 40.5732 5.61473 40.8033 6.19718 40.8038H14.8001C15.2059 40.8044 15.5948 40.9649 15.8817 41.2502C16.1686 41.5354 16.3301 41.922 16.3307 42.3254Z" fill="black"/>
<path d="M27.8266 47.9126L27.3675 47.4321C25.3919 49.2891 23.308 51.0288 21.1267 52.6422C17.7241 55.1526 14.0985 57.3495 10.2949 59.2058L10.5899 59.7997C14.4295 57.9256 18.0894 55.7076 21.5241 53.1732C23.7271 51.5443 25.8316 49.7877 27.8266 47.9126Z" fill="black"/>
<path d="M45.0208 47.4346L44.5559 47.91C46.5114 49.7956 48.5874 51.5537 50.7708 53.1732C54.2053 55.708 57.8652 57.9261 61.7051 59.7997L62.0001 59.205C58.1964 57.3488 54.5708 55.1518 51.1683 52.6414C49.0084 51.0393 46.955 49.3 45.0208 47.4346Z" fill="black"/>
<path d="M36.0396 7.07617V9.00615H34.0974V9.6688H36.0396V11.5996H36.7062V9.6688H38.6484V9.00615H36.7062V7.07617H36.0396Z" fill="black"/>
<path d="M31.3404 6.86926L31.3787 6.82618C31.9948 6.14485 32.7482 5.60009 33.59 5.22732C34.4318 4.85456 35.3431 4.66215 36.2646 4.66262C37.1861 4.66309 38.0972 4.85643 38.9386 5.23004C39.78 5.60366 40.5328 6.1492 41.1482 6.83115L41.1832 6.87008C41.5227 7.25274 41.8319 7.66094 42.108 8.09102L42.6705 7.73485C42.3754 7.27606 42.0453 6.84046 41.6831 6.4319L41.6406 6.38469C40.962 5.63373 40.1319 5.03326 39.2043 4.62239C38.2768 4.21152 37.2726 3.99945 36.2572 4C35.2417 4.00055 34.2377 4.2137 33.3106 4.62557C32.3836 5.03744 31.5541 5.63879 30.8763 6.39049L30.8397 6.4319C30.4773 6.84059 30.1472 7.27647 29.8523 7.73567L30.4147 8.09185C30.6909 7.66103 31.0004 7.25226 31.3404 6.86926Z" fill="black"/>
<path d="M43.8326 14.5278C43.8476 16.2316 43.6193 18.1086 43.1352 20.2672C42.1762 24.48 40.6778 28.5532 38.6767 32.3871L38.6717 32.3962C37.9384 33.8093 37.1285 35.2125 36.2612 36.5784C35.3938 35.215 34.5847 33.811 33.8523 32.3995L33.844 32.3846C31.8437 28.5513 30.3459 24.479 29.3872 20.2672C28.9331 18.2428 28.7048 16.471 28.6898 14.8516L28.0232 14.8574C28.0382 16.524 28.2732 18.3413 28.7373 20.4121C29.7078 24.6797 31.2253 28.8059 33.2524 32.6894L33.5516 32.542L33.2591 32.7019C34.0673 34.2591 34.9672 35.8056 35.9337 37.2999L35.9212 37.3214C34.4333 39.5836 32.7763 41.7314 30.9644 43.7466L31.4644 44.1873C33.2113 42.2435 34.8166 40.1782 36.2678 38.0072C37.7104 40.1673 39.2935 42.2311 41.0071 44.1856L41.5071 43.75C39.721 41.7136 38.0784 39.557 36.5911 37.2957C37.5576 35.8047 38.4575 34.2566 39.2666 32.6977V32.6886C41.2938 28.8054 42.8113 24.6795 43.7817 20.4121C44.2817 18.203 44.5116 16.2763 44.4958 14.522L43.8326 14.5278Z" fill="black"/>
<path d="M28.4491 13.0326C28.5194 13.0579 28.5935 13.0711 28.6682 13.0715C28.7616 13.0714 28.8537 13.0507 28.938 13.0109C29.0223 12.9711 29.0966 12.9131 29.1556 12.8412C29.2762 12.6903 29.4216 12.5606 29.5856 12.4577C30.2363 12.0717 31.182 11.7462 32.3194 11.5159L32.1869 10.8665C30.9762 11.115 29.958 11.4654 29.244 11.8887C29.0349 12.0168 28.8476 12.1769 28.6891 12.3633V10.8177C28.6891 10.0531 30.0822 9.26954 32.2369 8.82142L32.1002 8.17285C29.5089 8.71209 28.0225 9.67542 28.0225 10.8177V12.4296C28.0214 12.5618 28.062 12.691 28.1385 12.7991C28.215 12.9072 28.3236 12.9889 28.4491 13.0326Z" fill="black"/>
<path d="M40.6998 8.2334L40.5515 8.87949C42.5454 9.3334 43.8335 10.0938 43.8335 10.8177V12.3634C43.675 12.177 43.4877 12.0168 43.2786 11.8888C42.6404 11.5102 41.748 11.1839 40.6957 10.9453L40.5474 11.5914C41.5281 11.815 42.3538 12.1141 42.9337 12.4586C43.0974 12.5612 43.2425 12.6906 43.3628 12.8413C43.4217 12.9131 43.4959 12.9711 43.58 13.0109C43.6642 13.0507 43.7562 13.0714 43.8494 13.0716C43.9244 13.0712 43.9988 13.0581 44.0693 13.0327C44.1946 12.989 44.303 12.9077 44.3795 12.7999C44.4559 12.6921 44.4966 12.5632 44.4959 12.4313V10.8177C44.5001 9.7252 43.1145 8.78506 40.6998 8.2334Z" fill="black"/>
<path d="M32.6177 9.33772C32.6177 10.076 32.8379 10.7977 33.2504 11.4116C33.663 12.0255 34.2494 12.504 34.9355 12.7866C35.6216 13.0692 36.3766 13.1432 37.105 12.9993C37.8334 12.8554 38.5025 12.5 39.0278 11.9781C39.553 11.4562 39.9108 10.7911 40.0559 10.067C40.201 9.34298 40.1269 8.59241 39.8429 7.91022C39.5589 7.22803 39.0778 6.64487 38.4605 6.23446C37.8432 5.82405 37.1173 5.60482 36.3746 5.60449C35.3787 5.60515 34.4238 5.99863 33.7194 6.69855C33.015 7.39848 32.6188 8.34765 32.6177 9.33772ZM39.4617 9.33772C39.4617 9.94509 39.2805 10.5388 38.941 11.0438C38.6016 11.5488 38.1191 11.9424 37.5546 12.1747C36.9901 12.4071 36.369 12.4678 35.7698 12.3492C35.1706 12.2306 34.6202 11.9379 34.1883 11.5083C33.7564 11.0788 33.4624 10.5315 33.3434 9.93574C33.2244 9.34 33.2858 8.72255 33.5198 8.16151C33.7539 7.60047 34.15 7.12102 34.6582 6.78382C35.1663 6.44663 35.7637 6.26682 36.3746 6.26715C37.1933 6.26846 37.9779 6.59244 38.5566 7.16805C39.1353 7.74365 39.4608 8.52391 39.4617 9.33772Z" fill="black"/>
<path d="M40.7365 50.9987C39.5409 52.3033 37.9944 53.0223 36.3747 53.0223C34.7082 53.0223 33.1301 52.2702 31.9253 50.9035C30.7205 49.5367 30.0089 47.673 29.9389 45.6851L29.2724 45.7074C29.344 47.8461 30.1056 49.849 31.4237 51.34C32.6735 52.7572 34.2941 53.5764 36.023 53.675C35.9769 54.1197 35.8351 54.5494 35.6071 54.9348C35.3792 55.3202 35.0705 55.6523 34.702 55.9086C34.3336 56.1649 33.9139 56.3394 33.4716 56.4202C33.0293 56.501 32.5747 56.4863 32.1386 56.377L30.1714 55.885C29.5948 55.7405 28.9944 55.7167 28.4081 55.8151C27.8219 55.9135 27.2625 56.1319 26.7656 56.4565C26.2687 56.7811 25.8451 57.2048 25.5216 57.7007C25.1981 58.1966 24.9818 58.754 24.8863 59.3374H20.1912V60H30.1331V59.3374H25.5612C25.6552 58.8562 25.8468 58.3991 26.1244 57.994C26.4021 57.5889 26.7599 57.2444 27.176 56.9814C27.5921 56.7184 28.0578 56.5426 28.5446 56.4646C29.0314 56.3866 29.5291 56.4081 30.0072 56.5277L31.9745 57.0197C32.5085 57.1537 33.0654 57.1706 33.6067 57.0694C34.148 56.9682 34.6607 56.7513 35.1093 56.4336C35.558 56.116 35.9318 55.7052 36.2049 55.2297C36.4781 54.7543 36.644 54.2255 36.6913 53.68C38.386 53.593 39.9866 52.8086 41.2298 51.4485C42.5304 50.0254 43.322 48.1021 43.4586 46.0321L42.7921 45.9882C42.6671 47.9058 41.9363 49.6867 40.7365 50.9987Z" fill="black"/>
</svg>
