<svg width="68" height="64" viewBox="0 0 68 64" fill="none" xmlns="http://www.w3.org/2000/svg">
<path d="M52.3633 38.1203C55.2743 33.5765 57.2531 29.0207 58.2449 24.5762C58.7452 22.3298 58.9136 20.4159 58.7589 18.7256C58.5623 16.5728 57.8219 14.7542 56.5602 13.3174C55.2646 11.8442 53.4043 11.033 51.5875 11.1468L51.6277 11.7926C53.2488 11.6908 54.9117 12.4214 56.076 13.746C57.2628 15.0948 57.9291 16.7423 58.1168 18.7837C58.2658 20.4062 58.1015 22.2547 57.6157 24.4342C56.6593 28.7236 54.7635 33.1253 51.9798 37.523C49.0793 32.9558 47.1457 28.5541 46.2296 24.4342C45.9452 23.2141 45.766 21.9718 45.6938 20.721L45.0493 20.7525C45.1234 22.04 45.3075 23.3187 45.5995 24.5746C46.5462 28.8197 48.546 33.3489 51.5448 38.0404C48.721 42.3272 45.2303 46.1335 41.2053 49.3146C40.8226 49.6181 40.4302 49.9208 40.0386 50.213C37.336 52.2235 34.4557 53.9827 31.4338 55.4687L31.7182 56.0483C34.7756 54.5444 37.6898 52.7644 40.4246 50.7304C40.8202 50.4342 41.2182 50.1282 41.6057 49.8199C45.609 46.6556 49.0912 42.8808 51.925 38.6337L51.979 38.7144V38.7103C54.9109 43.1088 58.8218 47.1497 63.6148 50.7304L64 50.213C59.1819 46.6129 55.2679 42.5446 52.3633 38.1203Z" fill="black"/>
<path d="M29.7613 11.8436C29.9798 11.9501 30.1582 12.1245 30.2698 12.3407C30.3815 12.557 30.4204 12.8037 30.3808 13.0439L30.1472 14.396C30.1255 14.5172 30.1412 14.6422 30.192 14.7543C30.2428 14.8664 30.3265 14.9604 30.4318 15.0239C30.5372 15.0873 30.6593 15.1172 30.782 15.1096C30.9046 15.102 31.0221 15.0572 31.1188 14.9812L34.5028 12.3586C34.7035 12.2029 34.9498 12.1178 35.2037 12.1164H37.0931V14.9828C37.0933 15.6713 37.366 16.3317 37.8514 16.819C38.3368 17.3064 38.9953 17.5811 39.6826 17.5828H42.9569C43.2111 17.5839 43.4577 17.669 43.6587 17.825L47.0426 20.4484C47.1397 20.5232 47.2571 20.567 47.3795 20.5739C47.5018 20.5808 47.6234 20.5506 47.7283 20.4873C47.8333 20.4239 47.9167 20.3303 47.9677 20.2186C48.0187 20.107 48.0349 19.9825 48.0142 19.8615L47.7814 18.5095C47.7419 18.2694 47.7808 18.0231 47.8923 17.807C48.0038 17.5908 48.1819 17.4165 48.4002 17.31C48.8316 17.0954 49.1944 16.764 49.4474 16.3534C49.7005 15.9428 49.8337 15.4694 49.8319 14.9868V12.0615C49.831 11.3729 49.5576 10.7127 49.0716 10.2257C48.5855 9.73876 47.9265 9.46481 47.2392 9.46396H41.0402C41.0579 8.51549 41.0675 6.61937 41.0675 6.59758C41.0667 5.90892 40.7933 5.24871 40.3072 4.76176C39.8212 4.2748 39.1622 4.00085 38.4748 4H30.9231C30.2357 4.00085 29.5767 4.2748 29.0907 4.76176C28.6046 5.24871 28.3312 5.90892 28.3303 6.59758V9.52127C28.3286 10.0036 28.4618 10.4768 28.7147 10.8872C28.9676 11.2977 29.3301 11.6289 29.7613 11.8436ZM47.2351 10.1097C47.7516 10.1104 48.2468 10.3162 48.612 10.6821C48.9772 11.048 49.1827 11.5441 49.1833 12.0615V14.9852C49.1842 15.348 49.0839 15.7037 48.8935 16.0123C48.7031 16.3208 48.4304 16.5699 48.1061 16.7312C47.7632 16.8988 47.4836 17.1732 47.3093 17.5132C47.1351 17.8533 47.0754 18.2408 47.1393 18.6176L47.356 19.8785L44.0526 17.3132C43.7389 17.0701 43.3536 16.9378 42.9569 16.937H39.6826C39.1661 16.9364 38.6709 16.7306 38.3057 16.3647C37.9405 15.9988 37.735 15.5027 37.7344 14.9852V12.6169C37.9796 12.9797 38.3296 13.2588 38.7375 13.4168L38.7544 13.4233C38.7923 13.4378 38.8301 13.4507 38.8688 13.4628L38.901 13.4725C38.9365 13.483 38.9711 13.4927 39.0074 13.5016L39.0525 13.5121C39.0855 13.5193 39.1178 13.5258 39.1508 13.5314L39.2104 13.5403L39.2982 13.5516C39.3248 13.5516 39.3514 13.5565 39.3788 13.5581L39.4497 13.5621C39.4908 13.5621 39.5303 13.5621 39.5714 13.5621H39.6036C39.6584 13.5621 39.7132 13.5565 39.7647 13.5508C40.1418 13.5077 40.5009 13.3658 40.8059 13.1396C41.111 12.9134 41.3512 12.6107 41.5025 12.262C41.6538 11.9132 41.7108 11.5308 41.6678 11.153C41.6249 10.7752 41.4834 10.4154 41.2577 10.1097H47.2351ZM28.9749 6.59758C28.9755 6.08012 29.181 5.58404 29.5462 5.21814C29.9114 4.85225 30.4066 4.6464 30.9231 4.64576H38.4748C38.9911 4.64619 39.4861 4.85174 39.8513 5.21734C40.2166 5.58293 40.4221 6.07872 40.423 6.59597C40.423 6.61695 40.4125 8.73989 40.3924 9.60844C40.3828 9.9003 40.4822 10.1853 40.6711 10.4076C40.8512 10.6169 40.9709 10.8714 41.0173 11.1437C41.0638 11.4161 41.0353 11.696 40.9349 11.9533C40.8344 12.2106 40.6659 12.4357 40.4474 12.6042C40.2289 12.7728 39.9686 12.8784 39.6946 12.9099C39.5798 12.9224 39.4639 12.9224 39.349 12.9099C39.1041 12.882 38.8696 12.7946 38.666 12.6554C38.4625 12.5161 38.2959 12.3292 38.1807 12.1108C38.1695 12.0898 38.1558 12.0696 38.1429 12.0486L38.1332 12.0333C38.1123 12.0002 38.0897 11.9687 38.0655 11.9372C38.0567 11.9251 38.047 11.913 38.0373 11.9017L37.9954 11.8541C37.9737 11.8315 37.9519 11.8097 37.9286 11.7879L37.8915 11.7564C37.8673 11.7362 37.8432 11.7169 37.8174 11.6983C37.8117 11.6983 37.8069 11.6902 37.8021 11.687L37.7876 11.6781C37.5888 11.5453 37.3553 11.4746 37.1164 11.4747H35.2005C34.804 11.4757 34.419 11.6083 34.1055 11.8517L30.7982 14.417L31.0165 13.1569C31.0803 12.78 31.0205 12.3926 30.8463 12.0526C30.672 11.7126 30.3925 11.4382 30.0497 11.2705C29.7258 11.1088 29.4534 10.8597 29.2633 10.5512C29.0733 10.2427 28.9731 9.88705 28.9741 9.5245L28.9749 6.59758Z" fill="black"/>
<path d="M36.907 8.81256C37.0064 8.81272 37.1037 8.78332 37.1865 8.72807C37.2693 8.67282 37.3338 8.59421 37.372 8.50218C37.4102 8.41016 37.4203 8.30886 37.401 8.2111C37.3816 8.11334 37.3338 8.02351 37.2636 7.95299C37.1933 7.88247 37.1037 7.83441 37.0061 7.81491C36.9086 7.79541 36.8075 7.80534 36.7156 7.84344C36.6237 7.88154 36.5451 7.9461 36.4898 8.02895C36.4345 8.1118 36.405 8.20921 36.405 8.30887C36.405 8.44232 36.4579 8.57031 36.552 8.66475C36.6461 8.75919 36.7738 8.81235 36.907 8.81256Z" fill="black"/>
<path d="M34.4939 8.81256C34.5934 8.81272 34.6906 8.78332 34.7734 8.72807C34.8562 8.67282 34.9208 8.59421 34.9589 8.50218C34.9971 8.41016 35.0072 8.30886 34.9879 8.2111C34.9686 8.11334 34.9208 8.02351 34.8505 7.95299C34.7802 7.88247 34.6906 7.83441 34.5931 7.81491C34.4955 7.79541 34.3944 7.80534 34.3025 7.84344C34.2106 7.88154 34.132 7.9461 34.0767 8.02895C34.0214 8.1118 33.9919 8.20921 33.9919 8.30887C33.9919 8.44232 34.0448 8.57031 34.1389 8.66475C34.233 8.75919 34.3607 8.81235 34.4939 8.81256Z" fill="black"/>
<path d="M32.0784 8.81257C32.1779 8.81257 32.2751 8.78302 32.3578 8.72768C32.4404 8.67233 32.5049 8.59367 32.5429 8.50163C32.581 8.40959 32.5909 8.30831 32.5715 8.2106C32.5521 8.1129 32.5043 8.02315 32.4339 7.95271C32.3636 7.88226 32.274 7.83429 32.1765 7.81485C32.079 7.79542 31.9779 7.80539 31.886 7.84352C31.7942 7.88164 31.7157 7.9462 31.6604 8.02903C31.6052 8.11187 31.5757 8.20925 31.5757 8.30887C31.5756 8.37505 31.5885 8.44059 31.6137 8.50175C31.639 8.56291 31.676 8.61848 31.7227 8.66527C31.7694 8.71207 31.8249 8.74916 31.8859 8.77444C31.947 8.79972 32.0124 8.81267 32.0784 8.81257Z" fill="black"/>
<path d="M13.2196 47.3597C10.3235 49.5135 7.23756 51.3983 4 52.9908L4.28522 53.5704C7.55756 51.9599 10.6769 50.0546 13.6047 47.878C16.5951 45.6581 19.3615 43.1506 21.8646 40.3912L21.3861 39.9585C18.9114 42.6865 16.1762 45.1654 13.2196 47.3597Z" fill="black"/>
<path d="M38.4684 47.878C38.8245 48.1436 39.1935 48.41 39.5545 48.6691L39.9275 48.1428C39.5674 47.8861 39.2024 47.6229 38.8543 47.3598C35.9317 45.1776 33.2424 42.6981 30.8296 39.9609L30.3462 40.388C32.7885 43.1586 35.5104 45.6687 38.4684 47.878Z" fill="black"/>
<path d="M26.8132 39.781H28.3505C28.5242 39.7808 28.6906 39.7115 28.8134 39.5885C28.9362 39.4655 29.0053 39.2987 29.0055 39.1247V34.7133C29.0055 34.5392 28.9365 34.3722 28.8137 34.249C28.6909 34.1258 28.5243 34.0565 28.3505 34.0563H26.6585C29.5751 29.1558 31.446 23.6684 32.0841 18.1479L31.4435 18.0737C30.8175 23.4924 28.9805 28.8805 26.126 33.6963C23.2907 29.2365 21.3087 24.5038 20.2194 19.6219C19.699 17.2858 19.5233 15.3033 19.682 13.563C19.8827 11.3723 20.5997 9.60288 21.8735 8.15476C23.1256 6.73086 24.9134 5.94545 26.6561 6.05603L26.6964 5.41027C24.7571 5.28838 22.7727 6.15451 21.3901 7.72694C20.0414 9.26063 19.251 11.2036 19.0407 13.5033C18.8747 15.3114 19.0552 17.3585 19.591 19.7623C20.6964 24.7218 22.7139 29.5295 25.5886 34.0555H23.949C23.7753 34.0559 23.6088 34.1253 23.486 34.2484C23.3632 34.3716 23.2942 34.5385 23.294 34.7125V39.1223C23.2942 39.2963 23.3633 39.4631 23.4861 39.5861C23.6088 39.7091 23.7753 39.7783 23.949 39.7785H25.4863L22.8339 54.6819C22.8067 54.8361 22.8353 54.995 22.9145 55.1299L25.5854 59.6777C25.6433 59.7759 25.7257 59.8573 25.8247 59.9139C25.9236 59.9705 26.0355 60.0002 26.1493 60.0002C26.2632 60.0002 26.3751 59.9705 26.474 59.9139C26.5729 59.8573 26.6554 59.7759 26.7133 59.6777L29.3834 55.1299C29.4625 54.9952 29.4911 54.8367 29.464 54.6827L26.8132 39.781ZM23.9353 39.1231V34.7133C23.9352 34.7119 23.9354 34.7104 23.9359 34.7091C23.9363 34.7077 23.9371 34.7065 23.9381 34.7054C23.939 34.7043 23.9402 34.7035 23.9416 34.7029C23.9429 34.7023 23.9443 34.702 23.9458 34.702H28.3505C28.3519 34.702 28.3534 34.7023 28.3547 34.7029C28.356 34.7035 28.3572 34.7043 28.3582 34.7054C28.3592 34.7065 28.3599 34.7077 28.3604 34.7091C28.3609 34.7104 28.3611 34.7119 28.361 34.7133V39.1231C28.361 39.1259 28.3599 39.1285 28.3579 39.1305C28.3559 39.1325 28.3533 39.1336 28.3505 39.1336H23.949C23.9474 39.1341 23.9457 39.1342 23.944 39.1339C23.9423 39.1337 23.9407 39.133 23.9394 39.1319C23.938 39.1309 23.937 39.1296 23.9363 39.128C23.9355 39.1265 23.9352 39.1248 23.9353 39.1231ZM28.8259 54.8022L26.159 59.3508C26.1581 59.3523 26.1568 59.3535 26.1552 59.3544C26.1537 59.3552 26.1519 59.3557 26.1501 59.3557C26.1484 59.3557 26.1466 59.3552 26.1451 59.3544C26.1435 59.3535 26.1422 59.3523 26.1413 59.3508L23.4688 54.7949L26.1397 39.7874C26.1402 39.7851 26.1416 39.783 26.1435 39.7815C26.1454 39.7801 26.1477 39.7793 26.1501 39.7794C26.1526 39.7795 26.155 39.7804 26.1569 39.782C26.1588 39.7836 26.1601 39.7858 26.1606 39.7882L28.8307 54.7949C28.8309 54.7975 28.8304 54.8 28.8291 54.8022H28.8259Z" fill="black"/>
</svg>
