<svg width="70" height="64" viewBox="0 0 70 64" fill="none" xmlns="http://www.w3.org/2000/svg">
<path d="M50.4766 20.2563H35.4592V20.9534H50.4766V20.2563Z" fill="black"/>
<path d="M50.4766 30.0625H35.4592V30.7596H50.4766V30.0625Z" fill="black"/>
<path d="M50.4776 39.8682H38.7422V40.5652H50.4776V39.8682Z" fill="black"/>
<path d="M50.4774 49.6738H46.561V50.3709H50.4774V49.6738Z" fill="black"/>
<path d="M36.643 13.3265H53.1696C53.6322 13.326 54.0757 13.1388 54.4028 12.8059C54.7298 12.473 54.9138 12.0216 54.9142 11.5507V6.4657C54.9138 5.99488 54.7298 5.54348 54.4028 5.21056C54.0757 4.87764 53.6322 4.6904 53.1696 4.68994H36.643C36.1805 4.6904 35.737 4.87764 35.4099 5.21056C35.0828 5.54348 34.8989 5.99488 34.8984 6.4657V11.5507C34.8989 12.0216 35.0828 12.473 35.4099 12.8059C35.737 13.1388 36.1805 13.326 36.643 13.3265ZM35.5833 6.4657C35.5835 6.17968 35.6952 5.90544 35.8939 5.7032C36.0926 5.50095 36.362 5.38723 36.643 5.387H53.1696C53.4506 5.38723 53.7201 5.50095 53.9188 5.7032C54.1175 5.90544 54.2292 6.17968 54.2294 6.4657V11.5507C54.2292 11.8368 54.1175 12.111 53.9188 12.3132C53.7201 12.5155 53.4506 12.6292 53.1696 12.6294H36.643C36.362 12.6292 36.0926 12.5155 35.8939 12.3132C35.6952 12.111 35.5835 11.8368 35.5833 11.5507V6.4657Z" fill="black"/>
<path d="M53.6516 21.7513V22.4161C53.6521 22.7915 53.7988 23.1514 54.0595 23.4168C54.3203 23.6822 54.6739 23.8316 55.0427 23.832H58.5293C58.8981 23.8316 59.2516 23.6822 59.5124 23.4168C59.7732 23.1514 59.9199 22.7915 59.9203 22.4161V19.3203H59.2355V22.4161C59.2353 22.6067 59.1608 22.7894 59.0284 22.9242C58.896 23.0589 58.7165 23.1347 58.5293 23.135H55.0427C54.8554 23.1347 54.6759 23.0589 54.5435 22.9242C54.4111 22.7894 54.3367 22.6067 54.3364 22.4161V21.7513H53.6516Z" fill="black"/>
<path d="M53.6516 18.6146H54.3364C54.3367 18.4241 54.4111 18.2414 54.5435 18.1066C54.6759 17.9718 54.8554 17.896 55.0427 17.8958H58.228V17.1987H55.0427C54.6739 17.1992 54.3203 17.3485 54.0595 17.614C53.7988 17.8794 53.6521 18.2393 53.6516 18.6146Z" fill="black"/>
<path d="M59.9205 32.097V28.5098C59.9198 28.1345 59.773 27.7749 59.5123 27.5096C59.2515 27.2444 58.8981 27.0952 58.5295 27.0947H55.3245V27.7918H58.532C58.7191 27.792 58.8985 27.8677 59.0309 28.0023C59.1632 28.1368 59.2378 28.3193 59.2383 28.5098V32.097H59.9205Z" fill="black"/>
<path d="M53.6516 28.8135V32.3118C53.6521 32.6871 53.7988 33.0469 54.0596 33.3122C54.3204 33.5775 54.674 33.7266 55.0427 33.7269H58.2853V33.0298H55.0427C54.8556 33.0296 54.6762 32.9539 54.5438 32.8193C54.4115 32.6847 54.3369 32.5023 54.3364 32.3118V28.8135H53.6516Z" fill="black"/>
<path d="M55.112 53.3386H58.5995C58.9682 53.3384 59.3218 53.1892 59.5826 52.9239C59.8434 52.6587 59.9901 52.2989 59.9905 51.9236V48.122C59.9901 47.7466 59.8434 47.3867 59.5826 47.1213C59.3218 46.8558 58.9683 46.7065 58.5995 46.7061H55.112C54.7432 46.7065 54.3897 46.8558 54.1289 47.1213C53.8681 47.3867 53.7214 47.7466 53.7209 48.122V51.9236C53.7214 52.2989 53.8681 52.6587 54.1289 52.9239C54.3897 53.1892 54.7433 53.3384 55.112 53.3386ZM54.4058 48.122C54.406 47.9314 54.4805 47.7487 54.6129 47.6139C54.7453 47.4792 54.9248 47.4033 55.112 47.4031H58.5995C58.7867 47.4033 58.9662 47.4792 59.0986 47.6139C59.231 47.7487 59.3055 47.9314 59.3057 48.122V51.9236C59.3055 52.1141 59.231 52.2967 59.0986 52.4313C58.9661 52.5659 58.7866 52.6415 58.5995 52.6415H55.112C54.9248 52.6415 54.7453 52.5659 54.6129 52.4313C54.4805 52.2967 54.406 52.1141 54.4058 51.9236V48.122Z" fill="black"/>
<path d="M53.6516 42.1179C53.6516 42.4935 53.7981 42.8537 54.059 43.1194C54.3198 43.3851 54.6737 43.5344 55.0427 43.5347H58.5293C58.898 43.5344 59.2516 43.3853 59.5124 43.12C59.7732 42.8547 59.9199 42.4949 59.9203 42.1196V38.3163C59.9199 37.9409 59.7732 37.581 59.5124 37.3156C59.2516 37.0502 58.8981 36.9009 58.5293 36.9004H55.0427C54.6739 36.9009 54.3203 37.0502 54.0595 37.3156C53.7988 37.581 53.6521 37.9409 53.6516 38.3163V42.1179ZM54.3364 38.3163C54.3367 38.1257 54.4111 37.943 54.5435 37.8083C54.6759 37.6735 54.8554 37.5977 55.0427 37.5974H58.5293C58.7165 37.5977 58.896 37.6735 59.0284 37.8083C59.1608 37.943 59.2353 38.1257 59.2355 38.3163V42.1179C59.2351 42.3083 59.1605 42.4908 59.0281 42.6254C58.8958 42.7599 58.7164 42.8356 58.5293 42.8358H55.0427C54.8556 42.8356 54.6762 42.7599 54.5438 42.6254C54.4115 42.4908 54.3369 42.3083 54.3364 42.1179V38.3163Z" fill="black"/>
<path d="M59.4051 7.2483H56.7856V7.94535H59.4051C60.9738 7.9472 62.4778 8.58231 63.587 9.71137C64.6962 10.8404 65.3202 12.3712 65.322 13.9679V53.2194C65.322 53.3117 65.322 53.4041 65.3152 53.4956C65.3152 53.5182 65.3152 53.5409 65.3152 53.5635C65.31 53.6507 65.304 53.7378 65.2946 53.8249V53.8328C65.2844 53.9292 65.2724 54.025 65.2587 54.1203C65.2582 54.1296 65.2582 54.1389 65.2587 54.1482C65.0383 55.566 64.3285 56.8574 63.2567 57.7904C62.1849 58.7234 60.8214 59.2368 59.4111 59.2385L46.913 59.2995C46.8242 53.7297 44.6472 48.4051 40.8278 44.4155C37.0083 40.426 31.8352 38.0732 26.3673 37.8387C29.7016 32.4914 32.0403 26.8174 33.3243 20.9673C33.9475 18.125 34.1572 15.7036 33.9646 13.5663C33.7198 10.8495 32.8013 8.55441 31.2339 6.74554C29.729 5.00289 27.6111 4 25.4984 4H25.4856C23.3712 4 21.2534 5.00638 19.7502 6.74467C18.1828 8.55441 17.2677 10.8495 17.0194 13.5663C16.8268 15.7036 17.0365 18.125 17.6597 20.9673C18.9438 26.8182 21.2842 32.4914 24.6176 37.8379C19.077 38.0568 13.835 40.4511 9.99112 44.5185C6.1472 48.5859 4.00003 54.0103 4 59.6541H4.68483C4.67112 54.1937 6.74844 48.9428 10.4759 45.0158C13.1039 45.9185 15.4238 46.3708 17.4209 46.3708C19.561 46.3708 21.3261 45.8541 22.7103 44.8215C24.318 43.6217 25.0884 41.9627 25.4574 40.5991C25.8272 41.9627 26.5976 43.6217 28.2052 44.8215C29.5894 45.8488 31.3554 46.3655 33.4955 46.3655C35.4909 46.3655 37.8082 45.9142 40.4294 45.0132C44.1553 48.941 46.2313 54.1917 46.217 59.6515V60L59.4 59.9355C60.4474 59.9363 61.4797 59.6817 62.4106 59.1932C63.3382 58.7111 64.14 58.0118 64.7502 57.1528C65.3604 56.2937 65.7615 55.2995 65.9204 54.2519L65.9255 54.2214C65.9409 54.1151 65.9546 54.0079 65.9658 53.9007V53.892C65.976 53.7944 65.9829 53.696 65.988 53.5975C65.988 53.5722 65.988 53.547 65.9923 53.5217C65.9923 53.4189 66 53.3161 66 53.2133V13.9679C65.998 12.1876 65.3027 10.4807 64.0666 9.22119C62.8304 7.96166 61.1542 7.25221 59.4051 7.2483ZM17.7008 13.6281C17.932 11.0621 18.7948 8.90033 20.2638 7.20386C21.5521 5.71564 23.325 4.81382 25.1218 4.70577C25.2459 4.69793 25.3692 4.69445 25.4933 4.69357C25.6174 4.6927 25.7416 4.69793 25.8648 4.70577C27.6625 4.81382 29.4353 5.71564 30.7237 7.20386C32.1926 8.90033 33.0547 11.0621 33.2858 13.6281C33.4715 15.6923 33.267 18.0431 32.6592 20.8131C31.37 26.6867 29.0013 32.3816 25.62 37.7394H25.3709C21.9861 32.3816 19.6175 26.6867 18.3283 20.8131C17.7205 18.0431 17.5151 15.6923 17.7008 13.6281ZM22.3003 44.2578C19.864 46.0719 16.0692 46.139 11.0161 44.4599C14.7925 40.721 19.8318 38.5953 25.0995 38.5192C25.0413 39.5265 24.6664 42.496 22.3003 44.2578ZM28.6153 44.2578C26.2483 42.496 25.876 39.5248 25.816 38.5192C31.0811 38.5985 36.1169 40.7249 39.891 44.4626C34.8421 46.139 31.0507 46.071 28.6161 44.2578H28.6153Z" fill="black"/>
<path d="M56.3097 21.416L53.1466 19.0399L52.74 19.6001L56.456 22.3927L60.0694 17.3678L59.5172 16.9565L56.3097 21.416Z" fill="black"/>
<path d="M57.247 30.4022L58.7887 28.5907L58.2708 28.1342L56.7805 29.8855L54.054 26.8638L53.5498 27.3352L56.3293 30.4153L54.7833 32.2311L55.3012 32.6877L56.795 30.932L59.6131 34.0548L60.1173 33.5834L57.247 30.4022Z" fill="black"/>
</svg>
