<svg width="58" height="64" viewBox="0 0 58 64" fill="none" xmlns="http://www.w3.org/2000/svg">
<path d="M30.1084 39.0746C29.8979 38.7661 29.6911 38.4562 29.4881 38.145C32.8954 32.506 35.0839 26.1659 35.8201 19.7862L35.1797 19.7119C34.4653 25.901 32.3605 32.0545 29.0983 37.5425C25.8634 32.4543 23.596 27.0592 22.3515 21.4759C21.7594 18.8162 21.5597 16.5597 21.7409 14.5777C21.9665 12.1135 22.8066 10.0379 24.2379 8.40802C25.6693 6.77818 27.7112 5.8841 29.7024 6.00848L29.7435 5.36236C27.5533 5.22506 25.3133 6.20313 23.7538 7.97996C22.2299 9.7148 21.3374 11.914 21.0957 14.522C20.9088 16.5718 21.1126 18.8938 21.72 21.6196C23.0015 27.3741 25.356 32.9268 28.7213 38.1571C25.1771 43.5983 20.3837 48.5985 14.4714 53.0179C11.182 55.4663 7.67703 57.6092 4 59.4202L4.28514 60.0001C7.99785 58.1724 11.537 56.0097 14.8588 53.5389C20.7453 49.1339 25.5356 44.1604 29.1104 38.7451C29.2645 38.9788 29.4202 39.2111 29.5775 39.4421C33.2385 44.8025 37.8016 49.5434 43.138 53.5348C46.4593 56.0065 49.9985 58.1692 53.7116 59.9961L54 59.421C50.3223 57.6112 46.8173 55.4682 43.5286 53.0187C38.2438 49.0685 33.7306 44.3777 30.1084 39.0746Z" fill="black"/>
<path d="M33.5488 9.36365C33.547 10.0223 33.7532 10.6646 34.138 11.1984C34.5228 11.7322 35.0663 12.1301 35.6906 12.335V14.4624H35.2628V15.1085H36.7627V14.4624H36.335V12.335C36.9592 12.1301 37.5027 11.7322 37.8875 11.1984C38.2723 10.6646 38.4786 10.0223 38.4768 9.36365C38.4768 9.21963 38.5338 9.0815 38.6352 8.97959C38.7367 8.87768 38.8744 8.82032 39.018 8.8201H39.3507V8.17398H39.018C38.7036 8.17441 38.4021 8.29991 38.1798 8.52295C37.9575 8.74599 37.8326 9.04834 37.8324 9.36365C37.8337 9.84936 37.6924 10.3247 37.4262 10.7304C37.1599 11.1362 36.7804 11.4544 36.335 11.6453V8.81849H36.9342V8.17236H35.0913V8.81849H35.6906V11.6453C35.2451 11.4544 34.8656 11.1362 34.5994 10.7304C34.3331 10.3247 34.1918 9.84936 34.1932 9.36365C34.1929 9.04834 34.068 8.74599 33.8457 8.52295C33.6234 8.29991 33.3219 8.17441 33.0075 8.17398H32.6748V8.8201H33.0075C33.1511 8.82032 33.2888 8.87768 33.3903 8.97959C33.4918 9.0815 33.5488 9.21963 33.5488 9.36365Z" fill="black"/>
<path d="M33.5139 18.2589C34.3124 18.5499 35.1556 18.6989 36.0053 18.6991C37.7458 18.6957 39.4291 18.0755 40.7576 16.9481L50.3301 26.4832L50.7844 26.0253L41.2329 16.5095C42.3452 15.3783 43.062 13.9161 43.2759 12.342C43.4898 10.768 43.1894 9.16684 42.4195 7.7784C41.6497 6.38996 40.4519 5.28899 39.0056 4.64043C37.5594 3.99186 35.9424 3.83062 34.3971 4.18084C32.8517 4.53107 31.4611 5.37391 30.4336 6.58312C29.4061 7.79232 28.797 9.30278 28.6976 10.8882C28.5981 12.4737 29.0136 14.0488 29.8819 15.3776C30.7502 16.7063 32.0245 17.7173 33.5139 18.2589ZM29.7232 9.05973C30.1743 7.81375 30.9837 6.72984 32.049 5.94499C33.1144 5.16014 34.3878 4.7096 35.7085 4.6503C37.0291 4.59101 38.3377 4.92562 39.4687 5.61186C40.5998 6.29809 41.5025 7.30514 42.0628 8.5057C42.6232 9.70626 42.816 11.0464 42.6168 12.3569C42.4177 13.6673 41.8356 14.8891 40.9441 15.8678C40.0526 16.8466 38.8917 17.5383 37.6082 17.8557C36.3246 18.173 34.9761 18.1017 33.733 17.6507C32.9037 17.3555 32.1411 16.898 31.4895 16.3049C30.8379 15.7117 30.3103 14.9948 29.9373 14.1956C29.5643 13.3963 29.3533 12.5308 29.3165 11.6492C29.2798 10.7675 29.418 9.88736 29.7232 9.05973Z" fill="black"/>
</svg>
