<svg width="53" height="64" viewBox="0 0 53 64" fill="none" xmlns="http://www.w3.org/2000/svg">
<path d="M27.1348 28.2357L27.6264 28.5831C30.3005 24.6203 32.5106 20.5063 34.1955 16.3533L33.6433 16.1196C31.9749 20.2329 29.785 24.3088 27.1348 28.2357Z" fill="black"/>
<path d="M20.2078 37.9445L19.7722 37.5283C12.9057 45.0111 6.13715 49.6841 4.2259 50.9394C4.13219 51.0008 4.06169 51.0929 4.02597 51.2007C3.99024 51.3084 3.99141 51.4254 4.02929 51.5324C4.06716 51.6393 4.13949 51.73 4.23441 51.7894C4.32933 51.8488 4.4412 51.8735 4.55167 51.8595L11.7289 50.9501L7.10847 59.2499C7.05371 59.3486 7.03329 59.4633 7.05053 59.5753C7.06778 59.6874 7.12167 59.7902 7.20342 59.8669C7.28517 59.9436 7.38996 59.9897 7.50067 59.9978C7.61139 60.0058 7.7215 59.9753 7.81305 59.9111C12.1832 56.8462 16.2231 53.6431 19.8222 50.3965L19.4262 49.9384C15.9512 53.0735 12.0614 56.1667 7.85937 59.1369L12.2833 51.1898C12.3351 51.0972 12.3606 50.9917 12.3569 50.8851C12.3533 50.7785 12.3207 50.675 12.2627 50.5863C12.2048 50.4976 12.1238 50.4271 12.0288 50.3828C11.9339 50.3385 11.8288 50.3221 11.7252 50.3354L4.93945 51.1959C7.65016 49.3794 13.812 44.9127 20.2078 37.9445Z" fill="black"/>
<path d="M22.6265 46.927L23.0411 47.3668C23.9549 46.4688 24.8508 45.5526 25.7033 44.6447L25.2722 44.2217C24.4249 45.1242 23.535 46.0344 22.6265 46.927Z" fill="black"/>
<path d="M40.0138 20.9335L39.4235 20.8403C39.4235 20.8541 39.1993 22.2598 38.2818 24.6795C37.4375 26.9152 35.7997 30.494 32.8335 34.8623L33.3244 35.2105C39.0895 26.7212 39.9779 21.1656 40.0138 20.9335Z" fill="black"/>
<path d="M48.7739 50.9393C46.7805 49.6305 41.5159 45.954 35.6903 40.1021C28.2933 32.672 22.7979 24.602 19.3557 16.1196L18.8036 16.3533C22.2772 24.9135 27.8174 33.0499 35.2704 40.5374C40.7897 46.08 45.8129 49.6886 48.0604 51.1958L41.2746 50.3368C41.171 50.3235 41.0659 50.3399 40.971 50.3842C40.876 50.4285 40.795 50.499 40.7371 50.5877C40.6791 50.6764 40.6465 50.7799 40.6429 50.8865C40.6392 50.9931 40.6647 51.0986 40.7165 51.1912L45.1404 59.1368C38.6401 54.5417 32.9444 49.697 28.2104 44.7316C24.3505 40.6847 21.1168 36.5455 18.5989 32.4345C14.3139 25.4381 13.5831 20.8827 13.5764 20.8399L13.2813 20.8865L12.9824 20.9331C13.0108 21.1209 13.7296 25.6236 18.0631 32.7155C20.6035 36.8685 23.8612 41.0451 27.7531 45.1301C32.6097 50.2314 38.4772 55.2045 45.1838 59.911C45.2752 59.9756 45.3855 60.0065 45.4964 59.9986C45.6073 59.9908 45.7123 59.9446 45.7941 59.8677C45.876 59.7908 45.9298 59.6878 45.9468 59.5755C45.9638 59.4632 45.9429 59.3484 45.8876 59.2498L41.2701 50.95L48.4481 51.8593C48.5586 51.8734 48.6705 51.8487 48.7654 51.7893C48.8603 51.7299 48.9326 51.6392 48.9705 51.5322C49.0084 51.4253 49.0096 51.3083 48.9738 51.2006C48.9381 51.0928 48.8676 51.0007 48.7739 50.9393Z" fill="black"/>
<path d="M13.2935 19.3771C13.3889 19.4372 13.5006 19.4648 13.6124 19.4557C13.7241 19.4466 13.8302 19.4015 13.9151 19.3268C19.2327 14.6759 24.7251 12.9755 30.2392 14.2751C34.6856 15.3227 37.8805 18.0783 39.0483 19.2145C39.131 19.2949 39.2368 19.3459 39.3501 19.3599C39.4634 19.374 39.5781 19.3503 39.6772 19.2924C39.7763 19.2346 39.8545 19.1456 39.9001 19.0387C39.9458 18.9318 39.9565 18.8127 39.9307 18.6991L37.7019 8.88134C37.6122 8.49205 37.4477 8.12488 37.2178 7.80122C36.988 7.47756 36.6974 7.20388 36.363 6.99612C32.3567 4.5161 28.1972 3.56853 23.9936 4.18013C21.3854 4.57134 18.888 5.5233 16.6662 6.97322C16.0325 7.38987 15.5808 8.04071 15.4057 8.78971L13.0544 18.7877C13.028 18.8992 13.037 19.0163 13.0799 19.1222C13.1229 19.2282 13.1977 19.3174 13.2935 19.3771ZM15.9833 8.93249C16.1228 8.33604 16.4826 7.81784 16.9875 7.48632C19.1371 6.08334 21.5536 5.16257 24.0773 4.78487C28.1404 4.19312 32.1691 5.1132 36.0522 7.51839C36.3186 7.68372 36.5501 7.90161 36.7333 8.15933C36.9165 8.41706 37.0477 8.70948 37.1191 9.01954L39.2978 18.6166C37.9791 17.3667 34.7708 14.7164 30.373 13.6803C27.8238 13.0752 25.1697 13.1043 22.6338 13.765C19.6055 14.5439 16.5952 16.213 13.6828 18.7281L15.9833 8.93249Z" fill="black"/>
</svg>
