<svg width="68" height="64" viewBox="0 0 68 64" fill="none" xmlns="http://www.w3.org/2000/svg">
<path d="M28.3491 37.9931L20.4828 27.1442C20.1611 26.7002 19.896 26.2179 19.6935 25.7085L19.0747 25.9529C19.2976 26.5135 19.5896 27.0441 19.9438 27.5324L27.8101 38.383L28.3491 37.9931Z" fill="black"/>
<path d="M46.4753 17.471L46.0203 17.1384C45.3132 16.6266 44.5122 16.259 43.663 16.0567C42.8138 15.8543 41.933 15.8211 41.0709 15.959C40.2089 16.0968 39.3824 16.4031 38.6388 16.8602C37.8951 17.3173 37.2488 17.9164 36.7368 18.6232L34.7773 21.3233C34.6895 21.4444 34.5742 21.5429 34.4409 21.6109C34.3076 21.6788 34.1601 21.7143 34.0105 21.7143C33.8609 21.7143 33.7134 21.6788 33.5801 21.6109C33.4468 21.5429 33.3315 21.4444 33.2437 21.3233L31.2892 18.6232C30.7494 17.8803 30.0618 17.257 29.2696 16.7924C28.4774 16.3277 27.5977 16.0317 26.6857 15.923L26.6075 16.5831C27.4282 16.681 28.2199 16.9474 28.9328 17.3656C29.6457 17.7837 30.2644 18.3446 30.7502 19.0131L32.7072 21.7124C32.8567 21.9186 33.053 22.0865 33.28 22.2023C33.507 22.318 33.7582 22.3784 34.013 22.3784C34.2678 22.3784 34.519 22.318 34.746 22.2023C34.9729 22.0865 35.1692 21.9186 35.3188 21.7124L37.2724 19.0139C38.2041 17.7304 39.6075 16.8693 41.1742 16.6199C42.7408 16.3705 44.3425 16.7531 45.6269 17.6838L46.0819 18.0163C47.486 19.0334 48.4286 20.566 48.7028 22.2774C48.977 23.9888 48.5602 25.7391 47.544 27.1435L47.8135 27.3388L47.544 27.1443L38.6032 39.4796C36.0448 38.2682 33.1124 38.111 30.4391 39.0418C27.7657 39.9727 25.5657 41.9169 24.314 44.455C23.0623 46.993 22.8593 49.9212 23.7487 52.6076C24.6382 55.2939 26.5488 57.523 29.0681 58.8135C31.5874 60.1041 34.5135 60.3527 37.2146 59.5057C39.9157 58.6587 42.1753 56.784 43.5056 54.2862C44.8359 51.7884 45.1302 48.868 44.3251 46.1552C43.5199 43.4424 41.6798 41.1549 39.202 39.7864L48.0846 27.5342C48.6402 26.768 49.0394 25.8998 49.2593 24.9794C49.4792 24.0589 49.5155 23.1042 49.3662 22.1697C49.2169 21.2352 48.8849 20.3393 48.3892 19.5331C47.8934 18.7268 47.2436 18.0261 46.4769 17.471H46.4753ZM44.1032 49.2012C44.1034 51.3803 43.3975 53.5009 42.0912 55.2455C40.7848 56.9901 38.9483 58.2648 36.8565 58.8789C34.7648 59.4931 32.5303 59.4135 30.4876 58.6521C28.4448 57.8907 26.7038 56.4885 25.525 54.6554C24.3462 52.8223 23.793 50.6569 23.9484 48.4833C24.1037 46.3097 24.9592 44.2449 26.3868 42.5979C27.8143 40.9509 29.7371 39.8103 31.8674 39.347C33.9977 38.8836 36.2208 39.1223 38.204 40.0274L35.1899 44.1841C35.0561 44.3706 34.8796 44.5224 34.6752 44.6266C34.4707 44.7309 34.2442 44.7847 34.0147 44.7835C33.7848 44.7847 33.5579 44.7309 33.3532 44.6265C33.1484 44.522 32.9717 44.3701 32.8378 44.1833L30.9673 41.6061L30.4283 41.996L32.2988 44.5732C32.4941 44.8454 32.7518 45.0668 33.0503 45.219C33.3489 45.3712 33.6796 45.4496 34.0147 45.4477C34.3495 45.4495 34.6799 45.371 34.9781 45.2188C35.2764 45.0666 35.5338 44.8452 35.7288 44.5732L38.8061 40.3259C40.4072 41.1909 41.7447 42.4723 42.6771 44.0346C43.6095 45.5969 44.1023 47.382 44.1032 49.2012Z" fill="black"/>
<path d="M25.5104 14.7499C25.5104 8.82255 20.6865 4 14.7548 4C11.9024 4 9.16692 5.13258 7.15 7.14858C5.13309 9.16459 4 11.8989 4 14.7499C4 17.601 5.13309 20.3353 7.15 22.3513C9.16692 24.3673 11.9024 25.4999 14.7548 25.4999C20.6857 25.4999 25.5104 20.6773 25.5104 14.7499ZM14.7548 24.8348C12.7593 24.8346 10.8087 24.243 9.14963 23.1348C7.49054 22.0266 6.19749 20.4515 5.43397 18.6087C4.67045 16.7659 4.47077 14.7382 4.86016 12.782C5.24956 10.8257 6.21055 9.02887 7.62161 7.61856C9.03268 6.20825 10.8304 5.24784 12.7876 4.85878C14.7447 4.46972 16.7733 4.66948 18.6169 5.43281C20.4604 6.19613 22.0361 7.48873 23.1447 9.14717C24.2533 10.8056 24.845 12.7554 24.845 14.7499C24.8419 17.4238 23.7779 19.9873 21.8862 21.8779C19.9946 23.7685 17.4299 24.8319 14.7548 24.8348Z" fill="black"/>
<path d="M53.241 4C47.5605 4 42.8447 8.43515 42.5054 14.0973L43.1707 14.1364C43.2983 12.0868 44.0494 10.1252 45.3236 8.51431C46.5977 6.90343 48.334 5.72026 50.2997 5.12336C52.2655 4.52646 54.3668 4.54433 56.3221 5.17458C58.2774 5.80484 59.9933 7.01737 61.2398 8.64969C62.4863 10.282 63.204 12.2562 63.2966 14.3076C63.3892 16.359 62.8523 18.3898 61.7579 20.1277C60.6635 21.8656 59.0639 23.2276 57.1733 24.0313C55.2828 24.835 53.1916 25.042 51.1801 24.6245L51.042 25.2737C52.516 25.582 54.0384 25.5773 55.5106 25.2602C56.9827 24.943 58.3718 24.3204 59.588 23.4325C60.8041 22.5447 61.8202 21.4115 62.5704 20.1063C63.3206 18.8011 63.7882 17.353 63.943 15.8557C64.0977 14.3584 63.9362 12.8452 63.4688 11.4143C63.0015 9.98334 62.2387 8.66644 61.2298 7.54884C60.221 6.43124 58.9886 5.53786 57.6124 4.92652C56.2363 4.31519 54.747 3.99954 53.241 4Z" fill="black"/>
</svg>
