<svg width="86" height="64" viewBox="0 0 86 64" fill="none" xmlns="http://www.w3.org/2000/svg">
<path d="M54.7132 31.0622C54.4642 21.003 50.3798 11.4266 43.3077 4.32062L42.9928 4L42.6778 4.31726C40.8288 6.17905 39.1688 8.22201 37.7224 10.4158C33.689 16.5437 31.4519 23.6929 31.2679 31.0432C27.1766 27.1391 22.2975 24.1699 16.9635 22.3382L16.6775 23.188C22.2147 25.0894 27.2459 28.2437 31.3848 32.4086L31.4003 32.4243C38.4513 39.4957 42.4548 49.0796 42.5443 59.102C32.5913 58.9953 23.0759 54.9649 16.0376 47.8747C8.99938 40.7845 4.99848 31.1988 4.89253 21.1723C6.55112 21.1912 8.20677 21.3182 9.84911 21.5523L9.97375 20.6645C8.1423 20.4033 6.29488 20.2721 4.44517 20.2721H4.00003V20.7205C3.99273 26.5156 5.26167 32.2401 7.7154 37.4816C10.1691 42.723 13.7466 47.3509 18.1898 51.0316C25.0514 56.7494 33.6564 59.916 42.561 60H43.4346C53.7052 59.898 63.5202 55.7133 70.7429 48.3568C77.9657 41.0003 82.0116 31.0675 82 20.7205V20.2721H81.5548C71.5607 20.245 61.9431 24.1112 54.7132 31.0622ZM69.9502 47.8623C62.93 54.9736 53.4109 59.0119 43.4557 59.102C43.5291 52.5182 45.2836 46.0642 48.5503 40.3614L47.7802 39.913C45.3482 44.1548 43.7281 48.8188 43.0039 53.6627C41.775 45.3832 37.9341 37.7218 32.0491 31.8111H32.1482C32.1901 24.3748 34.3853 17.1125 38.4646 10.9147C39.7954 8.89634 41.3114 7.00841 42.9928 5.27576C49.929 12.3897 53.8221 21.9583 53.8374 31.9299C52.6889 33.0992 51.6137 34.3392 50.6179 35.6429L51.3246 36.1899C52.3365 34.8635 53.4327 33.6045 54.6063 32.421L54.6152 32.412C61.6343 25.3004 71.1528 21.2621 81.1075 21.1723C81.018 31.201 77.0093 40.7903 69.9502 47.8623Z" fill="black"/>
</svg>
