<svg width="64" height="64" viewBox="0 0 64 64" fill="none" xmlns="http://www.w3.org/2000/svg">
<path d="M13.9644 4C11.3217 4 8.78719 5.04982 6.91851 6.91851C5.04982 8.78719 4 11.3217 4 13.9644C4 16.6071 5.04982 19.1416 6.91851 21.0103C8.78719 22.879 11.3217 23.9288 13.9644 23.9288H14.3108V13.9644H13.6181V23.2292C11.8003 23.1612 10.0427 22.5601 8.56403 21.5006C7.0854 20.4411 5.9511 18.97 5.30237 17.2706C4.65363 15.5711 4.51913 13.7184 4.9156 11.9431C5.31207 10.1678 6.22201 8.54834 7.5321 7.28637C8.84219 6.0244 10.4946 5.17568 12.2835 4.84589C14.0724 4.5161 15.9187 4.71981 17.5927 5.43166C19.2667 6.1435 20.6943 7.33203 21.6978 8.84926C22.7012 10.3665 23.2362 12.1454 23.2361 13.9644H23.9288C23.9261 11.3225 22.8754 8.78964 21.0073 6.92154C19.1392 5.05345 16.6063 4.00275 13.9644 4Z" fill="black"/>
<path d="M50.0357 4C47.3938 4.00275 44.8609 5.05345 42.9928 6.92154C41.1247 8.78964 40.074 11.3225 40.0713 13.9644V14.3108H50.0357V13.6181H40.7709C40.8389 11.8003 41.44 10.0427 42.4995 8.56403C43.559 7.0854 45.0301 5.9511 46.7295 5.30237C48.429 4.65363 50.2817 4.51913 52.057 4.9156C53.8323 5.31207 55.4518 6.22201 56.7137 7.5321C57.9757 8.84219 58.8244 10.4946 59.1542 12.2835C59.484 14.0724 59.2803 15.9187 58.5684 17.5927C57.8566 19.2667 56.6681 20.6943 55.1508 21.6978C53.6336 22.7012 51.8547 23.2362 50.0357 23.2361V23.9288C52.6784 23.9288 55.2129 22.879 57.0816 21.0103C58.9503 19.1416 60.0001 16.6071 60.0001 13.9644C60.0001 11.3217 58.9503 8.78719 57.0816 6.91851C55.2129 5.04982 52.6784 4 50.0357 4Z" fill="black"/>
<path d="M13.9644 50.382H23.2292C23.1613 52.1998 22.5601 53.9574 21.5006 55.4361C20.4411 56.9147 18.97 58.049 17.2706 58.6977C15.5712 59.3465 13.7184 59.481 11.9431 59.0845C10.1678 58.688 8.54835 57.7781 7.28638 56.468C6.02441 55.1579 5.17569 53.5055 4.8459 51.7166C4.5161 49.9277 4.71982 48.0814 5.43166 46.4074C6.14351 44.7334 7.33204 43.3058 8.84927 42.3024C10.3665 41.2989 12.1454 40.7639 13.9644 40.764V40.0713C11.9936 40.0713 10.0671 40.6557 8.42849 41.7506C6.78985 42.8455 5.51268 44.4017 4.7585 46.2225C4.00432 48.0432 3.80699 50.0467 4.19147 51.9797C4.57595 53.9126 5.52496 55.688 6.91851 57.0816C8.31206 58.4751 10.0876 59.4241 12.0205 59.8086C13.9534 60.1931 15.9569 59.9958 17.7776 59.2416C19.5984 58.4874 21.1546 57.2103 22.2495 55.5716C23.3444 53.933 23.9288 52.0065 23.9288 50.0357V49.6893H13.9644V50.382Z" fill="black"/>
<path d="M50.0357 40.0713H49.6893V50.0357H50.382V40.7709C52.1998 40.8389 53.9574 41.44 55.4361 42.4995C56.9147 43.559 58.049 45.0301 58.6977 46.7295C59.3465 48.429 59.481 50.2817 59.0845 52.057C58.688 53.8323 57.7781 55.4518 56.468 56.7137C55.1579 57.9757 53.5055 58.8244 51.7166 59.1542C49.9277 59.484 48.0814 59.2803 46.4074 58.5684C44.7334 57.8566 43.3058 56.6681 42.3024 55.1508C41.2989 53.6336 40.7639 51.8547 40.764 50.0357H40.0713C40.0713 52.0065 40.6557 53.933 41.7506 55.5716C42.8455 57.2103 44.4017 58.4874 46.2225 59.2416C48.0432 59.9958 50.0467 60.1931 51.9797 59.8086C53.9126 59.4241 55.688 58.4751 57.0816 57.0816C58.4751 55.688 59.4241 53.9126 59.8086 51.9797C60.1931 50.0467 59.9958 48.0432 59.2416 46.2225C58.4874 44.4017 57.2103 42.8455 55.5716 41.7506C53.933 40.6557 52.0065 40.0713 50.0357 40.0713Z" fill="black"/>
<path d="M14.3109 26.5229H13.6182V37.477H14.3109V26.5229Z" fill="black"/>
<path d="M37.477 13.6182H26.5229V14.3109H37.477V13.6182Z" fill="black"/>
<path d="M37.477 49.6895H26.5229V50.3821H37.477V49.6895Z" fill="black"/>
<path d="M50.3819 26.5229H49.6892V37.477H50.3819V26.5229Z" fill="black"/>
</svg>
