<svg width="54" height="64" viewBox="0 0 54 64" fill="none" xmlns="http://www.w3.org/2000/svg">
<path d="M48.8436 44.8989C48.0146 43.7089 46.7387 42.5157 45.0531 41.3521C43.2788 40.1317 41.4134 39.1962 40.2448 38.6592C41.4134 38.472 42.5602 38.0446 43.4708 37.4372C44.5337 36.729 45.8015 35.4477 45.8096 33.3638C45.8201 30.9934 43.078 29.6778 40.1746 28.2837C39.9472 28.1749 39.7181 28.0653 39.4907 27.954C38.5539 27.5078 37.5181 27.3055 36.4807 27.3663C35.4434 27.427 34.4387 27.7488 33.5614 28.3013C32.7944 28.7815 31.9338 29.1896 29.8515 28.8735C28.5256 28.6727 26.2585 27.1658 24.077 25.0322C21.7688 22.7771 20.1816 20.4571 19.83 18.8278C19.5654 17.6001 20.2332 16.7062 20.9341 15.7603L20.9518 15.7371C21.4259 15.1048 21.756 14.378 21.9195 13.6067C22.083 12.8355 22.0758 12.0382 21.8986 11.27C21.5147 9.63507 20.659 7.31989 18.7622 5.5721C16.6193 3.60344 14.5281 3.485 12.5384 5.20958C10.677 6.82772 9.852 10.6666 9.99878 13.622C10.1069 15.8011 11.0908 19.8721 13.5054 24.1752C15.4854 27.7027 19.1243 32.5604 25.2174 35.667L25.5125 35.0972C19.563 32.0642 16.0056 27.3146 14.0692 23.8638C11.7086 19.6576 10.748 15.7011 10.6432 13.5908C10.4593 9.88875 11.6715 6.81492 12.9643 5.69134C14.7095 4.17083 16.4112 4.28527 18.3194 6.04346C20.0937 7.68081 20.9002 9.86874 21.2663 11.4165C21.4224 12.0946 21.4283 12.7982 21.2836 13.4788C21.139 14.1594 20.8472 14.8008 20.4284 15.3586L20.4106 15.3818C19.6848 16.3533 18.8694 17.4537 19.1953 18.963C19.5719 20.71 21.226 23.15 23.6205 25.49C26.3779 28.1853 28.595 29.3313 29.7499 29.5065C32.0532 29.8555 33.0654 29.3697 33.9049 28.8423C34.6895 28.3483 35.588 28.0608 36.5156 28.0067C37.4432 27.9527 38.3694 28.1339 39.2068 28.5334L39.894 28.8647C42.6078 30.1676 45.1717 31.3984 45.1628 33.3646C45.1555 35.1685 44.0418 36.288 43.1086 36.9098C41.9618 37.6733 40.4053 38.1294 38.9455 38.1294C33.9735 38.1294 29.4539 37.1107 25.5117 35.1012L25.2165 35.671C29.2337 37.7189 33.8315 38.7609 38.8818 38.7697C39.2996 38.9385 42.1013 40.1029 44.6886 41.8907C46.3112 43.0111 47.5307 44.1475 48.3178 45.2734C49.267 46.6387 49.5662 47.988 49.2049 49.2836C48.963 50.1439 47.3065 50.6297 44.27 50.7241C41.3335 50.8193 37.3607 50.5592 33.1557 50.2847C27.7239 49.9294 21.5672 49.5269 16.4209 49.823C10.4407 50.1663 6.71635 51.4115 5.03481 53.6299C3.81055 55.2448 3.67183 57.3911 4.62269 60L5.22998 59.7823C4.34283 57.3527 4.4501 55.4665 5.55257 54.0148C9.08744 49.3524 22.4083 50.2231 33.1154 50.9234C37.3374 51.1994 41.3247 51.4603 44.2934 51.3643C47.7871 51.2507 49.4945 50.6601 49.83 49.4493C50.2397 47.9584 49.9082 46.4282 48.8436 44.8989Z" fill="black"/>
</svg>
