<svg width="60" height="64" viewBox="0 0 60 64" fill="none" xmlns="http://www.w3.org/2000/svg">
<path d="M53.8891 58.25L53.8475 58.2251C53.3738 57.968 52.9001 57.7109 52.4513 57.4621L52.1937 57.3128L52.1106 57.263C51.9942 57.1967 51.8779 57.1303 51.7699 57.064C51.5538 56.9396 51.3377 56.8152 51.1216 56.6908L51.0634 56.6576C50.9554 56.5912 50.8474 56.5332 50.7393 56.4668C50.2989 56.2014 49.8418 55.9277 49.3847 55.6374C49.3016 55.5877 49.2268 55.5379 49.1437 55.4882L48.9858 55.3886C48.8944 55.3306 48.8029 55.2725 48.7115 55.2145L48.6201 55.1564L48.3874 55.0071L48.0467 54.7832C47.5979 54.4846 47.1574 54.186 46.7336 53.8874L46.4095 53.6552C46.1934 53.4976 45.9773 53.3483 45.7612 53.1908C45.5452 53.0332 45.3291 52.8756 45.1213 52.718C42.2375 50.5865 39.5365 48.2227 37.0267 45.66C34.5501 43.122 32.3145 40.3602 30.3615 37.3993L30.32 37.3329L30.3116 37.3164C31.2424 35.8566 32.1151 34.3472 32.9046 32.8128L32.9461 32.7382C34.9573 28.8566 36.4616 24.7429 37.4256 20.4799C37.7414 19.0616 37.9741 17.8258 38.0821 16.4325L37.4672 16.391L37.4256 16.3744C36.4782 18.5308 33.8271 19.8246 30.8269 19.5758C27.7436 19.327 25.4499 16.6315 25.6992 13.5628C25.8987 11.141 28.0262 9.33294 30.4529 9.53199C32.3561 9.68957 33.7772 11.3566 33.6276 13.2559C33.5113 14.7405 32.2065 15.8436 30.7189 15.7275C29.5637 15.6363 28.7077 14.6244 28.7991 13.4716C28.8739 12.5841 29.6468 11.9289 30.536 12.0036C31.2092 12.0616 31.7078 12.6422 31.658 13.314C31.6164 13.8116 31.176 14.1848 30.6773 14.1434C30.3117 14.1102 30.0457 13.795 30.0706 13.4301L29.4058 13.3803C29.3476 14.1102 29.8878 14.7488 30.6191 14.8069C31.4835 14.8732 32.248 14.2346 32.3145 13.3637C32.3976 12.327 31.6247 11.423 30.5859 11.34C29.331 11.2405 28.234 12.1694 28.1343 13.4218C28.0096 14.9396 29.1398 16.2666 30.6607 16.391C32.514 16.5403 34.1346 15.1635 34.2925 13.314C34.4753 11.0498 32.7882 9.05924 30.5111 8.87678C27.7187 8.65284 25.2754 10.7263 25.0427 13.513C24.7684 16.955 27.3281 19.9656 30.7771 20.2476C31.0347 20.2725 31.2923 20.2808 31.5499 20.2808C33.9102 20.2808 36.0128 19.3934 37.2594 17.9005C37.143 18.6967 36.9768 19.4846 36.7857 20.3472C35.83 24.577 34.3257 28.6576 32.3312 32.5059L32.2896 32.5806V32.5889C31.5499 34.0154 30.7355 35.4171 29.8795 36.7773C29.0152 35.4171 28.2007 34.0071 27.4611 32.5889V32.5806L27.4195 32.5142C25.425 28.6659 23.929 24.5853 22.965 20.3554C22.35 17.6185 22.1422 15.2962 22.3334 13.2476C22.5661 10.7097 23.4387 8.56991 24.918 6.89455L24.9596 6.84479C26.2062 5.45972 27.9847 4.6718 29.8463 4.6718C31.7078 4.6718 33.4863 5.45972 34.7329 6.84479L34.7745 6.88626C35.9962 8.26303 36.8023 9.95498 37.1763 11.9123L37.8328 11.7879C37.4339 9.71446 36.5779 7.91469 35.2814 6.44668L35.2399 6.39692C33.8686 4.87085 31.9156 4 29.8629 4C27.8101 4 25.8571 4.87085 24.4775 6.39692L24.436 6.44668C22.857 8.22986 21.9345 10.5024 21.6852 13.1813C21.494 15.2962 21.7018 17.6848 22.3334 20.4882C23.2974 24.7429 24.8017 28.8649 26.8128 32.7464L26.8544 32.8211C27.6439 34.3554 28.5249 35.8732 29.464 37.3329C25.6577 43.1635 20.6048 48.513 14.8371 52.8009C14.6211 52.9585 14.4133 53.1161 14.1972 53.2737C13.9811 53.4313 13.7651 53.5806 13.549 53.7382C13.4409 53.8128 13.3329 53.8874 13.2249 53.9704C12.7844 54.2773 12.3439 54.5758 11.9118 54.8661C9.70945 56.3258 7.424 57.6611 5.06377 58.872C4.75627 59.0296 4.41553 59.2038 4 59.4028L4.29087 60C4.70641 59.7927 5.05546 59.6185 5.36295 59.4609C7.73981 58.2417 10.0502 56.8981 12.2774 55.4218C12.7179 55.1315 13.1584 54.8246 13.5988 54.5178C13.7069 54.4431 13.8232 54.3602 13.9313 54.2855C14.1474 54.128 14.3717 53.9787 14.5878 53.8211C14.8039 53.6635 15.02 53.5059 15.2361 53.3483C21.0037 49.0521 26.0732 43.7109 29.9044 37.8803C31.8658 40.8329 34.093 43.6031 36.5779 46.1327C39.1044 48.7204 41.8386 51.1007 44.7473 53.2571C44.9634 53.4147 45.1795 53.5723 45.3956 53.7299C45.6116 53.8874 45.8277 54.045 46.0521 54.1943L46.3845 54.4265C46.8084 54.7251 47.2572 55.0237 47.7142 55.3306C47.8306 55.4052 47.9469 55.4799 48.0633 55.5545L48.296 55.7038L48.3874 55.7619L48.6617 55.936L48.8196 56.0355C48.9027 56.0853 48.9858 56.1434 49.0689 56.1931C49.526 56.4834 49.9914 56.7654 50.4318 57.0308L50.756 57.2216L50.8141 57.2547C51.0302 57.3792 51.2463 57.5118 51.4624 57.6363L51.8114 57.8353L51.8945 57.8851L52.1605 58.0344C52.6092 58.2915 53.083 58.5486 53.565 58.8057L53.6065 58.8306L53.9223 58.9964C54.4875 59.295 55.0941 59.6019 55.7091 59.9088L56 59.3116C55.3933 59.013 54.795 58.7062 54.2298 58.4076L53.8891 58.25Z" fill="black"/>
</svg>
