<svg width="66" height="64" viewBox="0 0 66 64" fill="none" xmlns="http://www.w3.org/2000/svg">
<path d="M42.2157 42.2696C45.1655 37.6501 47.1333 33.1904 48.0645 29.0104C48.3517 27.7737 48.5328 26.5146 48.6058 25.2469L47.9717 25.2159C47.9004 26.4475 47.7241 27.6707 47.4447 28.8721C46.5413 32.9297 44.6384 37.2638 41.7886 41.761C39.0504 37.4307 37.1856 33.0974 36.241 28.8721C35.7655 26.7261 35.6014 24.9059 35.7472 23.3083C35.9311 21.2982 36.5881 19.6752 37.7555 18.3478C38.762 17.2009 40.1481 16.5078 41.5508 16.4243C41.6467 16.4188 41.7434 16.4156 41.8401 16.4156H41.9645H41.9867C42.0364 16.4156 42.0863 16.418 42.1365 16.4228C42.3359 16.4347 42.5344 16.4589 42.7309 16.4951L42.8442 15.8696C42.5132 15.8084 42.1774 15.7778 41.8409 15.7782H41.7957H41.6792C40.0545 15.8282 38.441 16.6064 37.2847 17.9242C36.0436 19.3366 35.3153 21.1273 35.122 23.2495C34.9698 24.9139 35.1346 26.7984 35.6276 29.0104C36.6024 33.3867 38.5488 37.8727 41.4129 42.3467C40.5627 43.6397 39.6417 44.8845 38.6542 46.0753C37.761 45.4887 36.8813 44.8743 36.0389 44.2472C31.5889 40.9184 27.6795 36.7758 24.721 32.2628C27.67 27.6433 29.6346 23.1835 30.569 19.0035C30.8566 17.7669 31.0377 16.5078 31.1103 15.2401L30.4762 15.2091C30.4053 16.4406 30.2292 17.6638 29.95 18.8652C29.0458 22.9228 27.1437 27.257 24.2931 31.7541C21.5549 27.4239 19.6902 23.0905 18.7455 18.8652C18.27 16.7192 18.1059 14.8991 18.2525 13.3015C18.4364 11.2914 19.0926 9.66834 20.26 8.34098C21.2673 7.19405 22.6526 6.50017 24.0553 6.41671C24.1766 6.40956 24.2994 6.40718 24.423 6.40877C24.4936 6.40877 24.5641 6.40877 24.6346 6.41671C24.834 6.42866 25.0325 6.45281 25.229 6.48904L25.3431 5.86352C25.0603 5.81152 24.7739 5.78175 24.4864 5.7745C22.7588 5.72681 21.0129 6.51925 19.7837 7.92052C18.5418 9.33292 17.8143 11.1237 17.6201 13.2458C17.468 14.9102 17.6336 16.7947 18.1257 19.0067C19.1005 23.383 21.0469 27.869 23.9111 32.3431C21.058 36.6995 17.204 40.7054 12.4648 44.2503C9.80561 46.2294 6.97231 47.9615 4 49.4254L4.27976 49.9961C7.28698 48.5151 10.1534 46.7624 12.8436 44.7598C17.5575 41.234 21.4028 37.2551 24.2867 32.9265L24.3382 32.847C27.3181 37.3322 31.2212 41.4422 35.6521 44.7566C36.4851 45.3798 37.3537 45.987 38.2357 46.5681C35.9002 49.3118 33.1312 51.8854 29.9643 54.254C27.3052 56.2332 24.4719 57.9654 21.4995 59.4291L21.78 59.9998C24.787 58.5187 27.6532 56.766 30.3431 54.7635C35.0578 51.2376 38.9022 47.2588 41.787 42.9301V42.9341L41.8385 42.8546C44.8199 47.3382 48.723 51.4491 53.1548 54.7635C55.8452 56.7665 58.7122 58.5192 61.7202 59.9998L62 59.4291C59.0267 57.966 56.1928 56.2338 53.5336 54.254C49.0836 50.9253 45.1742 46.7842 42.2157 42.2696Z" fill="black"/>
<path d="M45.4525 21.7339C45.6674 21.8387 45.8427 22.0103 45.9525 22.2231C46.0623 22.4359 46.1007 22.6785 46.062 22.915L45.8321 24.2463C45.8114 24.3657 45.8271 24.4885 45.8772 24.5987C45.9274 24.7089 46.0097 24.8013 46.1132 24.8637C46.2167 24.9262 46.3366 24.9557 46.4572 24.9485C46.5777 24.9413 46.6933 24.8977 46.7887 24.8234L50.1133 22.241C50.3108 22.0873 50.5535 22.0034 50.8036 22.0025H54.0236C54.6998 22.0019 55.3482 21.7322 55.8265 21.2527C56.3048 20.7732 56.5738 20.123 56.5747 19.4448V16.5675C56.5738 15.8893 56.3048 15.2391 55.8265 14.7596C55.3482 14.2801 54.6998 14.0104 54.0236 14.0098H46.5953C45.9196 14.0112 45.272 14.2813 44.7944 14.7607C44.3169 15.2401 44.0482 15.8898 44.0474 16.5675V19.4464C44.0453 19.9212 44.1759 20.3871 44.4242 20.7914C44.6725 21.1957 45.0287 21.5221 45.4525 21.7339ZM44.679 16.5675C44.6796 16.058 44.8817 15.5695 45.241 15.2092C45.6002 14.8489 46.0873 14.6463 46.5953 14.6456H54.0236C54.5317 14.646 55.019 14.8486 55.3784 15.209C55.7378 15.5693 55.94 16.0579 55.9407 16.5675V19.4464C55.94 19.956 55.7378 20.4446 55.3784 20.8049C55.019 21.1652 54.5317 21.3678 54.0236 21.3683H50.8036C50.4132 21.3692 50.034 21.4994 49.725 21.7386L46.4757 24.2646L46.6896 23.0231C46.7526 22.652 46.6939 22.2704 46.5225 21.9355C46.351 21.6007 46.076 21.3305 45.7386 21.1656C45.42 21.0065 45.1521 20.7612 44.9652 20.4574C44.7784 20.1535 44.6801 19.8033 44.6814 19.4464L44.679 16.5675Z" fill="black"/>
<path d="M47.9328 18.5613C48.2059 18.5613 48.4273 18.3392 48.4273 18.0653C48.4273 17.7914 48.2059 17.5693 47.9328 17.5693C47.6596 17.5693 47.4382 17.7914 47.4382 18.0653C47.4382 18.3392 47.6596 18.5613 47.9328 18.5613Z" fill="black"/>
<path d="M50.308 18.5613C50.4058 18.5613 50.5014 18.5322 50.5828 18.4777C50.6641 18.4232 50.7275 18.3457 50.7649 18.2551C50.8023 18.1645 50.8121 18.0648 50.7931 17.9685C50.774 17.8723 50.7269 17.784 50.6577 17.7146C50.5886 17.6452 50.5004 17.598 50.4045 17.5789C50.3086 17.5597 50.2091 17.5695 50.1188 17.6071C50.0284 17.6446 49.9512 17.7082 49.8968 17.7898C49.8425 17.8713 49.8135 17.9672 49.8135 18.0653C49.8134 18.1305 49.8261 18.195 49.8509 18.2552C49.8757 18.3154 49.9121 18.3702 49.9581 18.4162C50.004 18.4623 50.0586 18.4988 50.1186 18.5237C50.1787 18.5486 50.243 18.5614 50.308 18.5613Z" fill="black"/>
<path d="M52.6857 18.5613C52.7835 18.5613 52.8791 18.5322 52.9604 18.4777C53.0417 18.4232 53.1051 18.3457 53.1425 18.2551C53.18 18.1645 53.1898 18.0648 53.1707 17.9685C53.1516 17.8723 53.1045 17.784 53.0354 17.7146C52.9662 17.6452 52.8781 17.598 52.7821 17.5789C52.6862 17.5597 52.5868 17.5695 52.4964 17.6071C52.4061 17.6446 52.3288 17.7082 52.2745 17.7898C52.2202 17.8713 52.1912 17.9672 52.1912 18.0653C52.1911 18.1305 52.2038 18.195 52.2286 18.2552C52.2534 18.3154 52.2898 18.3702 52.3358 18.4162C52.3817 18.4623 52.4363 18.4988 52.4963 18.5237C52.5564 18.5486 52.6207 18.5614 52.6857 18.5613Z" fill="black"/>
<path d="M27.9593 11.7241C28.1742 11.8289 28.3495 12.0005 28.4593 12.2133C28.5691 12.4261 28.6075 12.6688 28.5688 12.9052L28.3397 14.2365C28.3184 14.3558 28.3338 14.4787 28.3839 14.5889C28.434 14.6991 28.5165 14.7914 28.6203 14.8533C28.7236 14.9162 28.8435 14.9461 28.9641 14.939C29.0847 14.9319 29.2003 14.8882 29.2955 14.8136L32.6241 12.2312C32.8217 12.0776 33.0643 11.9938 33.3143 11.9928H36.5351C37.2112 11.9919 37.8594 11.7222 38.3375 11.2427C38.8156 10.7632 39.0846 10.1131 39.0854 9.43501V6.55774C39.0846 5.87965 38.8156 5.22956 38.3375 4.75008C37.8594 4.27059 37.2112 4.00084 36.5351 4H29.0982C28.422 4.00084 27.7738 4.27059 27.2958 4.75008C26.8177 5.22956 26.5487 5.87965 26.5479 6.55774V9.4366C26.5464 9.91209 26.6779 10.3785 26.9274 10.7828C27.1769 11.1872 27.5344 11.5132 27.9593 11.7241ZM27.1858 6.55774C27.1865 6.04822 27.3886 5.55975 27.7478 5.19946C28.107 4.83918 28.5941 4.63649 29.1021 4.63586H36.5311C37.0392 4.63649 37.5262 4.83918 37.8855 5.19946C38.2447 5.55975 38.4468 6.04822 38.4474 6.55774V9.4366C38.447 9.94618 38.245 10.4348 37.8857 10.7951C37.5264 11.1554 37.0392 11.3581 36.5311 11.3585H33.3064C32.9162 11.3593 32.5373 11.4895 32.2286 11.7289L28.9793 14.2548L29.1933 13.0133C29.2561 12.6422 29.1974 12.2607 29.026 11.9258C28.8545 11.591 28.5796 11.3208 28.2423 11.1558C27.9236 10.9967 27.6556 10.7514 27.4686 10.4476C27.2817 10.1438 27.1832 9.79361 27.1843 9.4366L27.1858 6.55774Z" fill="black"/>
</svg>
