<svg width="59" height="64" viewBox="0 0 59 64" fill="none" xmlns="http://www.w3.org/2000/svg">
<path d="M30.6371 38.5578C30.4218 38.2416 30.2106 37.924 30.0034 37.6049C33.4794 31.8265 35.7117 25.3296 36.463 18.7937L35.8096 18.7175C35.0813 25.0589 32.9377 31.3638 29.6064 36.9874C26.3064 31.7719 23.9935 26.2452 22.7244 20.5239C22.1203 17.7986 21.9165 15.4872 22.1014 13.4557C22.3315 10.9307 23.1888 8.80398 24.6494 7.13421C26.1099 5.46443 28.1927 4.54717 30.2237 4.67549L30.2648 4.01321C28.0308 3.87164 25.7442 4.875 24.1554 6.69545C22.6003 8.47284 21.6896 10.7263 21.443 13.3944C21.2523 15.4955 21.4603 17.8739 22.0792 20.6679C23.3877 26.5639 25.7886 32.2579 29.2218 37.6132C25.6053 43.1888 20.7164 48.3124 14.6851 52.8457C11.3284 55.3546 7.75197 57.5506 4 59.4064L4.29014 60C8.07798 58.1268 11.6886 55.91 15.0772 53.3772C21.0773 48.8671 25.9669 43.7741 29.613 38.22C29.7703 38.4596 29.9292 38.6977 30.0897 38.9345C33.8254 44.4281 38.4792 49.2876 43.9237 53.3772C47.3116 55.9106 50.9219 58.1274 54.7099 60L55 59.4064C51.2475 57.5516 47.671 55.3555 44.3149 52.8457C38.9354 48.7975 34.3317 43.991 30.6371 38.5578Z" fill="black"/>
<path d="M32.9886 12.9003C33.1671 13.0036 33.37 13.0565 33.5759 13.0533C33.7818 13.0501 33.983 12.9909 34.1582 12.8821L38.4487 10.2677C38.6194 10.1638 38.7605 10.0172 38.8584 9.84226C38.9564 9.66729 39.0079 9.46981 39.0079 9.26894C39.0079 9.06807 38.9564 8.87059 38.8584 8.69562C38.7605 8.52065 38.6194 8.37409 38.4487 8.27014L34.1582 5.65579C33.9823 5.54869 33.7814 5.49059 33.5758 5.48744C33.3703 5.48429 33.1677 5.5362 32.9887 5.63786C32.8096 5.73952 32.6606 5.88728 32.5569 6.066C32.4532 6.24472 32.3985 6.44799 32.3985 6.655V11.8837C32.3972 12.0909 32.4513 12.2947 32.5551 12.4735C32.6589 12.6524 32.8087 12.7998 32.9886 12.9003ZM33.056 6.655C33.0551 6.56517 33.0784 6.47677 33.1234 6.39921C33.1684 6.32166 33.2335 6.25785 33.3116 6.21458C33.3877 6.17066 33.4741 6.14796 33.5618 6.14883C33.6494 6.14971 33.7353 6.17412 33.8105 6.21955L38.101 8.8339C38.1749 8.87898 38.2359 8.94247 38.2783 9.01824C38.3206 9.09401 38.3429 9.1795 38.3429 9.26646C38.3429 9.35342 38.3206 9.43891 38.2783 9.51468C38.2359 9.59044 38.1749 9.65393 38.101 9.69901L33.8105 12.3158C33.7344 12.3622 33.6474 12.3873 33.5585 12.3887C33.4696 12.3901 33.3819 12.3676 33.3044 12.3237C33.2269 12.2797 33.1624 12.2158 33.1174 12.1385C33.0725 12.0612 33.0487 11.9733 33.0486 11.8837L33.056 6.655Z" fill="black"/>
<path d="M30.4027 16.2899V13.0356H29.7451V16.2899C29.7456 16.6536 29.8702 17.0061 30.0979 17.2884C30.3256 17.5706 30.6427 17.7656 30.996 17.8405C31.3494 17.9155 31.7176 17.8659 32.039 17.7002C32.3604 17.5344 32.6155 17.2624 32.7616 16.9299C32.8453 16.9438 32.93 16.9507 33.0148 16.9506C33.4325 16.9501 33.8329 16.7827 34.1282 16.4852C34.4234 16.1877 34.5894 15.7842 34.5896 15.3636C34.5898 15.2781 34.5829 15.1929 34.569 15.1086C34.9196 15.0096 35.2282 14.7975 35.4475 14.5049C35.6668 14.2122 35.7847 13.8551 35.783 13.4885V13.1573H35.1255V13.4885C35.1266 13.7548 35.0239 14.011 34.8395 14.2019C34.655 14.3928 34.4036 14.5032 34.1392 14.5092L33.6419 14.5241L33.8499 14.9786C33.9272 15.147 33.9525 15.3349 33.9222 15.5179C33.892 15.7009 33.8077 15.8704 33.6804 16.0045C33.5531 16.1385 33.3886 16.2308 33.2085 16.2693C33.0283 16.3079 32.8408 16.2908 32.6704 16.2204L32.2972 16.0705L32.2216 16.4679C32.1777 16.693 32.0522 16.8936 31.8696 17.0308C31.687 17.1679 31.4604 17.2318 31.2336 17.21C31.0069 17.1883 30.7963 17.0824 30.6427 16.9129C30.4891 16.7435 30.4036 16.5226 30.4027 16.2932V16.2899Z" fill="black"/>
<path d="M29.7451 8.59432V8.92546H30.4027V8.59432C30.4029 8.34914 30.4997 8.11406 30.6718 7.94069C30.8439 7.76732 31.0773 7.66983 31.3208 7.66961H31.6495V7.00732H31.3208C30.903 7.00776 30.5025 7.17511 30.2071 7.47263C29.9117 7.77015 29.7456 8.17356 29.7451 8.59432Z" fill="black"/>
<path d="M29.3656 11.7302V8.59428C29.3654 8.23151 29.2418 7.87978 29.0154 7.59765C28.789 7.31553 28.4734 7.12005 28.1213 7.04378C27.7692 6.9675 27.4017 7.01504 27.0802 7.17846C26.7586 7.34189 26.5024 7.61134 26.3541 7.94193C26.2692 7.926 26.1831 7.91796 26.0968 7.91792C25.7287 7.91836 25.3757 8.06579 25.1154 8.32789C24.855 8.59 24.7084 8.94539 24.7077 9.31617V9.76817C24.4887 9.85726 24.2924 9.99478 24.1332 10.1706C23.974 10.3464 23.8561 10.5559 23.7882 10.7838C23.7203 11.0116 23.704 11.252 23.7407 11.487C23.7774 11.722 23.866 11.9457 24.0001 12.1416C23.7928 12.2989 23.6244 12.5023 23.5081 12.736C23.3917 12.9696 23.3306 13.2272 23.3294 13.4885C23.3276 13.855 23.4453 14.2119 23.6643 14.5045C23.8832 14.7972 24.1915 15.0094 24.5417 15.1086C24.5278 15.1929 24.521 15.2782 24.5212 15.3636C24.5216 15.7844 24.6877 16.1878 24.9831 16.4853C25.2785 16.7828 25.6791 16.9502 26.0968 16.9506C26.1813 16.9508 26.2657 16.9439 26.3491 16.9299C26.4953 17.2625 26.7504 17.5344 27.0718 17.7002C27.3932 17.866 27.7614 17.9155 28.1147 17.8406C28.4681 17.7656 28.7851 17.5707 29.0129 17.2884C29.2406 17.0062 29.3651 16.6537 29.3656 16.29V15.9588H28.7081V16.29C28.7072 16.5194 28.6216 16.7403 28.4681 16.9097C28.3145 17.0791 28.1039 17.185 27.8771 17.2068C27.6504 17.2286 27.4237 17.1647 27.2411 17.0275C27.0586 16.8904 26.9331 16.6898 26.8892 16.4647L26.8144 16.0673L26.442 16.2196C26.3325 16.2651 26.2152 16.2884 26.0968 16.2883C25.8537 16.2877 25.6207 16.19 25.4489 16.0167C25.2771 15.8433 25.1806 15.6085 25.1804 15.3636C25.1794 15.2308 25.2075 15.0994 25.2625 14.9787L25.4697 14.5242L24.9765 14.5093C24.7122 14.503 24.4608 14.3926 24.2764 14.2017C24.092 14.0109 23.9893 13.7548 23.9902 13.4885C23.9915 13.2811 24.055 13.079 24.1723 12.9085C24.2897 12.738 24.4554 12.6072 24.6477 12.5332L25.1878 12.3254L24.7349 11.9645C24.598 11.856 24.4946 11.7104 24.4369 11.5449C24.3791 11.3793 24.3695 11.2006 24.409 11.0297C24.4485 10.8588 24.5355 10.7028 24.6599 10.5799C24.7843 10.4571 24.9409 10.3725 25.1113 10.3361L25.3719 10.2806V9.31617C25.3721 9.1209 25.4493 8.93371 25.5864 8.79571C25.7236 8.65772 25.9095 8.58021 26.1034 8.58021C26.2156 8.58009 26.3262 8.60646 26.4264 8.6572L26.8152 8.85174L26.8974 8.42209C26.9394 8.19552 27.064 7.99297 27.2467 7.85419C27.4294 7.71541 27.657 7.65043 27.8849 7.67199C28.1127 7.69356 28.3243 7.80013 28.4781 7.97077C28.632 8.14141 28.7169 8.3638 28.7163 8.59428V11.7302H29.3656Z" fill="black"/>
</svg>
