<svg width="66" height="64" viewBox="0 0 66 64" fill="none" xmlns="http://www.w3.org/2000/svg">
<path d="M48.5119 33.3628H34.0818C33.2573 33.3619 32.4669 33.038 31.8839 32.4624C31.3009 31.8867 30.973 31.1062 30.9721 30.2921V17.319C30.9721 9.97488 24.9213 4 17.4839 4C10.0464 4 4 9.97488 4 17.319C4 24.6632 10.0534 30.6372 17.4873 30.6372H25.4386V29.947H17.4873C10.4361 29.947 4.69901 24.2818 4.69901 17.319C4.69901 10.3562 10.4361 4.69024 17.4873 4.69024C24.5386 4.69024 30.2766 10.3554 30.2766 17.319V30.2921C30.2775 31.2887 30.6786 32.2442 31.3919 32.9492C32.1052 33.6543 33.0725 34.0512 34.0818 34.053H48.5119C55.5631 34.053 61.3003 39.7182 61.3003 46.6809C61.3003 53.6437 55.5631 59.3097 48.5119 59.3097C41.4607 59.3097 35.7227 53.6446 35.7227 46.6809V38.738H35.0237V46.6809C35.0237 54.0251 41.0745 60 48.5119 60C55.9493 60 61.9993 54.0251 61.9993 46.6809C61.9993 39.3368 55.9485 33.3628 48.5119 33.3628Z" fill="black"/>
<path d="M30.2766 46.6815C30.2766 53.6451 24.5395 59.3102 17.4873 59.3102C10.4352 59.3102 4.69901 53.6451 4.69901 46.6815C4.69901 39.7178 10.4361 34.0535 17.4873 34.0535H25.2778V33.3633H17.4873C10.0508 33.3633 4 39.3382 4 46.6815C4 54.0247 10.0534 60.0005 17.4873 60.0005C24.9213 60.0005 30.9756 54.0256 30.9756 46.6815V38.7635H30.2766V46.6815Z" fill="black"/>
<path d="M48.5121 4C41.0747 4 35.0239 9.97488 35.0239 17.319V25.2352H35.7229V17.319C35.7229 10.3554 41.46 4.69024 48.5121 4.69024C55.5643 4.69024 61.3005 10.3554 61.3005 17.319C61.3005 24.2827 55.5634 29.947 48.5121 29.947H40.7226V30.6372H48.513C55.9496 30.6372 62.0004 24.6623 62.0004 17.319C62.0004 9.97575 55.9487 4 48.5121 4Z" fill="black"/>
</svg>
