<svg width="60" height="64" viewBox="0 0 60 64" fill="none" xmlns="http://www.w3.org/2000/svg">
<path d="M53.8746 58.228C53.3962 57.9759 52.9278 57.7169 52.4813 57.4664L52.2202 57.3185L52.1359 57.2706L51.7923 57.0739C51.5755 56.9483 51.3598 56.8225 51.1453 56.6964L51.0939 56.6653L50.7654 56.4695C50.3231 56.2055 49.8682 55.9256 49.4176 55.6381L49.1775 55.4868L49.0216 55.3868C48.9315 55.3288 48.8397 55.2708 48.7495 55.2119L48.6577 55.1522L48.4261 55.0009C48.3182 54.9312 48.2112 54.8597 48.1043 54.7891L48.0857 54.7765C47.6351 54.4764 47.1928 54.1755 46.7733 53.8829L46.4431 53.656C46.2263 53.5019 46.0109 53.3475 45.797 53.1928C45.583 53.0381 45.3696 52.8812 45.1567 52.7221C42.276 50.5859 39.5699 48.2248 37.0639 45.661C34.5836 43.1265 32.3526 40.3606 30.4014 37.4012C30.3854 37.3785 30.3711 37.3558 30.3568 37.3339L30.3205 37.2751C31.243 35.8317 32.1072 34.3329 32.889 32.8241L32.9269 32.7518C34.7365 29.2519 36.1397 25.5573 37.1094 21.7398L36.4557 21.5759C35.493 25.3657 34.0966 29.0324 32.2943 32.5038L32.253 32.5778V32.5862C31.5235 33.99 30.7249 35.3795 29.8724 36.7236C29.0207 35.3787 28.2213 33.99 27.4909 32.5845V32.5719L27.448 32.5004C25.4507 28.6545 23.9548 24.5693 22.9968 20.3444C22.3844 17.6066 22.1771 15.2823 22.365 13.2413C22.5975 10.7035 23.4668 8.56667 24.9486 6.88882L24.989 6.84343C25.4016 6.38389 25.8772 5.98486 26.4017 5.65817L26.0462 5.0874C25.4668 5.4472 24.9418 5.88763 24.487 6.39539L24.4432 6.44414C22.8696 8.23547 21.9429 10.5017 21.6902 13.1841C21.4965 15.2957 21.7071 17.6881 22.3355 20.4974C23.3009 24.7563 24.8063 28.8751 26.8153 32.7543L26.8524 32.8274C27.6459 34.3624 28.5229 35.8788 29.4596 37.3381C25.6554 43.1669 20.5985 48.5182 14.8348 52.8053C14.6226 52.9633 14.4089 53.1202 14.1938 53.276C13.9807 53.4315 13.765 53.5854 13.5468 53.74C13.4401 53.8168 13.332 53.8927 13.2225 53.9678C12.7861 54.273 12.3447 54.5739 11.9101 54.8614C9.70557 56.3242 7.42018 57.6617 5.06478 58.8677C4.75815 59.0224 4.4212 59.1922 4 59.3973L4.29905 60C4.72024 59.7932 5.0572 59.6218 5.3731 59.4612C7.75191 58.2454 10.0601 56.8966 12.2866 55.4212C12.7255 55.1312 13.172 54.8269 13.6117 54.5193C13.722 54.4428 13.8332 54.3646 13.9411 54.2873C14.1601 54.1326 14.378 53.9768 14.5948 53.8199C14.8104 53.6627 15.0269 53.5038 15.2409 53.3441C20.9851 49.0688 26.0336 43.7536 29.8614 37.961L29.8732 37.9778L29.9212 37.9038C31.875 40.851 34.1032 43.6075 36.5761 46.1367C39.1064 48.7251 41.8387 51.1087 44.7473 53.2651C44.9613 53.4248 45.1778 53.5837 45.3943 53.7409C45.6108 53.8981 45.8281 54.0536 46.0471 54.2082C46.1558 54.2856 46.2653 54.3621 46.3757 54.4394C46.7969 54.7353 47.2459 55.0396 47.7016 55.3431L47.7201 55.3548L48.0571 55.5641L48.2904 55.7155L48.3823 55.7751C48.4732 55.8348 48.5659 55.8945 48.6569 55.9525L48.8127 56.0525L49.0578 56.2072C49.517 56.4972 49.9761 56.7797 50.4217 57.0478L50.7536 57.2454L50.8058 57.2765C51.0232 57.4042 51.2408 57.5312 51.4587 57.6573L51.8074 57.8573L51.8917 57.9044L52.1562 58.054C52.606 58.3062 53.0828 58.5651 53.563 58.8232L53.9168 59.0106C54.4862 59.3107 55.0868 59.6159 55.7018 59.9193L56 59.3158C55.3909 59.0157 54.7954 58.7131 54.231 58.4155L53.8746 58.228Z" fill="black"/>
<path d="M41.1696 20.452C42.3305 20.452 43.2613 20.1032 43.8796 19.4164C45.0741 18.0899 44.8905 15.7808 43.3742 13.0807L42.7845 13.4103C44.1323 15.8068 44.3539 17.884 43.3784 18.9667C42.5807 19.8527 41.0593 20.0225 39.0957 19.4441C37.047 18.8414 34.7995 17.5032 32.7609 15.6765C31.8599 14.872 31.032 13.9896 30.2868 13.0396L29.7544 13.4523C30.5244 14.4337 31.3796 15.3453 32.3102 16.1767C34.4162 18.0689 36.7622 19.4551 38.9045 20.0897C39.6385 20.3172 40.4012 20.4391 41.1696 20.452Z" fill="black"/>
<path d="M28.8985 10.9531C27.5987 8.59937 27.3957 6.55417 28.356 5.48912C29.1538 4.60312 30.6751 4.43332 32.6387 5.01166C34.6874 5.61437 36.9349 6.95262 38.9735 8.77926C39.845 9.55821 40.6484 10.4097 41.3752 11.3246L41.9042 10.9043C41.1542 9.95938 40.3245 9.08026 39.4242 8.27657C37.3182 6.38353 34.9722 4.994 32.83 4.36355C30.6027 3.70788 28.8362 3.94325 27.8548 5.03603C26.6754 6.34402 26.8439 8.61786 28.308 11.275L28.8985 10.9531Z" fill="black"/>
<path d="M43.3784 5.48926C44.1769 6.37526 44.1845 7.90264 43.4003 9.7898C42.5823 11.7585 41.0104 13.8483 38.9735 15.674C38.34 16.2429 37.6728 16.7732 36.9753 17.262L37.362 17.8134C38.0815 17.3085 38.7701 16.7611 39.4242 16.1742C41.5301 14.2812 43.1669 12.1048 44.0228 10.0462C44.9123 7.906 44.861 6.12728 43.8796 5.03785C42.6362 3.65758 40.1065 3.66178 37.1135 5.0471L37.3974 5.65738C40.0678 4.42169 42.3591 4.35696 43.3784 5.48926Z" fill="black"/>
<path d="M32.3102 8.27888C30.2042 10.1711 28.5674 12.3474 27.7115 14.4061C26.822 16.5462 26.8691 18.325 27.8547 19.4144C28.4756 20.1037 29.4148 20.4475 30.5731 20.4475C31.7525 20.4475 33.1517 20.0919 34.6722 19.3808L34.3858 18.7722C31.6902 20.0331 29.3828 20.1045 28.356 18.9647C27.5574 18.0787 27.5498 16.5513 28.3341 14.6641C29.152 12.6954 30.7239 10.6057 32.7608 8.77988C33.4624 8.1496 34.2057 7.56714 34.9856 7.03646L34.6065 6.47998C33.8015 7.02751 33.0343 7.6285 32.3102 8.27888Z" fill="black"/>
<path d="M35.867 15.067C36.4299 15.067 36.9803 14.9005 37.4484 14.5883C37.9165 14.2762 38.2813 13.8326 38.4967 13.3136C38.7122 12.7946 38.7685 12.2235 38.6587 11.6725C38.5489 11.1215 38.2778 10.6154 37.8797 10.2182C37.4816 9.82093 36.9744 9.55041 36.4223 9.44081C35.8701 9.33121 35.2978 9.38746 34.7777 9.60244C34.2575 9.81743 33.813 10.1815 33.5002 10.6486C33.1874 11.1157 33.0205 11.6649 33.0205 12.2266C33.0214 12.9797 33.3216 13.7016 33.8552 14.2341C34.3888 14.7666 35.1123 15.0662 35.867 15.067ZM35.867 10.0587C36.2966 10.0587 36.7167 10.1859 37.074 10.4241C37.4312 10.6623 37.7097 11.0009 37.8741 11.397C38.0386 11.7931 38.0816 12.229 37.9977 12.6496C37.9139 13.0701 37.707 13.4564 37.4032 13.7596C37.0993 14.0628 36.7122 14.2693 36.2908 14.3529C35.8694 14.4366 35.4325 14.3936 35.0356 14.2295C34.6386 14.0655 34.2993 13.7876 34.0606 13.4311C33.8218 13.0746 33.6944 12.6554 33.6944 12.2266C33.6951 11.6519 33.9242 11.1008 34.3315 10.6944C34.7388 10.288 35.291 10.0594 35.867 10.0587Z" fill="black"/>
</svg>
