<svg width="43" height="65" viewBox="0 0 43 65" fill="none" xmlns="http://www.w3.org/2000/svg">
<path d="M23.2621 36.7636C21.4261 35.3232 19.6191 33.9054 17.9562 32.494C21.0893 27.1114 22.5657 23.1904 23.2096 18.5785L22.5892 18.4923C22.489 19.209 22.3684 19.9101 22.2234 20.6025C20.7086 20.6651 19.2361 20.1537 17.8442 19.0782C16.6599 18.1673 15.5359 16.8498 14.4942 15.1658C12.9441 12.6594 12.0465 10.0746 11.8311 9.40961C13.5739 7.47651 16.2119 6.66348 18.4489 7.38721L18.6416 6.79115C16.1179 5.9742 13.1431 6.91491 11.2405 9.13076C9.76718 10.8406 8.92204 12.9977 8.72231 15.5387C8.66956 16.2379 8.66066 16.9398 8.69568 17.6402C8.63771 17.6355 8.57975 17.6323 8.52179 17.6323C7.00774 17.6323 5.77566 19.108 5.77566 20.922C5.77566 22.7361 7.00774 24.2118 8.52179 24.2118C8.99635 24.2104 9.45982 24.0681 9.85334 23.8029C11.0604 26.8655 13.8065 29.7518 17.1667 32.6413C16.0787 34.8203 7.24663 52.562 4 60.4401L4.57883 60.6751C7.75654 52.9654 16.3114 35.7563 17.6594 33.0572C19.3042 34.4467 21.076 35.8393 22.879 37.2539C31.6516 44.1349 40.7179 51.2501 37.8292 60.5263L38.4269 60.7127C39.7819 56.3624 38.7402 52.0866 35.2382 47.64C32.1725 43.755 27.6429 40.2005 23.2621 36.7636ZM8.52179 23.5851C7.35316 23.5851 6.40228 22.3907 6.40228 20.922C6.40228 19.4534 7.35316 18.2589 8.52179 18.2589C8.59304 18.2589 8.66421 18.2636 8.73484 18.273C8.85643 19.6813 9.08635 21.0781 9.42255 22.451C9.48155 22.6985 9.55048 22.9444 9.62933 23.1888C9.31489 23.4411 8.92492 23.5807 8.52179 23.5851ZM17.4722 32.0797C13.7548 28.8683 10.8332 25.6843 10.0311 22.3061C9.41863 19.7213 9.19383 17.5235 9.34657 15.588C9.51889 13.3949 10.1964 11.515 11.3588 9.97904C11.7152 10.9973 12.5862 13.2727 13.9537 15.4854C15.0354 17.2352 16.2135 18.6098 17.4557 19.5709C18.886 20.6769 20.4031 21.2353 21.9728 21.2353H22.0825C21.2914 24.6465 19.8846 27.9189 17.4722 32.0797Z" fill="black"/>
<path d="M13.3875 17.6323C11.8734 17.6323 10.6414 19.108 10.6414 20.922C10.6414 22.7361 11.8734 24.2118 13.3875 24.2118C14.9015 24.2118 16.1336 22.7361 16.1336 20.922C16.1336 19.108 14.9015 17.6323 13.3875 17.6323ZM13.3875 23.5851C12.2189 23.5851 11.268 22.3907 11.268 20.922C11.268 19.4534 12.2189 18.2589 13.3875 18.2589C14.5561 18.2589 15.507 19.4542 15.507 20.922C15.507 22.3899 14.5561 23.5851 13.3875 23.5851Z" fill="black"/>
<path d="M18.4615 11.7789C18.4156 11.8887 18.3589 11.9936 18.2923 12.0922C18.2364 12.1604 18.1955 12.2395 18.1723 12.3246C18.1491 12.4096 18.144 12.4986 18.1576 12.5857C18.2014 12.8207 18.3816 12.9632 18.5343 13.0603C18.7523 13.1927 18.9772 13.3135 19.2079 13.4222H19.2126L19.1648 13.5146L19.1241 13.4935C18.8954 13.3799 18.6769 13.271 18.456 13.1645C18.373 13.1187 18.2814 13.0908 18.187 13.0824C18.0926 13.074 17.9974 13.0855 17.9077 13.116C17.8182 13.1528 17.7372 13.2077 17.6698 13.2773C17.6024 13.3468 17.5501 13.4295 17.5161 13.5201C17.502 13.5522 17.4887 13.5851 17.4746 13.618C17.4178 13.7637 17.3475 13.9037 17.2646 14.0363C17.212 14.1061 17.1742 14.186 17.1537 14.271C17.1332 14.3561 17.1305 14.4444 17.1456 14.5305C17.1941 14.7655 17.3806 14.9112 17.5145 15.0005C17.7322 15.1345 17.9577 15.2556 18.1897 15.3631L18.2398 15.3874C18.212 15.5459 18.2203 15.7086 18.264 15.8634C18.3076 16.0182 18.3856 16.1613 18.492 16.2819C18.5888 16.386 18.7062 16.4688 18.8367 16.5252C18.9673 16.5816 19.1081 16.6102 19.2502 16.6093C19.3336 16.6093 19.4166 16.5996 19.4977 16.5803C19.9622 16.4707 20.1557 16.1104 20.2974 15.8441L20.3155 15.8104C20.9194 14.6887 21.5201 13.5561 22.1021 12.4423C22.4585 11.7617 22.8141 11.0685 23.1587 10.3972L23.5198 9.6923C25.2665 9.82545 26.2338 8.78684 26.5612 7.73805C26.9983 6.33444 26.414 4.95511 25.1067 4.30578C24.5039 4.00061 23.8119 3.92067 23.1554 4.08035C22.4989 4.24002 21.9209 4.62883 21.5256 5.17677C20.7423 6.2334 20.8144 7.69184 21.6823 8.72732L20.1909 11.58C19.9912 11.4758 19.7852 11.3669 19.5745 11.2729C18.9784 11.0051 18.7262 11.2275 18.5124 11.6732L18.4615 11.7789ZM18.7951 12.4666C18.8882 12.3335 18.967 12.191 19.0301 12.0413L19.0763 11.9434C19.1006 11.8887 19.1297 11.8363 19.1633 11.7867C19.2158 11.8015 19.2669 11.8209 19.316 11.8447C19.5095 11.9309 19.6982 12.0303 19.898 12.1353C19.9904 12.1831 20.0836 12.2324 20.1792 12.281L20.4541 12.4212L22.4561 8.62941L22.2995 8.46649C21.5037 7.64876 21.3956 6.42452 22.041 5.55666C22.3496 5.12788 22.8012 4.82334 23.3144 4.69784C23.8276 4.57234 24.3687 4.63413 24.8404 4.87208C25.8586 5.37964 26.3176 6.4582 25.9753 7.55712C25.633 8.65604 24.6665 9.21686 23.3906 9.05394L23.1728 9.02574L23.0726 9.22156C22.919 9.51815 22.7658 9.81605 22.6128 10.1153C22.2689 10.785 21.9141 11.4774 21.5585 12.1557C20.9781 13.2648 20.3781 14.3942 19.775 15.5143L19.757 15.5496C19.6277 15.79 19.5455 15.9287 19.3654 15.9717C19.2945 15.9896 19.2203 15.9885 19.15 15.9686C19.0797 15.9487 19.016 15.9106 18.9651 15.8582C18.8539 15.7375 18.8343 15.5449 18.9103 15.3154L18.9933 15.0608L18.7583 14.9386C18.6659 14.8916 18.5719 14.8462 18.4787 14.8008C18.269 14.7041 18.0653 14.595 17.8685 14.4741C17.8388 14.4561 17.8107 14.4354 17.7847 14.4123L17.7965 14.3942C17.9031 14.2278 17.9931 14.0512 18.0651 13.8671L18.1059 13.7739C18.1145 13.752 18.1259 13.7312 18.1395 13.712C18.1581 13.7166 18.1759 13.7235 18.1928 13.7324C18.4113 13.8373 18.6283 13.9454 18.8539 14.0582L19.1719 14.2149L19.4468 14.3512L20.0734 13.1528L19.7938 13.0086C19.6943 12.9569 19.5949 12.9084 19.4977 12.8606C19.2868 12.7617 19.0813 12.6516 18.8821 12.5309C18.8546 12.5137 18.8285 12.4946 18.8038 12.4737C18.8016 12.4712 18.7992 12.4688 18.7967 12.4666H18.7951Z" fill="black"/>
<path d="M23.4266 8.18073C23.5786 8.22885 23.7371 8.25368 23.8966 8.25436C24.4887 8.25436 24.9931 7.89014 25.1874 7.28233C25.2443 7.09623 25.2629 6.90049 25.2419 6.70701C25.2208 6.51353 25.1607 6.32633 25.0652 6.15678C24.979 5.99728 24.8608 5.85724 24.7181 5.74539C24.5754 5.63355 24.4112 5.55228 24.2357 5.50667C23.4524 5.30694 22.7835 5.66959 22.4953 6.45129C22.4377 6.61107 22.4136 6.78097 22.4244 6.95046C22.4352 7.11995 22.4806 7.28543 22.5579 7.43663C22.6451 7.61282 22.767 7.76957 22.9162 7.89744C23.0655 8.02532 23.2391 8.12168 23.4266 8.18073ZM23.0827 6.66825C23.2566 6.19829 23.5684 6.0808 23.8292 6.0808C23.9143 6.08148 23.999 6.09253 24.0814 6.1137C24.1739 6.13912 24.2602 6.18314 24.3351 6.24307C24.41 6.303 24.4718 6.37758 24.5169 6.46225C24.5712 6.55721 24.6056 6.66222 24.6179 6.77089C24.6303 6.87956 24.6205 6.98961 24.589 7.09435C24.4535 7.52592 24.0618 7.72096 23.6154 7.58232C23.5088 7.54887 23.4101 7.49414 23.3253 7.42144C23.2404 7.34874 23.1713 7.25958 23.1219 7.15936C23.082 7.08456 23.058 7.00236 23.0513 6.91788C23.0445 6.83339 23.0552 6.74842 23.0827 6.66825Z" fill="black"/>
</svg>
