<svg width="80" height="64" viewBox="0 0 80 64" fill="none" xmlns="http://www.w3.org/2000/svg">
<path d="M64.2911 42.777C62.6617 40.932 61.0324 39.2793 59.4571 37.6798C56.7001 34.8799 54.0791 32.2216 51.9354 29.001C53.5374 26.3012 54.724 23.3748 55.4553 20.3205C56.356 16.5177 55.9696 13.7078 54.2745 11.7301C52.8199 10.0323 50.479 9.52321 48.7083 10.5179C47.1249 11.4115 46.3422 13.242 46.3197 16.1259C46.2926 19.2057 47.6707 23.1493 50.4205 27.8493C50.6535 28.2482 50.8937 28.6379 51.141 29.0182C50.7435 29.6753 50.3199 30.3237 49.8702 30.9633C47.5567 34.2426 44.7179 37.1156 41.4686 39.4661C40.7579 39.9815 40.0194 40.4762 39.2673 40.9527C38.0322 39.5561 36.6811 38.1534 35.2142 36.7447L34.7999 36.3457C30.5342 32.2433 26.1362 28.0136 22.8721 22.9976C24.477 20.2955 25.6655 17.3659 26.3974 14.308C27.2981 10.5053 26.9117 7.69539 25.2166 5.71773C23.762 4.01989 21.4211 3.5108 19.6503 4.5055C18.0669 5.39549 17.286 7.22963 17.2617 10.1135C17.2347 13.1933 18.6127 17.1378 21.3625 21.8369C21.5937 22.2328 21.8324 22.624 22.0786 23.0103C21.6817 23.6656 21.2596 24.3125 20.8122 24.9509C18.4988 28.2302 15.6599 31.1032 12.4106 33.4537C9.79563 35.3427 6.97378 36.9259 4 38.1726L4.263 38.7955C7.28369 37.5281 10.1502 35.9194 12.8069 34.0007C16.1163 31.6066 19.0076 28.6802 21.3634 25.34C21.7579 24.7797 22.1326 24.2126 22.4875 23.6385C25.7714 28.5985 30.1172 32.7776 34.3351 36.834L34.7494 37.2321C38.6602 40.9943 41.7 44.6544 44.0445 48.4247C46.389 52.195 47.9832 55.9905 48.8983 60L49.5558 59.8502C48.6236 55.7658 47.0087 51.907 44.6174 48.0673C43.1595 45.7423 41.5212 43.5361 39.7176 41.469C40.4508 41.0051 41.1704 40.5177 41.8631 40.014C45.1729 37.6186 48.0641 34.6906 50.4196 31.3488C50.8171 30.7849 51.1942 30.2133 51.5509 29.6338C53.6936 32.7867 56.2723 35.4043 58.977 38.1501C60.546 39.7423 62.1691 41.3887 63.7867 43.2192C69.3331 49.4961 73.0196 54.8027 75.3875 59.9179L76 59.6335C73.6033 54.4669 69.8825 49.1035 64.2911 42.777ZM22.4668 22.3568C22.2866 22.0728 22.1131 21.7857 21.9462 21.4957C19.2612 16.9022 17.912 13.0751 17.9372 10.1226C17.9597 7.50494 18.629 5.85944 19.9818 5.09853C20.4826 4.82012 21.0465 4.67558 21.6192 4.6788C22.7343 4.6788 23.8827 5.19962 24.7068 6.16182C26.2722 7.98874 26.5982 10.5287 25.7435 14.1564C25.0538 17.0346 23.95 19.797 22.4668 22.3568ZM51.5238 28.3665C51.3437 28.0849 51.1699 27.7987 51.0023 27.5081C48.3174 22.9146 46.9682 19.0875 46.9934 16.135C47.0159 13.5173 47.6842 11.8719 49.0379 11.1109C49.5386 10.8319 50.1025 10.6867 50.6754 10.6894C51.7904 10.6894 52.9388 11.2102 53.7629 12.1724C55.3283 13.9993 55.6544 16.5393 54.7996 20.167C54.1102 23.0449 53.0067 25.807 51.5238 28.3665Z" fill="black"/>
</svg>
