<svg width="88" height="64" viewBox="0 0 88 64" fill="none" xmlns="http://www.w3.org/2000/svg">
<path d="M29.8277 59.1395C23.1665 59.1395 16.9014 56.3219 12.1901 51.205C7.47882 46.0881 4.86457 39.258 4.86457 32.0032C4.86457 24.7483 7.46151 17.9268 12.1901 12.8003C16.9187 7.67368 23.1698 4.86572 29.8277 4.86572C33.18 4.86274 36.4923 5.58841 39.5327 6.99185L39.8952 6.21109C36.7426 4.75569 33.3081 4.00288 29.832 4.00538C22.9241 4.00538 16.4329 6.92195 11.5528 12.2185C6.67269 17.515 4 24.5311 4 32.0064C4 39.4817 6.68243 46.5032 11.5528 51.7943C16.4231 57.0855 22.9198 59.9999 29.8277 59.9999C33.447 60.0038 37.0196 59.1888 40.275 57.6167L39.8984 56.8414C36.7605 58.357 33.3166 59.1429 29.8277 59.1395Z" fill="black"/>
<path d="M58.1679 4C53.0822 4 48.1805 5.60454 43.9994 8.58349L43.9226 8.63834L43.8003 8.72867L43.743 8.77062L43.7083 8.79643C43.554 8.90971 43.4003 9.02478 43.2474 9.14164L43.1803 9.19433C43.036 9.3069 42.8917 9.42161 42.7475 9.53847L42.6674 9.60408C42.5289 9.717 42.3904 9.83207 42.2541 9.94821L42.1599 10.0278C42.0301 10.1396 41.9009 10.2529 41.7725 10.3676L41.6643 10.4666C41.5446 10.5755 41.4252 10.6856 41.3062 10.7967L41.1752 10.9193C41.067 11.0269 40.9588 11.1344 40.8506 11.2366L40.7024 11.3818L40.5628 11.5205C40.3226 11.7635 40.0867 12.0087 39.8551 12.2604L40.4957 12.8401C40.7489 12.5626 41.0097 12.2927 41.2748 12.027L41.4187 11.8851C41.5161 11.7883 41.6146 11.6926 41.713 11.5979L41.832 11.4904C41.9403 11.3882 42.0485 11.2861 42.1567 11.185L42.2454 11.1054C42.3655 10.9978 42.4878 10.8903 42.61 10.7828C42.6295 10.7666 42.649 10.7505 42.6674 10.7333C42.8005 10.6193 42.9347 10.5053 43.0699 10.3934L43.0991 10.3698C43.2431 10.2504 43.3891 10.1332 43.532 10.017C43.6856 9.89588 43.8404 9.77686 43.9962 9.66C44.1119 9.74711 44.2299 9.83422 44.3446 9.92348L44.4322 9.99231C44.5967 10.1214 44.7597 10.2526 44.9213 10.3859L45.0577 10.4999C45.2243 10.6386 45.3877 10.7795 45.55 10.9226L45.6972 11.0538C45.8519 11.1925 46.0045 11.3312 46.1549 11.4732L46.2891 11.6001C46.4178 11.7227 46.5444 11.8474 46.671 11.9722L46.8377 12.1389C46.9762 12.2787 47.1125 12.4206 47.2467 12.5626C47.3127 12.6325 47.3787 12.7035 47.4436 12.7777C47.5388 12.8798 47.633 12.9842 47.726 13.0885C47.8191 13.1928 47.9284 13.3165 48.029 13.4326L48.2454 13.6832C48.3233 13.7768 48.4012 13.8692 48.4781 13.9628C48.5834 14.0911 48.6869 14.2202 48.7886 14.35C48.8709 14.4575 48.952 14.5597 49.0332 14.6651L49.176 14.8543C49.2409 14.9404 49.3069 15.0275 49.3708 15.1157H37.7927V15.976H49.9724L50.0611 16.1083C50.3439 16.532 50.6144 16.9643 50.8727 17.4053C50.9311 17.5053 50.9906 17.6053 51.048 17.7064C51.1053 17.8075 51.1659 17.9215 51.2243 18.0226C51.2828 18.1236 51.352 18.2527 51.4137 18.3688C51.4656 18.4656 51.5219 18.5624 51.5673 18.6592C51.6388 18.7979 51.7091 18.9367 51.7838 19.0765C51.8216 19.1539 51.8606 19.2303 51.8985 19.3088C52.1062 19.7339 52.3028 20.1641 52.4882 20.5993H35.5085V20.5939C35.8331 19.8411 36.1848 19.1012 36.5667 18.3871L35.8017 17.9838C35.7833 18.0172 35.7671 18.0527 35.7487 18.086C35.3159 18.9033 34.9235 19.7415 34.5714 20.6004L34.4632 20.8714L34.4405 20.9262V20.9359L34.2306 21.4607H34.2392C34.2143 21.5252 34.1905 21.5887 34.1678 21.6532C34.1159 21.7952 34.0596 21.9371 34.0152 22.0834C33.972 22.2074 33.9298 22.3311 33.8886 22.4544C33.8594 22.5404 33.8313 22.6265 33.8032 22.7125C33.4434 23.8204 33.1493 24.9483 32.9224 26.0904L32.8574 26.4421L32.7622 26.9508H32.7687C32.6692 27.5401 32.5873 28.1341 32.5231 28.7328C32.5155 28.8102 32.5069 28.8866 32.4993 28.964C32.4863 29.0931 32.4744 29.221 32.4625 29.3501C32.4495 29.4996 32.4376 29.6501 32.4268 29.7996C32.4268 29.877 32.416 29.9534 32.4116 30.0308C32.4008 30.1911 32.3911 30.3535 32.3835 30.5126L32.377 30.6277C32.3683 30.8277 32.3619 31.0278 32.3564 31.2278V31.3891C32.3564 31.4515 32.3564 31.5139 32.3564 31.5773V32.4376H32.3619C32.3826 33.9873 32.5211 35.5331 32.7763 37.062L32.8131 37.2599C33.4714 41.0943 34.8968 44.7585 37.005 48.0357H36.9963L37.2225 48.3852C37.6077 48.9588 38.0145 49.5205 38.443 50.0704L38.469 50.1038C38.5567 50.2113 38.6454 50.3264 38.7352 50.4372C38.7893 50.5049 38.8434 50.5716 38.8997 50.6383C38.9559 50.7049 39.0252 50.7899 39.089 50.8652C39.1792 50.9727 39.2701 51.0803 39.3617 51.1878L39.4764 51.3201C39.6127 51.4739 39.7491 51.6266 39.8887 51.7782C40.1808 52.0951 40.4798 52.4048 40.7857 52.7074L40.9513 52.8676C41.0346 52.9483 41.1179 53.0289 41.2034 53.1085C41.2889 53.1881 41.3917 53.2849 41.4858 53.3731L41.6005 53.4806C46.2404 57.6974 52.0402 59.9999 58.1679 59.9999C65.0758 59.9999 71.5671 57.0833 76.4472 51.7868C81.3273 46.4903 83.9999 39.4742 83.9999 31.9989C83.9999 24.5235 81.3175 17.501 76.4472 12.2109C71.5768 6.92087 65.0758 4 58.1679 4ZM54.4965 27.8154C54.5722 28.3438 54.6332 28.8751 54.6794 29.4092L54.6923 29.5576C54.7104 29.777 54.7259 29.9975 54.7389 30.219C54.7389 30.2599 54.7389 30.3008 54.7475 30.3416C54.7605 30.5897 54.771 30.8385 54.7789 31.088C54.7789 31.1471 54.7789 31.2074 54.7789 31.2665C54.7789 31.3665 54.7789 31.4665 54.7789 31.5676H33.2048V31.5579C33.2048 31.387 33.2124 31.2149 33.2178 31.0439L33.2243 30.8568C33.2243 30.7492 33.234 30.6417 33.2394 30.5266C33.2394 30.4513 33.247 30.376 33.2513 30.3008C33.2567 30.2061 33.2632 30.1126 33.2686 30.019C33.2935 29.6587 33.3238 29.3006 33.3606 28.9436C33.3606 28.921 33.3606 28.8973 33.3682 28.8747C33.436 28.2295 33.5262 27.5842 33.6387 26.939H54.358C54.4078 27.2261 54.4543 27.5143 54.4954 27.7993L54.4965 27.8154ZM54.78 32.856C54.78 32.9635 54.7724 33.0775 54.7681 33.1883C54.7638 33.2991 54.7594 33.4206 54.7529 33.5367C54.7529 33.6056 54.7454 33.6744 54.741 33.7432C54.6769 34.8529 54.5497 35.958 54.3601 37.0534H33.6354C33.4731 36.1199 33.3574 35.1725 33.2859 34.2207C33.2859 34.2003 33.2859 34.1809 33.2805 34.1605C33.2711 34.0171 33.2625 33.8773 33.2546 33.7411C33.2491 33.6626 33.2448 33.583 33.2405 33.5045C33.2351 33.3969 33.2308 33.2808 33.2264 33.1679C33.2221 33.0549 33.2178 32.9528 33.2145 32.8377L33.208 32.5602C33.208 32.5162 33.208 32.4721 33.208 32.428H54.7886C54.7886 32.4764 54.7886 32.5248 54.7886 32.5731C54.7854 32.6667 54.7832 32.7613 54.78 32.856ZM33.7978 37.9105H54.1978C53.8759 39.4816 53.4231 41.0233 52.8442 42.5198C52.8421 42.5257 52.8396 42.5315 52.8366 42.537H35.1579C34.576 41.0362 34.121 39.4897 33.7978 37.9137V37.9105ZM52.8355 21.4564C53.4173 22.9575 53.8715 24.5043 54.1935 26.0808H33.8021C34.0198 25.0135 34.2979 23.9594 34.6353 22.9233L34.6645 22.834C34.7034 22.7157 34.7424 22.5974 34.7835 22.4802C34.8106 22.4006 34.8387 22.3221 34.8668 22.2436C34.9112 22.1189 34.9556 21.9952 35.001 21.8715C35.0464 21.7479 35.0843 21.6468 35.1276 21.536C35.1384 21.508 35.1482 21.4811 35.159 21.4543L52.8355 21.4564ZM75.8087 51.1996C71.091 56.3165 64.8291 59.1395 58.1679 59.1395C53.33 59.1395 48.7021 57.6522 44.7244 54.8787L44.7991 54.8206L44.8997 54.7421C45.0588 54.6174 45.2178 54.4915 45.3747 54.3625L45.4364 54.3119C45.6138 54.1657 45.7891 54.0183 45.9634 53.8667L46.0348 53.8043C46.1873 53.671 46.3377 53.5355 46.4882 53.3989L46.5715 53.3215C46.8658 53.0494 47.1558 52.7719 47.4371 52.4858C47.844 52.075 48.24 51.6513 48.6209 51.2136L47.9652 50.6436C47.5251 51.1491 47.0674 51.6355 46.592 52.103L46.5444 52.1503C46.2371 52.4514 45.9233 52.7443 45.603 53.0289L45.5132 53.1074C45.3801 53.2247 45.2449 53.3408 45.1096 53.4548L45.0241 53.5269C44.6995 53.7979 44.3691 54.0599 44.033 54.313L43.9973 54.3399C43.3761 53.876 42.777 53.3835 42.1999 52.8623L42.0712 52.744C41.9904 52.6723 41.9103 52.5981 41.831 52.5213C41.7018 52.3973 41.5724 52.2733 41.4425 52.1492L41.3852 52.0922C41.2575 51.9653 41.1305 51.8374 41.0043 51.7083L40.9404 51.6416C40.8019 51.4982 40.6649 51.3549 40.5292 51.2115C40.385 51.0559 40.2429 50.8978 40.1029 50.7372C40.0878 50.7211 40.0748 50.7049 40.0607 50.6888C39.9525 50.5651 39.8443 50.4393 39.7361 50.3135L39.5868 50.136L39.4082 49.9209C39.141 49.5897 38.8791 49.252 38.6259 48.9057H50.2072V48.0454H38.0221C37.0393 46.5862 36.1977 45.0379 35.5085 43.421H52.4871C52.3789 43.6845 52.2588 43.9458 52.1398 44.2029L52.9264 44.5621C53.0985 44.1889 53.264 43.8093 53.422 43.421L53.5302 43.15L53.5854 43.0059L53.7639 42.5596H53.7574C54.3221 41.0562 54.7629 39.5097 55.0754 37.9353L55.0895 37.86C55.1198 37.7062 55.1479 37.5524 55.1749 37.3986L55.2355 37.076C55.4769 35.6368 55.6143 34.1824 55.6467 32.7237C55.6467 32.6323 55.6467 32.5409 55.6467 32.4506V31.5902C55.6467 31.5235 55.6467 31.4579 55.6467 31.3923V31.2622C55.6467 31.0589 55.6348 30.8568 55.6262 30.6546C55.6262 30.6159 55.6262 30.5782 55.6207 30.5395C55.6121 30.361 55.6013 30.1825 55.5894 30.0018C55.5894 29.9599 55.5894 29.9179 55.5818 29.877C55.5688 29.6888 55.5537 29.5017 55.5363 29.3146L55.5169 29.0995C55.5028 28.9586 55.4887 28.8167 55.4725 28.6758C55.4563 28.5349 55.4444 28.4231 55.4281 28.2972C55.4184 28.2123 55.4076 28.1273 55.3957 28.0413C55.3488 27.6828 55.295 27.3243 55.2345 26.9659H55.2409L55.1457 26.4572L55.0808 26.1055C54.8017 24.701 54.4209 23.3183 53.9414 21.9683L53.9252 21.921C53.8721 21.7737 53.8169 21.6253 53.7639 21.479H53.7726L53.5367 20.8897L53.4285 20.6186C53.3852 20.5111 53.3419 20.4089 53.2976 20.3035C53.2608 20.2175 53.224 20.1315 53.1894 20.0454C53.1147 19.8734 53.0379 19.7035 52.96 19.5335C52.9297 19.4679 52.8994 19.4023 52.868 19.3367C52.7814 19.1496 52.6916 18.9646 52.5996 18.7797L52.5315 18.6431C52.4312 18.4416 52.328 18.2419 52.222 18.0441L52.1809 17.9656C52.0651 17.7505 51.9482 17.5354 51.827 17.3203L51.8162 17.302C51.5616 16.8554 51.2957 16.4169 51.0187 15.9868H51.0328L50.6606 15.449C50.5946 15.3512 50.5286 15.2555 50.4615 15.1587L50.442 15.1296C49.5044 13.7828 48.4462 12.523 47.2802 11.3656L47.2651 11.3506C46.8676 10.9469 46.4618 10.5659 46.0478 10.2074L45.9926 10.1601C45.7221 9.9242 45.4465 9.69406 45.1659 9.46965L45.1226 9.43523C44.996 9.33414 44.8694 9.2352 44.7406 9.13626L44.7287 9.12659C48.714 6.35412 53.356 4.8625 58.1679 4.8625C64.8291 4.8625 71.0942 7.68013 75.8055 12.797C80.5168 17.9139 83.1311 24.744 83.1311 31.9999C83.1311 39.2559 80.533 46.073 75.8087 51.1996Z" fill="black"/>
<path d="M55.2269 12.9282C55.0771 12.9282 54.9307 12.9724 54.8061 13.0551C54.6816 13.1378 54.5845 13.2554 54.5271 13.3929C54.4698 13.5305 54.4548 13.6819 54.484 13.8279C54.5133 13.9739 54.5854 14.1081 54.6913 14.2133C54.7973 14.3186 54.9322 14.3903 55.0792 14.4194C55.2261 14.4484 55.3784 14.4335 55.5168 14.3765C55.6552 14.3196 55.7735 14.2231 55.8567 14.0993C55.9399 13.9755 55.9844 13.8299 55.9844 13.681C55.9844 13.4814 55.9046 13.2899 55.7625 13.1487C55.6205 13.0075 55.4278 12.9282 55.2269 12.9282Z" fill="black"/>
<path d="M63.4571 14.4274C63.8736 14.4274 64.2113 14.0918 64.2113 13.6778C64.2113 13.2638 63.8736 12.9282 63.4571 12.9282C63.0405 12.9282 62.7029 13.2638 62.7029 13.6778C62.7029 14.0918 63.0405 14.4274 63.4571 14.4274Z" fill="black"/>
<path d="M71.6871 12.9282C71.5373 12.9282 71.3909 12.9724 71.2663 13.0551C71.1418 13.1378 71.0447 13.2554 70.9873 13.3929C70.93 13.5305 70.915 13.6819 70.9442 13.8279C70.9735 13.9739 71.0456 14.1081 71.1515 14.2133C71.2575 14.3186 71.3924 14.3903 71.5393 14.4194C71.6863 14.4484 71.8386 14.4335 71.977 14.3765C72.1154 14.3196 72.2337 14.2231 72.3169 14.0993C72.4001 13.9755 72.4445 13.8299 72.4445 13.681C72.4445 13.4814 72.3648 13.2899 72.2227 13.1487C72.0807 13.0075 71.888 12.9282 71.6871 12.9282Z" fill="black"/>
<path d="M54.4728 50.5835C54.323 50.5835 54.1765 50.6276 54.052 50.7104C53.9274 50.7931 53.8303 50.9107 53.773 51.0482C53.7157 51.1858 53.7007 51.3371 53.7299 51.4832C53.7591 51.6292 53.8313 51.7633 53.9372 51.8686C54.0431 51.9739 54.1781 52.0456 54.325 52.0746C54.4719 52.1037 54.6242 52.0888 54.7626 52.0318C54.901 51.9748 55.0193 51.8783 55.1026 51.7545C55.1858 51.6307 55.2302 51.4852 55.2302 51.3363C55.2302 51.1366 55.1504 50.9452 55.0084 50.804C54.8663 50.6628 54.6737 50.5835 54.4728 50.5835Z" fill="black"/>
<path d="M62.7029 52.0826C63.1195 52.0826 63.4571 51.747 63.4571 51.3331C63.4571 50.9191 63.1195 50.5835 62.7029 50.5835C62.2864 50.5835 61.9487 50.9191 61.9487 51.3331C61.9487 51.747 62.2864 52.0826 62.7029 52.0826Z" fill="black"/>
<path d="M70.9331 52.0826C71.3497 52.0826 71.6873 51.747 71.6873 51.3331C71.6873 50.9191 71.3497 50.5835 70.9331 50.5835C70.5166 50.5835 70.179 50.9191 70.179 51.3331C70.179 51.747 70.5166 52.0826 70.9331 52.0826Z" fill="black"/>
<path d="M63.4571 31.2485C63.3073 31.2485 63.1609 31.2927 63.0363 31.3754C62.9118 31.4581 62.8147 31.5757 62.7574 31.7132C62.7 31.8508 62.685 32.0022 62.7143 32.1482C62.7435 32.2942 62.8156 32.4284 62.9216 32.5336C63.0275 32.6389 63.1624 32.7106 63.3094 32.7397C63.4563 32.7687 63.6086 32.7538 63.747 32.6968C63.8854 32.6399 64.0037 32.5434 64.0869 32.4196C64.1701 32.2958 64.2146 32.1502 64.2146 32.0013C64.2146 31.8017 64.1348 31.6102 63.9927 31.469C63.8507 31.3278 63.658 31.2485 63.4571 31.2485Z" fill="black"/>
<path d="M71.6871 31.2485C71.5373 31.2485 71.3909 31.2927 71.2663 31.3754C71.1418 31.4581 71.0447 31.5757 70.9873 31.7132C70.93 31.8508 70.915 32.0022 70.9442 32.1482C70.9735 32.2942 71.0456 32.4284 71.1515 32.5336C71.2575 32.6389 71.3924 32.7106 71.5393 32.7397C71.6863 32.7687 71.8386 32.7538 71.977 32.6968C72.1154 32.6399 72.2337 32.5434 72.3169 32.4196C72.4001 32.2958 72.4445 32.1502 72.4445 32.0013C72.4445 31.8017 72.3648 31.6102 72.2227 31.469C72.0807 31.3278 71.888 31.2485 71.6871 31.2485Z" fill="black"/>
<path d="M79.9173 32.7463C80.0672 32.7463 80.2136 32.7022 80.3382 32.6195C80.4627 32.5367 80.5598 32.4192 80.6171 32.2816C80.6745 32.1441 80.6895 31.9927 80.6602 31.8467C80.631 31.7006 80.5589 31.5665 80.4529 31.4612C80.347 31.3559 80.212 31.2842 80.0651 31.2552C79.9182 31.2261 79.7659 31.2411 79.6275 31.298C79.4891 31.355 79.3708 31.4515 79.2876 31.5753C79.2043 31.6991 79.1599 31.8446 79.1599 31.9935C79.1599 32.1932 79.2397 32.3847 79.3818 32.5258C79.5238 32.667 79.7165 32.7463 79.9173 32.7463Z" fill="black"/>
<path d="M58.9222 40.4077C58.7724 40.4077 58.626 40.4519 58.5014 40.5346C58.3769 40.6173 58.2798 40.7349 58.2224 40.8724C58.1651 41.01 58.1501 41.1614 58.1793 41.3074C58.2086 41.4534 58.2807 41.5876 58.3866 41.6928C58.4926 41.7981 58.6275 41.8698 58.7745 41.8989C58.9214 41.9279 59.0737 41.913 59.2121 41.856C59.3505 41.7991 59.4688 41.7026 59.552 41.5788C59.6352 41.455 59.6797 41.3094 59.6797 41.1605C59.6797 40.9609 59.5999 40.7694 59.4578 40.6282C59.3158 40.487 59.1231 40.4077 58.9222 40.4077Z" fill="black"/>
<path d="M67.1522 40.4077C67.0024 40.4077 66.856 40.4519 66.7314 40.5346C66.6068 40.6173 66.5098 40.7349 66.4524 40.8724C66.3951 41.01 66.3801 41.1614 66.4093 41.3074C66.4386 41.4534 66.5107 41.5876 66.6166 41.6928C66.7226 41.7981 66.8575 41.8698 67.0044 41.8989C67.1514 41.9279 67.3037 41.913 67.4421 41.856C67.5805 41.7991 67.6988 41.7026 67.782 41.5788C67.8652 41.455 67.9096 41.3094 67.9096 41.1605C67.9096 40.9609 67.8298 40.7694 67.6878 40.6282C67.5457 40.487 67.3531 40.4077 67.1522 40.4077Z" fill="black"/>
<path d="M75.3826 41.9069C75.7991 41.9069 76.1368 41.5713 76.1368 41.1573C76.1368 40.7433 75.7991 40.4077 75.3826 40.4077C74.9661 40.4077 74.6284 40.7433 74.6284 41.1573C74.6284 41.5713 74.9661 41.9069 75.3826 41.9069Z" fill="black"/>
<path d="M58.9222 22.0879C58.7724 22.0879 58.626 22.132 58.5014 22.2148C58.3769 22.2975 58.2798 22.4151 58.2224 22.5526C58.1651 22.6902 58.1501 22.8415 58.1793 22.9876C58.2086 23.1336 58.2807 23.2677 58.3866 23.373C58.4926 23.4783 58.6275 23.55 58.7745 23.579C58.9214 23.6081 59.0737 23.5932 59.2121 23.5362C59.3505 23.4792 59.4688 23.3827 59.552 23.2589C59.6352 23.1351 59.6797 22.9896 59.6797 22.8407C59.6797 22.641 59.5999 22.4496 59.4578 22.3084C59.3158 22.1672 59.1231 22.0879 58.9222 22.0879Z" fill="black"/>
<path d="M67.1522 22.0879C67.0024 22.0879 66.856 22.132 66.7314 22.2148C66.6068 22.2975 66.5098 22.4151 66.4524 22.5526C66.3951 22.6902 66.3801 22.8415 66.4093 22.9876C66.4386 23.1336 66.5107 23.2677 66.6166 23.373C66.7226 23.4783 66.8575 23.55 67.0044 23.579C67.1514 23.6081 67.3037 23.5932 67.4421 23.5362C67.5805 23.4792 67.6988 23.3827 67.782 23.2589C67.8652 23.1351 67.9096 22.9896 67.9096 22.8407C67.9096 22.641 67.8298 22.4496 67.6878 22.3084C67.5457 22.1672 67.3531 22.0879 67.1522 22.0879Z" fill="black"/>
<path d="M74.6284 22.8373C74.6284 22.9862 74.6728 23.1317 74.7561 23.2555C74.8393 23.3793 74.9576 23.4758 75.096 23.5328C75.2344 23.5898 75.3867 23.6047 75.5336 23.5756C75.6806 23.5466 75.8155 23.4749 75.9214 23.3696C76.0274 23.2643 76.0995 23.1302 76.1287 22.9841C76.158 22.8381 76.143 22.6868 76.0856 22.5492C76.0283 22.4116 75.9312 22.2941 75.8067 22.2113C75.6821 22.1286 75.5357 22.0845 75.3859 22.0845C75.185 22.0845 74.9923 22.1638 74.8503 22.305C74.7082 22.4461 74.6284 22.6376 74.6284 22.8373Z" fill="black"/>
</svg>
