<svg width="66" height="64" viewBox="0 0 66 64" fill="none" xmlns="http://www.w3.org/2000/svg">
<path d="M7.82367 45.9849C5.72452 41.9355 4.62996 37.4526 4.62996 32.9048C4.62996 28.3569 5.72452 23.874 7.82367 19.8246C9.83223 15.9797 12.6893 12.6276 16.1848 10.0151L18.8653 15.2807C19.0119 11.8354 20.3603 7.32239 21.7958 4C18.5159 5.59243 14.0152 7.16786 10.5332 7.4916L15.6011 9.67201C12.122 12.3187 9.27537 15.687 7.26265 19.5387C5.11819 23.6755 4 28.255 4 32.9009C4 37.5468 5.11819 42.1263 7.26265 46.2631C9.34878 50.2561 12.3301 53.7279 15.9803 56.4149L16.3549 55.9196C12.7829 53.2899 9.86536 49.8924 7.82367 45.9849Z" fill="black"/>
<path d="M50.0211 7.58594L49.6466 8.08198C53.2187 10.7112 56.1363 14.1085 58.1778 18.0159C60.2769 22.0654 61.3715 26.5482 61.3715 31.0961C61.3715 35.6439 60.2769 40.1268 58.1778 44.1762C56.1687 48.0226 53.3105 51.3758 49.8135 53.9889L47.1345 48.7194C46.988 52.1646 45.6395 56.6777 44.2041 60.0001C47.484 58.4076 51.9847 56.8322 55.4667 56.5085L50.3988 54.3281C53.8779 51.6814 56.7245 48.313 58.7372 44.4613C60.8817 40.3246 61.9999 35.7451 61.9999 31.0992C61.9999 26.4533 60.8817 21.8737 58.7372 17.737C56.6515 13.7444 53.6707 10.2729 50.0211 7.58594Z" fill="black"/>
<path d="M43.2663 45.3197C43.5913 45.6147 43.9728 45.8428 44.3884 45.9905C44.804 46.1382 45.2453 46.2026 45.6864 46.1799C46.1276 46.1572 46.5597 46.0479 46.9574 45.8584C47.3552 45.6688 47.7105 45.4029 48.0027 45.0761C48.2948 44.7493 48.5178 44.3684 48.6587 43.9555C48.7995 43.5426 48.8554 43.1061 48.8229 42.6717C48.7904 42.2373 48.6703 41.8136 48.4696 41.4255C48.2689 41.0375 47.9917 40.6929 47.6541 40.4119C48.5945 38.8191 49.2597 37.0833 49.6224 35.2753H49.6341C50.5146 35.2753 51.359 34.9304 51.9816 34.3164C52.6042 33.7025 52.954 32.8698 52.954 32.0016C52.954 31.1333 52.6042 30.3007 51.9816 29.6867C51.359 29.0728 50.5146 28.7279 49.6341 28.7279H49.6231C49.2605 26.9195 48.5951 25.1833 47.6541 23.5905C48.3141 23.0168 48.7159 22.208 48.7712 21.342C48.8264 20.4761 48.5306 19.624 47.9487 18.9732C47.3669 18.3224 46.5466 17.9261 45.6685 17.8716C44.7904 17.8172 43.9263 18.1089 43.2663 18.6827C40.3951 16.5053 36.8876 15.3004 33.266 15.2475V4.00391H32.6391V15.2475C29.0305 15.3005 25.5352 16.4982 22.6709 18.6634C22.3453 18.3748 21.965 18.1526 21.5519 18.0096C21.1388 17.8667 20.7011 17.8058 20.264 17.8304C19.8269 17.855 19.3991 17.9647 19.0052 18.1532C18.6113 18.3416 18.2592 18.6051 17.969 18.9283C17.6789 19.2516 17.4565 19.6283 17.3147 20.0368C17.1728 20.4452 17.1144 20.8773 17.1427 21.3081C17.1711 21.7389 17.2856 22.1599 17.4797 22.5469C17.6738 22.9338 17.9436 23.2791 18.2737 23.5627C17.3226 25.163 16.6511 26.9096 16.2874 28.7294H16.2757C15.3952 28.7294 14.5508 29.0743 13.9282 29.6883C13.3056 30.3022 12.9558 31.1349 12.9558 32.0031C12.9558 32.8714 13.3056 33.704 13.9282 34.318C14.5508 34.9319 15.3952 35.2768 16.2757 35.2768H16.2874C16.6516 37.0963 17.3225 38.8427 18.2721 40.4435C17.7659 40.8829 17.4074 41.464 17.2445 42.1094C17.0816 42.7547 17.122 43.4337 17.3602 44.0559C17.5985 44.678 18.0234 45.2138 18.5783 45.5919C19.1331 45.9699 19.7916 46.1723 20.466 46.1719C21.2792 46.1725 22.064 45.8773 22.6701 45.3429C25.5356 47.5057 29.031 48.7015 32.6391 48.7534V60H33.266V48.7534C36.8876 48.702 40.3955 47.4976 43.2663 45.3197ZM48.1885 42.8959C48.1885 43.4211 48.0305 43.9346 47.7346 44.3713C47.4387 44.808 47.0181 45.1484 46.526 45.3494C46.034 45.5504 45.4925 45.603 44.9701 45.5005C44.4477 45.398 43.9678 45.1451 43.5912 44.7737C43.2146 44.4023 42.9581 43.9291 42.8542 43.414C42.7503 42.8989 42.8036 42.3649 43.0074 41.8797C43.2113 41.3944 43.5564 40.9797 43.9993 40.6879C44.4422 40.3961 44.9628 40.2403 45.4955 40.2403C46.2093 40.2411 46.8937 40.5211 47.3985 41.0188C47.9034 41.5164 48.1875 42.1912 48.1885 42.8951V42.8959ZM52.3271 32.0016C52.3271 32.5268 52.1692 33.0402 51.8733 33.4769C51.5774 33.9137 51.1568 34.254 50.6647 34.455C50.1726 34.656 49.6311 34.7086 49.1087 34.6061C48.5863 34.5037 48.1065 34.2508 47.7299 33.8794C47.3532 33.508 47.0967 33.0348 46.9928 32.5197C46.8889 32.0045 46.9423 31.4706 47.1461 30.9853C47.3499 30.5001 47.6951 30.0853 48.138 29.7935C48.5808 29.5017 49.1015 29.346 49.6341 29.346C50.3479 29.3466 51.0323 29.6264 51.5371 30.1239C52.042 30.6215 52.3261 31.2962 52.3271 32V32.0016ZM45.4955 18.4501C46.0281 18.4501 46.5488 18.6059 46.9916 18.8977C47.4345 19.1895 47.7797 19.6042 47.9835 20.0894C48.1873 20.5747 48.2407 21.1086 48.1367 21.6238C48.0328 22.1389 47.7763 22.6121 47.3997 22.9835C47.0231 23.3549 46.5432 23.6078 46.0208 23.7103C45.4984 23.8127 44.957 23.7601 44.4649 23.5591C43.9728 23.3582 43.5522 23.0178 43.2563 22.5811C42.9604 22.1444 42.8024 21.6309 42.8024 21.1057C42.8033 20.4016 43.0873 19.7267 43.5921 19.2288C44.097 18.731 44.7815 18.4509 45.4955 18.4501ZM42.8424 19.1401C42.3829 19.7418 42.148 20.4814 42.1774 21.2341C42.2068 21.9868 42.4987 22.7064 43.0039 23.2714C43.509 23.8365 44.1964 24.2123 44.9499 24.3355C45.7035 24.4586 46.4771 24.3216 47.1401 23.9475C48.0214 25.4498 48.6484 27.0837 48.9963 28.785C48.2407 28.9305 47.5598 29.3305 47.0704 29.9165C46.5809 30.5026 46.3133 31.2381 46.3133 31.9973C46.3133 32.7565 46.5809 33.4921 47.0704 34.0781C47.5598 34.6641 48.2407 35.0641 48.9963 35.2096C48.6488 36.9119 48.0221 38.5469 47.1409 40.0503C46.4778 39.6768 45.7044 39.5403 44.9511 39.6637C44.1978 39.7872 43.5107 40.1631 43.0058 40.728C42.5008 41.2929 42.2089 42.0122 42.1793 42.7647C42.1497 43.5171 42.3842 44.2566 42.8432 44.8584C40.0893 46.9345 36.732 48.0832 33.266 48.1352V15.8656C36.7312 15.9184 40.0879 17.0661 42.8424 19.1401ZM17.7691 21.1057C17.7693 20.5805 17.9273 20.0672 18.2232 19.6305C18.5191 19.1939 18.9397 18.8535 19.4317 18.6525C19.9237 18.4514 20.4651 18.3987 20.9875 18.501C21.5099 18.6032 21.9898 18.8559 22.3666 19.2271C22.7434 19.5982 23.0002 20.0712 23.1045 20.5862C23.2089 21.1012 23.156 21.6351 22.9527 22.1205C22.7494 22.6059 22.4047 23.021 21.9623 23.3133C21.5198 23.6056 20.9994 23.7621 20.4668 23.7628C19.7524 23.7622 19.0675 23.4821 18.5624 22.9839C18.0574 22.4857 17.7734 21.8102 17.773 21.1057H17.7691ZM13.5787 32C13.5796 31.296 13.8635 30.621 14.3684 30.1232C14.8733 29.6253 15.5578 29.3453 16.2718 29.3444C16.3501 29.3444 16.4339 29.3444 16.5139 29.3553C17.0341 29.4016 17.5294 29.596 17.9395 29.915C18.3496 30.234 18.6568 30.6636 18.8237 31.1517C18.9905 31.6398 19.0099 32.1651 18.8793 32.6639C18.7488 33.1626 18.474 33.6131 18.0884 33.9605C17.7028 34.3079 17.2231 34.5373 16.7076 34.6207C16.1922 34.704 15.6633 34.6378 15.1854 34.43C14.7075 34.2223 14.3011 33.8819 14.0159 33.4505C13.7306 33.019 13.5787 32.5151 13.5787 32ZM20.4668 45.5515C19.8998 45.5523 19.347 45.3766 18.8871 45.0493C18.4273 44.7221 18.084 44.2601 17.9061 43.7292C17.7281 43.1983 17.7247 42.6255 17.8962 42.0926C18.0678 41.5596 18.4055 41.0937 18.8614 40.7611C19.2037 40.5114 19.6012 40.3452 20.0212 40.2763C20.4412 40.2074 20.8719 40.2377 21.2777 40.3647C21.6836 40.4918 22.0531 40.7119 22.356 41.007C22.6589 41.3022 22.8865 41.6639 23.0201 42.0626C23.1537 42.4613 23.1895 42.8856 23.1247 43.3005C23.0598 43.7155 22.896 44.1094 22.6468 44.4499C22.3977 44.7904 22.0702 45.0678 21.6912 45.2593C21.3122 45.4508 20.8926 45.5509 20.4668 45.5515ZM23.1003 44.8863C23.569 44.2835 23.8105 43.5387 23.7833 42.7796C23.7562 42.0205 23.4621 41.2943 22.9516 40.7255C22.441 40.1568 21.7458 39.7808 20.9849 39.6621C20.2241 39.5434 19.4451 39.6894 18.7814 40.075C17.8944 38.5657 17.2636 36.9235 16.9143 35.2135C17.6696 35.0676 18.3502 34.6674 18.8393 34.0813C19.3285 33.4953 19.596 32.7599 19.596 32.0008C19.596 31.2418 19.3285 30.5063 18.8393 29.9203C18.3502 29.3342 17.6696 28.934 16.9143 28.7881C17.2635 27.0776 17.8948 25.435 18.783 23.9259C19.4464 24.3125 20.2256 24.4593 20.9868 24.341C21.748 24.2228 22.4437 23.8469 22.9544 23.2778C23.4651 22.7088 23.7589 21.9821 23.7854 21.2227C23.8119 20.4633 23.5694 19.7184 23.0995 19.1161C25.8465 17.0572 29.1891 15.9183 32.6391 15.8656V48.1352C29.1896 48.0822 25.8474 46.9435 23.1003 44.8855V44.8863Z" fill="black"/>
</svg>
