<svg width="65" height="64" viewBox="0 0 65 64" fill="none" xmlns="http://www.w3.org/2000/svg">
<path d="M36.209 50.8818C34.1627 52.399 31.9821 53.7264 29.6943 54.8477L29.9908 55.4483C32.3135 54.3083 34.5277 52.9595 36.6059 51.4188C38.728 49.8469 40.6912 48.0714 42.4674 46.1178L41.9701 45.6694C40.2247 47.5907 38.2952 49.3365 36.209 50.8818Z" fill="black"/>
<path d="M48.8232 45.6729L48.3208 46.1154C50.0555 48.0772 51.9886 49.8545 54.0894 51.4189C56.167 52.9605 58.3812 54.3093 60.7045 55.4484L61.0001 54.8486C58.7132 53.7269 56.5335 52.3991 54.488 50.8819C52.425 49.3453 50.5266 47.5997 48.8232 45.6729Z" fill="black"/>
<path d="M46.0228 45.7214H46.9841C47.1355 45.7212 47.2806 45.661 47.3877 45.5541C47.4947 45.4471 47.555 45.3021 47.5552 45.1509V42.0374C47.555 41.8861 47.4947 41.7412 47.3877 41.6342C47.2806 41.5273 47.1355 41.4671 46.9841 41.4669H45.9759C46.094 41.2661 46.2112 41.0645 46.3234 40.8621C48.1146 37.8782 49.3882 34.7296 50.11 31.504C50.9633 27.6802 50.5395 24.8712 48.8112 22.9121C48.0488 22.0342 46.9993 21.455 45.8495 21.2775H45.8327C45.5414 21.2499 45.2482 21.2499 44.9569 21.2775H44.9401C43.7903 21.455 42.7408 22.0342 41.9784 22.9121C40.2501 24.8712 39.8255 27.6802 40.6805 31.504C41.4014 34.7296 42.6751 37.8782 44.4662 40.8621C44.5792 41.0645 44.6956 41.2669 44.8137 41.4669H43.8708C43.7195 41.4671 43.5745 41.5273 43.4675 41.6343C43.3606 41.7412 43.3006 41.8862 43.3006 42.0374V45.1509C43.3006 45.3021 43.3606 45.447 43.4675 45.554C43.5745 45.661 43.7195 45.7212 43.8708 45.7214H44.8321L42.9765 56.1218C42.9524 56.2559 42.9771 56.3941 43.046 56.5116L44.9343 59.7188C44.9843 59.8047 45.056 59.8759 45.1423 59.9252C45.2286 59.9745 45.3264 60.0003 45.4258 59.9999C45.5253 60.0004 45.6233 59.9746 45.7097 59.9253C45.7961 59.876 45.868 59.8048 45.9182 59.7188L47.8089 56.5075C47.8779 56.3899 47.9025 56.2517 47.8784 56.1176L46.0228 45.7214ZM41.3336 31.3609C40.518 27.712 40.8823 25.1707 42.4808 23.3571C43.1393 22.604 44.0401 22.104 45.028 21.9434C45.2721 21.9217 45.5176 21.9217 45.7616 21.9434C46.7495 22.104 47.6504 22.604 48.3088 23.3571C49.9073 25.1707 50.2716 27.7095 49.456 31.3609C48.7501 34.5179 47.5016 37.6013 45.7465 40.525L45.7406 40.535C45.6284 40.7366 45.5129 40.939 45.3948 41.1398C45.2765 40.939 45.1612 40.7374 45.049 40.535L45.044 40.525C43.3236 37.6886 42.0709 34.5945 41.3336 31.3609ZM43.9705 42.1386H46.8887V45.0547H43.9705V42.1386ZM45.4291 59.237L43.6422 56.203L45.4291 46.1899L47.2161 56.203L45.4291 59.237Z" fill="black"/>
<path d="M18.3901 27.5238C17.5619 26.2096 18.8138 24.5834 20.3998 22.5231C21.8233 20.6727 23.4377 18.5747 24.0431 16.0526C24.5966 13.7489 23.7618 11.4267 21.6282 9.33791C20.778 8.51651 19.8346 7.79724 18.8171 7.19475C22.9928 5.16973 27.6467 4.33473 32.2667 4.78163C36.8868 5.22853 41.2939 6.94001 45.0031 9.72772C44.273 10.6978 43.6171 11.7216 43.0411 12.7902C41.6528 15.3834 41.1211 17.6102 41.4602 19.4188C41.5483 19.8848 41.5801 20.3597 41.5548 20.8333L42.2247 20.8676C42.2517 20.3414 42.2165 19.8138 42.12 19.2958C41.4677 15.8217 44.6815 11.2652 45.5306 10.1426C46.2715 10.7337 46.9791 11.3654 47.65 12.0348C50.4456 14.8162 52.5448 18.2173 53.7769 21.9618C53.0417 21.8028 51.7145 21.5711 50.3957 21.6272L50.425 22.2964C51.9322 22.2311 53.4956 22.5758 54.0055 22.7013C55.0208 26.1651 55.2807 29.8061 54.7678 33.3788C54.2549 36.9514 52.981 40.3727 51.032 43.4117L51.5947 43.774C54.6078 39.0872 56.0229 33.5528 55.629 27.9967C55.2351 22.4406 53.0533 17.1607 49.4092 12.9449C45.7651 8.7292 40.8541 5.80368 35.4091 4.605C29.9641 3.40633 24.277 3.99876 19.1967 6.29388C14.1164 8.589 9.91519 12.4637 7.2201 17.3399C4.52501 22.216 3.48054 27.832 4.24257 33.3497C5.0046 38.8675 7.53227 43.9912 11.4483 47.9561C15.3644 51.921 20.4589 54.5146 25.9715 55.3497L26.0712 54.688C22.098 54.0851 18.3267 52.5416 15.0722 50.1862C11.8177 47.8308 9.17441 44.7319 7.3629 41.1481C7.52116 40.4973 8.38531 37.3261 10.3715 36.3097C11.2147 35.8789 12.1744 35.8915 13.2244 36.3599C15.0666 37.1755 24.3446 41.0971 26.1357 38.2605C27.1045 36.7263 24.4609 34.0444 21.6692 31.2061C20.2934 29.805 18.9938 28.4849 18.3901 27.5238ZM25.5704 37.8966C25.0831 38.6687 23.462 38.8101 21.0043 38.2964C18.1406 37.6967 15.0716 36.4385 13.4974 35.7417C12.2531 35.1913 11.0984 35.1796 10.0642 35.7083C8.27311 36.6284 7.32605 38.9347 6.92161 40.2255C4.27213 34.3822 3.95314 27.7495 6.02967 21.6794C8.10621 15.6094 12.4219 10.559 18.097 7.5578C19.2152 8.17727 20.2475 8.94024 21.1676 9.82727C23.1429 11.7671 23.8899 13.8091 23.3883 15.897C22.8164 18.2803 21.2488 20.318 19.8655 22.1157C18.1908 24.2906 16.7447 26.172 17.8215 27.881C18.4654 28.9024 19.7893 30.2475 21.1919 31.6712C23.3305 33.8412 26.2554 36.8133 25.5688 37.8991L25.5704 37.8966Z" fill="black"/>
</svg>
