<svg width="68" height="64" viewBox="0 0 68 64" fill="none" xmlns="http://www.w3.org/2000/svg">
<path d="M57.8787 31.3661H45.9844C46.9412 30.8622 47.7418 30.1094 48.3003 29.1883C48.8589 28.2672 49.1544 27.2126 49.1551 26.1375V9.91824C49.1533 8.3492 48.5245 6.84495 47.4068 5.73547C46.2891 4.62598 44.7737 4.00186 43.193 4H25.0156C23.4349 4.00163 21.9193 4.62567 20.8016 5.73521C19.6838 6.84474 19.0551 8.34913 19.0535 9.91824V26.0945H19.7606V9.91824C19.7623 8.53529 20.3164 7.20945 21.3016 6.23156C22.2867 5.25366 23.6224 4.70357 25.0156 4.70194H43.193C44.5862 4.70357 45.9219 5.25366 46.907 6.23156C47.8922 7.20945 48.4463 8.53529 48.448 9.91824V26.1375C48.4454 27.5198 47.8908 28.8448 46.9058 29.8219C45.9207 30.799 44.5856 31.3486 43.193 31.3503H9.96217C8.38141 31.3519 6.86586 31.9759 5.74809 33.0855C4.63032 34.195 4.00164 35.6994 4 37.2685V54.0818C4.00164 55.6509 4.63032 57.1553 5.74809 58.2648C6.86586 59.3743 8.38141 59.9984 9.96217 60H30.9115C31.3765 60 31.8368 59.9086 32.266 59.731C32.6951 59.5533 33.0845 59.293 33.4117 58.9652C33.739 58.6373 33.9975 58.2482 34.1723 57.8206C34.3472 57.3929 34.4349 56.9351 34.4305 56.4736L34.2537 37.7915C34.2619 36.3142 34.8139 34.8908 35.8059 33.7895C36.8127 32.6796 38.128 32.068 39.5087 32.068H57.8787C59.3141 32.0696 60.6903 32.6364 61.7053 33.6439C62.7203 34.6514 63.2912 36.0174 63.2929 37.4422V54.1002H64V37.4422C63.9981 35.8313 63.3526 34.2869 62.2051 33.1478C61.0575 32.0087 59.5016 31.3679 57.8787 31.3661ZM33.5421 37.795L33.7189 56.4841C33.7223 56.8529 33.6521 57.2186 33.5123 57.5602C33.3725 57.9018 33.1659 58.2126 32.9045 58.4745C32.6431 58.7365 32.332 58.9444 31.9892 59.0864C31.6463 59.2283 31.2786 59.3015 30.9071 59.3016H9.95775C8.56453 59.2999 7.22885 58.7498 6.2437 57.7719C5.25855 56.7941 4.70437 55.4682 4.70273 54.0853V37.272C4.70344 35.8877 5.25781 34.5603 6.24401 33.5815C7.23022 32.6027 8.56758 32.0527 9.96217 32.0522H36.8631C34.9131 33.1262 33.5421 35.3241 33.5421 37.795Z" fill="black"/>
<path d="M28.2537 24.4553C28.342 24.4553 28.4145 24.3877 28.4693 24.2517L30.1338 20.3156H38.1264L39.7908 24.264C39.8456 24.393 39.9207 24.4579 40.0171 24.4579H40.048C40.1212 24.4561 40.1909 24.4269 40.2434 24.3763C40.2723 24.3528 40.2956 24.3232 40.3117 24.2896C40.3277 24.2561 40.3361 24.2195 40.3362 24.1824C40.3349 24.1366 40.3244 24.0916 40.3053 24.0499L34.4191 10.1286C34.3963 10.0615 34.3534 10.0027 34.2963 9.96018C34.2571 9.93252 34.2108 9.91668 34.1628 9.91455H34.1115C34.0543 9.92408 34.0008 9.94899 33.9569 9.98658C33.9129 10.0242 33.8802 10.073 33.8622 10.1278L27.9664 24.0473C27.9457 24.0955 27.9352 24.1475 27.9354 24.1999C27.9334 24.2356 27.9397 24.2712 27.954 24.3039C27.9683 24.3367 27.9901 24.3657 28.0176 24.3886C28.0761 24.4344 28.1491 24.458 28.2236 24.4553H28.2537ZM34.1424 10.8429L37.8921 19.7549H30.3725L34.1424 10.8429Z" fill="black"/>
<path d="M15.0503 54.0448H21.7894C22.4388 54.0202 23.0699 53.8249 23.6183 53.4788C24.1737 53.135 24.633 52.658 24.9539 52.0916C25.2791 51.5313 25.4492 50.8957 25.4472 50.249C25.4457 49.6783 25.3197 49.1146 25.0777 48.5968C24.8382 48.0698 24.496 47.5951 24.0709 47.2C23.6735 46.8212 23.1912 46.5415 22.6636 46.384C23.2716 46.0785 23.7894 45.6217 24.1663 45.0582C24.5393 44.492 24.7326 43.8279 24.7214 43.1515C24.7284 42.4982 24.5524 41.8557 24.2132 41.2958C23.8799 40.7457 23.4072 40.2919 22.8422 39.9796C22.266 39.6563 21.6142 39.4893 20.9523 39.4953H15.0529C14.8682 39.4953 14.7754 39.5874 14.7727 39.7708V53.7596C14.7727 53.9503 14.8652 54.0454 15.0503 54.0448ZM23.1171 47.2377C23.6305 47.5466 24.0635 47.971 24.3811 48.4766C24.725 49.0122 24.9035 49.6359 24.8947 50.271C24.8814 50.7497 24.7676 51.2204 24.5606 51.6529C24.3312 52.1607 23.9782 52.604 23.5334 52.9427C23.0708 53.3037 22.4972 53.4838 21.8124 53.4832H15.3305V46.7928H21.6904C22.1418 46.7928 22.6174 46.9411 23.1171 47.2377ZM15.3305 40.0533H20.9497C21.5145 40.0488 22.0707 40.1913 22.5629 40.4666C23.0474 40.7337 23.4531 41.1221 23.7394 41.5932C24.0295 42.0661 24.1807 42.6101 24.176 43.1638C24.1831 43.7161 24.0316 44.2591 23.7394 44.7291C23.4507 45.1911 23.045 45.5698 22.5629 45.8277C22.0686 46.0964 21.5132 46.235 20.9497 46.2304H15.3305V40.0533Z" fill="black"/>
<path d="M54.7232 41.0494C54.0735 40.5141 53.3394 40.0887 52.5505 39.7903C51.7545 39.4923 50.9102 39.3418 50.0595 39.3463C48.7378 39.3412 47.4377 39.6792 46.2881 40.3267C45.1386 40.9742 44.1795 41.9087 43.506 43.0376C42.8389 44.1728 42.4878 45.4636 42.4885 46.7778C42.4893 48.092 42.842 49.3824 43.5104 50.5168C44.1764 51.641 45.1272 52.5727 46.2683 53.2193C47.4198 53.8804 48.7285 54.2237 50.0587 54.2134C50.9119 54.2178 51.7585 54.064 52.5549 53.7597C53.342 53.4575 54.0717 53.0246 54.7126 52.4796C54.7545 52.4495 54.7884 52.4099 54.8116 52.3641C54.8349 52.3183 54.8467 52.2676 54.8461 52.2164C54.8475 52.1864 54.8427 52.1565 54.8321 52.1284C54.8215 52.1004 54.8052 52.0747 54.7842 52.0532L54.7639 52.033C54.7408 52.0098 54.7132 51.9916 54.6828 51.9794C54.6524 51.9671 54.6199 51.9612 54.5871 51.9619C54.5036 51.9637 54.4234 51.9948 54.3608 52.0496C53.019 53.0967 51.5843 53.6202 50.0569 53.6202C48.839 53.6267 47.6406 53.3173 46.5803 52.7227C45.5199 52.128 44.6345 51.2687 44.0116 50.2299C43.3976 49.1806 43.0742 47.9888 43.0742 46.7754C43.0742 45.562 43.3976 44.3702 44.0116 43.321C44.6227 42.2859 45.5001 41.4308 46.5538 40.8432C47.6224 40.2394 48.8327 39.9265 50.0622 39.9359C51.5885 39.9359 53.0266 40.4527 54.3767 41.4863C54.4414 41.5369 54.5207 41.5655 54.603 41.5679C54.6451 41.5687 54.6868 41.561 54.7258 41.5451C54.7647 41.5293 54.7999 41.5057 54.8293 41.4758L54.8399 41.4653L54.8602 41.4249C54.8626 41.4106 54.8677 41.3969 54.8752 41.3845C54.8848 41.3654 54.8899 41.3445 54.8903 41.3231C54.8876 41.2433 54.8328 41.1512 54.7232 41.0494Z" fill="black"/>
</svg>
