<svg width="58" height="64" viewBox="0 0 58 64" fill="none" xmlns="http://www.w3.org/2000/svg">
<path d="M32.1172 25.0925C32.4955 25.3399 32.9399 25.4721 33.3947 25.4727C34.8589 25.4727 36.0504 24.0736 36.0504 22.3552C36.0504 20.6368 34.8589 19.2377 33.3947 19.2377C33.3412 19.2377 33.2885 19.2377 33.235 19.2438C33.2682 18.5849 33.2596 17.9247 33.2094 17.2668C33.0164 14.8611 32.2017 12.8203 30.7816 11.2007C29.2398 9.43512 26.9375 8.49456 24.767 8.74091L24.8384 9.3454C26.7522 9.12794 28.7917 9.93848 30.1986 11.4676C29.9862 12.1017 29.125 14.5341 27.6359 16.8973C26.6282 18.4941 25.543 19.738 24.405 20.6026C23.0648 21.6192 21.6478 22.1035 20.1889 22.0472C20.0501 21.3964 19.9346 20.7371 19.8385 20.0627C19.8346 20.0346 19.4897 17.2266 19.8688 15.2329L19.2587 15.1219C18.8618 17.2083 19.2083 20.0186 19.2238 20.1403C19.8439 24.5025 21.2695 28.2107 24.2872 33.3006C22.6849 34.6343 20.9447 35.9733 19.1758 37.3351C14.9511 40.5864 10.5822 43.9502 7.62963 47.6273C4.25145 51.8352 3.24528 55.8826 4.55299 59.9999L5.14522 59.8197C2.35927 51.0497 11.1024 44.3205 19.5579 37.8133C21.2935 36.4774 23.002 35.1627 24.5841 33.8503C25.8972 36.4356 34.1311 52.6807 37.1914 59.9657L37.765 59.7376C34.6365 52.2883 26.1313 35.5285 25.0701 33.4435C28.3057 30.7138 30.9505 27.9864 32.1172 25.0925ZM33.3947 19.846C34.5171 19.846 35.4302 20.9721 35.4302 22.3552C35.4302 23.7383 34.5171 24.8644 33.3947 24.8644C33.0096 24.8603 32.6369 24.7303 32.3358 24.4948C32.4117 24.2642 32.4776 24.0328 32.5334 23.8006C32.8574 22.5036 33.079 21.184 33.1962 19.8536C33.2621 19.847 33.3284 19.8442 33.3947 19.8452V19.846ZM20.3269 22.6593H20.4222C21.9377 22.6593 23.4027 22.1271 24.7833 21.0831C25.9817 20.1707 27.1189 18.8727 28.1623 17.2167C29.4917 15.1067 30.3188 12.9891 30.6614 12.0219C31.7761 13.4666 32.4249 15.2443 32.5908 17.3102C32.7373 19.1404 32.5218 21.2184 31.9304 23.663C31.1591 26.8565 28.346 29.866 24.7655 32.8976C22.4415 28.9703 21.0896 25.8795 20.3269 22.6586V22.6593Z" fill="black"/>
<path d="M31.3559 22.3563C31.3559 20.6363 30.1637 19.2388 28.6994 19.2388C27.2351 19.2388 26.0437 20.6378 26.0437 22.3563C26.0437 24.0747 27.2351 25.4737 28.6994 25.4737C30.1637 25.4737 31.3559 24.0754 31.3559 22.3563ZM26.6638 22.3563C26.6638 20.9716 27.577 19.8471 28.6994 19.8471C29.8218 19.8471 30.7358 20.9732 30.7358 22.3563C30.7358 23.7393 29.8218 24.8654 28.6994 24.8654C27.577 24.8654 26.6669 23.7409 26.6669 22.3563H26.6638Z" fill="black"/>
<path d="M18.4672 13.9974C19.0699 14.301 19.7362 14.4635 20.4136 14.4719C20.9535 14.474 21.4866 14.3543 21.9717 14.1221C23.026 13.6157 23.7546 12.6234 24.019 11.3293C24.2794 10.0641 24.0678 8.65587 23.4221 7.36325C22.0748 4.66777 19.2362 3.31433 17.0882 4.34614C16.0339 4.85254 15.3053 5.84405 15.041 7.13895C14.7805 8.40343 14.9921 9.81238 15.6378 11.105C16.2836 12.3976 17.2889 13.4249 18.4672 13.9974ZM15.6487 7.25908C15.8758 6.15428 16.4843 5.31332 17.361 4.89208C17.7603 4.70135 18.199 4.60327 18.6432 4.60542C20.2214 4.60542 21.9291 5.76345 22.8616 7.6309C23.4477 8.80338 23.6414 10.0739 23.4081 11.2046C23.181 12.3102 22.5725 13.1504 21.6958 13.5716C20.8191 13.9928 19.7695 13.9518 18.7401 13.4492C17.6827 12.9352 16.7781 12.0045 16.1921 10.8335C15.6061 9.66259 15.4154 8.39354 15.6487 7.25908Z" fill="black"/>
<path d="M37.5211 22.6769L37.4351 23.2793L40.4604 23.6953L40.5465 23.0929L37.5211 22.6769Z" fill="black"/>
<path d="M31.1232 30.3078L31.0371 30.9102L39.268 32.042L39.354 31.4396L31.1232 30.3078Z" fill="black"/>
<path d="M29.9518 38.6564L29.8657 39.2588L38.0751 40.3876L38.1612 39.7852L29.9518 38.6564Z" fill="black"/>
<path d="M33.9583 47.7209L33.8721 48.3232L36.8859 48.7382L36.9721 48.1358L33.9583 47.7209Z" fill="black"/>
<path d="M44.2687 11.8091C44.3433 11.9058 44.3976 12.0161 44.4285 12.1336C44.4594 12.251 44.4662 12.3733 44.4485 12.4934L43.8284 16.8214C43.7936 17.0636 43.6622 17.2824 43.4631 17.4297C43.264 17.5769 43.0134 17.6406 42.7664 17.6068L34.6473 16.4891L34.5605 17.0913L42.6819 18.2083C42.7548 18.2182 42.8284 18.2233 42.902 18.2235C43.2779 18.2227 43.6408 18.0889 43.9242 17.8467C44.2076 17.6045 44.3924 17.2701 44.4446 16.905L45.0648 12.577C45.0932 12.3779 45.0814 12.1753 45.03 11.9806C44.9785 11.786 44.8885 11.6032 44.7651 11.4427C44.6416 11.2822 44.4871 11.1472 44.3105 11.0452C44.1338 10.9433 43.9384 10.8765 43.7354 10.8487L29.8056 8.93262L29.7188 9.53482L43.6478 11.4532C43.7701 11.4695 43.8879 11.5093 43.9944 11.5703C44.101 11.6314 44.1942 11.7125 44.2687 11.8091Z" fill="black"/>
<path d="M47.5439 26.7601L47.9206 24.1254L47.3067 24.041L46.9299 26.6757C46.9069 26.8368 46.8195 26.9823 46.6871 27.0803C46.5547 27.1782 46.388 27.2206 46.2238 27.198L43.144 26.7745C42.9799 26.7517 42.8317 26.666 42.732 26.5361C42.6323 26.4062 42.5892 26.2428 42.6122 26.0818L42.6897 25.5169L42.0758 25.4317L41.9983 25.9974C41.9757 26.1565 41.9852 26.3183 42.0264 26.4737C42.0675 26.6291 42.1395 26.775 42.2382 26.9031C42.3369 27.0312 42.4604 27.139 42.6016 27.2203C42.7428 27.3015 42.8989 27.3547 43.0611 27.3767L46.1377 27.801C46.196 27.8088 46.2548 27.8129 46.3137 27.8132C46.6135 27.8124 46.903 27.7055 47.129 27.5122C47.355 27.3189 47.5023 27.0521 47.5439 26.7608V26.7601Z" fill="black"/>
<path d="M42.4602 22.7622L43.0741 22.8466C43.0972 22.6855 43.1845 22.54 43.317 22.442C43.4494 22.3441 43.6161 22.3017 43.7803 22.3242L46.5934 22.7113L46.6794 22.1091L43.8664 21.722C43.5394 21.6776 43.2077 21.7621 42.9441 21.9571C42.6805 22.1521 42.5065 22.4416 42.4602 22.7622Z" fill="black"/>
<path d="M46.8029 31.9463C46.8482 31.6257 46.762 31.3004 46.5633 31.042C46.3645 30.7836 46.0693 30.6131 45.7425 30.5678L42.91 30.1777L42.824 30.7807L45.6564 31.17C45.8204 31.1928 45.9684 31.2785 46.0681 31.4082C46.1678 31.5379 46.211 31.701 46.1882 31.8619L45.7526 34.9148L46.3665 34.9992L46.8029 31.9463Z" fill="black"/>
<path d="M41.8339 31.5268L41.22 31.4424L40.7944 34.42C40.7489 34.7406 40.8349 35.0658 41.0335 35.3242C41.2322 35.5827 41.5273 35.7533 41.8541 35.7985L44.7222 36.1924L44.8082 35.5902L41.9401 35.1963C41.7761 35.1735 41.6281 35.0878 41.5284 34.9581C41.4287 34.8284 41.3856 34.6652 41.4083 34.5044L41.8339 31.5268Z" fill="black"/>
<path d="M42.6097 52.9225C42.6681 52.9303 42.7268 52.9343 42.7857 52.9346C43.0855 52.9338 43.375 52.827 43.601 52.6336C43.827 52.4403 43.9743 52.1736 44.0159 51.8823L44.481 48.647C44.5037 48.4878 44.4943 48.3259 44.4532 48.1703C44.4121 48.0148 44.3401 47.8687 44.2414 47.7405C44.1427 47.6122 44.0192 47.5044 43.878 47.423C43.7367 47.3416 43.5805 47.2883 43.4182 47.2662L40.3385 46.8426C40.0115 46.7982 39.6799 46.8827 39.4163 47.0777C39.1527 47.2727 38.9787 47.5622 38.9324 47.8828L38.4673 51.1181C38.4217 51.4388 38.5077 51.7641 38.7063 52.0227C38.905 52.2813 39.2001 52.452 39.5269 52.4974L42.6097 52.9225ZM39.0843 51.2041L39.5494 47.9687C39.5704 47.8222 39.6447 47.688 39.7587 47.591C39.8727 47.494 40.0186 47.4407 40.1695 47.441C40.1988 47.441 40.2281 47.4427 40.2571 47.4464L43.3368 47.8699C43.4182 47.881 43.4965 47.9077 43.5673 47.9486C43.6381 47.9894 43.6999 48.0436 43.7493 48.1079C43.7987 48.1723 43.8347 48.2456 43.8552 48.3236C43.8756 48.4016 43.8802 48.4828 43.8686 48.5626L43.4035 51.7979C43.3804 51.9589 43.2932 52.1043 43.161 52.2022C43.0287 52.3001 42.8622 52.3426 42.6981 52.3203L39.6176 51.8968C39.4533 51.8741 39.3049 51.7885 39.2049 51.6586C39.1049 51.5287 39.0615 51.3653 39.0843 51.2041Z" fill="black"/>
<path d="M40.6619 44.1444L43.7417 44.5679C43.7992 44.5761 43.8572 44.5802 43.9153 44.5801C44.2153 44.5795 44.5049 44.4729 44.7312 44.2797C44.9574 44.0865 45.1051 43.8198 45.147 43.5285L45.6121 40.2932C45.6355 40.1343 45.6266 39.9723 45.5859 39.8168C45.5452 39.6612 45.4734 39.5151 45.3749 39.3869C45.2763 39.2587 45.1528 39.1509 45.0115 39.0697C44.8702 38.9885 44.714 38.9356 44.5517 38.9139L41.472 38.4904C41.31 38.4676 41.1451 38.4764 40.9866 38.5163C40.8282 38.5563 40.6794 38.6266 40.5487 38.7232C40.4181 38.8198 40.3082 38.9408 40.2255 39.0793C40.1428 39.2177 40.0887 39.3708 40.0666 39.5298L39.6015 42.7659C39.5782 42.9248 39.5872 43.0866 39.628 43.2421C39.6688 43.3976 39.7405 43.5436 39.8391 43.6717C39.9377 43.7999 40.0611 43.9076 40.2023 43.9887C40.3436 44.0699 40.4997 44.1228 40.6619 44.1444ZM40.2154 42.8518L40.6805 39.6165C40.7036 39.4555 40.7908 39.3101 40.9231 39.2122C41.0553 39.1143 41.2218 39.0718 41.3859 39.0941L44.4657 39.5177C44.6298 39.5403 44.778 39.6258 44.8778 39.7556C44.9777 39.8853 45.021 40.0486 44.9982 40.2096L44.5331 43.4456C44.5099 43.6065 44.4225 43.7517 44.2903 43.8495C44.1581 43.9472 43.9917 43.9896 43.8277 43.9672L40.748 43.5407C40.5842 43.5181 40.4362 43.4327 40.3364 43.3033C40.2366 43.1739 40.1931 43.011 40.2154 42.8503V42.8518Z" fill="black"/>
<path d="M48.9298 13.7839L46.6818 13.4745L46.6152 13.4653L46.5291 14.0675L48.8414 14.3861C49.0196 14.4102 49.1963 14.4434 49.3709 14.4857C50.5031 14.7609 51.5106 15.3958 52.2364 16.2915C52.9621 17.1871 53.3654 18.2932 53.3832 19.4372C53.3868 19.7004 53.3697 19.9635 53.332 20.2242L49.4352 47.4946L48.5577 53.6307C48.5469 53.7067 48.5329 53.7881 48.5182 53.8656L48.5066 53.9227C48.4918 53.9987 48.4756 54.0747 48.457 54.1455C48.457 54.1455 48.457 54.1454 48.457 54.1508C48.436 54.2321 48.4135 54.3127 48.3895 54.3918C48.3895 54.3994 48.3849 54.4063 48.3833 54.4131C48.0168 55.5921 47.2338 56.6042 46.1749 57.2679C45.116 57.9315 43.8507 58.2031 42.606 58.0339L39.0348 57.5428L38.9487 58.1457L42.5184 58.6369C42.7906 58.6746 43.0652 58.6937 43.3401 58.6939C43.9974 58.6936 44.65 58.5843 45.2702 58.3708C46.1199 58.0827 46.8907 57.6072 47.5233 56.9807C48.1559 56.3542 48.6334 55.5936 48.919 54.7575C48.9732 54.5971 49.0213 54.4344 49.0616 54.2686C49.0662 54.2496 49.0709 54.2306 49.0748 54.2116C49.0895 54.15 49.1027 54.0884 49.1151 54.0261C49.1197 54.004 49.1244 53.9812 49.1283 53.9592C49.143 53.8786 49.1569 53.798 49.1686 53.7166L53.9436 20.3101C54.159 18.7928 53.7521 17.2537 52.8122 16.0303C51.8723 14.8068 50.4761 13.999 48.9298 13.7839Z" fill="black"/>
<path d="M47.8438 22.061L44.4719 25.4637L41.9704 23.0601L41.5371 23.4943L44.482 26.3251L48.288 22.4846L47.8438 22.061Z" fill="black"/>
<path d="M46.3587 36.2851L44.213 33.2322L45.7912 31.8803L45.3835 31.4225L43.858 32.7281L41.8209 29.8296L41.3108 30.1756L43.3882 33.1311L41.8053 34.486L42.2131 34.9438L43.7425 33.6352L45.8478 36.6303L46.3587 36.2851Z" fill="black"/>
</svg>
