<svg width="79" height="64" viewBox="0 0 79 64" fill="none" xmlns="http://www.w3.org/2000/svg">
<path d="M30.8584 19.8457C29.646 19.8468 28.4719 20.2704 27.5385 21.0435C26.6051 21.8167 25.9708 22.891 25.7449 24.0813L25.6799 24.4262L26.3703 24.5561L26.4353 24.2112C26.6435 23.1089 27.256 22.1241 28.1529 21.4495C29.0498 20.775 30.1664 20.4593 31.284 20.5644C32.4016 20.6695 33.4396 21.1878 34.1948 22.0177C34.95 22.8476 35.3679 23.9294 35.3667 25.0511V36.2466H36.0693V25.0511C36.0677 23.6708 35.5181 22.3474 34.5412 21.3715C33.5642 20.3956 32.2398 19.8469 30.8584 19.8457Z" fill="black"/>
<path d="M35.3648 54.7955C35.3632 55.9149 34.9444 56.9935 34.1901 57.821C33.4358 58.6485 32.4 59.1656 31.2849 59.2713C30.1697 59.3771 29.0552 59.064 28.1585 58.3931C27.2619 57.7221 26.6475 56.7415 26.4352 55.6425L26.3552 55.2212L25.9574 55.3827C25.1211 55.7244 24.2013 55.8068 23.3177 55.619C22.434 55.4312 21.6273 54.982 21.0026 54.3298C20.3779 53.6776 19.964 52.8527 19.815 51.9622C19.6659 51.0718 19.7885 50.1572 20.1667 49.3373L20.3889 48.8555L19.862 48.8406C18.592 48.8034 17.3865 48.2733 16.5011 47.3628C15.6157 46.4523 15.12 45.233 15.1191 43.9634V43.6123H14.4165V43.9634C14.4168 45.3307 14.9193 46.6503 15.8287 47.6719C16.738 48.6935 17.991 49.3461 19.3499 49.5058C19.1563 50.0545 19.0577 50.632 19.0583 51.2138C19.0597 52.5937 19.6089 53.9168 20.5853 54.8927C21.5617 55.8686 22.8856 56.4176 24.2666 56.4192C24.8033 56.4198 25.3367 56.3366 25.8476 56.1726C26.1823 57.3867 26.9462 58.4383 27.9977 59.1326C29.0492 59.8268 30.317 60.1165 31.5659 59.9479C32.8148 59.7794 33.9602 59.164 34.7898 58.2159C35.6193 57.2678 36.0767 56.0514 36.0771 54.792V54.4409H35.3745L35.3648 54.7955Z" fill="black"/>
<path d="M56.2525 52.0068C56.2514 53.0073 55.8531 53.9666 55.1451 54.6741C54.4371 55.3816 53.4771 55.7796 52.4758 55.7807C51.895 55.7811 51.322 55.6458 50.8027 55.3858L50.3873 55.1804L50.2994 55.6351C50.0902 56.7362 49.4775 57.7198 48.581 58.3934C47.6845 59.067 46.5687 59.3822 45.452 59.2773C44.3353 59.1723 43.2979 58.6549 42.5427 57.8261C41.7876 56.9973 41.369 55.9168 41.3689 54.796V43.604H40.6663V54.7969C40.6663 56.055 41.1226 57.2705 41.9505 58.2184C42.7784 59.1662 43.9219 59.7823 45.1694 59.9524C46.4169 60.1226 47.6838 59.8354 48.7356 59.1439C49.7875 58.4524 50.553 57.4036 50.8905 56.1915C51.3951 56.3849 51.931 56.484 52.4715 56.4838C53.659 56.4824 54.7975 56.0103 55.6373 55.1712C56.477 54.3321 56.9494 53.1944 56.9508 52.0077V49.9732H56.2481L56.2525 52.0068Z" fill="black"/>
<path d="M67.451 34.8711C67.0907 34.6666 66.6922 34.5381 66.2802 34.4937L61.3284 34.4735H61.1018C61.071 34.4693 61.0396 34.4723 61.0102 34.4822C60.9807 34.4921 60.9539 34.5086 60.9318 34.5305C60.9097 34.5524 60.893 34.5791 60.8829 34.6084C60.8728 34.6378 60.8695 34.6691 60.8734 34.6999V46.1851C60.8734 46.3413 60.949 46.4194 61.0992 46.4194C61.1292 46.4195 61.159 46.4137 61.1868 46.4023C61.2146 46.3909 61.2399 46.3741 61.2612 46.3529C61.2825 46.3317 61.2994 46.3065 61.3109 46.2787C61.3225 46.251 61.3284 46.2212 61.3284 46.1912V40.446H66.1362C66.6575 40.451 67.17 40.3119 67.617 40.044C68.1224 39.7345 68.5145 39.2703 68.7351 38.7205C68.6929 38.7942 68.6473 38.8653 68.599 38.9347C68.7318 38.7122 68.8315 38.4715 68.8949 38.2202V38.2115C68.9238 38.0918 68.9455 37.9704 68.9599 37.8481C68.9599 37.8218 68.9661 37.7955 68.9678 37.7709C68.9696 37.7463 68.9678 37.7463 68.9678 37.7358C68.9749 37.648 68.9784 37.5655 68.9784 37.4786C68.9838 36.9422 68.8403 36.4148 68.5638 35.955C68.2939 35.5028 67.9103 35.1292 67.451 34.8711ZM68.5269 37.7621C68.4921 38.1206 68.3752 38.4662 68.1853 38.7723C67.95 39.1524 67.619 39.4641 67.2253 39.6763C66.9261 39.8406 66.5981 39.9458 66.2592 39.9861C66.1426 39.9999 66.0253 40.0069 65.9078 40.0072H61.3284V34.9343H65.9105C66.3717 34.9303 66.8259 35.0471 67.2279 35.273C67.6232 35.4924 67.9542 35.8113 68.1879 36.1981C68.4227 36.5869 68.5444 37.0334 68.5392 37.4874C68.5401 37.5791 68.536 37.6708 68.5269 37.7621Z" fill="black"/>
<path d="M64.2409 29.1714C62.1127 29.1712 60.0323 29.8017 58.2627 30.983C56.4931 32.1644 55.1138 33.8436 54.2993 35.8083C53.4848 37.773 53.2715 39.935 53.6866 42.0208C54.1017 44.1066 55.1264 46.0225 56.6312 47.5263C58.136 49.0302 60.0533 50.0543 62.1405 50.4693C64.2278 50.8842 66.3913 50.6713 68.3575 49.8575C70.3237 49.0437 72.0042 47.6656 73.1866 45.8974C74.369 44.1292 75.0001 42.0503 75.0001 39.9237C74.9968 37.0731 73.8622 34.3403 71.8452 32.3246C69.8282 30.3088 67.0935 29.1749 64.2409 29.1714ZM64.2409 49.972C62.2516 49.9722 60.307 49.3829 58.6529 48.2786C56.9988 47.1743 55.7096 45.6046 54.9483 43.7681C54.187 41.9316 53.9878 39.9107 54.3759 37.9611C54.764 36.0115 55.722 34.2206 57.1287 32.8151C58.5354 31.4095 60.3276 30.4524 62.2787 30.0647C64.2298 29.6771 66.2521 29.8763 68.0898 30.6372C69.9276 31.3981 71.4983 32.6865 72.6032 34.3395C73.7082 35.9925 74.2978 37.9358 74.2974 39.9237C74.2944 42.588 73.2339 45.1423 71.3486 47.0262C69.4633 48.9102 66.9071 49.9699 64.2409 49.9729V49.972Z" fill="black"/>
<path d="M50.4164 20.2297C50.4164 20.1685 50.3921 20.1098 50.3487 20.0665C50.3054 20.0232 50.2467 19.9989 50.1854 19.9989H43.2038V8.74197C43.2036 8.68167 43.1795 8.6239 43.137 8.58118C43.0944 8.53846 43.0366 8.51424 42.9763 8.51378C42.9445 8.51066 42.9125 8.51429 42.8822 8.52442C42.8519 8.53456 42.8241 8.55097 42.8006 8.57258C42.7595 8.62141 42.7393 8.68449 42.7444 8.74812V20.2332C42.7403 20.2641 42.7434 20.2955 42.7535 20.3249C42.7635 20.3544 42.7803 20.3811 42.8024 20.4031C42.8245 20.425 42.8514 20.4415 42.881 20.4513C42.9105 20.4611 42.9419 20.464 42.9728 20.4597H50.181C50.2117 20.4604 50.2422 20.4549 50.2707 20.4437C50.2992 20.4325 50.3252 20.4156 50.3471 20.3942C50.3691 20.3728 50.3865 20.3472 50.3984 20.319C50.4103 20.2907 50.4164 20.2604 50.4164 20.2297Z" fill="black"/>
<path d="M50.5666 24.5453L50.7765 24.4575C51.4605 24.1786 52.2027 24.0722 52.9376 24.1476C53.6725 24.223 54.3776 24.4778 54.9907 24.8897C55.6038 25.3016 56.1061 25.8579 56.4533 26.5096C56.8005 27.1612 56.9819 27.8882 56.9817 28.6264C56.9816 28.9041 56.9555 29.1812 56.9035 29.454L56.8376 29.799L57.528 29.9306L57.5938 29.5848C57.653 29.2688 57.6824 28.9479 57.6817 28.6264C57.68 27.2476 57.1316 25.9257 56.1566 24.9502C55.1815 23.9747 53.8593 23.4251 52.4795 23.4219C54.544 21.9092 56.0011 19.7106 56.5891 17.2209C57.1771 14.7312 56.8574 12.1136 55.6876 9.83822C54.5178 7.56285 52.5744 5.77886 50.2065 4.80668C47.8386 3.8345 45.2014 3.73785 42.7687 4.53408C40.3359 5.33032 38.2669 6.96727 36.9334 9.15089C35.5999 11.3345 35.0893 13.9217 35.4932 16.4478C35.8971 18.9738 37.1891 21.2732 39.1371 22.9329C41.0852 24.5925 43.5616 25.5037 46.1215 25.5028C47.6549 25.5068 49.171 25.1802 50.5666 24.5453ZM36.0676 14.7505C36.0683 12.9548 36.5505 11.192 37.4641 9.6456C38.3777 8.0992 39.6893 6.82569 41.2624 5.95754C42.8355 5.08939 44.6126 4.65832 46.409 4.70919C48.2053 4.76005 49.9552 5.29098 51.4766 6.24675C52.998 7.20252 54.2353 8.5482 55.0597 10.1438C55.8842 11.7394 56.2658 13.5266 56.1647 15.3196C56.0637 17.1125 55.4837 18.8456 54.4851 20.3386C53.4865 21.8316 52.1058 23.0299 50.4866 23.8089L50.2855 23.9019L50.1863 23.9423C48.9068 24.5108 47.5217 24.8033 46.1215 24.8007C43.4556 24.7969 40.9 23.7368 39.0152 21.8527C37.1304 19.9687 36.0704 17.4145 36.0676 14.7505Z" fill="black"/>
<path d="M18.146 36.399L18.1671 36.4324C18.1823 36.4657 18.2048 36.4952 18.2329 36.5188C18.261 36.5423 18.294 36.5593 18.3295 36.5684C18.3401 36.5693 18.3506 36.5693 18.3612 36.5684H18.3699C18.4301 36.5685 18.4879 36.5448 18.5307 36.5026C18.5491 36.4827 18.5639 36.4599 18.5746 36.435C18.5812 36.4212 18.5864 36.4068 18.5904 36.392L18.5957 36.3648V36.342C18.5961 36.339 18.5961 36.3361 18.5957 36.3332C18.5961 36.3279 18.5961 36.3226 18.5957 36.3174V24.6655C18.3981 24.6075 18.2672 24.6128 18.1978 24.6848C18.1567 24.7336 18.1365 24.7967 18.1416 24.8603V35.538L11.3673 24.7541C11.3498 24.7221 11.3254 24.6944 11.296 24.6728C11.2665 24.6513 11.2327 24.6365 11.1969 24.6295C11.1849 24.6286 11.1729 24.6286 11.1609 24.6295H11.1328C11.1048 24.6285 11.077 24.6331 11.0509 24.6431C11.0248 24.653 11.001 24.6681 10.9808 24.6874C10.9397 24.7362 10.9195 24.7993 10.9246 24.8629V36.3446C10.9205 36.3754 10.9236 36.4068 10.9337 36.4363C10.9437 36.4658 10.9605 36.4925 10.9826 36.5144C11.0047 36.5363 11.0316 36.5529 11.0611 36.5627C11.0907 36.5725 11.1221 36.5754 11.153 36.571C11.213 36.5708 11.2705 36.5469 11.3129 36.5044C11.3554 36.462 11.3793 36.4046 11.3796 36.3446V25.6265L18.1469 36.3981L18.146 36.399Z" fill="black"/>
<path d="M25.5201 30.598C25.5201 28.4714 24.889 26.3925 23.7067 24.6243C22.5244 22.8561 20.8439 21.478 18.8777 20.6642C16.9116 19.8504 14.7481 19.6374 12.6609 20.0523C10.5736 20.4672 8.65637 21.4912 7.15155 22.995C5.64673 24.4987 4.62194 26.4146 4.20676 28.5003C3.79158 30.586 4.00466 32.748 4.81906 34.7127C5.63347 36.6774 7.01261 38.3567 8.78209 39.5382C10.5516 40.7196 12.6319 41.3502 14.76 41.3502C17.6128 41.347 20.3478 40.2131 22.365 38.1974C24.3822 36.1817 25.5168 33.4487 25.5201 30.598ZM4.7044 30.598C4.7044 28.6102 5.29428 26.6671 6.39944 25.0143C7.5046 23.3616 9.07541 22.0734 10.9132 21.3128C12.751 20.5521 14.7733 20.3532 16.7242 20.741C18.6752 21.1289 20.4673 22.0861 21.8738 23.4918C23.2803 24.8974 24.2381 26.6882 24.6261 28.6378C25.014 30.5874 24.8147 32.6082 24.0534 34.4446C23.292 36.281 22.0028 37.8506 20.3488 38.9548C18.6947 40.059 16.7501 40.6483 14.7609 40.6481C12.0944 40.6453 9.53788 39.5856 7.65235 37.7014C5.76682 35.8173 4.70631 33.2626 4.70352 30.598H4.7044Z" fill="black"/>
</svg>
