<svg width="39" height="64" viewBox="0 0 39 64" fill="none" xmlns="http://www.w3.org/2000/svg">
<path d="M27.5379 36.9191C28.1899 35.5007 28.4928 33.9531 28.4225 32.4C28.3522 30.8469 27.9105 29.3314 27.1329 27.9748C26.0285 26.0545 24.4706 24.788 22.5035 24.2098C20.9342 23.7561 19.2584 23.7968 17.7142 24.326C16.3704 24.7859 14.5272 25.7574 13.3729 27.7706C11.8579 30.408 12.5672 33.7302 15.0188 35.4917C16.1507 36.3044 18.5967 36.8125 20.5751 36.2164C21.8576 35.83 22.7465 35.0393 23.1465 33.9303L22.6148 33.7474C22.2718 34.6997 21.5294 35.3535 20.4089 35.6911C18.6552 36.2192 16.3789 35.7853 15.3527 35.049C13.1271 33.4511 12.4855 30.4376 13.861 28.0394C14.9294 26.1762 16.6451 25.2741 17.8973 24.8451C19.328 24.355 20.8804 24.317 22.3345 24.7364C24.1579 25.272 25.6045 26.4553 26.6349 28.2429C27.37 29.5241 27.7878 30.9554 27.855 32.4224C27.9221 33.8894 27.6367 35.3514 27.0216 36.6915C26.2877 38.2777 25.12 39.615 23.5416 40.6662C20.1124 42.9557 15.5957 43.2418 11.7544 41.4122C8.23921 39.7373 6.47211 36.9108 5.61286 34.8344C4.67332 32.5703 4.57119 30.6782 4.57049 30.6631C4.42611 26.2174 5.70442 22.5081 8.37373 19.6403C10.7191 17.1177 13.7131 15.7296 15.8119 15.0097C16.9391 14.6218 17.9152 13.9021 18.6058 12.9499C19.2963 11.9976 19.6672 10.8596 19.6673 9.69289V4H19.1038V9.69289C19.1041 10.7457 18.7698 11.7727 18.147 12.6322C17.5242 13.4918 16.6437 14.1416 15.6267 14.492C11.1424 16.0307 3.67039 20.1794 4.01127 30.6865C4.0155 30.7662 4.11692 32.6762 5.08674 35.0242C5.98473 37.1955 7.8279 40.1533 11.5114 41.9072C13.2329 42.7294 15.1237 43.1576 17.0402 43.1593C19.4732 43.1668 21.8517 42.4567 23.8642 41.1221C25.525 40.0124 26.761 38.5988 27.5379 36.9191Z" fill="black"/>
<path d="M34.9886 32.8021C34.9844 32.7217 34.8837 30.8124 33.9132 28.4644C33.0152 26.2924 31.172 23.3353 27.4885 21.5807C23.4662 19.6652 18.7326 19.9656 15.1357 22.3638C13.4735 23.4728 12.2375 24.8871 11.4606 26.5668C10.8097 27.9855 10.5076 29.5332 10.5785 31.0862C10.6494 32.6392 11.0914 34.1545 11.8691 35.5111C12.9763 37.4341 14.5314 38.7006 16.4978 39.2774C18.0672 39.7304 19.7427 39.6898 21.2871 39.1612C22.6309 38.7006 24.4748 37.7298 25.6284 35.7166C27.142 33.0765 26.4327 29.757 23.9789 27.9955C22.8471 27.1828 20.4011 26.6747 18.4227 27.2708C17.1387 27.6579 16.2499 28.4486 15.8499 29.5583L16.3816 29.7405C16.7246 28.7889 17.4669 28.135 18.5875 27.7975C20.3412 27.2694 22.6175 27.7033 23.6437 28.4396C25.8693 30.0375 26.5109 33.051 25.1354 35.4526C24.0677 37.3159 22.3513 38.2179 21.099 38.647C19.6684 39.137 18.116 39.175 16.6619 38.7556C14.8385 38.22 13.3918 37.0367 12.3614 35.2491C11.6263 33.9679 11.2085 32.5366 11.1414 31.0696C11.0743 29.6026 11.3597 28.1406 11.9748 26.8005C12.7087 25.2143 13.8764 23.8771 15.4547 22.8258C18.884 20.5363 23.4014 20.2503 27.242 22.0798C30.7572 23.7547 32.5243 26.5812 33.3835 28.6569C34.3231 30.921 34.4252 32.8138 34.4266 32.8282C34.5675 37.2746 33.292 40.9832 30.6233 43.8517C28.278 46.3743 25.284 47.7618 23.1852 48.4823C22.0582 48.8706 21.0823 49.5907 20.3922 50.5432C19.702 51.4957 19.3316 52.6338 19.3319 53.8005V60.0001H19.8954V53.7957C19.8949 52.7428 20.229 51.7158 20.8517 50.8561C21.4743 49.9964 22.3549 49.3465 23.3718 48.9959C27.8575 47.4593 35.3295 43.3092 34.9886 32.8021Z" fill="black"/>
<path d="M21.5526 31.5083H17.4282V32.0584H21.5526V31.5083Z" fill="black"/>
</svg>
