<svg width="74" height="64" viewBox="0 0 74 64" fill="none" xmlns="http://www.w3.org/2000/svg">
<path d="M66.87 22.1893H63.045C55.4349 22.1901 48.0172 24.5856 41.8383 29.0378L42.2891 29.6667C48.3376 25.3108 55.5978 22.9675 63.046 22.9673H66.87C67.4952 22.9678 68.0945 23.2169 68.5365 23.6599C68.9786 24.1029 69.2271 24.7036 69.2276 25.3301V38.6728C69.2271 39.2993 68.9786 39.9 68.5365 40.343C68.0945 40.786 67.4952 41.0351 66.87 41.0356H54.2093C53.3796 41.0367 52.5842 41.3675 51.9976 41.9556C51.411 42.5437 51.0811 43.341 51.0804 44.1725V56.8622C51.0802 57.1727 51.0191 57.4802 50.9004 57.767C50.7817 58.0539 50.6078 58.3145 50.3886 58.534C50.1694 58.7535 49.9092 58.9276 49.6229 59.0463C49.3366 59.165 49.0297 59.2261 48.7199 59.2259H35.4056C34.7808 59.2252 34.1818 58.9761 33.7401 58.5333C33.2983 58.0906 33.0497 57.4903 33.049 56.8641V44.1715C33.0477 43.3401 32.7175 42.543 32.1308 41.9552C31.544 41.3673 30.7487 41.0367 29.919 41.0356H17.2564C16.6315 41.0349 16.0325 40.7858 15.5905 40.3431C15.1486 39.9004 14.8998 39.3001 14.8988 38.6738V25.3262C14.8996 24.6998 15.1482 24.0992 15.5902 23.6563C16.0321 23.2133 16.6314 22.9642 17.2564 22.9634H29.919C30.7488 22.9624 31.5443 22.6315 32.1311 22.0435C32.7179 21.4554 33.0479 20.6582 33.049 19.8265V7.13589C33.0497 6.50973 33.2983 5.90943 33.7401 5.46667C34.1818 5.02391 34.7808 4.77482 35.4056 4.77406H48.7199C49.3448 4.77457 49.944 5.02354 50.386 5.46633C50.828 5.90912 51.0767 6.50956 51.0775 7.13589V13.9185H51.8498V7.13589C51.8488 6.30435 51.5187 5.50717 50.9319 4.91927C50.3451 4.33137 49.5496 4.00077 48.7199 4H35.4056C34.576 4.00102 33.7808 4.33174 33.1942 4.91961C32.6076 5.50748 32.2776 6.30452 32.2766 7.13589V19.8265C32.2759 20.4529 32.0272 21.0535 31.5853 21.4964C31.1433 21.9394 30.5441 22.1886 29.919 22.1893H17.2564C16.4265 22.1901 15.6309 22.5208 15.044 23.1089C14.4572 23.6971 14.1272 24.4945 14.1265 25.3262V38.6728C14.1272 39.5046 14.4572 40.302 15.044 40.8901C15.6309 41.4782 16.4265 41.8089 17.2564 41.8097H29.919C30.5441 41.8105 31.1433 42.0596 31.5853 42.5026C32.0272 42.9455 32.2759 43.5461 32.2766 44.1725V56.8622C32.2771 57.6939 32.6069 58.4914 33.1935 59.0797C33.7801 59.668 34.5757 59.999 35.4056 60H48.7199C49.5496 59.9992 50.3451 59.6686 50.9319 59.0807C51.5187 58.4928 51.8488 57.6956 51.8498 56.8641V44.1725C51.8503 43.5457 52.0992 42.9447 52.5416 42.5016C52.984 42.0586 53.5839 41.8097 54.2093 41.8097H66.87C67.6999 41.8089 68.4956 41.4782 69.0824 40.8901C69.6692 40.302 69.9992 39.5046 70 38.6728V25.3262C69.9992 24.4945 69.6692 23.6971 69.0824 23.1089C68.4956 22.5208 67.6999 22.1901 66.87 22.1893Z" fill="black"/>
<path d="M23.9756 46.2831L23.9719 47.0571L30.6971 47.0889L30.7007 46.3149L23.9756 46.2831Z" fill="black"/>
<path d="M23.7344 51.0443V51.8184H30.4828V51.0443H23.7344Z" fill="black"/>
<path d="M11.8335 15.5233L11.8298 16.2974L29.5927 16.3813L29.5963 15.6072L11.8335 15.5233Z" fill="black"/>
<path d="M11.8323 19.0175L11.8286 19.7915L29.5915 19.8754L29.5951 19.1014L11.8323 19.0175Z" fill="black"/>
<path d="M21.7688 52.143L21.8084 43.732L11.4319 43.6836L11.3933 52.0947L21.7688 52.143ZM12.2004 44.4615L21.0322 44.5022L21.0003 51.3651L12.1686 51.3235L12.2004 44.4615Z" fill="black"/>
<path d="M17.157 13.0885H29.5908V12.3144H17.157C16.8794 12.3142 16.6133 12.2036 16.4169 12.007C16.2206 11.8104 16.11 11.5437 16.1095 11.2656V6.14712C16.11 5.86894 16.2206 5.60231 16.4169 5.4057C16.6133 5.20908 16.8794 5.09853 17.157 5.09827H31.6221V4.32422H17.157C16.6747 4.32473 16.2122 4.51692 15.8711 4.85864C15.5299 5.20036 15.3379 5.66373 15.3372 6.14712V11.2656C15.3379 11.749 15.5299 12.2123 15.8711 12.554C16.2122 12.8958 16.6747 13.0879 17.157 13.0885Z" fill="black"/>
<path d="M17.3626 59.226H10.7841C9.19024 59.2242 7.66216 58.5889 6.53513 57.4594C5.40809 56.3298 4.77414 54.7984 4.77235 53.201V13.698C4.77414 12.1006 5.40809 10.5692 6.53513 9.43966C7.66216 8.31013 9.19024 7.67477 10.7841 7.67298H13.385V6.89893H10.7841C8.98547 6.90097 7.2611 7.61796 5.98928 8.8926C4.71745 10.1672 4.00204 11.8954 4 13.698V32.8743V53.201C4.00204 55.0036 4.71745 56.7318 5.98928 58.0064C7.2611 59.281 8.98547 59.998 10.7841 60.0001H31.622V59.226H17.3626Z" fill="black"/>
</svg>
