<svg width="59" height="64" viewBox="0 0 59 64" fill="none" xmlns="http://www.w3.org/2000/svg">
<path d="M47.754 50.1562H47.1125V60H47.754V50.1562Z" fill="black"/>
<path d="M26.8994 5.03299L26.3582 5.375L26.776 6.02761L27.3173 5.6856L26.8994 5.03299Z" fill="black"/>
<path d="M37.0167 20.8497L36.1548 19.502L35.6135 19.8437L35.9936 20.4379L36.8315 21.749L37.3727 21.4073L37.0167 20.8497Z" fill="black"/>
<path d="M35.2928 18.1549L34.4317 16.8071L33.8896 17.1488L34.3178 17.8172V17.818L35.1557 19.1283L35.697 18.7866L35.2928 18.1549Z" fill="black"/>
<path d="M46.8872 37.4719L47.4284 37.1302L46.7669 36.0963L46.4951 35.6709L45.9539 36.0126L46.0493 36.1616H46.0485L46.8872 37.4719Z" fill="black"/>
<path d="M30.1227 10.0696L29.2615 8.72266L28.7195 9.06437L29.2896 9.95572L30.1275 11.266L30.6687 10.9243L30.1227 10.0696Z" fill="black"/>
<path d="M33.5697 15.4601L32.7077 14.1123L32.1665 14.454L32.6412 15.1972L33.4799 16.5075L34.0211 16.1658L33.5697 15.4601Z" fill="black"/>
<path d="M31.8458 12.7645H31.8466L30.9846 11.4175L30.4434 11.7592L30.9654 12.5765L31.8033 13.8868L32.3445 13.5451L31.8458 12.7645Z" fill="black"/>
<path d="M42.1869 28.9339L41.3249 27.5869L40.7837 27.9286L41.021 28.2998L41.8589 29.6101L42.4002 29.2684L42.1869 28.9339Z" fill="black"/>
<path d="M38.7399 23.5442L37.8779 22.1973L37.3367 22.5382L37.6694 23.0583L38.5074 24.3687L39.0486 24.0269L38.7399 23.5442Z" fill="black"/>
<path d="M47.7251 38.7823L48.563 40.0926L49.1042 39.7509L49.0802 39.7135L48.2182 38.3657L47.677 38.7074L47.7251 38.7823Z" fill="black"/>
<path d="M40.463 26.2391L39.6018 24.8921L39.0598 25.2338L39.3453 25.6791L40.1832 26.9894L40.7244 26.6477L40.463 26.2391Z" fill="black"/>
<path d="M43.91 31.629L43.0481 30.2812L42.5068 30.623L42.6969 30.9201L43.5348 32.2304L44.0768 31.8887L43.91 31.629Z" fill="black"/>
<path d="M45.6331 34.3238L44.772 32.9761L44.2307 33.3178L44.3726 33.5408L45.2106 34.8512L45.7526 34.5094L45.6331 34.3238Z" fill="black"/>
<path d="M27.9819 6.72266L27.4407 7.06438L27.8576 7.71675L28.4518 8.64553L28.993 8.30381L28.1551 6.99348L27.9819 6.72266Z" fill="black"/>
<path d="M54.3584 43.9214C54.3592 44.3691 54.2709 44.8125 54.0986 45.2261L54.6912 45.4699C54.8956 44.9789 55.0005 44.4527 54.9999 43.9214H54.3584Z" fill="black"/>
<path d="M48.4724 41.5094C48.7905 41.1903 49.169 40.9369 49.5861 40.7638L49.3392 40.1768C48.8444 40.3821 48.3956 40.6829 48.0186 41.0617L48.4724 41.5094Z" fill="black"/>
<path d="M52.2385 47.0801L52.4847 47.6688C52.9798 47.4639 53.4294 47.164 53.8077 46.7862L53.3531 46.3369C53.0344 46.6551 52.6557 46.9077 52.2385 47.0801Z" fill="black"/>
<path d="M53.8022 41.0508L53.3484 41.5016C53.6684 41.8186 53.9224 42.1951 54.0957 42.6097L54.6882 42.3651C54.4826 41.8735 54.1815 41.4269 53.8022 41.0508Z" fill="black"/>
<path d="M47.4725 43.9217C47.4714 43.4759 47.5586 43.0342 47.7291 42.6218L47.1358 42.3828C46.9337 42.8721 46.8302 43.396 46.8311 43.9249V43.9353H47.4725V43.9217Z" fill="black"/>
<path d="M47.1445 45.4846C47.3514 45.9759 47.6535 46.4219 48.0338 46.7973L48.486 46.3457C48.1649 46.0296 47.9098 45.6536 47.7355 45.2393L47.1445 45.4846Z" fill="black"/>
<path d="M50.9156 39.8633H50.9004V40.5005H50.9156C51.3675 40.4998 51.8149 40.5881 52.2322 40.7602L52.4776 40.1716C51.9826 39.9671 51.4517 39.8623 50.9156 39.8633Z" fill="black"/>
<path d="M49.6046 47.0854L49.364 47.6749C49.8589 47.8775 50.3891 47.9809 50.9244 47.9792V47.6606V47.3419H50.9123C50.4637 47.3427 50.0193 47.2555 49.6046 47.0854Z" fill="black"/>
<path d="M28.6577 43.9048C27.964 43.2597 27.0639 42.8776 26.1151 42.8255L26.2811 4.63724H39.2074C41.3032 4.63956 43.3126 5.46769 44.7946 6.93995C46.2766 8.41221 47.1102 10.4083 47.1125 12.4904V32.5213H47.754V12.4904C47.7515 10.2394 46.8502 8.0813 45.2479 6.48958C43.6457 4.89787 41.4733 4.00253 39.2074 4H12.5467C10.2807 4.00232 8.10814 4.89759 6.50584 6.48935C4.90353 8.08112 4.00233 10.2393 4 12.4904V59.9999H4.64146V12.4904C4.64358 10.4083 5.47713 8.41202 6.95918 6.93972C8.44124 5.46741 10.4507 4.63935 12.5467 4.63724H25.6397L25.4737 42.839C24.9261 42.8934 24.3952 43.0572 23.913 43.3205C23.4307 43.5839 23.007 43.9413 22.6673 44.3714C22.3276 44.8015 22.0789 45.2954 21.9361 45.8234C21.7934 46.3514 21.7595 46.9026 21.8366 47.4439L22.4717 47.3555C22.3667 46.6157 22.5084 45.8621 22.8753 45.2099C23.2421 44.5577 23.8139 44.0429 24.5031 43.744C25.1924 43.4451 25.9612 43.3787 26.692 43.5549C27.4229 43.7311 28.0755 44.1402 28.5502 44.7197C29.0248 45.2992 29.2954 46.0172 29.3205 46.7639C29.3456 47.5105 29.1239 48.2448 28.6892 48.8545C28.2545 49.4642 27.6308 49.9157 26.9135 50.1399C26.1961 50.3642 25.4246 50.3489 24.7168 50.0964L24.5011 50.6962C25.3867 51.0121 26.355 51.0146 27.2423 50.7031C28.1296 50.3917 28.8814 49.7854 29.3706 48.9868C29.8598 48.1883 30.0565 47.2464 29.9273 46.3204C29.7982 45.3944 29.3511 44.5411 28.6617 43.9048H28.6577Z" fill="black"/>
</svg>
