<svg width="56" height="64" viewBox="0 0 56 64" fill="none" xmlns="http://www.w3.org/2000/svg">
<path d="M20.5877 42.131L20.2793 42.3622C20.1762 42.4382 20.0722 42.5136 19.9673 42.5886C19.9158 42.6259 19.8643 42.6589 19.8114 42.699C19.6025 42.848 19.3895 42.9942 19.1799 43.1348C18.1178 43.8471 17.0166 44.4982 15.8818 45.085C15.7119 45.1736 15.5406 45.26 15.3687 45.3458L15.6158 45.8498C15.7899 45.7627 15.9639 45.6755 16.1366 45.5855C17.2897 44.9886 18.4087 44.3267 19.4883 43.603C19.7014 43.4624 19.9179 43.3113 20.1303 43.1609C20.1839 43.1229 20.2382 43.0849 20.2904 43.047C20.3962 42.9703 20.4993 42.8944 20.6072 42.8171C20.7151 42.7398 20.8161 42.6624 20.9205 42.5837C23.6487 40.5308 26.0132 38.0265 27.9136 35.1768L27.9212 35.1888L27.9456 35.1508C28.8712 36.5415 29.9199 37.8446 31.0787 39.0441C32.3061 40.3135 33.6313 41.4828 35.0417 42.5408C35.1455 42.6195 35.2506 42.6969 35.3557 42.7749C35.4609 42.8529 35.5646 42.9282 35.6725 43.0041L35.8313 43.1173C36.0401 43.2642 36.2553 43.4132 36.4746 43.5602C36.5303 43.5974 36.586 43.6354 36.641 43.6712L36.7649 43.7528L36.7991 43.7753L36.932 43.8625L37.0079 43.9117L37.127 43.9869C37.3491 44.1275 37.5719 44.2681 37.7877 44.3988L37.9493 44.4959L37.9743 44.5113L38.2904 44.6976L38.4596 44.796L38.4916 44.8143L38.6309 44.8924C38.8481 45.0161 39.0779 45.1433 39.3125 45.2699L39.4838 45.3613C39.7623 45.5089 40.0519 45.6593 40.3492 45.807L40.5957 45.3029C40.3033 45.1567 40.0164 45.0098 39.7435 44.8635L39.5743 44.7735C39.3438 44.6491 39.1182 44.524 38.9038 44.4024C38.8585 44.3771 38.814 44.351 38.7694 44.325L38.7374 44.3068L38.5717 44.2111L38.2619 44.0277L38.2375 44.0129L38.0788 43.9166C37.8657 43.7879 37.6464 43.6516 37.4271 43.5117L37.3122 43.4378L37.237 43.3893L37.1061 43.3036L37.0713 43.2811L36.9501 43.2009C36.8951 43.1651 36.8408 43.1306 36.7865 43.092C36.5714 42.9471 36.3583 42.8009 36.155 42.6568L35.9977 42.545C35.8932 42.4705 35.7888 42.3953 35.6872 42.3201C35.5855 42.2448 35.4783 42.1675 35.378 42.0902C33.9901 41.0502 32.6864 39.9005 31.4791 38.6518C30.2869 37.4186 29.2144 36.073 28.2763 34.6334C28.7087 33.9444 29.1118 33.2316 29.4829 32.511L29.5136 32.4506C30.4817 30.5526 31.207 28.538 31.6719 26.4553C32.3577 23.3551 32.02 21.0745 30.6275 19.4857L30.6067 19.4611C30.2677 19.0805 29.8533 18.7762 29.3903 18.5678C28.9273 18.3595 28.4261 18.2519 27.9192 18.252C27.412 18.2517 26.9105 18.3592 26.4472 18.5675C25.9839 18.7758 25.5693 19.0803 25.2303 19.4611L25.2087 19.4857C23.8211 21.0752 23.4806 23.3523 24.1643 26.4553C24.6294 28.538 25.3547 30.5525 26.3227 32.4506L26.3533 32.5117C26.7272 33.2428 27.1387 33.9655 27.578 34.6622C25.7587 37.4756 23.3413 40.0571 20.5877 42.131ZM26.8859 32.3128V32.3029L26.8504 32.2432C25.8909 30.3735 25.1721 28.3875 24.7116 26.3337C24.0585 23.3811 24.3502 21.3227 25.6292 19.8576L25.6473 19.8365C25.9339 19.5141 26.2845 19.2563 26.6762 19.0797C27.068 18.9031 27.4922 18.8117 27.9212 18.8115C28.3499 18.8114 28.7738 18.9025 29.1654 19.0787C29.5569 19.2549 29.9073 19.5124 30.1938 19.8344L30.2119 19.8548C31.4916 21.3213 31.7868 23.3811 31.1302 26.3337C30.6696 28.3883 29.9506 30.375 28.9907 32.2453L28.9552 32.3057V32.3156C28.6363 32.9356 28.2896 33.5501 27.9212 34.1434C27.5529 33.5487 27.2055 32.9342 26.8859 32.3128Z" fill="black"/>
<path d="M14.6258 12.7924C14.6954 12.7439 14.7651 12.694 14.8347 12.6469C14.9196 12.5892 15.0053 12.5344 15.0909 12.4788C15.1766 12.4233 15.2511 12.3727 15.3318 12.3214C15.4126 12.27 15.4954 12.2201 15.5776 12.1695C15.6597 12.1189 15.7489 12.062 15.8352 12.0106C15.9215 11.9593 15.9939 11.9178 16.0733 11.87C16.1638 11.8173 16.2536 11.7632 16.3449 11.7119C16.4214 11.6683 16.4994 11.6268 16.5767 11.5839C16.6714 11.5319 16.7654 11.4792 16.8608 11.4285C16.9346 11.3892 17.0091 11.3519 17.0829 11.314C17.1831 11.2619 17.2827 11.2092 17.383 11.1586C17.4526 11.1234 17.5257 11.0883 17.5974 11.0552C17.7018 11.0046 17.8063 10.9526 17.9114 10.9034C17.981 10.8711 18.0506 10.8408 18.1203 10.8092C18.2289 10.76 18.3368 10.7101 18.4454 10.6623C18.515 10.6327 18.5812 10.6053 18.6487 10.5765C18.7608 10.5294 18.8729 10.4809 18.9857 10.4359C19.0518 10.4092 19.1194 10.3839 19.1855 10.3579C19.3004 10.3122 19.4153 10.2665 19.5336 10.2229C19.6033 10.1976 19.6694 10.1744 19.737 10.1526C19.8532 10.1104 19.9688 10.0675 20.0851 10.0275L20.2898 9.95715C20.4067 9.91778 20.5237 9.87841 20.6414 9.84045C20.711 9.81796 20.7806 9.79757 20.8558 9.77577C20.9714 9.74062 21.087 9.70547 21.2039 9.67032C21.2819 9.64783 21.3606 9.62744 21.4393 9.60565C21.55 9.57471 21.66 9.54378 21.7707 9.51426C21.8702 9.48825 21.9705 9.46505 22.0708 9.44044C22.171 9.41584 22.2518 9.39404 22.343 9.37014C22.5352 9.32515 22.7273 9.28297 22.9209 9.2429L22.8053 8.69385C22.6076 8.73462 22.4098 8.77821 22.2135 8.82461L22.061 8.86187C21.9162 8.89702 21.7707 8.93217 21.6266 8.96943L21.4212 9.02567C21.2958 9.06011 21.1698 9.09597 21.0452 9.12971C20.9658 9.15221 20.8878 9.17752 20.8092 9.20001C20.6957 9.23446 20.5822 9.27031 20.4694 9.30335C20.3824 9.33077 20.296 9.361 20.2097 9.38982C20.106 9.42357 20.0008 9.45661 19.8992 9.49246C19.7975 9.52832 19.714 9.56276 19.6207 9.59229C19.5274 9.62182 19.4292 9.66259 19.3338 9.69633C19.2384 9.73008 19.1403 9.77156 19.0428 9.80952C18.9453 9.84748 18.8639 9.87982 18.7754 9.91427C18.6759 9.95504 18.5777 9.99722 18.4781 10.0394C18.3932 10.0753 18.3076 10.1097 18.2226 10.147C18.1224 10.1905 18.0242 10.2362 17.9246 10.2812C17.8418 10.3192 17.7582 10.3558 17.6754 10.3944C17.5765 10.4401 17.4783 10.4893 17.3802 10.535C17.298 10.5744 17.2159 10.6131 17.1344 10.6531C17.0362 10.7023 16.9394 10.7537 16.842 10.8043C16.7612 10.8458 16.6804 10.8865 16.6004 10.9294C16.5036 10.9807 16.4082 11.0342 16.3121 11.0869C16.2321 11.1312 16.1513 11.1741 16.0719 11.219C15.9786 11.2718 15.886 11.3273 15.7934 11.3814C15.7127 11.4285 15.6305 11.4749 15.5497 11.522C15.469 11.5691 15.3708 11.6317 15.2817 11.6872C15.1926 11.7428 15.116 11.7878 15.0345 11.8405C14.9531 11.8932 14.8632 11.9516 14.7783 12.0078C14.6934 12.0641 14.6091 12.1168 14.5249 12.173C14.4406 12.2293 14.364 12.2848 14.2833 12.3403L14.1621 11.3463L12.6401 13.9537L15.5316 13.1741L14.6258 12.7924Z" fill="black"/>
<path d="M20.7165 54.2902C20.6351 54.2642 20.5529 54.2396 20.4714 54.2122C20.39 54.1847 20.2939 54.151 20.2055 54.1208C20.117 54.0905 20.0091 54.0505 19.9117 54.0188C19.826 53.9879 19.7418 53.9549 19.6568 53.9232C19.5573 53.886 19.4577 53.8494 19.3588 53.8107C19.2767 53.7791 19.1959 53.7454 19.1145 53.7123C19.0135 53.6716 18.9125 53.6315 18.8123 53.59L18.577 53.4874C18.4753 53.4431 18.3737 53.4002 18.2734 53.3552C18.1975 53.3208 18.1223 53.2849 18.0471 53.2497C17.9448 53.2019 17.8424 53.1555 17.7415 53.1091C17.6677 53.074 17.5959 53.0388 17.5228 53.0009C17.4205 52.9503 17.314 52.8997 17.2158 52.8476C17.1462 52.8111 17.0765 52.7724 17.0069 52.7351C16.9053 52.681 16.8022 52.6283 16.7013 52.5728C16.6316 52.5341 16.562 52.4933 16.4924 52.4539C16.3921 52.3977 16.2912 52.3422 16.1916 52.2838C16.122 52.243 16.0524 52.2002 15.9827 52.1587C15.8846 52.1003 15.7857 52.042 15.6889 51.9822C15.6193 51.9393 15.5497 51.8937 15.4801 51.8501C15.384 51.7896 15.2879 51.7291 15.1932 51.6673C15.1236 51.6202 15.0505 51.5717 14.9795 51.5267C14.8876 51.4648 14.7963 51.4051 14.7051 51.3418C14.6299 51.2898 14.5548 51.2349 14.4796 51.1815C14.4044 51.1281 14.3097 51.062 14.2254 51.0008C14.1412 50.9397 14.0604 50.8771 13.9783 50.8152C13.8961 50.7534 13.8279 50.7042 13.7541 50.6465C13.6524 50.5685 13.5529 50.4883 13.4533 50.4089L13.2897 50.2795C13.1365 50.1551 12.9847 50.0279 12.8336 49.8992L12.8134 49.9238C12.7675 49.8845 12.7208 49.8465 12.6742 49.8071L12.3101 50.2289C14.7106 52.3288 17.5099 53.9126 20.5369 54.8835L19.881 55.5465L22.8484 55.1507L20.4554 53.3355L20.7165 54.2902Z" fill="black"/>
<path d="M6.3358 41.8252L6.42004 38.8023L5.80456 39.5623C3.88099 33.8953 4.19189 27.6981 6.67278 22.2563L6.16522 22.0229C3.62077 27.6063 3.30655 33.9653 5.28795 39.7767L4.30067 39.6094L6.3358 41.8252Z" fill="black"/>
<path d="M28.0208 51.0234H27.9797C26.8104 51.0382 25.694 51.5176 24.8723 52.3577C24.0506 53.1978 23.5898 54.331 23.5898 55.5118C23.5898 56.6925 24.0506 57.8257 24.8723 58.6659C25.694 59.506 26.8104 59.9854 27.9797 60.0001H28.0208C29.1901 59.9854 30.3065 59.506 31.1282 58.6659C31.9499 57.8257 32.4107 56.6925 32.4107 55.5118C32.4107 54.331 31.9499 53.1978 31.1282 52.3577C30.3065 51.5176 29.1901 51.0382 28.0208 51.0234ZM27.9999 59.437C27.2303 59.4409 26.4768 59.2141 25.835 58.7852C25.1931 58.3564 24.6918 57.7448 24.3944 57.028C24.0971 56.3112 24.0172 55.5215 24.1647 54.7588C24.3123 53.9961 24.6808 53.2947 25.2234 52.7436C25.7661 52.1926 26.4585 51.8165 27.213 51.6631C27.9676 51.5097 28.7502 51.5859 29.4618 51.882C30.1734 52.1781 30.7819 52.6808 31.2103 53.3264C31.6387 53.972 31.8677 54.7315 31.8683 55.5086C31.8677 56.5464 31.4607 57.5419 30.736 58.2779C30.0113 59.0138 29.0277 59.4305 27.9999 59.437Z" fill="black"/>
<path d="M9.03076 22.0926C9.91006 22.0928 10.7696 21.8296 11.5008 21.3364C12.232 20.8433 12.8019 20.1422 13.1384 19.322C13.475 18.5018 13.5631 17.5992 13.3916 16.7284C13.2201 15.8576 12.7967 15.0577 12.1749 14.4299C11.5531 13.8021 10.761 13.3746 9.89856 13.2015C9.03615 13.0283 8.14225 13.1172 7.32991 13.4571C6.51757 13.7969 5.82328 14.3723 5.33485 15.1106C4.84642 15.8489 4.5858 16.7168 4.58594 17.6046C4.58741 18.7945 5.05618 19.9351 5.88942 20.7765C6.72267 21.6178 7.85237 22.0911 9.03076 22.0926ZM9.03076 13.6783C9.79986 13.6782 10.5517 13.9084 11.1913 14.3397C11.8308 14.771 12.3294 15.3842 12.6238 16.1016C12.9182 16.819 12.9953 17.6085 12.8453 18.3702C12.6954 19.1319 12.3251 19.8315 11.7813 20.3807C11.2375 20.9299 10.5446 21.3039 9.79032 21.4554C9.036 21.607 8.25412 21.5293 7.54354 21.2321C6.83297 20.935 6.22562 20.4317 5.79831 19.786C5.37101 19.1403 5.14293 18.3812 5.14293 17.6046C5.14441 16.564 5.55451 15.5665 6.28332 14.8307C7.01213 14.095 8.00016 13.6811 9.03076 13.6797V13.6783Z" fill="black"/>
<path d="M8.8222 41.5059C7.94293 41.5057 7.08336 41.7689 6.35221 42.262C5.62105 42.7551 5.05115 43.4561 4.71457 44.2763C4.378 45.0965 4.28986 45.9991 4.46131 46.8698C4.63277 47.7406 5.05611 48.5405 5.6778 49.1683C6.29949 49.7961 7.0916 50.2237 7.95397 50.397C8.81633 50.5702 9.71022 50.4814 10.5226 50.1417C11.3349 49.8019 12.0293 49.2266 12.5178 48.4884C13.0063 47.7503 13.267 46.8824 13.267 45.9946C13.2657 44.8046 12.797 43.6638 11.9638 42.8223C11.1305 41.9808 10.0007 41.5073 8.8222 41.5059ZM8.8222 49.9202C8.05306 49.9203 7.30116 49.6901 6.66159 49.2588C6.02201 48.8274 5.5235 48.2142 5.2291 47.4967C4.9347 46.7792 4.85764 45.9897 5.00766 45.2281C5.15767 44.4664 5.52804 43.7667 6.0719 43.2175C6.61576 42.6684 7.30869 42.2944 8.06306 42.143C8.81742 41.9915 9.59933 42.0693 10.3099 42.3666C11.0205 42.6638 11.6278 43.1672 12.055 43.813C12.4822 44.4587 12.7102 45.218 12.71 45.9946C12.7089 47.0354 12.299 48.0332 11.5701 48.7691C10.8412 49.5051 9.85298 49.919 8.8222 49.9202Z" fill="black"/>
<path d="M41.3749 51.2097C41.3053 51.2582 41.2357 51.3081 41.1661 51.3559C41.0964 51.4037 41.0031 51.4628 40.9217 51.5162C40.8402 51.5696 40.7539 51.6273 40.6696 51.6807C40.5854 51.7341 40.5095 51.7798 40.4294 51.8291C40.3494 51.8783 40.2547 51.9387 40.1662 51.9914C40.089 52.0385 40.0103 52.0828 39.9323 52.1285C39.8404 52.182 39.7492 52.2368 39.6538 52.2888C39.5779 52.3317 39.502 52.3725 39.4261 52.414C39.3301 52.4674 39.2347 52.5208 39.1379 52.5721C39.0627 52.6122 38.9875 52.6502 38.9123 52.6888C38.8134 52.7402 38.7153 52.7922 38.6157 52.8414C38.5405 52.8793 38.4646 52.9117 38.3894 52.9511C38.2885 53.0003 38.1889 53.0495 38.088 53.0966C38.0107 53.1324 37.9334 53.1669 37.8561 53.2013C37.7551 53.247 37.6549 53.2941 37.5539 53.3377C37.4732 53.3729 37.3917 53.408 37.3103 53.4403C37.2121 53.4825 37.1132 53.5247 37.0143 53.5648C36.9287 53.5999 36.8417 53.6351 36.7553 53.666C36.669 53.6969 36.5646 53.7419 36.4692 53.7778C36.3738 53.8136 36.2756 53.8481 36.1789 53.8825C36.0821 53.917 36.0055 53.9465 35.9185 53.9767C35.8091 54.0147 35.6998 54.047 35.5898 54.0857C35.5139 54.111 35.4381 54.137 35.3615 54.1616C35.2292 54.2031 35.0962 54.2425 34.9632 54.2825L34.8003 54.3318C34.6283 54.3817 34.4522 54.4288 34.2816 54.4724L34.2329 54.4857C33.8518 54.5851 33.4677 54.6748 33.0806 54.755L33.1927 55.3061C33.5886 55.2241 33.9817 55.1322 34.3721 55.0305C34.4278 55.0158 34.4835 54.9989 34.5399 54.9841C34.6791 54.9469 34.8184 54.9103 34.9528 54.8703C35.0426 54.8442 35.1317 54.8161 35.2215 54.7887C35.3239 54.7578 35.4262 54.7283 35.5279 54.6959C35.6295 54.6636 35.7423 54.6256 35.8495 54.5898C35.9324 54.5616 36.0152 54.5356 36.0974 54.5068C36.2151 54.4667 36.3306 54.4231 36.4455 54.381C36.5151 54.355 36.5896 54.3303 36.6607 54.3036C36.7832 54.2572 36.905 54.2087 37.0262 54.163C37.0902 54.1377 37.155 54.1138 37.219 54.0878C37.3423 54.0372 37.4648 53.9845 37.5881 53.9324C37.6493 53.9064 37.7106 53.8818 37.7719 53.8551C37.8937 53.8017 38.0142 53.7462 38.1353 53.6906C38.1966 53.6632 38.2578 53.6365 38.3184 53.6084C38.4375 53.5521 38.5551 53.4945 38.6735 53.4368L38.8594 53.3468C38.9743 53.2892 39.0885 53.2294 39.2026 53.1697C39.2667 53.1366 39.3308 53.1043 39.3941 53.0706C39.5048 53.0122 39.6141 52.9503 39.7241 52.8899C39.7938 52.8533 39.8571 52.8196 39.9226 52.7809C40.0277 52.7212 40.1314 52.6593 40.2359 52.5981C40.3055 52.5574 40.3751 52.518 40.4447 52.4765C40.5443 52.4168 40.6425 52.3549 40.7413 52.2937C40.811 52.248 40.8876 52.2038 40.9607 52.1574C41.0533 52.0983 41.1452 52.0371 41.2392 51.9767C41.3164 51.9261 41.3944 51.8762 41.471 51.8248C41.5476 51.7735 41.6346 51.7117 41.7161 51.6554L41.8372 52.6495L43.3613 50.0483L40.4698 50.828L41.3749 51.2097Z" fill="black"/>
<path d="M35.2821 9.71184C35.3635 9.73715 35.445 9.76246 35.5258 9.78917C35.6232 9.82151 35.7193 9.85596 35.8168 9.8897C35.9143 9.92344 35.9971 9.95086 36.0862 9.9832C36.1754 10.0155 36.2631 10.0493 36.3522 10.083C36.4413 10.1168 36.5444 10.1533 36.6398 10.1913C36.7212 10.2229 36.802 10.2567 36.8834 10.2897C36.9844 10.3305 37.086 10.3706 37.1863 10.412C37.2615 10.4437 37.3353 10.4774 37.4105 10.5098C37.5156 10.5554 37.6194 10.6004 37.7259 10.6504C37.7955 10.6813 37.8651 10.7143 37.9348 10.7467C38.0434 10.7966 38.1527 10.8465 38.2606 10.8985L38.4507 10.9934C38.5628 11.049 38.6749 11.1038 38.7856 11.1607C38.8448 11.191 38.9032 11.2233 38.9617 11.2542C39.0759 11.314 39.1901 11.3737 39.3029 11.4356C39.3607 11.4672 39.4171 11.5003 39.4742 11.5326C39.5877 11.5959 39.7011 11.6585 39.8132 11.7238C39.8696 11.7569 39.9253 11.7941 39.9817 11.8251C40.0931 11.8912 40.2052 11.9572 40.3159 12.0261C40.3716 12.0599 40.4259 12.0964 40.4809 12.1309C40.5916 12.2012 40.7016 12.2715 40.811 12.3418C40.868 12.379 40.9237 12.4184 40.9801 12.4557C41.0867 12.526 41.1932 12.5963 41.2983 12.6701C41.3582 12.7116 41.4174 12.7552 41.4773 12.7973C41.5775 12.8676 41.6785 12.9379 41.778 13.0082C41.8428 13.056 41.9068 13.1053 41.9709 13.1531C42.0642 13.2234 42.1575 13.2937 42.2494 13.364C42.3413 13.4343 42.4144 13.4947 42.4966 13.5601C42.5787 13.6255 42.6414 13.6733 42.7131 13.7309C42.8663 13.8554 43.0181 13.9826 43.1691 14.1113L43.1893 14.0866C43.2353 14.126 43.2819 14.164 43.3286 14.2033L43.6927 13.778C41.2916 11.6768 38.4914 10.0921 35.4631 9.12061L36.1183 8.45557L33.1509 8.85136L35.5467 10.6665L35.2821 9.71184Z" fill="black"/>
<path d="M51.6995 24.3926L49.6644 22.1768L49.5802 25.1997L50.1963 24.4355C52.1197 30.1023 51.8088 36.2992 49.3281 41.7407L49.8343 41.9769C52.3788 36.3942 52.6935 30.0357 50.713 24.2246L51.6995 24.3926Z" fill="black"/>
<path d="M27.9797 12.9767H28.0208C29.1901 12.9619 30.3065 12.4825 31.1282 11.6424C31.9499 10.8023 32.4107 9.66909 32.4107 8.48834C32.4107 7.3076 31.9499 6.1744 31.1282 5.33428C30.3065 4.49416 29.1901 4.01478 28.0208 4H27.9797C26.8104 4.01478 25.694 4.49416 24.8723 5.33428C24.0506 6.1744 23.5898 7.3076 23.5898 8.48834C23.5898 9.66909 24.0506 10.8023 24.8723 11.6424C25.694 12.4825 26.8104 12.9619 27.9797 12.9767ZM27.9999 4.56311C28.7697 4.55907 29.5234 4.78588 30.1654 5.2148C30.8074 5.64372 31.3089 6.25544 31.6062 6.97242C31.9036 7.6894 31.9834 8.47937 31.8356 9.24222C31.6879 10.0051 31.3191 10.7064 30.7761 11.2575C30.2331 11.8085 29.5404 12.1843 28.7856 12.3374C28.0309 12.4904 27.2481 12.4138 26.5365 12.1172C25.825 11.8206 25.2166 11.3173 24.7886 10.6712C24.3606 10.0251 24.1322 9.26529 24.1323 8.48799C24.1341 7.45121 24.5416 6.45716 25.266 5.7224C25.9905 4.98764 26.9731 4.57171 27.9999 4.56522V4.56311Z" fill="black"/>
<path d="M46.9701 41.9097C46.0908 41.9095 45.2312 42.1727 44.5001 42.6659C43.7689 43.159 43.199 43.8601 42.8625 44.6803C42.5259 45.5005 42.4378 46.4031 42.6093 47.2739C42.7808 48.1447 43.2042 48.9446 43.826 49.5724C44.4477 50.2002 45.2399 50.6277 46.1023 50.8009C46.9647 50.974 47.8586 50.8851 48.671 50.5453C49.4833 50.2054 50.1776 49.63 50.666 48.8917C51.1545 48.1535 51.4151 47.2855 51.4149 46.3977C51.4135 45.2078 50.9447 44.0672 50.1115 43.2258C49.2782 42.3845 48.1485 41.9112 46.9701 41.9097ZM46.9701 50.324C46.201 50.3241 45.4492 50.094 44.8096 49.6626C44.17 49.2313 43.6715 48.6181 43.3771 47.9007C43.0827 47.1833 43.0056 46.3938 43.1556 45.6321C43.3055 44.8704 43.6758 44.1708 44.2196 43.6216C44.7634 43.0724 45.4562 42.6984 46.2106 42.5469C46.9649 42.3953 47.7468 42.473 48.4573 42.7702C49.1679 43.0673 49.7753 43.5706 50.2026 44.2163C50.6299 44.862 50.8579 45.6211 50.8579 46.3977C50.8568 47.4385 50.4469 48.4364 49.7181 49.1725C48.9892 49.9086 48.001 50.3227 46.9701 50.324Z" fill="black"/>
<path d="M47.1789 22.4959C48.0582 22.4959 48.9177 22.2327 49.6488 21.7394C50.3799 21.2462 50.9497 20.5451 51.2861 19.7248C51.6226 18.9046 51.7106 18.002 51.539 17.1313C51.3674 16.2605 50.9439 15.4607 50.3222 14.833C49.7004 14.2053 48.9082 13.7778 48.0458 13.6047C47.1834 13.4316 46.2895 13.5206 45.4772 13.8604C44.6649 14.2003 43.9707 14.7757 43.4823 15.514C42.9939 16.2522 42.7333 17.1201 42.7334 18.008C42.7347 19.198 43.2035 20.3389 44.0369 21.1803C44.8704 22.0216 46.0004 22.4948 47.1789 22.4959ZM47.1789 14.0817C47.948 14.0817 48.6998 14.3119 49.3393 14.7434C49.9788 15.1748 50.4772 15.788 50.7715 16.5054C51.0658 17.2229 51.1428 18.0123 50.9928 18.7739C50.8427 19.5356 50.4724 20.2352 49.9285 20.7843C49.3847 21.3334 48.6919 21.7073 47.9376 21.8588C47.1833 22.0103 46.4014 21.9325 45.6909 21.6354C44.9803 21.3382 44.373 20.835 43.9457 20.1893C43.5185 19.5436 43.2904 18.7845 43.2904 18.008C43.2915 16.967 43.7015 15.969 44.4305 15.2329C45.1595 14.4968 46.148 14.0828 47.1789 14.0817Z" fill="black"/>
</svg>
