<svg width="65" height="64" viewBox="0 0 65 64" fill="none" xmlns="http://www.w3.org/2000/svg">
<path d="M32.1506 49.5668C29.7584 51.3316 27.2095 52.8763 24.5354 54.1815L24.8038 54.7211C27.5113 53.3996 30.092 51.8355 32.5138 50.0484C34.9875 48.2265 37.276 46.1684 39.3465 43.9037L38.8961 43.5005C36.8521 45.7364 34.5928 47.7682 32.1506 49.5668Z" fill="black"/>
<path d="M46.7567 43.5044L46.3018 43.9031C48.3223 46.1766 50.5742 48.236 53.0215 50.0485C55.4433 51.8358 58.024 53.3998 60.7315 54.7213L60.9999 54.1801C58.3256 52.8752 55.7767 51.3306 53.3847 49.5654C50.9708 47.7779 48.7497 45.7467 46.7567 43.5044Z" fill="black"/>
<path d="M43.4568 43.4162H44.6837C44.8371 43.416 44.9841 43.3553 45.0926 43.2475C45.201 43.1397 45.2621 42.9936 45.2623 42.8411V39.2235C45.2621 39.0711 45.201 38.9251 45.0925 38.8174C44.9841 38.7097 44.837 38.6492 44.6837 38.6492H43.3476C45.7392 34.6389 47.277 30.1546 47.8024 25.6439L47.1996 25.5745C46.6855 29.9941 45.1796 34.3925 42.8381 38.3206C40.5186 34.6804 38.8898 30.8208 37.9943 26.8399C37.5651 24.9271 37.4195 23.306 37.5515 21.8823C37.716 20.0931 38.3097 18.6498 39.3539 17.4681C40.3813 16.3089 41.8486 15.6705 43.2771 15.7587L43.315 15.1558C41.7007 15.0556 40.0492 15.77 38.8982 17.0679C37.7782 18.331 37.1215 19.9318 36.9471 21.8258C36.8099 23.3128 36.9593 24.995 37.4021 26.9696C38.312 31.0213 39.9696 34.9472 42.3308 38.6515H41.0418C40.8885 38.6515 40.7414 38.712 40.6329 38.8196C40.5245 38.9273 40.4634 39.0734 40.4632 39.2258V42.8434C40.4634 42.9958 40.5244 43.142 40.6329 43.2498C40.7413 43.3576 40.8884 43.4182 41.0418 43.4184H42.2686L40.0833 55.594C40.0593 55.7291 40.0846 55.8684 40.1546 55.9867L42.3627 59.7166C42.4137 59.8029 42.4865 59.8744 42.5738 59.9241C42.6612 59.9738 42.7602 60 42.8608 60C42.9615 60 43.0604 59.9738 43.1478 59.9241C43.2352 59.8744 43.308 59.8029 43.359 59.7166L45.5663 55.9867C45.6366 55.8687 45.6619 55.7297 45.6376 55.5947L43.4568 43.4162ZM41.0736 39.2529H44.6556V42.8132H41.0698L41.0736 39.2529ZM42.8646 59.3699L40.6861 55.6897L42.8646 43.5481L45.0424 55.6897L42.8646 59.3699Z" fill="black"/>
<path d="M44.6466 17.7522C44.6446 18.523 44.8914 19.274 45.3507 19.895C45.8099 20.5161 46.4575 20.9743 47.1982 21.2025V23.8532H46.6075V24.4561H48.3947V23.8532H47.8048V21.2018C48.5457 20.9741 49.1935 20.5161 49.653 19.8951C50.1124 19.2741 50.3592 18.523 50.3571 17.7522C50.3573 17.5608 50.4339 17.3772 50.5701 17.2419C50.7063 17.1065 50.8909 17.0304 51.0835 17.0302H51.4793V16.4272H51.0835C50.7301 16.4276 50.3913 16.5674 50.1414 16.8158C49.8914 17.0641 49.7509 17.4009 49.7505 17.7522C49.7523 18.3619 49.5673 18.9578 49.22 19.4604C48.8726 19.963 48.3795 20.3485 47.8063 20.5657V17.0302H48.601V16.4272H46.402V17.0302H47.1967V20.5657C46.6233 20.3486 46.13 19.9632 45.7825 19.4605C45.4351 18.9579 45.2499 18.362 45.2517 17.7522C45.2513 17.4011 45.1108 17.0644 44.8611 16.816C44.6114 16.5677 44.2727 16.4278 43.9194 16.4272H43.5251V17.0302H43.921C44.1134 17.0306 44.2979 17.1068 44.4339 17.2421C44.5699 17.3775 44.6464 17.5609 44.6466 17.7522Z" fill="black"/>
<path d="M4.60661 39.7427H4V54.6458H4.60661V39.7427Z" fill="black"/>
<path d="M11.3725 33.0542H10.7659V54.6454H11.3725V33.0542Z" fill="black"/>
<path d="M18.1393 38.7471H17.5327V54.645H18.1393V38.7471Z" fill="black"/>
<path d="M24.9059 27.8228H24.2993V50.919H24.9059V27.8228Z" fill="black"/>
<path d="M31.672 22.2842H31.0654V47.1938H31.672V22.2842Z" fill="black"/>
<path d="M38.4387 32.6812H37.832V41.2338H38.4387V32.6812Z" fill="black"/>
<path d="M38.4387 9.30127H37.832V16.7287H38.4387V9.30127Z" fill="black"/>
<path d="M11.0943 29.4484L17.9293 34.5365L24.8393 22.4777L31.5651 16.8192L31.6007 16.7898L37.3484 7.7721C37.8055 7.9709 38.3213 7.99088 38.7926 7.82806C39.2639 7.66523 39.656 7.3316 39.8905 6.89385C40.125 6.4561 40.1846 5.94651 40.0575 5.46694C39.9303 4.98738 39.6258 4.57318 39.2047 4.30716C38.7835 4.04115 38.2769 3.94291 37.7861 4.0321C37.2953 4.12129 36.8564 4.39132 36.5572 4.78822C36.2581 5.18512 36.1206 5.67963 36.1724 6.17289C36.2242 6.66615 36.4614 7.12181 36.8365 7.44878L31.1374 16.3911L24.4063 22.0542L24.3654 22.0888L17.7427 33.6441L11.045 28.6593L4.09326 35.2984L4.51334 35.7333L11.0943 29.4484ZM38.1354 4.61648C38.4054 4.61648 38.6693 4.69604 38.8937 4.84511C39.1182 4.99418 39.2931 5.20605 39.3964 5.45394C39.4997 5.70182 39.5267 5.97459 39.4741 6.23775C39.4214 6.5009 39.2914 6.74263 39.1006 6.93235C38.9097 7.12208 38.6665 7.25128 38.4017 7.30363C38.137 7.35597 37.8625 7.32911 37.6131 7.22643C37.3637 7.12375 37.1506 6.94987 37.0006 6.72678C36.8506 6.50368 36.7706 6.2414 36.7706 5.97309C36.7716 5.6136 36.9157 5.26912 37.1714 5.01492C37.4272 4.76072 37.7738 4.61747 38.1354 4.61648Z" fill="black"/>
</svg>
