<svg width="60" height="64" viewBox="0 0 60 64" fill="none" xmlns="http://www.w3.org/2000/svg">
<path d="M45.1074 52.7799C39.3821 48.5166 34.3531 43.2227 30.546 37.4465C31.482 35.9777 32.3536 34.4731 33.1338 32.96C35.1745 29.0385 36.7021 24.8719 37.6792 20.5624L37.0255 20.4161C36.0603 24.6698 34.5521 28.7824 32.5379 32.6533C31.896 33.8946 31.1971 35.1326 30.4429 36.3447L30.406 24.1711C31.5252 23.844 32.515 23.1785 33.2391 22.2666C33.9631 21.3546 34.3857 20.2411 34.4486 19.0795C35.6815 18.9961 36.8368 18.4493 37.6814 17.5495C38.5259 16.6496 38.9968 15.4637 38.9991 14.2311V13.8967H38.6639C37.3722 13.8989 36.1341 14.4118 35.2208 15.3229C34.3076 16.2341 33.7936 17.4692 33.7916 18.7576C33.7946 19.7981 33.4693 20.8132 32.8618 21.6591C32.2543 22.5049 31.3955 23.1387 30.4069 23.4706L30.3884 17.5798C31.6371 16.295 32.2974 14.8463 32.2974 13.3826C32.2974 11.878 31.6027 10.3925 30.2862 9.08178L30.0499 8.84521L29.8127 9.08178C28.4987 10.3925 27.8015 11.8796 27.8015 13.3826C27.8015 14.848 28.4635 16.2975 29.713 17.5832L29.7314 23.4831C28.7344 23.1564 27.8667 22.5232 27.2527 21.6743C26.6386 20.8254 26.3097 19.8044 26.3131 18.7576C26.3008 17.4758 25.782 16.2506 24.8695 15.348C23.9569 14.4454 22.7243 13.9383 21.4392 13.9368H21.104V14.2712C21.1063 15.5043 21.5776 16.6905 22.4226 17.5904C23.2677 18.4903 24.4236 19.0368 25.657 19.1196C25.7287 20.281 26.1599 21.3916 26.8912 22.2982C27.6225 23.2048 28.6178 23.8627 29.7398 24.1811L29.7767 36.3322C29.0275 35.1251 28.3277 33.8879 27.6866 32.6533C25.6724 28.7825 24.1645 24.6698 23.1999 20.4161L22.5454 20.5624C23.5235 24.8717 25.0514 29.0383 27.0917 32.96C27.8744 34.4731 28.7459 35.9811 29.6836 37.4456C25.9964 43.0572 21.0261 48.214 14.8943 52.7757C11.4721 55.3091 7.82558 57.5263 4 59.3996L4.29582 59.9998C8.15779 58.1083 11.8391 55.8699 15.294 53.3124C21.4015 48.7674 26.371 43.6415 30.08 38.0617L30.1136 38.1135L30.1496 38.0584C33.9785 43.802 38.9999 49.0675 44.7068 53.3115C48.1611 55.8697 51.8421 58.1081 55.7042 59.9989L56 59.3988C52.175 57.5273 48.5291 55.3118 45.1074 52.7799ZM35.6931 15.7918C36.3947 15.0882 37.3253 14.6578 38.3169 14.578C38.233 15.5662 37.8011 16.4929 37.0979 17.1939C36.3946 17.8949 35.4653 18.3251 34.4746 18.4082C34.555 17.419 34.9871 16.4911 35.6931 15.7918ZM21.787 14.6215C22.7776 14.7051 23.7066 15.1356 24.4096 15.8367C25.1126 16.5378 25.5444 17.4644 25.6285 18.4525C24.6377 18.3687 23.7086 17.9379 23.0055 17.2365C22.3025 16.535 21.8708 15.6081 21.787 14.6198V14.6215ZM30.0524 9.80319C31.084 10.92 31.6253 12.1538 31.6253 13.3826C31.6253 14.6114 31.0823 15.8461 30.0507 16.9646C29.0183 15.8461 28.4752 14.6131 28.4752 13.3826C28.4752 12.1521 29.0199 10.92 30.0524 9.80151V9.80319Z" fill="black"/>
<path d="M25.1643 6.89607L25.2029 6.85177C25.8221 6.16454 26.5793 5.61497 27.4253 5.23877C28.2714 4.86256 29.1873 4.66814 30.1136 4.66814C31.04 4.66814 31.9559 4.86256 32.802 5.23877C33.648 5.61497 34.4052 6.16454 35.0244 6.85177L35.0638 6.89607C36.3678 8.37232 37.2025 10.2022 37.5444 12.3363L38.2064 12.2301C37.8444 9.97312 36.9561 8.02624 35.5675 6.4547L35.5239 6.40622C34.8419 5.64896 34.0078 5.04337 33.0757 4.62881C32.1437 4.21425 31.1346 4 30.1141 4C29.0936 4 28.0845 4.21425 27.1524 4.62881C26.2204 5.04337 25.3862 5.64896 24.7042 6.40622L24.6607 6.4547C23.2712 8.02708 22.3829 9.97061 22.0217 12.231L22.6838 12.3371C23.0248 10.2022 23.8595 8.37232 25.1643 6.89607Z" fill="black"/>
</svg>
