<svg width="54" height="64" viewBox="0 0 54 64" fill="none" xmlns="http://www.w3.org/2000/svg">
<path d="M13.6372 47.0848C10.6099 49.298 7.38416 51.2348 4 52.8713L4.26169 53.3949C7.67821 51.7428 10.9347 49.7874 13.9908 47.5529C17.2067 45.1898 20.1075 42.6047 22.6117 39.8692L22.1714 39.4785C19.6946 42.1855 16.8227 44.7443 13.6372 47.0848Z" fill="black"/>
<path d="M31.977 39.4805L31.5322 39.8668C34.0813 42.7101 36.9224 45.2858 40.01 47.5526C43.0657 49.7874 46.322 51.7428 49.7384 53.3946L50.0001 52.8703C46.6158 51.2341 43.39 49.2973 40.3629 47.0838C37.3087 44.8413 34.4984 42.2932 31.977 39.4805Z" fill="black"/>
<path d="M27.764 39.228H29.4172C29.588 39.2278 29.7517 39.1609 29.8725 39.0419C29.9932 38.923 30.0612 38.7617 30.0614 38.5934V34.0659C30.0614 33.8976 29.9935 33.7362 29.8727 33.6172C29.7519 33.4982 29.588 33.4313 29.4172 33.4313H27.5816C30.6418 28.3875 32.6086 22.7354 33.2765 17.0496L32.6871 16.9825C32.0303 22.574 30.0992 28.1341 27.0924 33.0983C24.1159 28.4977 22.0284 23.6146 20.8852 18.5766C20.3404 16.1726 20.1565 14.133 20.3233 12.3417C20.5309 10.1137 21.3041 8.23773 22.6214 6.76482C23.9388 5.2919 25.8165 4.48352 27.6491 4.59598L27.6862 4.01178C25.6712 3.88617 23.6089 4.77124 22.1759 6.37705C20.7733 7.9449 19.9519 9.93337 19.7295 12.287C19.5575 14.1396 19.7451 16.2383 20.3033 18.7022C21.4627 23.8139 23.5807 28.7657 26.6046 33.4298H24.8202C24.6493 33.4298 24.4855 33.4967 24.3647 33.6157C24.2439 33.7347 24.176 33.8961 24.176 34.0644V38.592C24.1762 38.7602 24.2441 38.9215 24.3649 39.0405C24.4857 39.1595 24.6494 39.2264 24.8202 39.2266H26.4734L23.6934 54.5786C23.6661 54.7278 23.694 54.8816 23.772 55.0124L26.5623 59.6859C26.6191 59.7815 26.7003 59.8608 26.7978 59.9159C26.8954 59.971 27.0059 60 27.1183 60C27.2307 60 27.3412 59.971 27.4388 59.9159C27.5363 59.8608 27.6175 59.7815 27.6743 59.6859L30.4639 55.0124C30.5416 54.8818 30.5694 54.7283 30.5425 54.5793L27.764 39.228ZM24.8202 38.6438C24.8066 38.6438 24.7936 38.6385 24.784 38.6291C24.7744 38.6196 24.769 38.6068 24.769 38.5934V34.0659C24.769 34.0593 24.7704 34.0527 24.7729 34.0466C24.7755 34.0405 24.7793 34.0349 24.784 34.0303C24.7888 34.0256 24.7944 34.0219 24.8006 34.0193C24.8068 34.0168 24.8135 34.0155 24.8202 34.0155H29.4164C29.4231 34.0155 29.4298 34.0168 29.436 34.0193C29.4422 34.0219 29.4478 34.0256 29.4526 34.0303C29.4573 34.0349 29.4611 34.0405 29.4637 34.0466C29.4662 34.0527 29.4676 34.0593 29.4676 34.0659V38.5934C29.4676 38.6068 29.4622 38.6196 29.4526 38.6291C29.443 38.6385 29.43 38.6438 29.4164 38.6438H24.8202ZM29.9516 54.7159L27.1628 59.3895C27.1583 59.397 27.1518 59.4033 27.1441 59.4077C27.1364 59.412 27.1276 59.4143 27.1187 59.4143C27.1098 59.4143 27.101 59.412 27.0933 59.4077C27.0855 59.4033 27.0791 59.397 27.0746 59.3895L24.285 54.7159C24.2791 54.7054 24.2768 54.6934 24.2783 54.6815L27.0686 39.2733C27.0701 39.2613 27.076 39.2502 27.0853 39.2421C27.0945 39.2341 27.1064 39.2297 27.1187 39.2297C27.131 39.2297 27.1429 39.2341 27.1521 39.2421C27.1613 39.2502 27.1672 39.2613 27.1687 39.2733L29.9576 54.6815C29.9597 54.6933 29.9576 54.7055 29.9516 54.7159Z" fill="black"/>
<path d="M29.4614 7.17501C29.4587 8.13283 29.7715 9.06566 30.3529 9.83345C30.9342 10.6012 31.7527 11.1625 32.6854 11.4331V14.901H31.8529V15.4852H34.111V14.901H33.2785V11.4331C34.2111 11.1624 35.0294 10.601 35.6106 9.83327C36.1918 9.0655 36.5045 8.13273 36.5018 7.17501C36.5022 6.91277 36.6082 6.66138 36.7965 6.47602C36.9848 6.29065 37.2401 6.18644 37.5063 6.18625H38.0059V5.60205H37.5063C37.0828 5.60244 36.6768 5.76826 36.3773 6.06314C36.0778 6.35802 35.9093 6.75789 35.9087 7.17501C35.9112 7.9769 35.6589 8.75947 35.1873 9.41305C34.7156 10.0666 34.0482 10.5585 33.2785 10.8197V6.18625H34.3683V5.60205H31.595V6.18625H32.6854V10.8197C31.9157 10.5585 31.2482 10.0667 30.7764 9.41312C30.3046 8.75954 30.0522 7.97696 30.0545 7.17501C30.0541 6.75795 29.8857 6.35809 29.5864 6.06319C29.287 5.76828 28.8811 5.60244 28.4577 5.60205H27.9573V6.18625H28.4577C28.7238 6.18644 28.979 6.29068 29.1672 6.47606C29.3554 6.66145 29.4612 6.91283 29.4614 7.17501Z" fill="black"/>
</svg>
