<svg width="86" height="64" viewBox="0 0 86 64" fill="none" xmlns="http://www.w3.org/2000/svg">
<path d="M44.6103 11.8091H28.5005V12.5912H44.6103V11.8091Z" fill="black"/>
<path d="M7.9798 19.3205C7.9798 19.2051 7.9798 19.0888 7.98859 18.9744C8.07559 17.2513 8.82129 15.6276 10.0713 14.4394C11.3214 13.2512 12.9801 12.5895 14.7041 12.5912H17.9671V11.8091H14.7041C12.7796 11.8071 10.9281 12.5458 9.53275 13.8721C8.13739 15.1984 7.30505 17.0109 7.20801 18.9343C7.20117 19.0624 7.19824 19.1924 7.19824 19.3205V41.8957H7.9798V19.3205Z" fill="black"/>
<path d="M65.0803 41.6884C66.1344 40.0361 67.1153 38.336 67.9945 36.629C70.2848 32.2124 71.9997 27.5201 73.0971 22.667C73.8064 19.4896 74.0447 16.7834 73.8259 14.394C73.5475 11.3574 72.5031 8.79198 70.7212 6.76822L70.6733 6.71445C69.9065 5.8602 68.9685 5.17702 67.9205 4.70936C66.8725 4.24169 65.7379 4 64.5904 4C63.4429 4 62.3082 4.24169 61.2602 4.70936C60.2122 5.17702 59.2743 5.8602 58.5074 6.71445L58.4595 6.76724C56.6776 8.79003 55.6332 11.3554 55.3548 14.393C55.136 16.7824 55.3744 19.4886 56.0836 22.666C57.1811 27.5191 58.8959 32.2114 61.1862 36.628C62.0596 38.3223 63.0326 40.0117 64.0789 41.6532C60.645 46.9032 56.1735 51.8355 50.7847 56.3181C48.8193 57.951 46.3583 58.8682 43.8044 58.9197L37.2589 59.039H19.5762V59.8211H37.2686L43.8142 59.7018C46.5454 59.6466 49.1771 58.6656 51.279 56.9194C56.6278 52.472 61.0856 47.5808 64.5361 42.3737L64.586 42.451L64.6133 42.4079C68.9119 48.8605 74.541 54.7812 80.9342 59.5532C81.1354 59.7038 81.337 59.8527 81.5389 60L82 59.3684C81.8001 59.2224 81.6004 59.0751 81.4011 58.9265C74.9895 54.137 69.3515 48.182 65.0803 41.6884ZM56.8466 22.4949C56.1549 19.3986 55.9224 16.7717 56.1334 14.4644C56.3962 11.5969 57.3761 9.185 59.0457 7.28638L59.0897 7.23555C59.7833 6.46352 60.6314 5.84615 61.579 5.42353C62.5266 5.00092 63.5524 4.78252 64.5899 4.78252C65.6273 4.78252 66.6531 5.00092 67.6007 5.42353C68.5483 5.84615 69.3965 6.46352 70.0901 7.23555L70.135 7.28638C71.8046 9.18207 72.7845 11.5969 73.0473 14.4644C73.2583 16.7717 73.0258 19.3986 72.3341 22.4949C71.2517 27.2832 69.5598 31.9128 67.2999 36.2702C66.4783 37.8647 65.5678 39.4544 64.5909 41.003C63.6139 39.4544 62.7024 37.8647 61.8808 36.2702C59.6209 31.9128 57.929 27.2832 56.8466 22.4949Z" fill="black"/>
<path d="M21.5624 19.8041H24.6505C24.9223 19.8039 25.1828 19.6959 25.3753 19.5039C25.5677 19.3119 25.6763 19.0515 25.6773 18.7795V7.88055C25.6773 7.60794 25.5692 7.34649 25.3766 7.15364C25.1841 6.96078 24.9229 6.85231 24.6505 6.85205H21.5624C21.2904 6.85231 21.0297 6.96055 20.8374 7.15301C20.645 7.34546 20.5369 7.60642 20.5366 7.8786V18.7795C20.5374 19.0514 20.6458 19.3118 20.838 19.5039C21.0303 19.6959 21.2908 19.8039 21.5624 19.8041ZM21.3182 7.87664C21.3182 7.81182 21.3439 7.74965 21.3897 7.70381C21.4355 7.65798 21.4976 7.63223 21.5624 7.63223H24.6505C24.7154 7.63223 24.7776 7.65794 24.8236 7.70375C24.8695 7.74956 24.8955 7.81173 24.8957 7.87664V18.7795C24.8955 18.8444 24.8695 18.9066 24.8236 18.9524C24.7776 18.9982 24.7154 19.024 24.6505 19.024H21.5624C21.4976 19.024 21.4355 18.9982 21.3897 18.9524C21.3439 18.9065 21.3182 18.8444 21.3182 18.7795V7.87664Z" fill="black"/>
<path d="M48.5964 19.8041H51.6855C51.9575 19.8039 52.2182 19.6956 52.4105 19.5032C52.6029 19.3107 52.711 19.0498 52.7113 18.7776V7.88055C52.711 7.60837 52.6029 7.34742 52.4105 7.15496C52.2182 6.9625 51.9575 6.85426 51.6855 6.854H48.5964C48.3244 6.85426 48.0636 6.9625 47.8713 7.15496C47.679 7.34742 47.5708 7.60837 47.5706 7.88055V18.7795C47.5713 19.0514 47.6797 19.3118 47.872 19.5039C48.0642 19.6959 48.3247 19.8039 48.5964 19.8041ZM48.3521 7.87664C48.3521 7.81182 48.3778 7.74965 48.4237 7.70381C48.4695 7.65797 48.5316 7.63223 48.5964 7.63223H51.6855C51.7502 7.63223 51.8124 7.65797 51.8582 7.70381C51.904 7.74965 51.9297 7.81182 51.9297 7.87664V18.7795C51.9297 18.8444 51.904 18.9065 51.8582 18.9524C51.8124 18.9982 51.7502 19.024 51.6855 19.024H48.5964C48.5316 19.024 48.4695 18.9982 48.4237 18.9524C48.3778 18.9065 48.3521 18.8444 48.3521 18.7795V7.87664Z" fill="black"/>
<path d="M44.6103 29.3042H13.6021V30.0863H44.6103V29.3042Z" fill="black"/>
<path d="M53.1478 36.938H13.6021V37.7201H53.1478V36.938Z" fill="black"/>
<path d="M53.1478 44.5713H22.3643V45.3534H53.1478V44.5713Z" fill="black"/>
<path d="M20.3499 47.5962C19.5093 45.7969 18.0714 44.3449 16.281 43.4877C14.4906 42.6305 12.4586 42.421 10.5313 42.895C8.60387 43.3691 6.90035 44.4972 5.71097 46.0873C4.52159 47.6773 3.91995 49.6309 4.00856 51.6151C4.09717 53.5993 4.87054 55.4914 6.19691 56.969C7.52328 58.4465 9.32056 59.4181 11.2825 59.7182C13.2445 60.0183 15.2497 59.6282 16.9565 58.6146C18.6634 57.601 19.9662 56.0264 20.6429 54.1593C21.03 53.1002 21.2033 51.9749 21.153 50.8484C21.1027 49.7219 20.8297 48.6165 20.3499 47.5962ZM19.9102 53.8933C19.2959 55.5905 18.1125 57.0219 16.5618 57.9437C15.011 58.8656 13.1888 59.2208 11.4057 58.9488C9.62256 58.6768 7.98885 57.7945 6.78292 56.4522C5.57699 55.1099 4.87347 53.3907 4.79223 51.5875C4.711 49.7843 5.25708 48.0086 6.33743 46.5632C7.41777 45.1177 8.96553 44.0919 10.717 43.6605C12.4684 43.229 14.3151 43.4187 15.9425 44.1972C17.5699 44.9756 18.8771 46.2947 19.6416 47.9296C20.5168 49.8035 20.6134 51.9483 19.9102 53.8933Z" fill="black"/>
<path d="M12.9709 46.04H12.1894V50.8443H7.38965V51.6264H12.1894V56.4297H12.9709V51.6264H17.7716V50.8443H12.9709V46.04Z" fill="black"/>
</svg>
