<svg width="58" height="64" viewBox="0 0 58 64" fill="none" xmlns="http://www.w3.org/2000/svg">
<path d="M30.6435 30.5571H29.1931C28.8728 30.5581 28.566 30.6861 28.3396 30.913C28.1131 31.1399 27.9854 31.4474 27.9844 31.7683V32.0631C27.9844 32.3843 28.1117 32.6924 28.3384 32.9196C28.5651 33.1468 28.8725 33.2744 29.1931 33.2744H30.6435C30.9441 33.2746 31.234 33.1631 31.4573 32.9614C31.6805 32.7597 31.8212 32.4822 31.8522 32.1826C35.2905 31.5059 38.0293 28.8637 38.9286 25.3534C38.9649 25.3485 39.0003 25.3437 39.0358 25.3356L40.209 25.078C41.6643 24.7591 42.7609 23.2813 42.7609 21.6396V20.1457C42.7609 18.504 41.6643 17.0262 40.209 16.7073L39.2195 16.49C39.1972 15.7347 39.1047 14.9832 38.9431 14.2451L38.3138 14.384C38.4618 15.0596 38.5486 15.7471 38.5732 16.4383C38.2492 16.4802 37.9516 16.639 37.7361 16.885C37.5205 17.1311 37.4019 17.4474 37.4024 17.7748V24.0258C37.4023 24.3014 37.4865 24.5704 37.6437 24.7966C37.8009 25.0227 38.0235 25.1951 38.2815 25.2904C37.4306 28.4777 34.9488 30.8793 31.8352 31.535C31.7801 31.259 31.6312 31.0107 31.4139 30.8324C31.1966 30.6541 30.9243 30.5568 30.6435 30.5571ZM31.2075 32.0663C31.2075 32.2162 31.1481 32.36 31.0423 32.466C30.9365 32.572 30.7931 32.6316 30.6435 32.6316H29.1931C29.0435 32.6316 28.9 32.572 28.7942 32.466C28.6884 32.36 28.629 32.2162 28.629 32.0663V31.7716C28.629 31.6217 28.6884 31.4779 28.7942 31.3719C28.9 31.2659 29.0435 31.2063 29.1931 31.2063H30.6435C30.7927 31.2074 30.9356 31.2673 31.0412 31.373C31.1467 31.4788 31.2065 31.622 31.2075 31.7716V32.0663ZM38.0414 24.025V17.7756C38.0416 17.5894 38.1154 17.4109 38.2467 17.2791C38.3779 17.1473 38.5559 17.0729 38.7417 17.0723C38.7816 17.0726 38.8215 17.0761 38.8609 17.0828L38.8891 17.0884L40.0712 17.346C41.2372 17.602 42.1163 18.8084 42.1163 20.1538V21.6477C42.1163 22.993 41.2372 24.1994 40.0712 24.4554L38.898 24.7122C38.7957 24.7348 38.6896 24.7341 38.5876 24.7102C38.4855 24.6862 38.3902 24.6396 38.3085 24.5738C38.2269 24.508 38.161 24.4247 38.1157 24.33C38.0705 24.2353 38.047 24.1316 38.0471 24.0266L38.0414 24.025Z" fill="black"/>
<path d="M29.3582 37.9862C30.164 36.7338 30.9133 35.4829 31.591 34.2668L31.027 33.9518C30.4017 35.0791 29.7103 36.2363 28.9722 37.3959C25.4952 31.9298 23.1536 26.5574 22.011 21.432C21.4179 18.7745 21.2181 16.5191 21.3994 14.5382C21.625 12.0745 22.4655 9.99993 23.8973 8.37116C24.629 7.53498 25.5426 6.87852 26.5677 6.45249C26.7009 6.40727 26.8352 6.36528 26.9706 6.32652L26.9642 6.3031C27.7345 6.03765 28.549 5.92546 29.3622 5.97282L29.4025 5.32681C28.3579 5.26831 27.3137 5.44605 26.3469 5.84685C25.2427 6.22213 24.2213 6.80783 23.3389 7.57171C22.0708 8.66352 21.0421 10.0067 20.3175 11.5165C19.5929 13.0264 19.1881 14.6703 19.1287 16.3446C19.0805 16.3496 19.0326 16.3574 18.9853 16.3681L17.812 16.6248C16.3568 16.9438 15.2593 18.4224 15.2593 20.0641V21.5572C15.2593 23.1989 16.3568 24.6766 17.812 24.9956L18.9853 25.2532C19.0803 25.2741 19.1773 25.2846 19.2745 25.2847C19.6313 25.2843 19.9733 25.1419 20.2253 24.8889C20.4773 24.6358 20.6188 24.2929 20.6186 23.9353V17.6859C20.6193 17.416 20.5387 17.1521 20.3873 16.9287C20.2359 16.7054 20.0208 16.5331 19.7701 16.4343C19.8409 14.0325 20.6616 11.7135 22.1165 9.80371C21.3736 11.1676 20.9175 12.7302 20.758 14.4768C20.5702 16.5255 20.7741 18.8463 21.3817 21.5709C22.5581 26.8489 24.9827 32.3715 28.5862 37.9886C24.7337 43.7196 19.6041 49.1914 14.4753 53.0215C11.1845 55.4688 7.67829 57.6108 4 59.4211L4.28525 60.0001C7.99834 58.1727 11.5377 56.0104 14.8596 53.5399C19.9715 49.7187 25.0931 44.2849 28.9609 38.5789L28.9674 38.5878L28.973 38.5781C32.7908 44.1718 38.0567 49.7389 43.1404 53.5399C46.462 56.0111 50.0018 58.1735 53.7156 60.0001L54 59.4211C50.3212 57.6118 46.8149 55.4697 43.5247 53.0215C38.4265 49.2108 33.1413 43.6017 29.3582 37.9862ZM19.974 17.6859V23.9353C19.9742 24.0407 19.9507 24.1447 19.9054 24.2398C19.8601 24.3348 19.794 24.4184 19.7121 24.4844C19.6301 24.5504 19.5344 24.5971 19.432 24.621C19.3297 24.6449 19.2232 24.6454 19.1206 24.6225L17.9474 24.3657C16.7814 24.1098 15.9015 22.9033 15.9015 21.558V20.0649C15.9015 18.7196 16.7814 17.5123 17.9474 17.2571L19.1206 16.9995C19.1702 16.989 19.2207 16.9836 19.2713 16.9834C19.4571 16.9836 19.6352 17.0577 19.7665 17.1894C19.8978 17.3212 19.9715 17.4997 19.9715 17.6859H19.974Z" fill="black"/>
<path d="M33.2832 29.4669L33.8722 29.731C35.1051 26.966 36.0294 24.2204 36.62 21.575C37.2461 18.7656 37.4443 16.3818 37.2252 14.2871L36.5805 14.3541C36.7924 16.3786 36.5982 18.6946 35.9875 21.4337C35.4097 24.0379 34.4983 26.7415 33.2832 29.4669Z" fill="black"/>
<path d="M32.0214 11.8475C32.2399 11.954 32.4182 12.1283 32.5298 12.3445C32.6415 12.5607 32.6805 12.8073 32.6411 13.0475L32.4074 14.4009C32.3853 14.5227 32.4008 14.6484 32.4519 14.7612C32.5029 14.874 32.5871 14.9685 32.6931 15.0321C32.7991 15.0957 32.922 15.1254 33.0453 15.1172C33.1686 15.109 33.2865 15.0634 33.3832 14.9863L36.7675 12.3627C36.9681 12.2067 37.2146 12.1215 37.4686 12.1204H40.7433C41.4308 12.1198 42.09 11.8458 42.5761 11.3586C43.0623 10.8714 43.3357 10.2108 43.3363 9.52183V6.5986C43.3354 5.90967 43.062 5.24921 42.5759 4.76206C42.0898 4.27491 41.4307 4.00085 40.7433 4H33.1834C32.4959 4.00085 31.8369 4.27491 31.3508 4.76206C30.8647 5.24921 30.5912 5.90967 30.5904 6.5986V9.52345C30.5885 10.0061 30.7216 10.4797 30.9745 10.8904C31.2274 11.3012 31.5901 11.6327 32.0214 11.8475ZM31.235 6.5986C31.2354 6.08088 31.4408 5.58448 31.8061 5.21839C32.1714 4.8523 32.6668 4.64645 33.1834 4.64602H40.736C41.2526 4.64645 41.748 4.8523 42.1133 5.21839C42.4786 5.58448 42.684 6.08088 42.6844 6.5986V9.52345C42.684 10.0412 42.4786 10.5376 42.1133 10.9037C41.748 11.2698 41.2526 11.4756 40.736 11.476H37.4613C37.0646 11.4772 36.6794 11.6094 36.3654 11.8523L33.0617 14.4186L33.2793 13.1573C33.3433 12.7803 33.2837 12.3926 33.1093 12.0524C32.935 11.7121 32.6554 11.4377 32.3123 11.2701C31.9882 11.1086 31.7156 10.8595 31.5255 10.5508C31.3354 10.2421 31.2353 9.8862 31.2366 9.52345L31.235 6.5986Z" fill="black"/>
</svg>
