<svg width="76" height="64" viewBox="0 0 76 64" fill="none" xmlns="http://www.w3.org/2000/svg">
<path d="M4.69033 41.2173H4V59.999H4.69033V41.2173Z" fill="black"/>
<path d="M13.0985 22.436H12.4082V60.0003H13.0985V22.436Z" fill="black"/>
<path d="M21.4127 29.6289H20.7224V59.9072H21.4127V29.6289Z" fill="black"/>
<path d="M38.0399 41.2173H37.3496V59.999H38.0399V41.2173Z" fill="black"/>
<path d="M54.6684 22.436H53.978V60.0003H54.6684V22.436Z" fill="black"/>
<path d="M46.3541 29.7217H45.6638V60H46.3541V29.7217Z" fill="black"/>
<path d="M29.726 37.4805H29.0356V60.0001H29.726V37.4805Z" fill="black"/>
<path d="M4.69033 37.3721H4V39.4966H4.69033V37.3721Z" fill="black"/>
<path d="M62.9823 41.2173H62.292V59.999H62.9823V41.2173Z" fill="black"/>
<path d="M62.9823 37.3721H62.292V39.4966H62.9823V37.3721Z" fill="black"/>
<path d="M13.0985 18.542H12.4082V20.6665H13.0985V18.542Z" fill="black"/>
<path d="M21.4127 25.811H20.7224V27.9356H21.4127V25.811Z" fill="black"/>
<path d="M29.726 33.6035H29.0356V35.728H29.726V33.6035Z" fill="black"/>
<path d="M38.0399 37.3721H37.3496V39.4966H38.0399V37.3721Z" fill="black"/>
<path d="M54.6684 18.8828H53.978V21.0073H54.6684V18.8828Z" fill="black"/>
<path d="M46.3541 25.811H45.6638V27.9356H46.3541V25.811Z" fill="black"/>
<path d="M67.9984 19.6041C67.9961 21.575 67.2021 23.4644 65.7905 24.8581C64.379 26.2517 62.4651 27.0358 60.4687 27.0383C60.0553 27.0381 59.6426 27.0047 59.2347 26.9386L59.1226 27.6116C59.5676 27.6835 60.0178 27.7197 60.4687 27.7197C61.9681 27.7192 63.4389 27.3138 64.7217 26.5474C66.0045 25.781 67.0505 24.6828 67.7465 23.3717C68.4425 22.0606 68.762 20.5866 68.6704 19.1091C68.5787 17.6316 68.0795 16.2071 67.2266 14.9896C66.3738 13.7721 65.1999 12.8081 63.832 12.2019C62.464 11.5957 60.9542 11.3704 59.4659 11.5505C57.9776 11.7305 56.5675 12.309 55.3883 13.2233C54.2091 14.1376 53.3057 15.3529 52.7759 16.7377L53.4213 16.9787C54.0442 15.3508 55.2257 13.9902 56.7601 13.1337C58.2945 12.2773 60.0846 11.9792 61.8187 12.2916C63.5528 12.6039 65.121 13.5067 66.2502 14.8429C67.3794 16.1791 67.998 17.864 67.9984 19.6041Z" fill="black"/>
<path d="M60.1237 13.604V18.4034C59.728 18.4875 59.3778 18.7131 59.1405 19.0369C58.9033 19.3606 58.7957 19.7596 58.8386 20.1569C58.8814 20.5543 59.0716 20.9219 59.3726 21.1891C59.6736 21.4563 60.0641 21.6041 60.4689 21.6041C60.8737 21.6041 61.2642 21.4563 61.5652 21.1891C61.8661 20.9219 62.0564 20.5543 62.0992 20.1569C62.1421 19.7596 62.0345 19.3606 61.7972 19.0369C61.56 18.7131 61.2098 18.4875 60.8141 18.4034V13.604H60.1237ZM61.4181 19.9801C61.419 20.1656 61.364 20.3472 61.2602 20.5019C61.1565 20.6565 61.0085 20.7773 60.8351 20.8489C60.6618 20.9205 60.4708 20.9396 60.2864 20.9039C60.102 20.8683 59.9324 20.7794 59.7992 20.6485C59.6661 20.5176 59.5752 20.3507 59.5383 20.1688C59.5013 19.9869 59.5198 19.7983 59.5915 19.6268C59.6632 19.4553 59.7849 19.3087 59.9411 19.2056C60.0973 19.1024 60.281 19.0474 60.4689 19.0474C60.719 19.0487 60.9585 19.1474 61.1352 19.3221C61.312 19.4968 61.4118 19.7332 61.4129 19.9801H61.4181Z" fill="black"/>
<path d="M71.4106 10.9648C71.4426 10.9964 71.4807 11.0215 71.5226 11.0387C71.5645 11.0558 71.6094 11.0646 71.6548 11.0646C71.7001 11.0646 71.745 11.0558 71.7869 11.0387C71.8288 11.0215 71.8669 10.9964 71.899 10.9648C71.931 10.9331 71.9565 10.8955 71.9738 10.8542C71.9912 10.8128 72.0001 10.7685 72.0001 10.7237C72.0001 10.6789 71.9912 10.6346 71.9738 10.5932C71.9565 10.5518 71.931 10.5143 71.899 10.4826L69.6804 8.29249C69.6157 8.22855 69.5278 8.19264 69.4362 8.19264C69.3446 8.19264 69.2568 8.22855 69.192 8.29249C69.1273 8.35643 69.0909 8.44315 69.0909 8.53357C69.0909 8.62399 69.1273 8.7107 69.192 8.77464L70.0661 9.63757L68.286 11.3276C66.2532 9.4502 63.5965 8.36922 60.814 8.28738V6.81027H61.7158C62.029 6.81004 62.3294 6.6871 62.5508 6.46845C62.7723 6.24979 62.8969 5.9533 62.8971 5.64408V5.16619C62.8969 4.85696 62.7723 4.56047 62.5508 4.34182C62.3294 4.12316 62.029 4.00023 61.7158 4H59.222C58.9087 4.00023 58.6084 4.12316 58.3869 4.34182C58.1654 4.56047 58.0409 4.85696 58.0406 5.16619V5.64408C58.0409 5.9533 58.1654 6.24979 58.3869 6.46845C58.6084 6.6871 58.9087 6.81004 59.222 6.81027H60.1237V8.28738C57.3285 8.36953 54.6609 9.46062 52.6259 11.3541L51.0787 9.76535L51.9347 8.92031C51.9668 8.88865 51.9922 8.85107 52.0096 8.8097C52.0269 8.76834 52.0359 8.724 52.0359 8.67923C52.0359 8.63446 52.0269 8.59013 52.0096 8.54876C51.9922 8.5074 51.9668 8.46982 51.9347 8.43816C51.9026 8.4065 51.8646 8.38139 51.8227 8.36425C51.7808 8.34712 51.7359 8.3383 51.6905 8.3383C51.6452 8.3383 51.6002 8.34712 51.5583 8.36425C51.5164 8.38139 51.4784 8.4065 51.4463 8.43816L49.2269 10.6257C49.1621 10.6897 49.1258 10.7764 49.1258 10.8668C49.1258 10.9572 49.1621 11.0439 49.2269 11.1079C49.2917 11.1718 49.3795 11.2077 49.4711 11.2077C49.5627 11.2077 49.6505 11.1718 49.7153 11.1079L50.5894 10.2441L52.1358 11.8328C50.5583 13.479 49.5176 15.5548 49.1483 17.7914C48.7791 20.028 49.0984 22.3225 50.0648 24.378L50.6913 24.0901C50.0274 22.6857 49.6853 21.1541 49.6894 19.6043C49.6922 17.4364 50.3666 15.3212 51.6221 13.5425C52.8775 11.7638 54.654 10.4068 56.7131 9.65335C58.7723 8.89995 61.0156 8.78627 63.142 9.32756C65.2685 9.86886 67.1764 11.0392 68.6097 12.6817C70.0431 14.3241 70.9333 16.36 71.161 18.5162C71.3886 20.6724 70.9428 22.8457 69.8834 24.7447C68.8239 26.6436 67.2015 28.1772 65.2339 29.1398C63.2662 30.1023 61.0473 30.4478 58.8751 30.1298L58.7733 30.8036C59.3347 30.8852 59.9014 30.9259 60.4689 30.9254C66.7931 30.9254 71.9378 25.8466 71.9378 19.6034C71.94 16.6998 70.8082 13.9072 68.7778 11.8064L70.5554 10.1189L71.4106 10.9648ZM58.7301 5.64408V5.16619C58.7301 5.03763 58.7818 4.91435 58.8739 4.82345C58.966 4.73255 59.0909 4.68148 59.2211 4.68148H61.7149C61.7794 4.68148 61.8432 4.69402 61.9028 4.71838C61.9624 4.74274 62.0165 4.77844 62.0621 4.82345C62.1077 4.86846 62.1439 4.92189 62.1685 4.9807C62.1932 5.03951 62.2059 5.10253 62.2059 5.16619V5.64408C62.2059 5.70773 62.1932 5.77076 62.1685 5.82957C62.1439 5.88837 62.1077 5.94181 62.0621 5.98682C62.0165 6.03182 61.9624 6.06753 61.9028 6.09189C61.8432 6.11624 61.7794 6.12878 61.7149 6.12878H59.2211C59.0909 6.12878 58.966 6.07772 58.8739 5.98682C58.7818 5.89592 58.7301 5.77263 58.7301 5.64408Z" fill="black"/>
</svg>
