<svg width="92" height="64" viewBox="0 0 92 64" fill="none" xmlns="http://www.w3.org/2000/svg">
<path d="M75.6394 36.9624C71.9917 34.332 68.8049 31.1169 66.2081 27.4474C66.0811 27.2635 65.9541 27.0789 65.827 26.8937C66.0252 26.5549 66.2176 26.2121 66.4044 25.8651C68.9289 21.1676 70.2397 15.9743 70.1959 10.8467C70.1673 7.6192 69.2899 5.56588 67.5123 4.5668C65.5232 3.45165 62.8929 4.02255 61.2591 5.92269C59.3538 8.13587 58.9232 11.2806 59.933 15.5328C60.8752 19.5005 62.5528 23.3227 64.9258 26.9108C62.5252 30.8785 59.3052 34.2373 55.5518 36.6769C53.3526 38.101 50.9736 39.2267 48.4774 40.0243C50.3023 36.0525 51.2634 31.7394 51.2972 27.3694C51.3125 24.1419 50.4617 22.0772 48.6955 21.0581C46.7197 19.9163 44.0828 20.453 42.4252 22.3322C40.4942 24.5206 40.0197 27.6606 40.9743 31.929C41.6195 34.795 42.6272 37.5674 43.9732 40.1794C41.3133 39.3742 38.7799 38.1997 36.4473 36.6903C32.69 34.2468 29.4739 30.8918 27.0732 26.9241C29.4463 23.336 31.1248 19.5139 32.0661 15.5461C33.0768 11.2901 32.6424 8.14538 30.7409 5.93601C29.1062 4.03302 26.4759 3.46212 24.4877 4.58013C22.7101 5.57539 21.8317 7.62491 21.8031 10.86C21.7593 15.9876 23.0702 21.1809 25.5956 25.8784C25.7817 26.226 25.9739 26.5689 26.172 26.907C26.045 27.0922 25.918 27.2768 25.7909 27.4607C23.1944 31.1305 20.0076 34.3456 16.3597 36.9757C12.7206 39.6133 8.56129 41.7703 4 43.3859L4.24769 44.09C8.87853 42.4497 13.1073 40.2593 16.8008 37.579C20.517 34.8999 23.7639 31.6254 26.4102 27.888L26.6007 27.613C29.0404 31.5484 32.269 34.8805 36.0319 37.324C38.5941 38.9816 41.3908 40.2459 44.3286 41.0747L44.3695 40.9282C44.7957 41.7135 45.2523 42.4896 45.7394 43.2565C43.1959 47.1386 39.8244 50.6991 35.9843 53.5593C32.8448 55.8786 29.4331 57.8057 25.8252 59.2978L26.1187 60C29.7837 58.4831 33.2491 56.524 36.4378 54.1664C40.2436 51.3364 43.5415 47.8824 46.191 43.9511C46.2863 44.0862 46.372 44.2204 46.4644 44.3555C49.0608 48.1258 52.264 51.4409 55.9442 54.1664C59.1334 56.5243 62.5995 58.4834 66.2653 60L66.5587 59.2978C62.9516 57.8053 59.5406 55.8782 56.4015 53.5593C52.7888 50.8824 49.6443 47.6272 47.0951 43.9254C46.9681 43.7396 46.841 43.5531 46.714 43.366C47.1878 42.5813 47.6257 41.782 48.0277 40.9682C50.8347 40.1408 53.5077 38.9138 55.9642 37.3249C59.7234 34.8815 62.9529 31.5493 65.3955 27.6139L65.586 27.8889C68.2317 31.6253 71.4773 34.8994 75.1916 37.579C78.8907 40.2593 83.1138 42.4497 87.7456 44.09L88 43.3726C83.4378 41.757 79.2794 39.5999 75.6394 36.9624ZM26.2654 25.5073C23.8008 20.9221 22.5205 15.8554 22.5634 10.8543C22.5891 7.92368 23.3398 6.08539 24.8583 5.23571C25.4201 4.92341 26.053 4.76118 26.696 4.76472C27.9468 4.76472 29.2357 5.34798 30.1607 6.42317C31.9165 8.46603 32.2861 11.3082 31.323 15.3672C30.4294 19.1323 28.8566 22.7651 26.6407 26.1867C26.513 25.9621 26.3873 25.7357 26.2654 25.5073ZM46.2596 42.6533C44.0895 39.2032 42.5633 35.5494 41.7193 31.7729C40.8085 27.7024 41.2153 24.8651 42.9977 22.845C43.9227 21.7984 45.1955 21.2275 46.4273 21.2275C47.0884 21.2234 47.7388 21.3941 48.3126 21.7223C49.8206 22.5929 50.5475 24.4407 50.5332 27.3713C50.5141 31.8043 49.47 36.2278 47.4933 40.3307L47.4609 40.3402L47.4714 40.3773C47.0979 41.1487 46.694 41.9073 46.2596 42.6533ZM65.3574 26.1924C63.1425 22.767 61.5696 19.138 60.6751 15.3729C59.7129 11.3148 60.0816 8.47269 61.8383 6.42888C62.7633 5.35369 64.0513 4.77042 65.3021 4.77042C65.9454 4.76677 66.5787 4.929 67.1408 5.24142C68.6583 6.0911 69.409 7.92939 69.4347 10.86C69.4776 15.8601 68.1963 20.9268 65.7337 25.513C65.6086 25.7376 65.4819 25.9621 65.3536 26.1867L65.3574 26.1924Z" fill="black"/>
</svg>
