<svg width="64" height="64" viewBox="0 0 64 64" fill="none" xmlns="http://www.w3.org/2000/svg">
<path d="M32.002 35.2256C31.2605 35.2256 30.5889 34.8935 30.1528 34.3059L26.0705 28.813L26.6375 28.4127L30.7197 33.9056C31.025 34.3144 31.4873 34.5443 32.002 34.5443C32.5166 34.5443 32.9789 34.3144 33.2842 33.9056L46.6474 15.9025C47.7552 14.4037 48.2088 12.5727 47.9122 10.7502C47.6157 8.9278 46.6038 7.31825 45.0686 6.2367L44.5802 5.88754C41.6842 3.84367 37.6281 4.47386 35.526 7.30122L33.4063 10.1541C33.0749 10.597 32.5689 10.8524 32.002 10.8524C31.435 10.8524 30.9291 10.597 30.5976 10.1541L28.478 7.30122C27.4661 5.93012 25.9571 5.02741 24.2475 4.76341C22.5378 4.49941 20.8194 4.89967 19.4238 5.88754L18.9353 6.2367C15.769 8.47644 15.0624 12.8112 17.3565 15.9025L19.9646 19.4197L19.3976 19.8199L16.7895 16.3028C14.2686 12.9048 15.0537 8.14431 18.5253 5.68315L19.0138 5.33399C20.5665 4.23541 22.468 3.79257 24.3609 4.09064C26.2537 4.3887 27.9197 5.38509 29.045 6.90096L31.1646 9.75386C31.3652 10.0179 31.6705 10.1712 32.002 10.1712C32.3422 10.1712 32.6475 10.0179 32.8394 9.75386L34.959 6.90096C37.2792 3.76703 41.7802 3.0687 44.9901 5.33399L45.4786 5.68315C47.1621 6.87541 48.2699 8.63825 48.6013 10.6395C48.9328 12.6493 48.4356 14.6592 47.2144 16.3028L33.8512 34.3059C33.4151 34.885 32.7434 35.2256 32.002 35.2256Z" fill="black"/>
<path d="M15.0536 59.8968L14.4081 59.6328C16.1265 55.6387 16.5278 52.5559 15.6555 49.9244C14.8792 47.5569 13.1172 45.726 11.2592 43.7928C8.3371 40.7611 5.03118 37.312 4.23742 30.7631C3.38259 23.6777 5.10969 14.5655 5.12714 14.4718C5.1533 14.344 5.1882 14.2418 5.22309 14.1396L5.86857 14.4036C5.8424 14.4547 5.82495 14.5144 5.81623 14.591C5.79879 14.6762 4.09785 23.6947 4.93523 30.678C5.69411 37.014 8.92153 40.3608 11.7739 43.3244C15.6293 47.3355 18.9701 50.8016 15.0536 59.8968Z" fill="black"/>
<path d="M7.60396 14.6431C7.52546 14.1747 7.25505 13.8766 6.85381 13.834C6.52234 13.7914 6.06876 13.9618 5.86814 14.4131L5.22266 14.1491C5.51051 13.4764 6.21705 13.0761 6.93231 13.1613C7.63886 13.2464 8.16222 13.7744 8.28434 14.5409L7.60396 14.6431Z" fill="black"/>
<path d="M23.4706 59.9638L22.9124 59.555C22.9734 59.4699 29.3149 51.0644 28.5909 44.2686C27.7622 36.4508 22.2756 29.8508 20.6183 28.0198C20.2432 27.6025 19.8682 27.1767 19.5367 26.7935C18.7342 25.8737 18.2108 25.6523 18.0015 25.746C17.7834 25.8397 17.6351 26.3762 17.7485 27.0915C17.8096 27.4748 18.2981 28.633 18.865 29.9785C20.7491 34.458 22.2407 38.2647 21.3859 39.4825C21.2463 39.6784 20.9847 39.8998 20.5136 39.8913C18.6993 39.8402 15.4719 34.475 14.5211 32.8314C11.8432 28.1901 9.60149 22.8675 8.37158 18.2348L9.04323 18.0645C10.2557 22.6461 12.48 27.9091 15.123 32.4993C17.6439 36.8766 19.7548 39.1844 20.5224 39.21C20.6968 39.21 20.7579 39.1589 20.8015 39.0993C20.9672 38.8693 21.1155 38.1029 20.2956 35.5906C19.7286 33.8619 18.8825 31.8521 18.2021 30.2425C17.5741 28.7437 17.1118 27.6621 17.042 27.2023C16.9199 26.4358 17.0071 25.4394 17.6875 25.1328C18.3068 24.8518 19.1006 25.2691 20.0513 26.3592C20.3828 26.7339 20.7491 27.1682 21.1242 27.577C22.0576 28.6074 23.8806 30.779 25.5728 33.6745C27.6663 37.2513 28.9049 40.794 29.2713 44.209C29.5853 47.1811 28.7043 50.7408 26.637 54.786C25.128 57.7837 23.4881 59.9468 23.4706 59.9638Z" fill="black"/>
<path d="M48.9505 59.9301C45.034 50.8348 48.3748 47.3688 52.2303 43.3577C55.0739 40.4026 58.3013 37.0472 59.0689 30.7198C59.5748 26.5128 59.1736 21.616 58.7462 18.2522L59.4353 18.167C59.8714 21.5734 60.2726 26.5213 59.758 30.7964C58.973 37.3453 55.6583 40.7858 52.7362 43.8261C50.8783 45.7592 49.1163 47.5902 48.3399 49.9577C47.4764 52.5892 47.8689 55.672 49.5873 59.6661L48.9505 59.9301Z" fill="black"/>
<path d="M40.5329 60.0006C40.5155 59.975 38.8756 57.8119 37.3491 54.8143C36.4507 53.0514 35.7703 51.3482 35.3167 49.7472C34.7497 47.7288 34.5491 45.8808 34.7236 44.2372C35.0812 40.8223 36.3286 37.271 38.422 33.7028C40.1142 30.8073 41.9373 28.6442 42.8706 27.6052C43.237 27.1965 43.612 26.7707 43.9435 26.3874C44.8943 25.2974 45.688 24.8801 46.3074 25.1611C46.9877 25.4677 47.0837 26.4641 46.9528 27.2305C46.8743 27.6904 46.4208 28.772 45.7927 30.2708C45.1123 31.8803 44.2662 33.8901 43.6993 35.6189C42.8793 38.1312 43.0276 38.8891 43.1933 39.1276C43.237 39.1872 43.298 39.2468 43.4725 39.2383C43.8301 39.2298 44.6588 38.6336 45.9323 36.9985C47.0924 35.5082 48.427 33.3962 49.6918 31.0543C52.7273 25.4251 54.9254 19.4212 55.7105 14.5671C55.8326 13.8006 56.356 13.2726 57.0625 13.1874C57.7778 13.1023 58.4843 13.5111 58.7722 14.1753L58.1267 14.4393C57.926 13.9794 57.4725 13.8176 57.141 13.8602C56.7398 13.9113 56.4694 14.2009 56.3909 14.6692C55.5884 19.5916 53.3728 25.6721 50.2937 31.3609C48.1828 35.2698 45.1298 39.8599 43.4725 39.911C42.9927 39.9196 42.731 39.6981 42.6002 39.5023C41.7454 38.293 43.237 34.4863 45.1211 29.9983C45.688 28.6527 46.1765 27.4945 46.2376 27.1113C46.3597 26.396 46.2027 25.868 45.9846 25.7658C45.7753 25.6721 45.2519 25.8935 44.4494 26.8132C44.118 27.1965 43.7429 27.6308 43.3678 28.0396C41.7018 29.879 36.2239 36.4705 35.3952 44.2883C35.1859 46.2385 35.465 49.6024 37.9597 54.4907C39.46 57.4372 41.065 59.5492 41.0824 59.5748L40.5329 60.0006Z" fill="black"/>
</svg>
