<svg width="60" height="64" viewBox="0 0 60 64" fill="none" xmlns="http://www.w3.org/2000/svg">
<path d="M32.941 8.41406L33.0517 7.73221C30.6029 7.32663 28.0955 7.46733 25.7066 8.14437C23.3178 8.82142 21.1057 10.0183 19.2267 11.6504C16.8179 13.7345 14.8704 16.3043 13.5101 19.1937C12.1498 22.0831 11.407 25.2278 11.3297 28.4244C11.17 28.4255 11.0109 28.4435 10.855 28.478L8.63007 28.9679C5.99057 29.5487 4 32.2519 4 35.2558V38.1016C4 41.1046 5.99057 43.8052 8.63007 44.3894L10.855 44.8794C11.1885 44.9529 11.5342 44.9502 11.8666 44.8715C12.199 44.7927 12.5096 44.6399 12.7756 44.4244C13.0416 44.2088 13.2563 43.9359 13.4037 43.6258C13.5511 43.3157 13.6276 42.9763 13.6275 42.6325V30.724C13.6272 30.2321 13.4704 29.7533 13.1802 29.3577C12.89 28.9621 12.4815 28.6704 12.0146 28.5255C12.0786 25.4109 12.7942 22.3448 14.1145 19.5273C15.4348 16.7099 17.3303 14.2043 19.6774 12.1741C21.4802 10.6084 23.6024 9.46014 25.8942 8.81044C28.186 8.16074 30.5915 8.02543 32.941 8.41406ZM12.9408 30.724V42.6334C12.9407 42.8737 12.887 43.111 12.7839 43.3278C12.6807 43.5445 12.5306 43.7353 12.3446 43.8859C12.1586 44.0366 11.9415 44.1435 11.7091 44.1986C11.4767 44.2537 11.235 44.2557 11.0018 44.2045L8.77685 43.7145C6.44551 43.2003 4.6867 40.7875 4.6867 38.1016V35.2558C4.6867 32.5699 6.44551 30.1571 8.77685 29.6429L11.0018 29.1529C11.1145 29.1279 11.2296 29.1152 11.3451 29.1149C11.7683 29.1162 12.1737 29.2863 12.4726 29.5879C12.7715 29.8895 12.9395 30.298 12.94 30.724H12.9408Z" fill="black"/>
<path d="M51.3675 28.9679L49.2859 28.5091C49.2562 27.0116 49.0812 25.5207 48.7632 24.0576L48.0919 24.2063C48.3935 25.5932 48.5628 27.0059 48.5975 28.4252C48.0017 28.4403 47.4353 28.6892 47.0191 29.1189C46.603 29.5485 46.3701 30.1248 46.3701 30.7248V42.6343C46.3703 43.1459 46.5399 43.6429 46.852 44.0467C47.1642 44.4505 47.6011 44.738 48.0937 44.8639C47.3374 47.9474 45.7431 50.7579 43.4893 52.9803C41.2421 55.1872 38.3986 56.6782 35.3142 57.2667C35.2817 56.7485 35.0547 56.262 34.6792 55.9061C34.3036 55.5502 33.8077 55.3513 33.2919 55.3499H30.5451C30.0067 55.3504 29.4906 55.5658 29.1098 55.949C28.7291 56.3322 28.5148 56.8518 28.5142 57.3938V57.9581C28.5153 58.4998 28.7297 59.0189 29.1104 59.4017C29.4911 59.7845 30.007 59.9997 30.5451 60.0002H33.2919C33.8286 59.9997 34.3433 59.7856 34.7238 59.4044C35.1043 59.0233 35.3196 58.5062 35.3228 57.9659C38.5859 57.3685 41.5976 55.8037 43.9718 53.4721C46.3417 51.1347 48.0108 48.1732 48.7881 44.9261C48.9085 44.9187 49.0282 44.902 49.146 44.876L51.3675 44.3903C54.007 43.8095 55.9976 41.1064 55.9976 38.1016V35.2558C55.9976 32.2519 54.007 29.5487 51.3675 28.9679ZM34.6326 57.9581C34.6317 58.3159 34.4902 58.6588 34.239 58.9119C33.9878 59.165 33.6473 59.3077 33.2919 59.3088H30.5451C30.1886 59.3093 29.8464 59.1673 29.5938 58.9141C29.3411 58.6608 29.1986 58.317 29.1974 57.9581V57.3955C29.1975 57.2175 29.2325 57.0412 29.3003 56.8768C29.3681 56.7124 29.4674 56.563 29.5926 56.4373C29.7177 56.3115 29.8662 56.2118 30.0297 56.1439C30.1931 56.0759 30.3682 56.0411 30.5451 56.0413H33.2919C33.6482 56.0415 33.9898 56.1841 34.2418 56.4376C34.4938 56.6912 34.6356 57.035 34.6361 57.3938L34.6326 57.9581ZM55.3109 38.1033C55.3109 40.7901 53.5521 43.202 51.2207 43.7162L49.0001 44.2053C48.7668 44.2568 48.5251 44.2549 48.2926 44.1998C48.0602 44.1448 47.843 44.0379 47.6569 43.8872C47.4709 43.7365 47.3208 43.5457 47.2177 43.3288C47.1146 43.112 47.061 42.8747 47.061 42.6343V30.7248C47.061 30.2985 47.2291 29.8896 47.5283 29.5879C47.8274 29.2862 48.2333 29.1164 48.6568 29.1157C48.748 29.1158 48.839 29.1236 48.9289 29.1391C48.952 29.1391 48.9744 29.1468 48.9975 29.152L51.2224 29.642C53.5538 30.1553 55.3126 32.569 55.3126 35.2549L55.3109 38.1033Z" fill="black"/>
<path d="M53.906 5.12137L53.5935 4.89668C53.0963 4.53396 52.533 4.27339 51.9357 4.12986C51.3385 3.98632 50.719 3.96263 50.1127 4.06013C49.5063 4.15763 48.925 4.37442 48.4019 4.69811C47.8788 5.0218 47.4241 5.44607 47.0639 5.94667L45.7214 7.80814C45.6719 7.8772 45.6068 7.93344 45.5315 7.97223C45.4562 8.01103 45.3729 8.03125 45.2883 8.03125C45.2037 8.03125 45.1204 8.01103 45.0451 7.97223C44.9698 7.93344 44.9047 7.8772 44.8553 7.80814L43.5128 5.94321C42.7847 4.93274 41.6877 4.25482 40.4632 4.05856C39.2387 3.8623 37.9869 4.16378 36.9831 4.89668L36.6715 5.12483C35.5857 5.91842 34.8571 7.11338 34.6456 8.44735C34.4341 9.78132 34.7571 11.1453 35.5436 12.2397L44.0218 24.0117C44.1663 24.2148 44.3571 24.38 44.5781 24.4935C44.7992 24.6071 45.044 24.6656 45.2922 24.6642C45.5402 24.6655 45.7849 24.607 46.0058 24.4934C46.2267 24.3799 46.4173 24.2147 46.5617 24.0117L55.0364 12.2362C55.4267 11.6946 55.707 11.0809 55.8615 10.4301C56.016 9.7793 56.0417 9.10425 55.9369 8.4435C55.8322 7.78275 55.5991 7.14926 55.2511 6.57923C54.903 6.0092 54.4468 5.51381 53.9085 5.12137H53.906ZM54.4785 11.8309L46.0029 23.6064C45.9218 23.7205 45.8147 23.8133 45.6906 23.8771C45.5665 23.9409 45.4289 23.9737 45.2896 23.9728C45.1501 23.9738 45.0124 23.9411 44.8881 23.8773C44.7638 23.8135 44.6566 23.7206 44.5754 23.6064L36.0998 11.8309C35.4199 10.8849 35.1407 9.70578 35.3235 8.55261C35.5063 7.39945 36.1363 6.36647 37.075 5.6805L37.3865 5.45322C38.064 4.95624 38.8805 4.68846 39.7187 4.68841C39.932 4.68867 40.145 4.70571 40.3557 4.7394C40.8734 4.82126 41.3699 5.00562 41.8165 5.28181C42.263 5.55801 42.6508 5.92056 42.9574 6.34852L44.2999 8.21431C44.4131 8.37106 44.5616 8.49862 44.7332 8.58657C44.9047 8.67452 45.0945 8.72037 45.287 8.72037C45.4795 8.72037 45.6693 8.67452 45.8409 8.58657C46.0125 8.49862 46.1609 8.37106 46.2741 8.21431L47.6166 6.34852C47.924 5.92145 48.312 5.55951 48.7583 5.28339C49.2046 5.00726 49.7006 4.82235 50.2179 4.73921C50.7352 4.65608 51.2637 4.67634 51.7732 4.79885C52.2828 4.92136 52.7633 5.14372 53.1875 5.45322L53.4999 5.68136C53.9651 6.02065 54.3593 6.44887 54.66 6.94156C54.9608 7.43424 55.1622 7.98175 55.2527 8.5528C55.3433 9.12386 55.3212 9.70728 55.1878 10.2697C55.0543 10.8322 54.8122 11.3627 54.4751 11.8309H54.4785Z" fill="black"/>
</svg>
