<svg width="69" height="64" viewBox="0 0 69 64" fill="none" xmlns="http://www.w3.org/2000/svg">
<path d="M36.138 27.9698C34.3941 26.2226 32.3198 24.8373 30.0352 23.8941C27.7505 22.951 25.3009 22.4687 22.828 22.4752C21.5839 22.4756 20.3429 22.5982 19.1229 22.841L19.2595 23.5216C20.4341 23.2896 21.6288 23.1734 22.8263 23.1748C32.8227 23.1748 40.9557 31.2798 40.9557 41.2419C40.9557 51.2039 32.8227 59.3098 22.8263 59.3098C12.8298 59.3098 4.69595 51.1987 4.69595 41.2358C4.69386 38.1644 5.47811 35.1432 6.9745 32.458C8.47088 29.7729 10.6299 27.5126 13.2474 25.8909L12.8794 25.3023C10.1617 26.9863 7.91991 29.3333 6.36615 32.1214C4.81239 34.9095 3.998 38.0466 4 41.2358C3.99958 44.3213 4.76276 47.3593 6.22194 50.0806C7.68113 52.8019 9.79128 55.1226 12.3655 56.837C14.9396 58.5515 17.8984 59.6068 20.9796 59.9095C24.0608 60.2121 27.1693 59.7528 30.0298 58.5722C32.8903 57.3916 35.4145 55.5261 37.3788 53.1411C39.343 50.756 40.6867 47.925 41.2907 44.8988C41.8948 41.8726 41.7406 38.7446 40.8418 35.792C39.943 32.8394 38.3274 30.1533 36.138 27.9716V27.9698Z" fill="black"/>
<path d="M46.1735 22.4751C42.6234 22.4704 39.1448 23.4691 36.1414 25.3551L36.5128 25.942C39.4039 24.1265 42.752 23.1646 46.1691 23.1678C56.1664 23.1678 64.2994 31.2729 64.2994 41.2349C64.2994 51.1969 56.1699 59.3037 46.1735 59.3037C42.9415 59.3054 39.7679 58.4454 36.9817 56.813L36.6285 57.4103C39.1233 58.8725 41.9227 59.7418 44.8093 59.9506C47.6959 60.1595 50.592 59.7024 53.2725 58.6147C55.9531 57.527 58.3459 55.8382 60.2651 53.6793C62.1843 51.5204 63.5782 48.9496 64.3386 46.1666C65.0989 43.3837 65.2052 40.4635 64.6492 37.633C64.0932 34.8025 62.8899 32.1378 61.1326 29.846C59.3754 27.5542 57.1117 25.697 54.5173 24.4186C51.9229 23.1403 49.0677 22.4752 46.1735 22.4751Z" fill="black"/>
<path d="M27.3465 41.2358C27.3419 45.9247 29.1038 50.4446 32.2834 53.9009L32.7967 53.4319C29.6532 50.0087 27.9519 45.5114 28.0453 40.8721C28.1388 36.2328 30.0198 31.8072 33.2986 28.5125L32.8045 28.0244C31.0678 29.7608 29.6918 31.8214 28.7553 34.0884C27.8187 36.3554 27.34 38.7842 27.3465 41.2358Z" fill="black"/>
<path d="M53.0461 26.5395L52.364 26.3999C51.8452 28.9097 50.7969 31.2809 49.2888 33.3564C47.7806 35.4318 45.8469 37.1641 43.616 38.4383L43.9639 39.0391C46.2803 37.7161 48.2879 35.9175 49.8537 33.7625C51.4195 31.6075 52.5077 29.1454 53.0461 26.5395Z" fill="black"/>
<path d="M24.6201 38.6688L24.989 38.081C22.3812 36.4572 20.231 34.1987 18.7409 31.5181C17.2508 28.8375 16.4698 25.8231 16.4715 22.7587C16.4715 12.7958 24.6045 4.69074 34.6009 4.69074C39.183 4.69043 43.5952 6.41908 46.9502 9.52904C50.3053 12.639 52.3543 16.8996 52.6851 21.4539L53.3811 21.4045C53.177 18.5993 52.3425 15.8756 50.9395 13.4351C49.5365 10.9946 47.6009 8.89971 45.2758 7.30537C42.9507 5.71103 40.2956 4.65807 37.507 4.22438C34.7184 3.79069 31.8677 3.98737 29.1656 4.79987C26.4636 5.61238 23.9795 7.01991 21.897 8.91835C19.8146 10.8168 18.1871 13.1575 17.1349 15.7674C16.0828 18.3773 15.6329 21.1895 15.8186 23.9961C16.0044 26.8026 16.8209 29.5316 18.2078 31.9812C19.7561 34.7055 21.9596 37.0036 24.6201 38.6688Z" fill="black"/>
<path d="M30.3477 40.3379L30.1868 41.0124C32.8647 41.6423 35.6479 41.6855 38.3441 41.1389L38.205 40.4593C35.6068 40.9862 32.9248 40.9448 30.3442 40.3379H30.3477Z" fill="black"/>
<path d="M38.5285 36.8692C38.1057 34.5991 37.029 32.5007 35.4298 30.8301C35.2869 30.6812 35.1152 30.5626 34.9251 30.4816C34.735 30.4006 34.5304 30.3589 34.3236 30.3589C34.1169 30.3589 33.9123 30.4006 33.7222 30.4816C33.532 30.5626 33.3604 30.6812 33.2175 30.8301C31.6234 32.4948 30.548 34.5844 30.1214 36.8458C30.0527 37.2221 30.1283 37.6104 30.3333 37.9337C30.5382 38.2571 30.8575 38.492 31.228 38.5919C33.2556 39.1411 35.392 39.1525 37.4254 38.6248C37.7976 38.5249 38.1181 38.2884 38.3227 37.9628C38.5273 37.6372 38.6008 37.2466 38.5285 36.8692Z" fill="black"/>
</svg>
