<svg width="53" height="64" viewBox="0 0 53 64" fill="none" xmlns="http://www.w3.org/2000/svg">
<path d="M37.2401 21.6924H9.92285V22.3307H37.2401V21.6924Z" fill="black"/>
<path d="M35.1415 30.9834H9.92285V31.6217H35.1415V30.9834Z" fill="black"/>
<path d="M33.147 40.2744H9.92285V40.9127H33.147V40.2744Z" fill="black"/>
<path d="M4.64599 49.9749V12.7844C4.64749 11.2685 5.25761 9.81514 6.34246 8.74323C7.42731 7.67132 8.89825 7.06847 10.4325 7.067H12.9147V6.42871H10.43C8.72498 6.43103 7.09048 7.10148 5.88505 8.29297C4.67963 9.48447 4.00171 11.0997 4 12.7844V49.9749C4.00128 51.66 4.67899 53.2758 5.88443 54.4677C7.08988 55.6597 8.72463 56.3305 10.43 56.3331H32.451V55.6948H10.43C8.89589 55.6925 7.42533 55.0889 6.34098 54.0166C5.25663 52.9443 4.64706 51.4908 4.64599 49.9749Z" fill="black"/>
<path d="M44.5198 49.9751C44.5216 51.0279 44.2284 52.0607 43.6725 52.9589C43.1166 53.8571 42.3199 54.5857 41.3706 55.0638L41.6653 55.6311C42.7199 55.0993 43.6049 54.2893 44.2222 53.291C44.8394 52.2927 45.1649 51.145 45.1625 49.9751V43.1431H44.5166L44.5198 49.9751Z" fill="black"/>
<path d="M44.5197 12.7844H45.1657C45.1638 11.0994 44.4855 9.48388 43.2796 8.29236C42.0737 7.10084 40.4387 6.43061 38.7333 6.42871H36.1768V7.067H38.7333C40.2674 7.06868 41.7382 7.6716 42.823 8.74346C43.9078 9.81532 44.518 11.2686 44.5197 12.7844Z" fill="black"/>
<path d="M16.5161 12.1653H32.6473C33.0964 12.1653 33.5271 11.9893 33.845 11.6759C34.1628 11.3626 34.342 10.9374 34.343 10.4938V5.6755C34.343 5.23113 34.1644 4.80496 33.8464 4.49074C33.5284 4.17653 33.0971 4 32.6473 4H16.5161C16.0671 4.00106 15.6368 4.17805 15.3197 4.49215C15.0026 4.80625 14.8245 5.23182 14.8245 5.6755V10.4938C14.8255 10.9367 15.0041 11.3613 15.3211 11.6745C15.6381 11.9878 16.0678 12.1642 16.5161 12.1653ZM15.4664 5.6755C15.4664 5.4011 15.5765 5.13789 15.7724 4.94349C15.9684 4.74908 16.2344 4.63934 16.5121 4.63829H32.6473C32.9257 4.63829 33.1927 4.74756 33.3896 4.94208C33.5865 5.13659 33.6971 5.40041 33.6971 5.6755V10.4938C33.696 10.7682 33.5849 11.0309 33.3882 11.2246C33.1914 11.4183 32.925 11.527 32.6473 11.527H16.5161C16.2384 11.527 15.972 11.4183 15.7753 11.2246C15.5786 11.0309 15.4675 10.7682 15.4664 10.4938V5.6755Z" fill="black"/>
<path d="M47.4583 16.8465L47.3081 16.8138L47.359 16.5872C47.4291 16.2754 47.371 15.9489 47.1975 15.6794C47.0239 15.4099 46.7492 15.2196 46.4336 15.1503C46.2773 15.116 46.1158 15.1124 45.9581 15.1398C45.8005 15.1671 45.6498 15.2249 45.5148 15.3098C45.2421 15.4813 45.0494 15.7528 44.9793 16.0646L44.9284 16.2912L44.7791 16.2585C43.6898 16.0191 42.5811 16.817 42.3073 18.0321L42.2807 18.1486L40.262 17.7058L34.8235 41.8809L35.4542 42.0189L40.7553 18.467L42.141 18.7717L38.8497 33.4028C38.7996 33.6155 38.8283 33.8388 38.9304 34.0324C38.9831 34.1287 39.0551 34.2134 39.142 34.2813L34.5474 54.7064C34.3915 55.3984 34.4995 56.1229 34.8505 56.7412C35.2015 57.3594 35.7709 57.8281 36.4498 58.0574L36.0461 59.8614L36.6767 60.0002L37.0805 58.1955C37.1774 58.205 37.2751 58.2106 37.3712 58.2106C38.0449 58.2017 38.6959 57.9685 39.2188 57.5486C39.7416 57.1286 40.1058 56.5467 40.2523 55.8968L44.8332 35.5283C44.9411 35.504 45.0426 35.4575 45.1311 35.3919C45.3079 35.2602 45.4307 35.0698 45.4767 34.8557L48.936 19.4882C49.0694 18.9247 48.9931 18.3325 48.7212 17.8199C48.5949 17.5767 48.4165 17.3637 48.1984 17.1956C47.9803 17.0274 47.7277 16.9083 47.4583 16.8465ZM39.6257 55.7604C39.3568 56.9572 38.1722 57.755 36.9876 57.538C36.6876 57.4836 36.4017 57.37 36.1471 57.204C35.8926 57.0379 35.6745 56.8228 35.5059 56.5716C35.3374 56.3204 35.2218 56.0382 35.1662 55.7418C35.1105 55.4455 35.1159 55.1411 35.1821 54.8468L39.7605 34.4919L44.1904 35.4645L39.6257 55.7604ZM48.3062 19.3494L44.8485 34.7201C44.8347 34.7831 44.7993 34.8395 44.7484 34.8797C44.7341 34.8915 44.7174 34.9002 44.6994 34.9052C44.6815 34.9101 44.6626 34.9112 44.6442 34.9084L39.5845 33.797C39.5668 33.7917 39.5505 33.7828 39.5366 33.7709C39.5226 33.7589 39.5114 33.7441 39.5037 33.7276C39.4743 33.669 39.4666 33.6021 39.4819 33.5385L42.9396 18.1686C43.1132 17.3938 43.7326 16.8513 44.3874 16.8513C44.4725 16.8511 44.5573 16.8605 44.6402 16.8792L47.3194 17.4672C47.4982 17.5095 47.6654 17.5897 47.8095 17.7025C47.9536 17.8152 48.071 17.9577 48.1535 18.1199C48.3522 18.4983 48.4063 18.9347 48.3062 19.3494Z" fill="black"/>
</svg>
