<svg width="60" height="64" viewBox="0 0 60 64" fill="none" xmlns="http://www.w3.org/2000/svg">
<path d="M29.2192 8.72936C28.5357 8.92024 27.9451 9.34939 27.5564 9.93753C27.1678 10.5257 27.0075 11.2331 27.105 11.9291C27.2026 12.6251 27.5514 13.2626 28.0871 13.724C28.6228 14.1853 29.3092 14.4393 30.0194 14.439H33.5386V13.7759H30.0194C29.4499 13.7752 28.9014 13.5628 28.4828 13.1809C28.0641 12.7989 27.8058 12.2753 27.7591 11.7137C27.7124 11.1522 27.8807 10.5938 28.2306 10.1493C28.5805 9.70476 29.0865 9.40654 29.6482 9.31376L29.9834 9.25905L29.9222 8.92747C29.7901 8.21902 29.8967 7.48726 30.2257 6.84454C30.5546 6.20182 31.0877 5.68367 31.7431 5.36966C32.3984 5.05564 33.1399 4.96311 33.8536 5.10628C34.5672 5.24945 35.2137 5.62039 35.6937 6.16217L35.8462 6.33458L36.0632 6.25169C36.5303 6.07773 37.0426 6.06249 37.5194 6.20837C37.9962 6.35426 38.4104 6.65296 38.6967 7.05741L38.8132 7.22319L39.0134 7.1975C39.1543 7.1796 39.2962 7.17047 39.4382 7.17014C40.2599 7.17042 41.0525 7.4715 41.6632 8.01538C42.2739 8.55926 42.6596 9.30747 42.746 10.1159C42.8323 10.9243 42.6132 11.7357 42.1309 12.3939C41.6486 13.0521 40.9372 13.5104 40.1337 13.6806L40.2736 14.3296C41.2398 14.1257 42.0955 13.575 42.6756 12.7839C43.2556 11.9927 43.519 11.017 43.4149 10.0451C43.3108 9.07314 42.8466 8.17376 42.1118 7.52042C41.377 6.86708 40.4237 6.50606 39.4357 6.507C39.3335 6.507 39.2288 6.51115 39.1223 6.52026C38.7614 6.07821 38.2766 5.75135 37.7287 5.5806C37.1808 5.40985 36.5941 5.40281 36.0422 5.56036C35.486 5.00051 34.774 4.61711 33.9968 4.45898C33.2196 4.30086 32.4124 4.37517 31.678 4.67246C30.9437 4.96975 30.3154 5.47655 29.8732 6.12832C29.431 6.78009 29.1948 7.54733 29.1949 8.3323C29.1959 8.46499 29.204 8.59753 29.2192 8.72936Z" fill="black"/>
<path d="M36.6881 17.6069C36.7813 17.6504 36.8874 17.6584 36.9862 17.6293C37.0849 17.6003 37.1694 17.5362 37.2235 17.4494L40.2265 12.7759C40.2672 12.7122 40.29 12.6388 40.2923 12.5634C40.2947 12.488 40.2765 12.4134 40.2398 12.3473C40.2031 12.2812 40.1492 12.226 40.0836 12.1876C40.0181 12.1491 39.9433 12.1287 39.867 12.1285H39.087L37.2067 12.1111L38.1468 9.00013C38.1659 8.93722 38.1699 8.87077 38.1584 8.80609C38.1468 8.7414 38.1202 8.68028 38.0805 8.6276C38.0409 8.57493 37.9893 8.53216 37.93 8.50271C37.8707 8.47326 37.8052 8.45795 37.7388 8.45801H36.1066C36.0152 8.45827 35.9262 8.48746 35.8528 8.5413C35.7794 8.59514 35.7253 8.67082 35.6985 8.75725L34.1341 13.9323C34.1153 13.9948 34.1115 14.0609 34.1228 14.1251C34.1342 14.1894 34.1605 14.2503 34.1996 14.3028C34.2388 14.3553 34.2897 14.3982 34.3484 14.428C34.4071 14.4577 34.472 14.4736 34.538 14.4744L37.2427 14.4992L36.461 17.1029C36.4297 17.1998 36.4355 17.3048 36.4774 17.3977C36.5193 17.4907 36.5943 17.5651 36.6881 17.6069ZM34.869 13.8137L36.2875 9.11949H37.4095L36.4702 12.2271C36.4512 12.2897 36.4472 12.3558 36.4585 12.4202C36.4698 12.4845 36.4961 12.5454 36.5352 12.598C36.5744 12.6506 36.6254 12.6935 36.6842 12.7232C36.743 12.7529 36.808 12.7687 36.8741 12.7693L39.0828 12.79H39.4179L37.6047 15.6208L37.9784 14.3832C37.9972 14.3206 38.0011 14.2546 37.9897 14.1903C37.9784 14.126 37.9521 14.0652 37.9129 14.0127C37.8738 13.9601 37.8229 13.9173 37.7641 13.8875C37.7054 13.8577 37.6405 13.8418 37.5746 13.8411L34.869 13.8137Z" fill="black"/>
<path d="M31.1588 38.5282C30.9393 38.2116 30.7239 37.8938 30.5128 37.575C34.0563 31.789 36.332 25.2836 37.0978 18.7384L36.4275 18.6621C35.6851 25.0117 33.4999 31.3257 30.1039 36.9566C26.7397 31.7343 24.3819 26.2004 23.0882 20.4717C22.4723 17.7428 22.2645 15.4276 22.453 13.3943C22.6868 10.866 23.5616 8.73567 25.0505 7.06455C26.2026 5.76976 27.803 4.89193 29.4411 4.65568L29.3448 4C27.5257 4.26194 25.8256 5.19449 24.547 6.62605C22.9617 8.40493 22.0333 10.6621 21.7819 13.3337C21.5867 15.4367 21.7995 17.8191 22.4304 20.6159C23.7635 26.5195 26.2119 32.2209 29.7118 37.5841C26.025 43.1669 21.0412 48.2972 14.8927 52.8364C11.4711 55.3488 7.82511 57.5473 4 59.4048L4.29662 60C8.15788 58.1245 11.8383 55.9049 15.2924 53.3686C21.4132 48.8534 26.3945 43.753 30.1106 38.1925C30.2715 38.4312 30.4324 38.67 30.5974 38.9071C34.4132 44.4012 39.1582 49.2695 44.7076 53.3644C48.1616 55.9009 51.8421 58.1205 55.7034 59.9959L56 59.4007C52.1747 57.5436 48.5287 55.345 45.1073 52.8322C39.6182 48.7821 34.9252 43.9693 31.1588 38.5282Z" fill="black"/>
</svg>
