<svg width="52" height="64" viewBox="0 0 52 64" fill="none" xmlns="http://www.w3.org/2000/svg">
<path d="M26.9185 38.0561C30.3445 32.6707 32.7502 26.9549 34.0693 21.0619C34.7085 18.2027 34.9233 15.7673 34.7263 13.6165C34.4717 10.8861 33.5379 8.5786 31.9251 6.7592C30.3827 5.01182 28.2121 4 26.0458 4H26.0323C23.8668 4 21.6963 5.01182 20.1539 6.7592C18.5478 8.5786 17.6073 10.8861 17.3526 13.6165C17.1557 15.7673 17.3705 18.2027 18.0096 21.0619C19.3288 26.9549 21.7336 32.6716 25.1588 38.0527C19.4741 38.2694 14.0946 40.6762 10.1494 44.7677C6.20428 48.8593 4.00025 54.3175 4 59.9966H4.67909C4.66503 54.4958 6.79968 49.2063 10.6296 45.2515C13.3282 46.1608 15.7101 46.6167 17.7601 46.6167C19.9501 46.6167 21.7625 46.0981 23.1801 45.06C24.843 43.8431 25.6324 42.1542 26.0068 40.7763C26.3803 42.1542 27.1697 43.8431 28.8327 45.06C30.2503 46.0981 32.0583 46.6167 34.2527 46.6167C36.2993 46.6167 38.6786 46.1616 41.3738 45.2549C45.2025 49.2102 47.3359 54.4997 47.3209 60H48C48.0005 54.3337 45.8072 48.8865 41.8784 44.797C37.9496 40.7075 32.5895 38.2922 26.9185 38.0561ZM18.0351 13.6792C18.2728 11.0937 19.1582 8.91673 20.6666 7.20748C21.9908 5.7067 23.8125 4.79827 25.6596 4.68895C25.7869 4.68048 25.9143 4.67624 26.0416 4.67624C26.1689 4.67624 26.2963 4.68048 26.4236 4.68895C28.2699 4.79827 30.0924 5.70585 31.4166 7.20748C32.9259 8.91673 33.8112 11.0937 34.0481 13.6792C34.2391 15.7579 34.0286 18.1248 33.4046 20.9136C32.0804 26.8278 29.6493 32.5606 26.1749 37.9569H25.9066C22.4339 32.5606 20.0053 26.8278 18.6785 20.9136C18.0529 18.1248 17.8441 15.7613 18.0351 13.6792ZM22.7726 44.5143C20.2668 46.3447 16.3629 46.4108 11.1644 44.7134C15.0462 40.9374 20.2309 38.7916 25.6503 38.7179C25.5925 39.7196 25.2148 42.7313 22.7726 44.5143ZM29.2384 44.5143C26.7962 42.7347 26.4185 39.7196 26.3608 38.7179C31.7773 38.7944 36.9584 40.941 40.8373 44.7159C35.6439 46.4108 31.7434 46.3438 29.2384 44.5143Z" fill="black"/>
<path d="M29.1672 23.2616C29.2487 23.1573 29.3049 23.0355 29.3313 22.9058C29.3576 22.7761 29.3535 22.642 29.3191 22.5142L27.6842 16.6712C28.0908 16.4514 28.449 16.1523 28.7377 15.7917C29.0264 15.4312 29.2397 15.0165 29.3649 14.5722C29.4902 14.1278 29.5249 13.6629 29.467 13.205C29.4091 12.747 29.2597 12.3053 29.0278 11.9061C28.7958 11.5068 28.4859 11.158 28.1165 10.8804C27.7471 10.6028 27.3257 10.402 26.8772 10.2898C26.4287 10.1777 25.9622 10.1566 25.5053 10.2277C25.0484 10.2988 24.6105 10.4607 24.2175 10.7037L24.5765 11.2791C24.8952 11.0776 25.2517 10.943 25.6242 10.8836C25.9967 10.8241 26.3775 10.841 26.7432 10.9332C27.109 11.0254 27.4521 11.191 27.7517 11.4199C28.0512 11.6488 28.301 11.9362 28.4856 12.2646C28.6703 12.593 28.7861 12.9555 28.8258 13.33C28.8656 13.7045 28.8285 14.0831 28.7169 14.4429C28.6053 14.8026 28.4215 15.1359 28.1767 15.4224C27.9319 15.709 27.6312 15.9427 27.2929 16.1094C27.1763 16.1686 27.0838 16.2663 27.0312 16.3859C26.9786 16.5055 26.9691 16.6395 27.0043 16.7653L28.6638 22.6896C28.6708 22.7165 28.6716 22.7446 28.666 22.7718C28.6604 22.7991 28.6486 22.8246 28.6315 22.8466C28.6145 22.8685 28.5926 22.8863 28.5676 22.8984C28.5426 22.9106 28.5151 22.9168 28.4872 22.9167H23.5986C23.5708 22.917 23.5432 22.9108 23.5181 22.8986C23.4931 22.8864 23.4712 22.8685 23.4543 22.8464C23.4376 22.8256 23.4258 22.8013 23.4199 22.7753C23.414 22.7493 23.4142 22.7223 23.4204 22.6964L25.0791 16.7645C25.1143 16.6389 25.1049 16.505 25.0524 16.3856C24.9999 16.2662 24.9077 16.1686 24.7913 16.1094C24.3312 15.8793 23.9444 15.5257 23.6745 15.0883C23.4046 14.6509 23.2622 14.147 23.2633 13.6332H22.5842C22.5826 14.2561 22.7505 14.8676 23.07 15.4026C23.3895 15.9375 23.8486 16.3757 24.3983 16.6704L22.7625 22.5176C22.7299 22.6446 22.7268 22.7774 22.7535 22.9058C22.7801 23.0342 22.8359 23.1548 22.9164 23.2584C22.9969 23.362 23.1001 23.4458 23.218 23.5035C23.336 23.5612 23.4656 23.5912 23.5969 23.5913H28.4847C28.6162 23.5924 28.7462 23.5633 28.8645 23.5061C28.9829 23.4489 29.0865 23.3653 29.1672 23.2616Z" fill="black"/>
</svg>
