<svg width="42" height="64" viewBox="0 0 42 64" fill="none" xmlns="http://www.w3.org/2000/svg">
<path d="M38 17.1459H37.3071C37.3071 25.9363 29.9918 33.0876 20.9996 33.0876C12.0074 33.0876 4.69298 25.9363 4.69298 17.1459C4.68554 14.7096 5.25283 12.3045 6.35076 10.1173C7.44869 7.93019 9.04769 6.01997 11.0235 4.53512L10.5991 4C8.53946 5.54787 6.87263 7.53914 5.72813 9.81908C4.58363 12.099 3.9923 14.6062 4.00008 17.1459C4.00008 26.1142 11.305 33.4449 20.4037 33.7531V46.2902H11.2556V46.9676H20.4037V60H21.0966V46.9676H30.2455V46.2902H21.0966V33.7633C30.4266 33.7125 38 26.275 38 17.1459Z" fill="black"/>
<path d="M29.9638 17.503L29.8963 16.829L20.918 17.685L14.0807 8.16895L13.5134 8.55843L20.5828 18.398L29.9638 17.503Z" fill="black"/>
</svg>
