<svg width="92" height="64" viewBox="0 0 92 64" fill="none" xmlns="http://www.w3.org/2000/svg">
<path d="M47.7147 19.0575C48.0436 19.0575 48.3103 18.7896 48.3103 18.4591C48.3103 18.1287 48.0436 17.8608 47.7147 17.8608C47.3858 17.8608 47.1191 18.1287 47.1191 18.4591C47.1191 18.7896 47.3858 19.0575 47.7147 19.0575Z" fill="black"/>
<path d="M50.5865 19.0575C50.9155 19.0575 51.1821 18.7896 51.1821 18.4591C51.1821 18.1287 50.9155 17.8608 50.5865 17.8608C50.2576 17.8608 49.991 18.1287 49.991 18.4591C49.991 18.7896 50.2576 19.0575 50.5865 19.0575Z" fill="black"/>
<path d="M53.4664 19.0575C53.7953 19.0575 54.062 18.7896 54.062 18.4591C54.062 18.1287 53.7953 17.8608 53.4664 17.8608C53.1375 17.8608 52.8708 18.1287 52.8708 18.4591C52.8708 18.7896 53.1375 19.0575 53.4664 19.0575Z" fill="black"/>
<path d="M56.0986 28.0505C55.9386 28.0505 55.7697 27.997 55.6363 27.8898L50.9252 24.2285C50.6318 23.9963 50.2674 23.8713 49.8941 23.8713H45.334C43.3962 23.8713 41.814 22.2818 41.814 20.335V16.254C41.814 14.3073 43.3962 12.7178 45.334 12.7178H55.8497C57.7875 12.7178 59.3697 14.3073 59.3697 16.254V20.335C59.3697 21.6835 58.623 22.889 57.4319 23.4963C56.7652 23.8356 56.3919 24.55 56.5164 25.2733L56.8452 27.1665C56.8986 27.479 56.7564 27.7827 56.4897 27.9434C56.3652 28.0148 56.2319 28.0505 56.0986 28.0505ZM45.334 13.4322C43.7873 13.4322 42.5251 14.7002 42.5251 16.254V20.335C42.5251 21.8889 43.7873 23.1569 45.334 23.1569H49.8941C50.4274 23.1569 50.943 23.3355 51.3607 23.6659L56.0719 27.3272C56.0808 27.3362 56.0986 27.3451 56.1163 27.3272C56.143 27.3094 56.1341 27.2915 56.1341 27.2826L55.8052 25.3894C55.6275 24.3535 56.143 23.3355 57.103 22.8533C58.063 22.3711 58.6497 21.4066 58.6497 20.335V16.254C58.6497 14.7002 57.3875 13.4322 55.8408 13.4322H45.334Z" fill="black"/>
<path d="M34.3915 35.3543C34.2582 35.3543 34.1248 35.3185 34.0004 35.2471C33.7337 35.0864 33.5915 34.7827 33.6448 34.4702L33.9737 32.577C34.0982 31.8537 33.7337 31.1393 33.0582 30.8C31.8581 30.1927 31.1204 28.9872 31.1204 27.6388V23.5578C31.1204 21.611 32.7026 20.0215 34.6404 20.0215H40.8627V20.7359H34.6404C33.0937 20.7359 31.8315 22.0039 31.8315 23.5578V27.6388C31.8315 28.7104 32.427 29.6748 33.3782 30.157C34.3293 30.6392 34.8537 31.6572 34.676 32.6931L34.3471 34.5863C34.3471 34.5952 34.3382 34.6131 34.3648 34.6309C34.3915 34.6488 34.4093 34.6309 34.4093 34.6309L39.1205 30.9696C39.5382 30.6482 40.0627 30.4606 40.5871 30.4606H45.1472C46.6939 30.4606 47.9561 29.1926 47.9561 27.6388V24.6829H48.6672V27.6388C48.6672 29.5855 47.085 31.175 45.1472 31.175H40.5871C40.2138 31.175 39.8493 31.3 39.556 31.5322L34.8448 35.1935C34.7115 35.3007 34.5515 35.3543 34.3915 35.3543Z" fill="black"/>
<path d="M29.245 16.319H28.4272V15.7832H28.7205C28.7827 15.2296 29.0405 14.7206 29.4494 14.3455C30.1339 13.7115 30.525 12.8185 30.525 11.8808C30.525 10.9878 30.1783 10.1484 29.5472 9.5144C28.9161 8.88037 28.0805 8.54103 27.2005 8.54103C27.2005 8.54103 27.2005 8.54103 27.1916 8.54103C26.3383 8.54103 25.5205 8.88037 24.8982 9.48761L24.5249 9.10362C25.2538 8.39815 26.196 8.01416 27.1916 8.01416H27.2005C28.2316 8.01416 29.2005 8.41601 29.9294 9.14827C30.6583 9.88052 31.0583 10.8539 31.0583 11.8898C31.0583 12.9703 30.605 14.0151 29.805 14.7474C29.4405 15.0778 29.2361 15.56 29.2361 16.0601V16.319H29.245Z" fill="black"/>
<path d="M27.396 16.3161H25.156V16.0482C25.156 15.5481 24.9426 15.0659 24.5693 14.7266C23.7871 14.0033 23.3515 13.012 23.3337 11.9494L23.8671 11.9404C23.8849 12.8602 24.2582 13.7086 24.9338 14.3337C25.3427 14.7177 25.6093 15.2356 25.6715 15.7803H27.3871V16.3161H27.396Z" fill="black"/>
<path d="M27.9295 19.5953H26.4718C26.2051 19.5953 25.9829 19.3721 25.9829 19.1042C25.9829 19.0059 25.9029 18.9345 25.814 18.9345C25.4495 18.9345 25.1562 18.6398 25.1562 18.2737V17.2557C24.7651 17.2378 24.454 16.9253 24.4451 16.5323C24.4451 16.3359 24.5162 16.1394 24.6584 15.9965C24.8006 15.8537 24.9784 15.7822 25.174 15.7822H27.3962V16.318H25.174C25.1206 16.318 25.0673 16.3359 25.0317 16.3805C24.9962 16.4163 24.9695 16.4698 24.9695 16.5234C24.9695 16.6306 25.0673 16.7199 25.1829 16.7199C25.4584 16.7199 25.6895 16.9431 25.6895 17.2289V18.2826C25.6895 18.3451 25.7429 18.4076 25.814 18.4076C26.1873 18.4076 26.4984 18.7023 26.5162 19.0685H27.8851C27.9118 18.7023 28.214 18.4076 28.5873 18.4076C28.6496 18.4076 28.7118 18.3541 28.7118 18.2826V17.2289C28.7118 16.9521 28.934 16.7199 29.2185 16.7199H29.2273C29.2807 16.7199 29.334 16.702 29.3696 16.6574C29.4051 16.6216 29.4318 16.5681 29.4318 16.5145C29.4318 16.4073 29.334 16.318 29.2185 16.318H28.4273V15.7822H29.2185C29.6185 15.7822 29.9562 16.1037 29.9651 16.5056C29.9651 16.702 29.894 16.8985 29.7518 17.0414C29.6185 17.1753 29.4407 17.2557 29.254 17.2557V18.2737C29.254 18.6398 28.9607 18.9345 28.5962 18.9345C28.4984 18.9345 28.4273 19.0149 28.4273 19.1042C28.4184 19.3721 28.2051 19.5953 27.9295 19.5953Z" fill="black"/>
<path d="M28.107 13.7248C27.6803 13.7248 27.4226 13.2426 27.3692 13.1444C27.307 13.0104 27.2448 12.939 27.2092 12.9033C27.1826 12.8765 27.1648 12.8765 27.1381 12.9033C27.1025 12.939 27.0492 13.0104 26.9781 13.1444C26.9337 13.2426 26.667 13.7248 26.2403 13.7248C25.9648 13.7248 25.7336 13.5284 25.5381 13.1444L26.0181 12.9033C26.1336 13.1354 26.2225 13.189 26.2403 13.189C26.2936 13.189 26.4359 13.0372 26.4981 12.9033C26.5781 12.7425 26.6581 12.6175 26.747 12.5282C26.8625 12.4121 27.0048 12.3496 27.1648 12.3496C27.3248 12.3496 27.4759 12.4121 27.5826 12.5282C27.6714 12.6264 27.7514 12.7425 27.8314 12.9033C27.9026 13.0372 28.0359 13.189 28.0892 13.189C28.107 13.189 28.1959 13.1444 28.3115 12.9033L28.7915 13.1444C28.6226 13.5284 28.3826 13.7248 28.107 13.7248Z" fill="black"/>
<path d="M87.689 59.9302C87.1379 59.6534 86.5957 59.3766 86.0801 59.1087C85.9735 59.0551 85.8668 58.9926 85.7601 58.939C85.3246 58.7068 84.8979 58.4746 84.4979 58.2425C84.4179 58.1978 84.3379 58.1532 84.2579 58.1085L84.1779 58.0639C84.0712 58.0013 83.9645 57.9478 83.8668 57.8853C83.6712 57.7692 83.4756 57.6531 83.2801 57.537L83.2268 57.5102C83.129 57.4477 83.0312 57.3941 82.9334 57.3316C82.5334 57.0905 82.1156 56.8315 81.7067 56.5725C81.6356 56.5279 81.5556 56.4833 81.4845 56.4297L81.3423 56.3404C81.2623 56.2868 81.1734 56.2332 81.0934 56.1796L81.0134 56.1261C80.9423 56.0814 80.8712 56.0368 80.8001 55.9832C80.6934 55.9117 80.5956 55.8492 80.4889 55.7778C80.0801 55.5009 79.6801 55.2241 79.2978 54.9562C79.2 54.8848 79.1023 54.8133 79.0045 54.7508C78.8089 54.608 78.6134 54.474 78.4178 54.3311C78.2223 54.1882 78.0267 54.0454 77.8311 53.9025C75.1467 51.8932 72.6755 49.7233 70.4711 47.4372C68.1421 45.0261 66.0977 42.481 64.3999 39.8556C64.3821 39.8378 64.3732 39.811 64.3554 39.7842C64.3288 39.7485 64.311 39.7127 64.2932 39.686L64.9065 39.3198C64.9243 39.3466 64.9421 39.3734 64.9599 39.4091C64.9688 39.427 64.9866 39.4448 64.9954 39.4716C66.6755 42.0613 68.6933 44.5707 70.9866 46.946C73.1644 49.1964 75.6089 51.3485 78.2667 53.331C78.4534 53.4738 78.6489 53.6167 78.8445 53.7596C79.04 53.9025 79.2267 54.0364 79.4223 54.1793C79.52 54.2508 79.6178 54.3133 79.7156 54.3847C80.0978 54.6526 80.4889 54.9205 80.8978 55.1973C80.9956 55.2688 81.1023 55.3313 81.2001 55.4027C81.2712 55.4474 81.3423 55.492 81.4045 55.5367L81.4845 55.5903C81.5645 55.6438 81.6445 55.6974 81.7245 55.751L81.8667 55.8403C81.9379 55.8849 82.009 55.9296 82.0801 55.9742C82.489 56.2332 82.8979 56.4832 83.2979 56.7244C83.3956 56.7869 83.4934 56.8405 83.5912 56.903L83.6445 56.9297C83.8401 57.0458 84.0357 57.1619 84.2223 57.2691C84.329 57.3316 84.4268 57.3852 84.5334 57.4477L84.6134 57.4923C84.6934 57.537 84.7734 57.5816 84.8446 57.6263C85.2446 57.8495 85.6623 58.0817 86.0979 58.3139C86.2046 58.3675 86.3112 58.43 86.409 58.4836C86.9246 58.7515 87.4579 59.0283 88.0001 59.2962L87.689 59.9302Z" fill="black"/>
<path d="M41.484 60.0005L41.1729 59.3575C41.5462 59.17 41.8484 59.0182 42.1329 58.8753C44.2662 57.7769 46.3374 56.5535 48.2929 55.2497C48.6841 54.9908 49.0841 54.7139 49.4752 54.4371C49.5729 54.3656 49.6707 54.3031 49.7685 54.2317C49.9641 54.0888 50.1596 53.9549 50.3463 53.812C50.5418 53.6691 50.7285 53.5262 50.9241 53.3834C56.1152 49.4988 60.6664 44.6498 64.0887 39.3633L64.6842 39.7562C61.2175 45.1053 56.6041 50.0168 51.3507 53.9549C51.1552 54.0978 50.9596 54.2406 50.7641 54.3835C50.5685 54.5264 50.373 54.6693 50.1774 54.8121C50.0796 54.8836 49.9818 54.955 49.8841 55.0265C49.4841 55.3033 49.0841 55.5801 48.6929 55.848C46.7196 57.1697 44.6218 58.402 42.4706 59.5093C42.1684 59.6611 41.8573 59.8129 41.484 60.0005Z" fill="black"/>
<path d="M64.6753 39.7575L64.0708 39.3735L64.1775 39.2217L64.773 39.6057L64.6753 39.7575Z" fill="black"/>
<path d="M64.7916 39.9972H64.1783L64.0716 39.8365C63.1916 38.4612 62.356 37.0235 61.6094 35.5679L61.5738 35.4876C60.0182 32.4514 58.8093 29.2991 57.9649 26.1111C57.8493 25.6646 57.7338 25.2181 57.636 24.7716L58.3293 24.6108C58.4271 25.0484 58.5427 25.4949 58.6582 25.9235L58.2671 26.0307L58.6582 25.9235C59.4938 29.0848 60.7027 32.2103 62.2494 35.2286L62.2938 35.3179C62.9694 36.6306 63.7072 37.9165 64.4983 39.1578C65.2894 37.9165 66.0272 36.6217 66.7028 35.3179V35.309L66.7472 35.2286C68.5694 31.6745 69.9206 27.9774 70.7472 24.2269C71.2984 21.7532 71.485 19.6547 71.3161 17.8062C71.1028 15.4844 70.3472 13.6091 69.005 12.0821L68.9694 12.0374C67.8405 10.7694 66.2139 10.0639 64.5072 10.0907H64.4983H64.4894C62.7827 10.0639 61.156 10.7694 60.0271 12.0374L59.9916 12.0821C59.8405 12.2517 59.6893 12.4393 59.556 12.6179L58.9871 12.1892C59.1382 11.9928 59.2893 11.7963 59.4582 11.6088L59.7249 11.841L59.4582 11.5999L59.4938 11.5552C60.7649 10.1353 62.5872 9.34057 64.4894 9.36736C66.4005 9.34057 68.2139 10.1264 69.485 11.5552L69.5206 11.5999C70.9517 13.234 71.7873 15.2969 72.0095 17.7348C72.1873 19.6547 71.9917 21.8247 71.4317 24.3787C70.5872 28.165 69.2361 31.8977 67.405 35.4876L67.3694 35.5679C66.6228 37.0235 65.7961 38.4612 64.9072 39.8365L64.7916 39.9972Z" fill="black"/>
<path d="M50.5165 54.5523C49.9654 54.2755 49.4231 53.9986 48.9076 53.7307C48.8009 53.6772 48.6942 53.6146 48.5876 53.5611C48.152 53.3289 47.7253 53.0878 47.3253 52.8645C47.2453 52.8199 47.1742 52.7752 47.0942 52.7306L47.0142 52.6859C46.9075 52.6234 46.8009 52.5698 46.7031 52.5073C46.5075 52.3912 46.312 52.2751 46.1164 52.1591L46.0542 52.1233C45.9564 52.0698 45.8675 52.0072 45.7697 51.9537C45.3697 51.7126 44.952 51.4536 44.5431 51.1946C44.472 51.15 44.392 51.1053 44.3208 51.0517L44.1786 50.9624C44.0986 50.9089 44.0097 50.8553 43.9297 50.8017L43.8497 50.7481C43.7786 50.7035 43.7075 50.6588 43.6364 50.6052C43.5297 50.5338 43.4319 50.4713 43.3253 50.3999C42.9164 50.123 42.5164 49.8551 42.1341 49.5783L42.0897 49.5515C42.0008 49.489 41.9208 49.4354 41.8408 49.3729C41.6453 49.23 41.4497 49.0871 41.2541 48.9532C41.0586 48.8103 40.863 48.6674 40.6675 48.5246C37.983 46.5153 35.5119 44.3453 33.3074 42.0592C30.9785 39.6482 28.934 37.1031 27.2362 34.4777C27.2184 34.4598 27.2095 34.433 27.1918 34.4063C27.174 34.3705 27.1562 34.3437 27.1384 34.317L27.7429 33.9419C27.7607 33.9776 27.7784 34.0044 27.7962 34.0312C27.8051 34.0491 27.8229 34.0669 27.8318 34.0937C29.5118 36.6834 31.5296 39.1927 33.8229 41.5681C36.0007 43.8185 38.4452 45.9706 41.103 47.953C41.2986 48.0959 41.4853 48.2388 41.6808 48.3817C41.8764 48.5246 42.063 48.6585 42.2586 48.8014C42.3386 48.8639 42.4275 48.9175 42.5075 48.98L42.5519 49.0068C42.9342 49.2747 43.3253 49.5426 43.7342 49.8194C43.8319 49.8908 43.9386 49.9534 44.0364 50.0248C44.1075 50.0694 44.1786 50.1141 44.2497 50.1677L44.3297 50.2213C44.4097 50.2748 44.4897 50.3284 44.5697 50.382L44.712 50.4713C44.7831 50.5159 44.8542 50.5606 44.9253 50.6052C45.3342 50.8642 45.7431 51.1142 46.1431 51.3554C46.2409 51.4089 46.3298 51.4715 46.4186 51.525L46.4809 51.5608C46.6764 51.6768 46.8631 51.7929 47.0586 51.9001C47.1653 51.9626 47.2631 52.0162 47.3698 52.0787L47.4498 52.1233C47.5298 52.168 47.6009 52.2126 47.6809 52.2573C48.0809 52.4805 48.4987 52.7127 48.9342 52.9449C49.0409 52.9985 49.1476 53.061 49.2453 53.1146C49.752 53.3825 50.2942 53.6593 50.8365 53.9272L50.5165 54.5523Z" fill="black"/>
<path d="M4.31111 54.6338L4 53.9908C4.37334 53.8033 4.67556 53.6515 4.96001 53.5086C7.09337 52.4102 9.1645 51.1868 11.1201 49.883C11.5112 49.624 11.9112 49.3472 12.3023 49.0704C12.4001 48.9989 12.4979 48.9364 12.5957 48.865C12.7912 48.7221 12.9868 48.5882 13.1734 48.4453C13.369 48.3024 13.5557 48.1595 13.7512 48.0167C18.9424 44.1321 23.4936 39.2831 26.9158 33.9966L27.5114 34.3895C24.0447 39.7386 19.4313 44.65 14.1779 48.5882C13.9823 48.731 13.7868 48.8739 13.5912 49.0168C13.3957 49.1597 13.2001 49.3026 13.0045 49.4454C12.9068 49.5169 12.809 49.5883 12.7112 49.6598C12.3112 49.9366 11.9112 50.2134 11.5201 50.4813C9.54673 51.803 7.44893 53.0353 5.29779 54.1426C4.99557 54.2944 4.69334 54.4462 4.31111 54.6338Z" fill="black"/>
<path d="M27.5023 34.388L26.9067 34.004L27.0045 33.8433L27.6001 34.2362L27.5023 34.388Z" fill="black"/>
<path d="M27.6184 34.6305H27.014L26.9073 34.4698C26.0273 33.0945 25.1917 31.6568 24.4451 30.2012L24.4095 30.1208C22.5784 26.531 21.2184 22.7983 20.3828 19.012C19.8139 16.4669 19.6272 14.288 19.805 12.368C20.0272 9.93016 20.8628 7.86734 22.2939 6.23315L22.3295 6.1885C23.6006 4.76863 25.4229 3.97387 27.3251 4.00066C27.3607 4.00066 27.4051 4.00066 27.4407 4.00066C29.3073 4.00066 31.0851 4.79542 32.3207 6.1885L32.3563 6.23315C33.7874 7.85841 34.623 9.92123 34.8452 12.368C35.023 14.288 34.8274 16.458 34.2674 19.012L33.5741 18.8601C34.1252 16.3865 34.3119 14.288 34.143 12.4395C33.9296 10.1177 33.1741 8.2424 31.8318 6.71537L31.7963 6.67072C30.6674 5.40267 29.0407 4.6972 27.334 4.72398H27.3251H27.3162C25.6095 4.6972 23.9828 5.40267 22.8539 6.67072L22.8184 6.71537C21.4761 8.2424 20.7206 10.1177 20.5072 12.4395C20.3384 14.2791 20.525 16.3865 21.0761 18.8601C21.9117 22.6018 23.2539 26.3078 25.0762 29.8619L25.1206 29.9423V29.9512C25.7962 31.2639 26.534 32.5498 27.3251 33.7911C28.1162 32.5498 28.854 31.255 29.5296 29.9512V29.9423L29.574 29.8619C29.7607 29.4958 29.9474 29.1207 30.1251 28.7456L30.7651 29.0582C30.5963 29.4154 30.4185 29.7726 30.2407 30.1208L30.2051 30.2012C29.4585 31.6568 28.6318 33.0945 27.7429 34.4698L27.6184 34.6305ZM29.8585 30.0226L29.8762 30.0315L29.8585 30.0226Z" fill="black"/>
<path d="M64.1522 24.7815C63.4677 24.7815 62.9521 24.2457 62.9521 23.5313C62.9521 22.7991 63.4588 22.2633 64.1699 22.2633C64.8633 22.2633 65.37 22.7991 65.37 23.5313C65.37 24.2547 64.8633 24.7815 64.1522 24.7815ZM64.1699 22.7902C63.761 22.7902 63.4855 23.0848 63.4855 23.5224C63.4855 23.9421 63.761 24.2368 64.1522 24.2368C64.5699 24.2368 64.8366 23.9511 64.8366 23.5224C64.8366 23.0848 64.5788 22.7902 64.1699 22.7902ZM65.0766 21.5757H63.3166L63.2633 20.9238C63.1566 19.9326 63.5033 18.9413 64.3033 17.9769C64.9699 17.1911 65.3522 16.6195 65.3522 15.9766C65.3522 15.0836 64.6766 14.8871 64.1166 14.8782C63.601 14.8782 63.0321 15.0568 62.6855 15.3158L62.401 15.5301L61.8232 14.0031L61.9921 13.878C62.561 13.4583 63.5122 13.1904 64.4099 13.1904C65.3255 13.1904 66.0811 13.4673 66.5966 13.9852C67.0589 14.4496 67.3166 15.0925 67.3166 15.798H66.7833C66.7833 14.271 65.5033 13.7352 64.4099 13.7352C63.7166 13.7352 62.9699 13.9227 62.4721 14.2084L62.6588 14.6996C63.0766 14.4763 63.6188 14.3424 64.1255 14.3424C65.2366 14.3603 65.8944 14.9675 65.8944 15.9766C65.8944 16.7803 65.4677 17.45 64.7211 18.3252C64.0188 19.1735 63.7077 20.0308 63.8055 20.8702V20.8791L63.8144 21.0488H64.5255V20.897C64.4722 19.9951 64.7566 19.245 65.4855 18.3787C65.6633 18.1734 65.8411 17.9501 66.01 17.7269L66.4366 18.0483C66.2677 18.2805 66.0722 18.5038 65.8944 18.7181C65.2633 19.4682 65.0144 20.1112 65.0588 20.8613L65.0766 21.5757Z" fill="black"/>
</svg>
