<svg width="64" height="64" viewBox="0 0 64 64" fill="none" xmlns="http://www.w3.org/2000/svg">
<path d="M14.1946 20.8804C15.8932 18.1757 18.1817 15.891 20.8885 14.1975L20.6047 13.7383C17.7907 15.4896 15.4197 17.8686 13.6772 20.6892C11.9347 23.5097 10.8678 26.6955 10.5601 29.9972L11.1007 30.0466C11.4035 26.7916 12.4631 23.6525 14.1946 20.8804Z" fill="black"/>
<path d="M11.069 33.5903L10.5283 33.6309C10.9192 38.7531 13.1295 43.566 16.7592 47.1988C20.3889 50.8316 25.1982 53.0442 30.3169 53.4362L30.3574 52.8952C25.3683 52.5126 20.6808 50.3557 17.1429 46.8148C13.605 43.274 11.4504 38.5829 11.069 33.5903Z" fill="black"/>
<path d="M46.8413 46.7411C43.3507 50.2722 38.7199 52.4472 33.7751 52.8783L33.8218 53.4193C38.897 52.9761 43.6498 50.7431 47.2324 47.1186C50.815 43.4942 52.9944 38.7141 53.3819 33.6309L52.8412 33.5903C52.464 38.5475 50.3373 43.2088 46.8413 46.7411Z" fill="black"/>
<path d="M25.2043 34.1494C26.2183 35.0842 26.8299 36.3766 26.9101 37.7539H26.5174C26.3158 37.7543 26.1163 37.7948 25.9305 37.8729C25.7446 37.9511 25.5761 38.0654 25.4348 38.2092C25.2934 38.353 25.1819 38.5234 25.1069 38.7106C25.0318 38.8979 24.9947 39.0981 24.9975 39.2998C25.0088 39.7031 25.1774 40.0858 25.4671 40.3663C25.7568 40.6467 26.1447 40.8026 26.5478 40.8005C26.6444 40.8005 26.7371 40.8389 26.8054 40.9072C26.8737 40.9756 26.9121 41.0683 26.9121 41.165V43.981C26.9125 44.3287 27.0506 44.662 27.2963 44.9078C27.542 45.1537 27.8751 45.2919 28.2225 45.2923C28.4639 45.2925 28.6953 45.3885 28.866 45.5593C29.0367 45.7301 29.1327 45.9617 29.1328 46.2032C29.1332 46.4329 29.2245 46.653 29.3868 46.8154C29.5491 46.9778 29.7691 47.0692 29.9986 47.0695H33.9115C34.141 47.0692 34.361 46.9778 34.5233 46.8154C34.6856 46.653 34.7769 46.4329 34.7773 46.2032C34.7774 45.9617 34.8734 45.7301 35.0441 45.5593C35.2148 45.3885 35.4462 45.2925 35.6876 45.2923C36.035 45.2919 36.3681 45.1537 36.6138 44.9078C36.8594 44.662 36.9976 44.3287 36.998 43.981V41.165C36.998 41.0683 37.0364 40.9756 37.1047 40.9072C37.173 40.8389 37.2656 40.8005 37.3622 40.8005H37.3906C37.5924 40.8003 37.7922 40.76 37.9783 40.682C38.1645 40.6039 38.3332 40.4896 38.4748 40.3457C38.6164 40.2018 38.7281 40.0312 38.8032 39.8437C38.8783 39.6563 38.9155 39.4558 38.9126 39.2539C38.9004 38.4268 38.205 37.7539 37.3622 37.7539H36.9973C37.0653 36.3937 37.6631 35.1143 38.6625 34.1899C40.138 32.8374 41.1706 31.0703 41.6251 29.1203C42.0797 27.1703 41.9348 25.1284 41.2097 23.2621C40.4845 21.3959 39.2128 19.7925 37.5612 18.662C35.9097 17.5315 33.9554 16.9266 31.9544 16.9268H31.9348C29.372 16.9335 26.9124 17.9384 25.0773 19.7285L25.453 20.1181C27.1875 18.4251 29.5125 17.4745 31.9354 17.4678H31.9544C33.8458 17.4682 35.693 18.0403 37.2541 19.1091C38.8151 20.1779 40.0171 21.6936 40.7028 23.4576C41.3884 25.2216 41.5256 27.1517 41.0964 28.995C40.6672 30.8384 39.6917 32.5091 38.2976 33.7882C37.1856 34.8157 36.5238 36.2408 36.456 37.7539H35.2449V38.2949H37.3649C37.6257 38.2928 37.8769 38.3928 38.065 38.5734C38.2532 38.7541 38.3633 39.0012 38.3719 39.262C38.3739 39.3922 38.35 39.5215 38.3015 39.6424C38.2531 39.7633 38.1812 39.8734 38.0899 39.9662C37.9985 40.059 37.8897 40.1327 37.7697 40.1831C37.6496 40.2334 37.5208 40.2594 37.3906 40.2595H37.3649C37.125 40.2596 36.8949 40.3551 36.7253 40.5249C36.5556 40.6947 36.4602 40.9249 36.46 41.165V43.981C36.4599 44.1852 36.3787 44.381 36.2344 44.5255C36.0901 44.6699 35.8944 44.7511 35.6903 44.7513C35.3056 44.7516 34.9367 44.9047 34.6647 45.1769C34.3926 45.4491 34.2397 45.8182 34.2393 46.2032C34.2391 46.2894 34.2048 46.3721 34.1439 46.433C34.083 46.494 34.0004 46.5283 33.9142 46.5285H29.9986C29.9124 46.5283 29.8298 46.494 29.7689 46.433C29.708 46.3721 29.6737 46.2894 29.6735 46.2032C29.6731 45.8182 29.5201 45.4491 29.2481 45.1769C28.9761 44.9047 28.6072 44.7516 28.2225 44.7513C28.0184 44.7511 27.8227 44.6699 27.6784 44.5255C27.5341 44.381 27.4529 44.1852 27.4528 43.981V41.165C27.4526 40.9249 27.3572 40.6947 27.1875 40.5249C27.0178 40.3551 26.7878 40.2596 26.5478 40.2595C26.2866 40.2621 26.0347 40.1623 25.846 39.9814C25.6573 39.8006 25.5468 39.553 25.5382 39.2917C25.5361 39.1615 25.56 39.0322 25.6084 38.9113C25.6568 38.7904 25.7287 38.6803 25.8201 38.5875C25.9114 38.4948 26.0203 38.4211 26.1404 38.3709C26.2604 38.3206 26.3893 38.2948 26.5195 38.2949H32.4849V37.7539H27.4521C27.3707 36.2258 26.696 34.7899 25.572 33.7524C24.6399 32.8953 23.8925 31.8568 23.3754 30.7006C22.8583 29.5444 22.5824 28.2948 22.5646 27.0282L22.0239 27.0377C22.0429 28.3772 22.3347 29.6988 22.8816 30.9216C23.4284 32.1444 24.2188 33.2427 25.2043 34.1494Z" fill="black"/>
<path d="M17.5623 31.7266H4V32.2676H17.5623V31.7266Z" fill="black"/>
<path d="M60 31.7266H46.4377V32.2676H60V31.7266Z" fill="black"/>
<path d="M32.2256 50.4058H31.6846V60H32.2256V50.4058Z" fill="black"/>
<path d="M52.8411 30.4098L53.3818 30.3693C52.9909 25.247 50.7805 20.4339 47.1507 16.8011C43.5208 13.1684 38.7113 10.9558 33.5925 10.564L33.552 11.105C38.5412 11.4874 43.2289 13.6442 46.7669 17.1851C50.305 20.726 52.4596 25.4172 52.8411 30.4098Z" fill="black"/>
<path d="M32.2256 4H31.6846V13.5943H32.2256V4Z" fill="black"/>
<path d="M29.4004 31.3707C29.8019 31.3707 30.1932 31.1421 30.5628 30.6945C30.7224 30.4996 30.8613 30.2886 30.9771 30.0648C31.1054 29.789 31.2739 29.5337 31.4772 29.3074C31.531 29.2506 31.5957 29.2054 31.6675 29.1744C31.7393 29.1435 31.8167 29.1276 31.8949 29.1276C31.973 29.1276 32.0504 29.1435 32.1222 29.1744C32.194 29.2054 32.2588 29.2506 32.3125 29.3074C32.5156 29.5336 32.6842 29.7886 32.8126 30.0642C32.9285 30.2882 33.0676 30.4995 33.2276 30.6945C33.5972 31.1428 33.9885 31.3707 34.3893 31.3707C34.9441 31.3707 35.4436 30.9312 35.8761 30.0642L35.3922 29.8234C35.1638 30.2819 34.8049 30.829 34.3906 30.8297C33.9041 30.8297 33.4364 30.1034 33.2965 29.8234C33.1441 29.4977 32.9437 29.1968 32.7018 28.9307C32.5975 28.8217 32.4722 28.735 32.3336 28.6757C32.1949 28.6165 32.0457 28.5859 31.8949 28.5859C31.7441 28.5859 31.5948 28.6165 31.4562 28.6757C31.3175 28.735 31.1922 28.8217 31.0879 28.9307C30.8465 29.1971 30.646 29.4979 30.4932 29.8234C30.354 30.1034 29.885 30.8297 29.3998 30.8297C28.9855 30.8297 28.6259 30.2819 28.3982 29.8234L27.9143 30.0648C28.3448 30.9318 28.8449 31.3714 29.4011 31.3714L29.4004 31.3707Z" fill="black"/>
</svg>
