<svg width="79" height="64" viewBox="0 0 79 64" fill="none" xmlns="http://www.w3.org/2000/svg">
<path d="M36.609 55.4646C33.2064 57.8958 29.1246 59.1985 24.9401 59.1889C13.847 59.1889 4.82132 50.1802 4.82132 39.1082C4.82132 28.0361 13.846 19.0275 24.9401 19.0275C27.0932 19.0232 29.2328 19.3662 31.2762 20.0431L31.5314 19.2792C31.2282 19.1785 30.9219 19.0849 30.6127 18.9983L34.9783 11.9917L31.8198 6.35505H33.4333C34.074 6.35387 34.7063 6.50085 35.2805 6.78446C35.8548 7.06807 36.3554 7.48059 36.7431 7.98969L37.3835 7.4995C36.9206 6.89214 36.3231 6.40004 35.6377 6.06177C34.9524 5.72351 34.1979 5.54828 33.4333 5.54981H21.4004C20.0821 5.55115 18.8182 6.07435 17.886 7.00465C16.9537 7.93494 16.4293 9.19634 16.4277 10.5121V11.9827C16.424 12.8027 16.6287 13.6103 17.0227 14.33L19.5509 18.9198C16.072 19.8433 12.8905 21.6468 10.3139 24.1559C7.73722 26.6651 5.85251 29.7952 4.84184 33.2437C3.83116 36.6922 3.72869 40.3426 4.54431 43.8422C5.35993 47.3418 7.06608 50.5723 9.4979 53.2215C11.9297 55.8708 15.005 57.8492 18.4267 58.9657C21.8483 60.0822 25.5006 60.299 29.0307 59.5951C32.5608 58.8913 35.8494 57.2906 38.5787 54.9477C41.3079 52.6048 43.3857 49.5989 44.6111 46.2205L43.8517 45.9477C42.4658 49.7827 39.9387 53.1033 36.609 55.4646ZM25.1589 18.2223L21.3268 12.3843H33.7843L29.7948 18.7859C28.2753 18.4271 26.7204 18.2387 25.1589 18.2243V18.2223ZM30.895 6.35204L33.8196 11.577H21.2602L24.091 6.35204H30.895ZM21.4004 6.35204H23.1733L20.3425 11.577H17.2345V10.5111C17.2358 9.40882 17.6752 8.35208 18.4562 7.57274C19.2372 6.7934 20.296 6.35511 21.4004 6.35405V6.35204ZM17.7306 13.9404C17.4687 13.4592 17.3081 12.9297 17.2587 12.3843H20.3647L24.2029 18.2364C22.9103 18.2792 21.6244 18.4412 20.3617 18.7205L17.7306 13.9404Z" fill="black"/>
<path d="M24.9441 22.4791C26.8069 22.477 28.657 22.7856 30.418 23.392L30.6812 22.6311C28.8356 21.9954 26.8965 21.6719 24.9441 21.6738C22.0214 21.6757 19.1458 22.409 16.5805 23.8067C14.0151 25.2045 11.8419 27.2219 10.2596 29.6746C8.67731 32.1273 7.73648 34.9368 7.52318 37.8462C7.30988 40.7555 7.83092 43.6718 9.03864 46.3283L9.7728 45.9931C8.78359 43.8326 8.27542 41.4837 8.28331 39.1083C8.28331 29.9386 15.758 22.4791 24.9441 22.4791Z" fill="black"/>
<path d="M24.9441 56.542C28.5739 56.5419 32.1136 55.4138 35.0718 53.3142C38.03 51.2146 40.2597 48.2478 41.4515 44.8257L40.6901 44.562C39.7362 47.3027 38.0807 49.7467 35.8881 51.6516C33.6955 53.5565 31.0419 54.856 28.1908 55.4212C25.3396 55.9863 22.3899 55.7975 19.6344 54.8735C16.8789 53.9494 14.4134 52.3222 12.4825 50.1534L11.8774 50.6879C13.5177 52.5293 15.5302 54.0031 17.7824 55.0121C20.0346 56.0211 22.4754 56.5425 24.9441 56.542Z" fill="black"/>
<path d="M54.0744 4C49.7752 4.00022 45.5803 5.32111 42.0592 7.78328C38.5382 10.2455 35.8617 13.7296 34.3933 17.7626C33.9672 18.9397 33.6469 20.1523 33.4362 21.3861C32.7182 25.6739 33.3539 30.0783 35.2552 33.9894C37.1566 37.9005 40.2295 41.1247 44.0483 43.2152C45.145 43.8157 46.2948 44.314 47.4831 44.7039C50.6283 45.7443 53.976 46.0247 57.251 45.5218C60.5259 45.019 63.6345 43.7473 66.3209 41.8114C69.0074 39.8755 71.195 37.3307 72.7038 34.3863C74.2127 31.4419 74.9996 28.182 74.9999 24.8748C74.9999 13.3639 65.6122 4 54.0744 4ZM54.0744 44.9555C51.9204 44.9582 49.78 44.615 47.7352 43.9389C46.5935 43.5639 45.4886 43.0851 44.4345 42.5086C40.7629 40.4988 37.8084 37.3989 35.9803 33.6386C34.1523 29.8782 33.5413 25.6434 34.2319 21.521C34.4345 20.335 34.7419 19.1692 35.1506 18.0373C36.5634 14.1602 39.1371 10.8107 42.5224 8.44352C45.9078 6.07635 49.9409 4.80613 54.0744 4.80524C65.1674 4.80524 74.1932 13.8088 74.1932 24.8748C74.1932 35.9409 65.1674 44.9555 54.0744 44.9555Z" fill="black"/>
<path d="M54.0677 7.55713C50.4617 7.55823 46.9456 8.6798 44.0074 10.7662C41.0692 12.8525 38.8546 15.8002 37.6711 19.1999C37.2473 20.4523 36.9629 21.7475 36.823 23.062C36.7555 23.6636 36.7218 24.2685 36.7222 24.8738C36.7218 28.0159 37.5779 31.0989 39.1988 33.7925C40.8197 36.4861 43.1443 38.6888 45.9236 40.1646C48.7028 41.6404 51.8319 42.3337 54.9758 42.1701C58.1196 42.0066 61.1596 40.9924 63.77 39.2362L63.3183 38.5679C60.8297 40.2439 57.9309 41.2122 54.9329 41.369C51.9349 41.5257 48.9507 40.8651 46.3003 39.4578C43.6498 38.0505 41.4332 35.9497 39.8879 33.3807C38.3427 30.8116 37.5272 27.8712 37.5289 24.8748C37.5273 24.2985 37.5576 23.7225 37.6197 23.1496C37.7554 21.894 38.0294 20.6572 38.4366 19.4616C39.5648 16.2206 41.6759 13.4105 44.477 11.4215C47.2781 9.43258 50.6301 8.36338 54.0677 8.36237C63.1851 8.36237 70.6064 15.7655 70.6064 24.8698C70.609 26.7062 70.3022 28.53 69.6988 30.2649L70.4612 30.5296C71.0932 28.7094 71.4144 26.7962 71.4111 24.8698C71.4061 15.3267 63.6268 7.55713 54.0677 7.55713Z" fill="black"/>
</svg>
