<svg width="192" height="170" viewBox="0 0 192 170" fill="none" xmlns="http://www.w3.org/2000/svg">
<path d="M180.498 65.4946C168.661 35.9746 140.107 35.994 91.4723 38.4972C9.41308 51.4791 52.4478 135.412 80.8737 139.477C137.146 147.524 116.197 101.096 150.692 102.058C167.3 102.521 187.203 82.2169 180.498 65.4946Z" fill="#EAE6DD"/>
<path d="M21.2604 21.5426C12.6697 44.1712 25.6662 62.3774 48.9714 92.125C92.4398 137.844 112.599 67.5222 101.595 47.3119C79.8098 7.30314 67.3598 44.3801 52.1256 21.8827C44.791 11.0512 26.1267 8.72408 21.2604 21.5426Z" fill="#EAE6DD"/>
<g clip-path="url(#clip0_3366_58411)">
<path d="M136.899 57.3896C148.544 59.9113 154.613 71.6433 156.192 77.1941C150.28 74.2599 147.387 82.0981 147.527 82.4276C130.53 83.4214 132.407 96.8806 135.47 103.486C132.076 106.482 134.257 110.092 135.771 111.523C122.684 118.245 98.2096 101.806 100.771 81.2784C103.333 60.7508 122.341 54.2376 136.899 57.3896Z" fill="#DED9CE"/>
<path d="M133.633 70.7631C134.56 72.9465 137.081 73.9651 139.265 73.0384C141.448 72.1116 142.467 69.5903 141.54 67.4069C140.613 65.2236 138.092 64.2049 135.908 65.1317C133.725 66.0585 132.706 68.5798 133.633 70.7631Z" fill="#8E8B7A"/>
<path d="M114.824 74.0815C115.442 75.5371 117.123 76.2162 118.578 75.5983C120.034 74.9805 120.713 73.2996 120.095 71.844C119.477 70.3885 117.797 69.7094 116.341 70.3272C114.885 70.9451 114.206 72.6259 114.824 74.0815Z" fill="#8E8B7A"/>
<path d="M131.245 88.9501C132.017 90.7696 134.118 91.6185 135.937 90.8462C137.757 90.0739 138.606 87.9728 137.833 86.1533C137.061 84.3339 134.96 83.485 133.141 84.2573C131.321 85.0296 130.472 87.1307 131.245 88.9501Z" fill="#8E8B7A"/>
<path d="M143.323 95.4218C143.941 96.8774 145.621 97.5565 147.077 96.9387C148.533 96.3208 149.212 94.64 148.594 93.1844C147.976 91.7288 146.295 91.0497 144.84 91.6676C143.384 92.2854 142.705 93.9663 143.323 95.4218Z" fill="#8E8B7A"/>
<path d="M148.717 111.794C149.49 113.614 151.591 114.463 153.41 113.69C155.23 112.918 156.078 110.817 155.306 108.998C154.534 107.178 152.433 106.329 150.613 107.102C148.794 107.874 147.945 109.975 148.717 111.794Z" fill="#8E8B7A"/>
<path d="M169.223 106.978C169.532 107.706 170.372 108.045 171.1 107.736C171.828 107.427 172.168 106.587 171.859 105.859C171.55 105.131 170.709 104.792 169.982 105.101C169.254 105.41 168.914 106.25 169.223 106.978Z" fill="#8E8B7A"/>
<path d="M124.855 108.704C125.627 110.524 127.728 111.372 129.548 110.6C131.367 109.828 132.216 107.727 131.444 105.907C130.671 104.088 128.57 103.239 126.751 104.011C124.932 104.784 124.083 106.885 124.855 108.704Z" fill="#8E8B7A"/>
<path d="M110.615 95.3083C111.851 98.2194 114.18 100.016 115.818 99.3208C117.455 98.6257 117.781 95.7023 116.545 92.7911C115.309 89.88 112.98 88.0835 111.343 88.7786C109.705 89.4737 109.379 92.3971 110.615 95.3083Z" fill="#8E8B7A"/>
<path d="M133.811 92.6332C133.333 88.6427 137.58 84.6399 140.165 84.3199L138.671 92.442C137.25 94.1684 134.288 96.6237 133.811 92.6332Z" fill="#E5E5E5"/>
</g>
<g filter="url(#filter0_d_3366_58411)">
<path d="M77 109C99.6437 109 118 90.6437 118 68C118 45.3563 99.6437 27 77 27C54.3563 27 36 45.3563 36 68C36 90.6437 54.3563 109 77 109Z" fill="#DED9CE"/>
</g>
<path d="M86.0198 48.3198C89.1899 48.3198 91.7598 45.75 91.7598 42.5798C91.7598 39.4097 89.1899 36.8398 86.0198 36.8398C82.8497 36.8398 80.2798 39.4097 80.2798 42.5798C80.2798 45.75 82.8497 48.3198 86.0198 48.3198Z" fill="#8E8B7A"/>
<path d="M54.04 56.5199C57.663 56.5199 60.6 53.5829 60.6 49.9599C60.6 46.3369 57.663 43.3999 54.04 43.3999C50.417 43.3999 47.48 46.3369 47.48 49.9599C47.48 53.5829 50.417 56.5199 54.04 56.5199Z" fill="#8E8B7A"/>
<path d="M103.24 74.5599C106.863 74.5599 109.8 71.6229 109.8 67.9999C109.8 64.377 106.863 61.4399 103.24 61.4399C99.6172 61.4399 96.6802 64.377 96.6802 67.9999C96.6802 71.6229 99.6172 74.5599 103.24 74.5599Z" fill="#8E8B7A"/>
<path d="M75.3599 76.1999C78.0772 76.1999 80.2799 73.9971 80.2799 71.2799C80.2799 68.5626 78.0772 66.3599 75.3599 66.3599C72.6427 66.3599 70.4399 68.5626 70.4399 71.2799C70.4399 73.9971 72.6427 76.1999 75.3599 76.1999Z" fill="#8E8B7A"/>
<path d="M90.1202 99.1598C92.8374 99.1598 95.0402 96.9571 95.0402 94.2398C95.0402 91.5226 92.8374 89.3198 90.1202 89.3198C87.403 89.3198 85.2002 91.5226 85.2002 94.2398C85.2002 96.9571 87.403 99.1598 90.1202 99.1598Z" fill="#8E8B7A"/>
<path d="M55.6801 92.6C59.3031 92.6 62.2401 89.663 62.2401 86.04C62.2401 82.417 59.3031 79.48 55.6801 79.48C52.0571 79.48 49.1201 82.417 49.1201 86.04C49.1201 89.663 52.0571 92.6 55.6801 92.6Z" fill="#8E8B7A"/>
<path d="M26.5292 109.013C40.3965 115.386 42.3965 99.3862 32.7987 93.2866C25.8965 86.3862 20.1029 76.0748 19.782 69.8716C18.3357 66.4911 14.3822 62.3915 10.1382 73.0368C4.83327 86.3435 16.6452 102.268 26.5292 109.013Z" fill="#EAE6DD" stroke="#EAE6DD"/>
<defs>
<filter id="filter0_d_3366_58411" x="35" y="23" width="90" height="90" filterUnits="userSpaceOnUse" color-interpolation-filters="sRGB">
<feFlood flood-opacity="0" result="BackgroundImageFix"/>
<feColorMatrix in="SourceAlpha" type="matrix" values="0 0 0 0 0 0 0 0 0 0 0 0 0 0 0 0 0 0 127 0" result="hardAlpha"/>
<feOffset dx="3"/>
<feGaussianBlur stdDeviation="2"/>
<feComposite in2="hardAlpha" operator="out"/>
<feColorMatrix type="matrix" values="0 0 0 0 0.541667 0 0 0 0 0.534896 0 0 0 0 0.534896 0 0 0 0.15 0"/>
<feBlend mode="normal" in2="BackgroundImageFix" result="effect1_dropShadow_3366_58411"/>
<feBlend mode="normal" in="SourceGraphic" in2="effect1_dropShadow_3366_58411" result="shape"/>
</filter>
<clipPath id="clip0_3366_58411">
<rect width="68" height="60.8421" fill="white" transform="translate(148.005 46) rotate(67)"/>
</clipPath>
</defs>
</svg>
