<svg width="14" height="14" viewBox="0 0 14 14" fill="none" xmlns="http://www.w3.org/2000/svg">
<path d="M10.707 13C10.6004 13.0004 10.4952 12.9753 10.4003 12.9266L7.00035 11.1466L3.60035 12.9266C3.3751 13.0451 3.10208 13.025 2.89663 12.8748C2.69119 12.7246 2.58917 12.4705 2.63368 12.22L3.30035 8.46664L0.553681 5.79997C0.379051 5.62571 0.314937 5.36925 0.387014 5.13331C0.465843 4.89159 0.675296 4.71575 0.927014 4.67997L4.72701 4.12664L6.40035 0.70664C6.51174 0.476646 6.7448 0.330566 7.00035 0.330566C7.2559 0.330566 7.48896 0.476646 7.60035 0.70664L9.29368 4.11997L13.0937 4.67331C13.3454 4.70908 13.5549 4.88492 13.6337 5.12664C13.7058 5.36258 13.6416 5.61904 13.467 5.79331L10.7203 8.45997L11.387 12.2133C11.4356 12.4685 11.3315 12.7287 11.1203 12.88C10.9996 12.9646 10.8543 13.0068 10.707 13Z" fill="#0033CC"/>
</svg>
