<svg viewBox="0 0 32 32" fill="none" xmlns="http://www.w3.org/2000/svg">
<g clip-path="url(#clip0_1647_68132)">
<circle cx="16" cy="16" r="12" fill="#0033CC" />
<path
      d="M15.5584 11.5806L17.1052 10.0338C17.4244 9.71439 17.8033 9.46095 18.2204 9.288C18.6376 9.11505 19.0847 9.02598 19.5362 9.02588C19.9878 9.02577 20.4349 9.11464 20.8521 9.28739C21.2693 9.46014 21.6484 9.7134 21.9677 10.0327C22.287 10.352 22.5403 10.7311 22.713 11.1483C22.8858 11.5655 22.9746 12.0126 22.9745 12.4642C22.9744 12.9157 22.8854 13.3628 22.7124 13.78C22.5395 14.1971 22.286 14.576 21.9666 14.8952L19.7569 17.1049C19.4377 17.4241 19.0587 17.6773 18.6417 17.8501C18.2246 18.0228 17.7776 18.1117 17.3262 18.1117C16.8748 18.1117 16.4278 18.0228 16.0107 17.8501C15.5937 17.6773 15.2147 17.4241 14.8955 17.1049"
      stroke="#EFEBE4"
      stroke-width="2"
      stroke-linecap="round"
      stroke-linejoin="round"
    />
<path
      d="M16.4415 20.4195L14.8947 21.9663C14.5756 22.2858 14.1966 22.5392 13.7795 22.7121C13.3624 22.8851 12.9152 22.9742 12.4637 22.9743C12.0121 22.9744 11.565 22.8855 11.1478 22.7128C10.7306 22.54 10.3515 22.2867 10.0322 21.9674C9.71291 21.6482 9.45966 21.2691 9.2869 20.8519C9.11415 20.4347 9.02529 19.9875 9.02539 19.536C9.0255 19.0844 9.11457 18.6373 9.28751 18.2202C9.46046 17.8031 9.7139 17.4241 10.0333 17.105L12.2431 14.8952C12.5623 14.576 12.9412 14.3228 13.3583 14.1501C13.7753 13.9773 14.2223 13.8884 14.6737 13.8884C15.1252 13.8884 15.5721 13.9773 15.9892 14.1501C16.4063 14.3228 16.7852 14.576 17.1044 14.8952"
      stroke="#EFEBE4"
      stroke-width="2"
      stroke-linecap="round"
      stroke-linejoin="round"
    />
<circle cx="16" cy="16" r="13" stroke="#0033CC" stroke-width="6" />
</g>
<defs>
<clipPath id="clip0_1647_68132">
<rect width="32" height="32" fill="white" />
</clipPath>
</defs>
</svg>
