<svg width="32" height="32" viewBox="0 0 32 32" fill="none" xmlns="http://www.w3.org/2000/svg">
<circle cx="16" cy="16" r="13.5" stroke="#0033CC" stroke-width="5"/>
<path fill-rule="evenodd" clip-rule="evenodd" d="M15.2399 4.00714C14.6197 4.05479 14.1627 4.11716 13.5952 4.23166C10.7502 4.80562 8.18213 6.4339 6.40889 8.78808C4.04587 11.9252 3.37143 16.0417 4.60757 19.7826C5.43562 22.2886 7.105 24.4846 9.31431 25.9744C10.9639 27.0867 12.78 27.7405 14.8429 27.9646C15.2313 28.0068 16.6668 28.0129 17.0643 27.9741C18.4913 27.8346 19.7632 27.495 21.025 26.9167C22.3591 26.3051 23.7133 25.3336 24.7 24.2804C25.5357 23.3883 26.1597 22.5049 26.6983 21.4516C27.4087 20.0624 27.8179 18.6365 27.9662 17.0331C28.0113 16.5466 28.0113 15.457 27.9662 14.9705C27.7761 12.9155 27.1322 11.0719 26.0101 9.3693C24.5627 7.17321 22.3705 5.47839 19.8772 4.62793C19.0051 4.33048 18.1749 4.14976 17.1777 4.04033C16.9176 4.01178 15.4965 3.98744 15.2399 4.00714ZM20.6328 9.97957L20.628 11.5928L19.5125 11.6022L18.3971 11.6117L18.2585 11.6624C18.055 11.7368 17.9241 11.8212 17.7643 11.9812C17.6045 12.1411 17.5201 12.2721 17.4458 12.4758L17.3952 12.6146L17.3898 13.8777L17.3844 15.1408H18.9542H20.524L20.5229 15.1834C20.5223 15.2068 20.4351 15.9327 20.3291 16.7966L20.1364 18.3672L18.7611 18.3721L17.3858 18.3769L17.381 22.431L17.3762 26.4852L15.7646 26.49L14.1529 26.4948V22.4358V18.3767H12.7634H11.3738V16.7587V15.1408H12.7623H14.1509L14.1576 13.7736C14.1641 12.4728 14.1664 12.3954 14.2052 12.1794C14.2918 11.6968 14.411 11.3277 14.6148 10.9115C14.9789 10.1677 15.5118 9.56358 16.2136 9.09923C16.7413 8.75008 17.4692 8.47899 18.0757 8.40574C18.1693 8.39444 18.2672 8.38212 18.2932 8.37836C18.3191 8.37461 18.8573 8.37037 19.489 8.36895L20.6376 8.36638L20.6328 9.97957Z" fill="#0033CC"/>
</svg>
