<svg width="32" height="32" viewBox="0 0 32 32" fill="none" xmlns="http://www.w3.org/2000/svg">
<path fill-rule="evenodd" clip-rule="evenodd" d="M15.121 4.01159C13.01 4.18156 11.1225 4.82589 9.39039 5.9678C8.02581 6.86741 6.87596 8.01703 5.97104 9.38641C5.66811 9.84481 5.47878 10.1748 5.22896 10.6798C4.55352 12.0451 4.17372 13.4003 4.02523 14.9745C3.99159 15.3313 3.99159 16.6611 4.02523 17.0179C4.14512 18.2889 4.4318 19.4701 4.88853 20.5748C5.0476 20.9595 5.39853 21.6696 5.59912 22.0127C6.54816 23.6358 7.83909 25.0019 9.39039 26.0246C9.8606 26.3346 10.1834 26.519 10.7143 26.781C12.118 27.4736 13.5622 27.8636 15.1588 27.9811C15.4976 28.0061 16.4794 28.0063 16.8231 27.9816C19.3882 27.7966 21.7316 26.8478 23.7168 25.1908C24.2311 24.7614 24.9256 24.0524 25.3471 23.5263C26.7771 21.7412 27.6772 19.5932 27.9236 17.3774C28.0255 16.4608 28.0255 15.5317 27.9236 14.6151C27.7138 12.7289 27.0174 10.8554 25.9333 9.26078C25.4649 8.57182 25.0157 8.03578 24.395 7.42517C22.7808 5.83719 20.7957 4.75657 18.5928 4.26655C18.1216 4.16173 17.6657 4.08992 17.0784 4.02797C16.8263 4.00137 15.3965 3.98941 15.121 4.01159ZM19.6122 8.3206C20.4815 8.47841 21.2495 8.82226 21.8954 9.34287C22.5058 9.83484 23.0192 10.5066 23.3181 11.2044C23.4818 11.5865 23.5752 11.8977 23.6633 12.3543L23.7053 12.5717L23.7122 15.8543C23.717 18.1551 23.7129 19.1991 23.6982 19.345C23.5879 20.4466 23.086 21.4961 22.2874 22.295C21.8951 22.6874 21.5061 22.9657 20.9934 23.2209C20.5524 23.4405 20.1334 23.5772 19.6122 23.6718L19.3763 23.7146L16.1328 23.7208C13.8189 23.7253 12.8269 23.7209 12.6718 23.7057C11.5794 23.5983 10.5673 23.1301 9.77447 22.3656C9.344 21.9505 9.01919 21.5078 8.76636 20.9915C8.59768 20.6471 8.49841 20.3775 8.41086 20.0261C8.26591 19.4445 8.27454 19.6995 8.27454 15.9962C8.27454 12.293 8.26591 12.548 8.41086 11.9663C8.5423 11.4388 8.77304 10.9161 9.07502 10.4617C9.87828 9.2531 11.1416 8.47165 12.5772 8.29551C12.7332 8.27635 13.4828 8.27184 16.0761 8.27445L19.3763 8.27778L19.6122 8.3206ZM12.6434 9.71648C11.1497 9.94758 9.98866 11.081 9.72796 12.5623C9.69487 12.7503 9.69299 12.9335 9.69299 15.9962C9.69299 19.0589 9.69487 19.2421 9.72796 19.4301C9.92146 20.5296 10.6273 21.4711 11.6221 21.9564C11.8811 22.0828 12.1568 22.1784 12.453 22.2445L12.6812 22.2954L15.868 22.302C19.3098 22.3091 19.2672 22.3101 19.6768 22.2076C20.9867 21.8799 21.9748 20.8393 22.2455 19.5027L22.2889 19.2882V15.9962V12.7042L22.2455 12.4897C21.9494 11.0278 20.7871 9.92272 19.3274 9.71516C19.043 9.67474 12.9053 9.67593 12.6434 9.71648ZM20.2369 11.0491C20.43 11.0791 20.6439 11.1937 20.7816 11.341C21.1468 11.7315 21.1383 12.3008 20.7616 12.6776C20.476 12.9633 20.0497 13.0356 19.6841 12.8605C19.3342 12.6928 19.1394 12.3802 19.1403 11.988C19.1415 11.4678 19.5297 11.0716 20.0761 11.0327C20.0969 11.0313 20.1692 11.0386 20.2369 11.0491ZM16.6243 12.0034C17.3356 12.1252 17.9849 12.415 18.5253 12.8519C18.7214 13.0106 19.0623 13.362 19.213 13.5609C20.0231 14.6305 20.2483 16.0411 19.8118 17.3111C19.6674 17.7311 19.3896 18.2268 19.1129 18.5579C18.9486 18.7546 18.6147 19.0758 18.4254 19.2194C17.9036 19.615 17.3044 19.8705 16.6143 19.9916C16.3267 20.0421 15.6142 20.0374 15.3195 19.9831C14.4677 19.8262 13.7459 19.449 13.1427 18.8455C12.1693 17.8718 11.7662 16.5349 12.0382 15.1827C12.1924 14.4163 12.5706 13.7192 13.1427 13.1469C13.8015 12.4878 14.6144 12.0921 15.5465 11.9768C15.7563 11.9509 16.4119 11.9671 16.6243 12.0034ZM15.5938 13.4034C14.513 13.5733 13.6579 14.3849 13.4248 15.4617C13.3645 15.7405 13.3645 16.2518 13.4248 16.5304C13.6485 17.564 14.4319 18.3445 15.4708 18.5688C15.6984 18.618 16.1405 18.6277 16.3881 18.589C17.5204 18.4121 18.3973 17.5423 18.5823 16.4124C18.6181 16.1942 18.6181 15.7982 18.5823 15.58C18.4251 14.62 17.7674 13.8367 16.8515 13.5184C16.4718 13.3864 15.9847 13.3419 15.5938 13.4034Z" fill="#0033CC"/>
<circle cx="16" cy="16" r="12.5" stroke="#0033CC" stroke-width="7"/>
</svg>
