<svg width="32" height="32" viewBox="0 0 32 32" fill="none" xmlns="http://www.w3.org/2000/svg">
<g clip-path="url(#clip0_1647_68172)">
<circle cx="16" cy="16" r="12" fill="#0033CC"/>
<path fill-rule="evenodd" clip-rule="evenodd" d="M10.5388 9.00788C10.5259 9.0104 10.4629 9.0209 10.3987 9.03122C9.6777 9.14717 9.1316 9.70975 9.02283 10.4486C8.99259 10.6542 8.99245 10.7398 9.02208 10.9364C9.08089 11.3266 9.23198 11.6273 9.50505 11.8977C9.70951 12.1002 9.98525 12.2582 10.2587 12.3295C10.4609 12.3823 10.8196 12.3898 11.0334 12.3457C11.7699 12.1941 12.3104 11.587 12.3733 10.8407C12.4406 10.0438 11.9452 9.30038 11.2 9.07981C10.9949 9.0191 10.6648 8.98319 10.5388 9.00788ZM19.0958 13.4276C18.6726 13.4785 18.368 13.5656 18.0145 13.7366C17.557 13.9581 17.1333 14.3221 16.837 14.7482C16.7929 14.8117 16.7524 14.861 16.7471 14.8577C16.7418 14.8545 16.7385 14.594 16.7399 14.2789C16.7418 13.8148 16.7382 13.6994 16.7207 13.6711L16.6992 13.6361H15.347C14.1386 13.6361 13.9923 13.6387 13.9705 13.6605C13.9484 13.6826 13.946 14.1257 13.946 18.3043V22.9237L13.9827 22.9477C14.0152 22.969 14.1789 22.9712 15.4211 22.9675C16.3684 22.9647 16.8281 22.958 16.839 22.947C16.8501 22.936 16.8571 22.1325 16.861 20.411C16.867 17.7486 16.8675 17.73 16.9416 17.36C17.1198 16.4703 17.5863 16.0359 18.4268 15.9773C18.6097 15.9646 18.9096 15.9912 19.0647 16.034C19.5794 16.1758 19.8931 16.5937 20.0213 17.3078C20.0629 17.5398 20.072 18.1172 20.0736 20.6218L20.0751 22.9166L20.1089 22.9442C20.1408 22.9703 20.2214 22.9716 21.5498 22.9676C22.9362 22.9634 22.9572 22.9628 22.98 22.9322C23.0144 22.8857 23.0012 17.9178 22.9647 17.2145C22.9252 16.4531 22.9071 16.2812 22.829 15.9231C22.5908 14.8321 22.1033 14.1343 21.3129 13.7531C20.9673 13.5864 20.5048 13.4657 20.0316 13.4187C19.8107 13.3968 19.3126 13.4015 19.0958 13.4276ZM9.25054 13.6547C9.2361 13.6692 9.23187 14.7196 9.23187 18.2882C9.23187 22.2491 9.235 22.9072 9.25395 22.9331C9.27553 22.9626 9.3083 22.9633 10.6907 22.9633C11.8669 22.9633 12.1097 22.9597 12.1311 22.9419C12.1549 22.9222 12.1568 22.5793 12.1568 18.3028C12.1568 14.1255 12.1545 13.6826 12.1324 13.6605C12.1105 13.6387 11.9582 13.6361 10.6886 13.6361C9.60537 13.6361 9.26479 13.6405 9.25054 13.6547Z" fill="#EFEBE4"/>
<circle cx="16" cy="16" r="13" stroke="#0033CC" stroke-width="6"/>
</g>
<defs>
<clipPath id="clip0_1647_68172">
<rect width="32" height="32" fill="white"/>
</clipPath>
</defs>
</svg>
