<svg width="32" height="32" viewBox="0 0 32 32" fill="none" xmlns="http://www.w3.org/2000/svg">
<path fill-rule="evenodd" clip-rule="evenodd" d="M15.3275 4.00664C15.2859 4.01053 15.1327 4.0229 14.9871 4.03409C13.5084 4.14785 11.9804 4.57998 10.6099 5.27204C7.01779 7.08587 4.56127 10.5775 4.08553 14.5457C3.97477 15.4696 3.97155 16.4327 4.07608 17.3723C4.23275 18.7803 4.686 20.262 5.34469 21.5193C5.9722 22.7172 6.82819 23.8492 7.77208 24.7293C9.45249 26.2962 11.4495 27.3282 13.6538 27.7687C15.075 28.0526 16.5393 28.0753 17.9847 27.8358C20.8961 27.3533 23.5197 25.8101 25.3912 23.4793C26.2489 22.4111 26.9662 21.0937 27.4038 19.7829C27.6782 18.9608 27.8641 18.0798 27.9642 17.1265C28.0065 16.7236 28.013 15.362 27.9745 14.9711C27.7135 12.3202 26.7609 10.085 25.0415 8.08888C24.8173 7.82858 24.1489 7.16281 23.8853 6.93722C21.9307 5.26432 19.6994 4.30465 17.1526 4.04152C16.8783 4.0132 15.5319 3.98745 15.3275 4.00664ZM22.9642 11.2248C23.0141 11.2442 23.0524 11.2665 23.0494 11.2746C23.0369 11.307 17.5019 16.9461 17.3748 17.0558C17.1686 17.2338 16.8692 17.3798 16.5663 17.4499C16.3754 17.4941 15.8053 17.5053 15.5734 17.4695C15.2531 17.4199 14.9542 17.2995 14.7215 17.126C14.6237 17.0532 8.98277 11.318 8.96756 11.276C8.95951 11.2537 9.06171 11.2161 9.17554 11.1994C9.23058 11.1913 12.3351 11.1858 16.0746 11.1872C22.6545 11.1896 22.8765 11.1908 22.9642 11.2248ZM10.3463 13.4916C11.3272 14.4925 12.2812 15.465 12.4662 15.6527L12.8025 15.994L10.6913 18.1484C9.53019 19.3334 8.57328 20.3056 8.56488 20.3088C8.55647 20.3121 8.53848 20.2781 8.5249 20.2332C8.48719 20.1087 8.48855 11.8915 8.5263 11.7616C8.54066 11.7122 8.55475 11.6718 8.55764 11.6718C8.56052 11.6718 9.36542 12.4907 10.3463 13.4916ZM23.5062 11.8578C23.5212 11.9479 23.5255 13.1472 23.5213 16.0677C23.5165 19.4385 23.5111 20.1658 23.4899 20.2327C23.4758 20.2773 23.4572 20.3114 23.4487 20.3084C23.4401 20.3053 22.4838 19.3343 21.3236 18.1504L19.2141 15.9979L19.6065 15.5935C19.8223 15.3711 20.7733 14.3989 21.7199 13.433C23.1411 11.9828 23.4448 11.6817 23.4631 11.7044C23.4753 11.7195 23.4947 11.7885 23.5062 11.8578ZM14.3835 17.564C14.6918 17.7922 15.0919 17.9572 15.4742 18.014C15.7292 18.0519 16.2853 18.0529 16.5285 18.016C16.9075 17.9584 17.2274 17.834 17.5487 17.6191C17.6921 17.5232 17.8334 17.3936 18.234 16.9909C18.5115 16.7119 18.7557 16.4624 18.7767 16.4364L18.8149 16.3891L18.9932 16.5687C20.1698 17.7537 23.0528 20.7174 23.0407 20.7295C23.032 20.7381 22.9741 20.7585 22.9121 20.7746C22.8112 20.8008 22.0848 20.8039 16.0091 20.8036C9.04346 20.8033 9.09435 20.8038 8.98082 20.7366C8.95658 20.7222 9.35736 20.3042 11.0706 18.5568L13.1904 16.3948L13.7105 16.9228C14.0102 17.2271 14.2954 17.4988 14.3835 17.564Z" fill="#0033CC"/>
<circle cx="16" cy="16" r="12.5" stroke="#0033CC" stroke-width="7"/>
</svg>
