<svg width="32" height="32" viewBox="0 0 32 32" fill="none" xmlns="http://www.w3.org/2000/svg">
<path fill-rule="evenodd" clip-rule="evenodd" d="M15.1611 4.01195C11.659 4.27455 8.50739 5.99284 6.40581 8.78549C4.5751 11.2182 3.74636 14.2312 4.06778 17.2855C4.35707 20.0343 5.62384 22.6356 7.62242 24.5846C10.3094 27.2052 14.0352 28.4148 17.7505 27.873C21.5868 27.3135 24.9524 24.8844 26.7081 21.4078C26.8158 21.1946 26.9557 20.9002 27.0189 20.7536C28.5529 17.1995 28.2748 13.091 26.2775 9.79716C24.4227 6.73836 21.3247 4.65896 17.8261 4.12446C17.2089 4.03017 16.8962 4.00748 16.1251 4.00107C15.7197 3.99769 15.2859 4.00259 15.1611 4.01195ZM19.3384 10.2615C19.9389 10.353 20.508 10.643 20.9513 11.0837L21.1076 11.2389L21.2246 11.2263C21.8673 11.1569 22.3866 10.9515 22.6444 10.6645L22.7308 10.5684V10.6241C22.7308 10.7823 22.601 11.1329 22.4618 11.3506C22.309 11.5896 22.0172 11.8789 21.7537 12.0526C21.6892 12.0951 21.6416 12.138 21.6478 12.1481C21.6668 12.1789 22.228 12.1479 22.4128 12.1059C22.6365 12.055 22.8458 11.9645 22.9872 11.8574L23.1054 11.7679L23.0692 11.873C22.9123 12.3294 22.5093 12.7497 21.9896 12.999L21.8248 13.078L21.8241 13.3428C21.8217 14.2483 21.6109 15.4382 21.2766 16.4345C20.723 18.0841 19.8321 19.3628 18.601 20.2746C18.0292 20.6981 17.1982 21.117 16.4653 21.351C14.5263 21.9701 12.1928 21.8857 9.86441 21.1123C9.57465 21.0161 9.07292 20.8264 8.97696 20.7768C8.94517 20.7604 9.07362 20.7554 9.52507 20.7554C10.1461 20.7554 10.3644 20.7395 10.8403 20.6595C11.8836 20.4842 12.6859 20.1011 13.2227 19.5218C13.3065 19.4313 13.3751 19.3519 13.3751 19.3453C13.3751 19.3386 13.2709 19.3283 13.1435 19.3223C12.1006 19.2732 11.1703 18.7179 10.7667 17.9035C10.6709 17.7101 10.5734 17.4144 10.598 17.392C10.6025 17.388 10.6827 17.4015 10.7762 17.4222C10.9132 17.4524 11.0219 17.46 11.3338 17.4614C11.7288 17.4632 11.875 17.4494 12.2505 17.3752C12.4849 17.3288 12.4913 17.3331 12.1182 17.2864C11.5918 17.2205 11.0396 16.9859 10.6138 16.6474C10.0869 16.2285 9.72302 15.6516 9.62271 15.0761C9.59478 14.9158 9.58814 14.6068 9.61101 14.5314C9.62292 14.4921 9.62755 14.4933 9.75997 14.5712C10.0277 14.7287 10.4796 14.8784 10.9071 14.9513C11.006 14.9682 11.0972 14.9786 11.1097 14.9744C11.1222 14.9702 11.0863 14.9407 11.0299 14.9089C10.7236 14.7356 10.293 14.3386 10.0731 14.0268C9.48793 13.1968 9.34525 12.1201 9.71655 11.3359C9.79773 11.1644 9.95946 10.9126 9.9881 10.9131C9.99536 10.9132 10.0385 10.9848 10.084 11.0722C10.4575 11.7903 11.4387 12.5841 12.63 13.1318C13.7985 13.669 15.0629 14.0139 15.864 14.014C15.9805 14.0141 15.981 14.0143 15.9869 14.0718C15.9922 14.1236 15.9962 14.127 16.0266 14.1046C16.059 14.0807 16.0584 14.0711 16.014 13.8876C15.9417 13.5888 15.9196 13.3618 15.9328 13.0511C15.9565 12.4893 16.1253 11.9792 16.4433 11.5085C16.6021 11.2734 16.9978 10.8802 17.2308 10.7261C17.8624 10.308 18.5905 10.1475 19.3384 10.2615Z" fill="#0033CC"/>
<circle cx="16" cy="16" r="12.5" stroke="#0033CC" stroke-width="7"/>
</svg>
