<svg width="32" height="32" viewBox="0 0 32 32" fill="none" xmlns="http://www.w3.org/2000/svg">
<g clip-path="url(#clip0_3135_66521)">
<path fill-rule="evenodd" clip-rule="evenodd" d="M15.2845 4.00927C11.5701 4.22737 8.1305 6.19733 6.04506 9.30095C5.24251 10.4954 4.69348 11.7309 4.34869 13.1184C3.81356 15.2718 3.89605 17.5738 4.58457 19.7C5.78481 23.4065 8.78152 26.3511 12.5007 27.4785C15.4676 28.3778 18.6443 28.107 21.3918 26.7205C24.7883 25.0064 27.1794 21.7977 27.8296 18.0812C27.9606 17.3322 27.9999 16.8504 28 15.9921C28.0001 15.2577 27.985 15.0076 27.904 14.3999C27.4807 11.2224 25.7956 8.34563 23.2205 6.40441C21.3533 4.99676 19.1488 4.17682 16.7972 4.01536C16.5488 3.99833 15.5403 3.99426 15.2845 4.00927ZM18.1302 10.5657C19.0757 10.596 20.327 10.6401 21.0902 10.6701C21.3481 10.6802 21.6231 10.7013 21.709 10.7176C22.4525 10.8586 23.0675 11.3267 23.3973 12.0025C23.5946 12.4066 23.6165 12.5219 23.6798 13.487C23.8238 15.6851 23.8276 15.9129 23.745 17.3722C23.6694 18.7075 23.6231 19.3212 23.5866 19.4717C23.4716 19.9461 23.2568 20.3217 22.912 20.6514C22.5242 21.022 22.0444 21.2447 21.5242 21.2956C21.415 21.3063 20.8449 21.3318 20.2573 21.3524C19.6698 21.3729 18.7806 21.4042 18.2815 21.4218C17.0459 21.4654 14.9658 21.4654 13.7246 21.4218C11.3464 21.3382 10.7067 21.3144 10.5578 21.3039C9.42912 21.224 8.49985 20.3281 8.38285 19.2069C8.37194 19.1025 8.34193 18.6682 8.31614 18.2419C8.18 15.9907 8.18 15.8774 8.31655 13.695C8.34289 13.2739 8.37657 12.8343 8.39137 12.7182C8.51828 11.7232 9.31524 10.8923 10.3117 10.7161C10.4714 10.6878 10.6776 10.6777 12.1836 10.6237C14.6976 10.5336 15.2494 10.521 16.2961 10.5295C16.8161 10.5337 17.6414 10.55 18.1302 10.5657ZM14.377 15.9925C14.377 17.303 14.3842 18.3651 14.3931 18.3616C14.427 18.3485 18.4237 15.9957 18.4189 15.9918C18.4154 15.989 14.5932 13.7433 14.3911 13.6254C14.3833 13.6209 14.377 14.6861 14.377 15.9925Z" fill="#0033CC"/>
<circle cx="16" cy="16" r="12.5" stroke="#0033CC" stroke-width="7"/>
</g>
<defs>
<clipPath id="clip0_3135_66521">
<rect width="32" height="32" fill="white"/>
</clipPath>
</defs>
</svg>
